<?xml version="1.0" encoding="utf-8"?>
<!-- Generator: Adobe Illustrator 16.0.0, SVG Export Plug-In . SVG Version: 6.00 Build 0)  -->
<!DOCTYPE svg PUBLIC "-//W3C//DTD SVG 1.1//EN" "http://www.w3.org/Graphics/SVG/1.1/DTD/svg11.dtd">
<svg version="1.1" id="Capa_1" xmlns="http://www.w3.org/2000/svg" xmlns:xlink="http://www.w3.org/1999/xlink" x="0px" y="0px"
	 width="200px" height="200px" viewBox="0 0 200 200" enable-background="new 0 0 200 200" xml:space="preserve">
<g>
	<path fill="#B3A895" d="M116.082,83.739c1.776-0.487,2.475-1.761,2.713-2.935c0,0,0.084-2.318-1.55-2.628
		c-1.094-0.077-2.657,0.061-4.353,0.938c-3.184,1.66-0.905,6.281-0.905,6.281S113.946,84.318,116.082,83.739 M169.076,84.826
		c-0.975-0.25-1.86-0.309-2.555-0.268c-0.566,0.111-0.92,0.473-1.146,0.892c0.062-0.738,0-1.519-0.342-2.206l0.274,0.095
		C166.922,83.779,168.44,84.504,169.076,84.826 M162.533,94.141c-0.502,0.091-0.832,0.384-1.057,0.74l-0.033-0.086l0.961-2.072
		c1.844,0.601,3.405,1.444,3.405,1.444l0.022-0.024l0.165,0.549C164.649,94.172,163.433,94.076,162.533,94.141 M164.994,87.225
		l0.294,0.919l-0.39-0.248l-0.132-0.06L164.994,87.225z M160.541,86.951c-0.586,0.11-0.941,0.494-1.178,0.929
		c-0.129-0.938-0.577-1.833-1.645-2.384l-1.082-0.455l0.084-0.635c0.202-0.475,0.692-1.73,0.698-3.036
		c0.216-0.817,0.445-1.627,0.658-2.454c1.637,0.579,2.945,1.288,2.945,1.288s1.065-2.173,0.712-4.077
		c0.396,0.359,0.911,0.647,1.578,0.826c0.922,0.258,1.811,0.604,2.521,0.908c-0.633-0.091-1.216-0.11-1.7-0.088
		c-1.632,0.31-1.542,2.627-1.542,2.627l0.44,1.221c-1.43-0.59-2.738-0.711-3.688-0.645c-1.625,0.299-1.541,2.615-1.541,2.615
		c0.238,1.186,0.937,2.453,2.716,2.94c0.504,0.138,0.995,0.3,1.463,0.478C161.449,86.948,160.953,86.929,160.541,86.951
		 M159.619,93.27c-1.102-0.492-2.139-0.697-3.002-0.736c-0.05-0.583-0.09-1.166-0.126-1.738c1.239,0.496,2.136,0.98,2.136,0.98
		s0.322-0.652,0.555-1.55c0.21,0.579,0.555,1.14,1.112,1.575L159.619,93.27z M157.187,98.508l-0.036-0.34l0.168,0.05L157.187,98.508
		z M156.191,108.094l-0.771-0.324l0.064-0.143l1.042,0.442l0.06,0.024H156.191z M155.323,102.523
		c-1.587,0.346-1.517,2.605-1.517,2.605l0.112,0.426l-0.81,1.742h-0.939c-1.634,0.311-1.553,2.623-1.553,2.623
		c0.104,0.496,0.292,1.001,0.592,1.462l-0.549,1.185c-0.631-0.09-1.211-0.109-1.688-0.08l-0.171,0.065
		c-0.496-0.034-1.093-0.011-1.746,0.097c1.491-0.557,2.116-1.715,2.34-2.805c0,0,0.021-1.133-0.51-1.922
		c0.586-0.227,1.225-0.465,1.897-0.643c1.779-0.489,2.477-1.759,2.715-2.943c0,0,0.045-1.259-0.591-2.047l0.664-0.201
		c0.555-0.147,0.992-0.374,1.362-0.65l0.414,1.018L155.323,102.523z M147.916,118.477l-0.017-0.436l0.267-0.091L147.916,118.477z
		 M146.624,103.429c-0.129-0.586-0.414-1.274-1.087-1.579l0.378-1.099v-0.034l1.262,1.095l0.754-0.87l-1.69-1.479l0.841-0.521v0.016
		l0.216-0.11l1.093-0.349c0.642-0.177,1.132-0.448,1.524-0.787l0.208-0.074c-1.665,1.07-1.564,3.051-1.211,4.468
		c-0.423,0.136-0.86,0.315-1.312,0.546L146.624,103.429z M145.324,107.477l-0.188-0.696l0.778-0.693l0.196,1.214L145.324,107.477z
		 M143.443,72.77c-0.706-0.365-1.379-0.58-2.018-0.727l0.109-0.416c0,0,0.014-0.639-0.196-1.279c0.393-0.18,0.85-0.365,1.351-0.54
		l-0.05,0.622c0.246,1.178,0.938,2.452,2.721,2.938l0.88,0.267c0.238,1.178,0.937,2.44,2.704,2.922
		c0.866,0.237,1.685,0.547,2.382,0.84c-1.568,0.352-1.507,2.605-1.507,2.605l0.12,0.438l-0.779-0.17
		c-0.235-0.621-0.684-1.171-1.423-1.559l-0.407-0.166c0.27-1.461,0.188-3.293-1.574-4.215l-1.121-0.475
		C144.368,73.43,143.99,73.049,143.443,72.77 M141.219,44.403c-1.673,0.878-1.844,2.558-1.62,3.964
		c-0.815,0.605-0.905,1.881-0.905,2.236l-1.022,0.394c-0.207-0.517-0.586-1.017-1.272-1.146h-0.465
		c0.487-0.416,0.799-0.917,0.998-1.444c0.84-0.612,1.241-1.484,1.406-2.311c0,0,0.014-0.638-0.193-1.282
		c0.742-0.326,1.679-0.7,2.665-0.964c0.673-0.189,1.196-0.484,1.586-0.844c0.328,0.238,0.724,0.447,1.191,0.588
		C142.858,43.724,142.057,43.977,141.219,44.403 M141.062,85.793V85.76l0.022,0.023L141.062,85.793z M140.283,83.413l-0.92-0.705
		c-1.448-0.753-2.774-0.948-3.822-0.948l0.012-0.003l1.271-0.416c1.06-0.283,1.719-0.847,2.136-1.503
		c0.286,0.832,0.838,1.631,1.872,2.111L140.283,83.413z M140.02,99.059c-0.519,0.273-0.886,0.627-1.141,1.025l-0.424-0.686
		c0.093-0.045,1.031-0.539,2.268-1.021l0.033,0.371L140.02,99.059z M139.445,120.883l1.006-0.334l0.062,1.268L139.445,120.883z
		 M137.626,115.818l-0.978,0.774c-0.141-0.68-0.499-1.533-1.443-1.708c-0.65-0.052-1.477,0.006-2.382,0.215l-0.902-0.788
		c0.672-0.335,2.144-1.019,3.707-1.452c0.611-0.168,1.09-0.437,1.477-0.758l0.015,0.023l0.384-0.205l1.028,1.128l0.3,0.728
		l0.244-0.123l0.027,0.027c-0.053,0.516-0.008,1.038,0.076,1.529C138.68,115.353,138.161,115.539,137.626,115.818 M129.132,100.994
		l-0.196-0.804c0.443-0.169,0.914-0.327,1.394-0.46c0.33,1.383,0.754,2.702,1.241,3.688l0.033,0.29L129.132,100.994z
		 M128.162,111.039c0.749-0.327,1.679-0.698,2.663-0.965l0.095-0.033c-0.393,1.27-0.03,2.738,0.274,3.639L128.162,111.039z
		 M127.645,105.446c-0.973,0.505-1.44,1.292-1.617,2.138l-0.847-0.477c-0.417-0.027-0.916-0.008-1.448,0.057l-1.256-1.093
		c0.451-0.237,2.149-1.087,3.974-1.585c1.337-0.361,2.058-1.176,2.436-2.05l1.911,2.108
		C129.869,104.619,128.793,104.854,127.645,105.446 M124.13,95.498c0.745-0.329,1.707-0.713,2.716-0.986
		c1.782-0.489,2.479-1.758,2.718-2.945l-0.008-0.221l0.084-0.023c0.883-0.24,1.496-0.671,1.925-1.195
		c0.059,0.847,0.286,1.637,0.488,2.17l-0.449,0.189c-0.812,0.421-1.267,1.039-1.499,1.713c-0.863,0.104-1.818,0.345-2.847,0.871
		c-0.965,0.499-1.421,1.268-1.606,2.101L124.13,95.498z M122.277,91.346c-0.526-0.023-1.126-0.011-1.81,0.113l-1.536-1.68
		l-0.014-0.072c0.771-0.359,1.916-0.852,3.141-1.18c0.947-0.261,1.587-0.74,2.001-1.303c0.222,1.201,0.685,2.157,0.685,2.157
		l0.024-0.013l-0.005,0.049l-1.107,0.469C122.961,90.255,122.53,90.766,122.277,91.346 M118.971,91.908l0.09-0.284l0.157,0.167
		L118.971,91.908z M126.417,81.409l-0.06,0.692l-0.51-0.445L126.417,81.409z M124.749,73.514l0.508-0.146
		c1.782-0.486,2.469-1.761,2.71-2.938l-0.025-0.558c0.709-0.303,1.58-0.642,2.491-0.892c0.718-0.195,1.25-0.518,1.653-0.904
		c0.944,0.475,1.85,0.938,2.668,1.38l0.647,0.413l-0.196-0.068c-0.499-0.039-1.102-0.013-1.755,0.088l-0.246-0.088
		c-1.099-0.072-2.659,0.062-4.354,0.943c-1.912,0.99-1.853,3.043-1.502,4.537l-0.398,0.107l-1.012,0.081
		C125.87,74.845,125.604,73.883,124.749,73.514 M128.376,59.263c0,0,0.008-0.532-0.151-1.112c0.549-0.188,0.997-0.426,1.339-0.732
		l1.076-0.346c-0.538,1.257-0.227,2.809,0.099,3.795l-0.689,0.297c-0.905,0.465-1.346,1.172-1.556,1.932
		c-0.871-0.357-1.731-0.691-2.604-0.982C127.487,61.583,128.141,60.379,128.376,59.263 M128.844,49.832l0.731-0.283
		c0.069,0.784,0.274,1.508,0.462,2.018c-0.516,0.098-1.09,0.277-1.673,0.517l0.012-0.003c0,0,0.02-1.145-0.519-1.939L128.844,49.832
		z M138.032,69.114l-1.208-1.048c0.598-0.244,1.275-0.489,1.993-0.68l0.333-0.123c-0.062,0.588-0.014,1.189,0.096,1.73
		L138.032,69.114z M133.636,76.72l-0.631,0.436c-0.457,0.091-0.944,0.258-1.44,0.462v-0.01c0,0,0.014-0.635-0.199-1.279
		c0.731-0.327,1.679-0.693,2.66-0.967l0.319-0.109c0.193,0.582,0.375,0.966,0.375,0.966s1.312-0.704,2.951-1.284l0.39,0.874
		l-0.064-0.019C136.9,75.711,135.334,75.844,133.636,76.72 M131.416,83.681c0.535-0.173,0.956-0.409,1.301-0.694l0.008,0.011
		l0.205-0.11l0.986-0.309c-0.477,0.78-0.454,1.816-0.454,1.816c0.135,0.63,0.403,1.281,0.883,1.832l-1.112,0.468l-0.86,0.66
		l-0.174-0.149c-0.146-0.521-0.451-1.055-1.023-1.312l0.39-1.102C131.564,84.791,131.57,84.26,131.416,83.681 M133.681,107.715
		l-0.354,0.15l0.132-0.401L133.681,107.715z M138.428,103.178c0.213,1.205,0.687,2.158,0.687,2.158l0.02-0.01l-0.006,0.049
		l-1.101,0.468c-0.709,0.366-1.139,0.886-1.394,1.454c-0.484-0.018-1.054,0-1.676,0.099l-1.07-1.157l-0.022-0.834
		c0.718-0.316,1.62-0.66,2.556-0.918C137.365,104.227,137.996,103.746,138.428,103.178 M137.906,97.979
		c0.188,0.682,0.412,1.2,0.493,1.379l-0.804-0.434c-1.096-0.077-2.66,0.057-4.363,0.935l-0.65,0.456
		c-0.19-0.482-0.384-0.961-0.586-1.436l0.812-1.09c0.6-0.238,1.275-0.484,1.973-0.682c0.508-0.133,0.911-0.342,1.256-0.581
		c0.225,1.142,0.656,2.033,0.656,2.033S137.178,98.307,137.906,97.979 M139.649,91.554c-0.561,0.126-1.146,0.322-1.763,0.618
		l-1.109-0.977c1.49-0.539,2.121-1.686,2.356-2.773l0.014,0.01C139.027,89.617,139.375,90.845,139.649,91.554 M139.515,77.104
		l-0.132,0.141l-0.095-0.262L139.515,77.104z M137.906,56.708l0.642-0.261l0.771,1.198c-1.303,1.112-1.186,2.926-0.863,4.244
		l-1.235,0.257c-0.232-0.361-0.566-0.674-1.076-0.768l-0.468-0.008c-0.171-0.423-0.471-0.816-0.934-1.019l0.482-0.148
		c1.782-0.489,2.48-1.761,2.721-2.942L137.906,56.708z M131.478,43.401l0.048,0.106c0,0,1.973-1.08,4.103-1.659l0.334-0.11
		c-0.07,0.578-0.012,1.188,0.089,1.725c-1.012,0.027-2.267,0.248-3.614,0.94c-0.516,0.272-0.886,0.632-1.144,1.021l-0.785-0.975
		L131.478,43.401z M138.862,36.074l0.658-0.239c0,0.982,0.267,1.944,0.484,2.567c-0.519,0.095-1.084,0.273-1.667,0.514v-0.007
		c0,0,0.053-1.669-0.934-2.36C137.87,36.379,138.352,36.219,138.862,36.074 M146.021,57.223l-0.095,0.091l0.009-0.126
		L146.021,57.223z M144.402,37.465c1.177-0.32,1.875-0.982,2.275-1.738l0.717,0.299c-0.397,0.762-0.363,1.689-0.363,1.689
		c0.24,1.179,0.93,2.455,2.727,2.943c1.398,0.377,2.715,0.973,3.455,1.33c-0.208,0.66-0.196,1.312-0.196,1.312
		c0.235,1.181,0.928,2.449,2.71,2.941c1.235,0.332,2.391,0.826,3.161,1.188c-0.766,0.518-1.553,1.137-2.32,1.771l-0.289,0.175
		c-0.255-0.544-0.675-1.031-1.354-1.376c-1.199-0.632-2.337-0.869-3.293-0.93c0.463-1.166,1.511-4.496-1.093-5.852
		c-0.793-0.415-1.563-0.652-2.272-0.792c-0.255-0.561-0.679-1.056-1.362-1.417c-1.684-0.865-3.22-1.006-4.318-0.934
		C143.146,37.862,143.764,37.637,144.402,37.465 M151.663,53.268l0.112-0.635l0.538,0.168L151.663,53.268z M158.122,54.621
		l1.136,0.353c-0.956,0.339-1.9,0.768-2.893,1.312c-0.516-0.053-1-0.074-1.409-0.049c-0.931,0.172-1.301,1.012-1.449,1.695
		l-0.765,0.394c-0.656-0.104-1.259-0.13-1.749-0.094c0.261-0.784,0.566-1.995,0.387-3.13c0.631-0.564,1.331-1.211,2.076-1.904
		c1.359,0.526,2.386,1.077,2.386,1.077s0.156-0.349,0.347-0.866C156.612,53.926,157.229,54.375,158.122,54.621 M146.649,59.927
		c0.552-0.671,1.124-1.309,1.692-1.917c0.707,0.273,1.301,0.549,1.707,0.748l-0.291,0.475
		C148.707,59.465,147.647,59.66,146.649,59.927 M149.589,61.438c0.255,0.758,0.74,1.483,1.62,1.969
		c-1.18-0.375-2.233-0.437-3.032-0.385l-0.02,0.003l-0.403-0.837C148.37,61.947,148.976,61.697,149.589,61.438 M147.104,45.757
		l0.252,0.088c1.259,0.339,2.455,0.849,3.229,1.216h-0.011c-0.782,0.152-1.166,0.746-1.356,1.346
		c-1.093-0.416-2.088-0.554-2.909-0.554c0.442-0.529,0.684-1.161,0.815-1.757L147.104,45.757z M155.727,78.321
		c-0.841-0.44-1.653-0.689-2.391-0.827c0.496-1.363,1.208-4.303-1.202-5.559c-0.67-0.342-1.32-0.561-1.934-0.71
		c-0.104-0.97-0.547-1.907-1.659-2.485c-0.854-0.443-1.679-0.688-2.43-0.824l0.457-0.928c0.454,0.219,0.773,0.381,0.908,0.449
		c0.423,0.498,1.022,0.908,1.877,1.141c2.122,0.582,4.095,1.652,4.095,1.652s2.272-4.615-0.919-6.271l-0.351-0.152
		c1.339,0.364,2.604,0.924,3.362,1.287c-1.387,0.473-1.331,2.542-1.331,2.542l0.37,1.077c-0.403,0.772-0.37,1.717-0.37,1.717
		c0.193,0.945,0.689,1.945,1.802,2.561l-0.252,0.004c-1.634,0.303-1.55,2.615-1.55,2.615c0.244,1.185,0.934,2.457,2.716,2.945
		l0.793,0.234c-0.135,0.504-0.28,0.999-0.429,1.5C157.094,79.51,156.637,78.789,155.727,78.321 M153.409,84.559
		c0.039-0.451,0.02-0.928-0.082-1.375c1.228,0.398,2.301,0.908,2.881,1.188l-0.111,0.504
		C155.062,84.582,154.135,84.518,153.409,84.559 M146.397,89.164l-0.193-0.221l0.3-0.638l0.255,0.12L146.397,89.164z
		 M146.991,92.084l0.808,0.723l-0.429,0.311l-0.634,0.157L146.991,92.084z M154.21,95.159l0.314,0.977l-0.022,0.387
		c-0.592-0.02-1.298,0.039-2.088,0.216c0.894-0.612,1.314-1.518,1.485-2.373c0,0,0.02-0.668-0.216-1.334
		c0.306-1.472,0.28-3.389-1.55-4.339c-1.698-0.886-3.262-1.015-4.357-0.937l-0.438,0.152c0.21-0.583,0.479-1.49,0.505-2.441
		l0.703,0.264c1.286,0.359,2.5,0.883,3.278,1.24l-0.011,0.209c0.246,1.181,0.933,2.453,2.721,2.945l0.709,0.214
		c-0.135,0.866-0.274,1.778-0.403,2.728C154.171,93.845,154.21,95.159,154.21,95.159 M160.227,63.451c0,0,0.166-0.338,0.351-0.872
		l1.021,0.837h-0.258c-1.323,0.256-1.517,1.828-1.536,2.404c-1.267-0.592-2.433-0.797-3.368-0.812c0.227-0.609,0.61-1.77,0.58-2.934
		C158.772,62.664,160.227,63.451,160.227,63.451 M120.363,104.227c0.521-0.238,0.92-0.564,1.223-0.928
		c0.075,1.084,0.437,2.083,0.642,2.544L120.363,104.227z M170.091,76.557c2.133,0.585,4.095,1.654,4.095,1.654
		s2.278-4.615-0.908-6.275c-1.695-0.878-3.265-1.003-4.357-0.941c-1.115,0.212-1.415,1.346-1.502,2.052l-0.925-0.714
		c-1.692-0.873-3.257-1.008-4.355-0.93l-0.333,0.12l-0.19-1.031c0.126-0.538,0.224-1.16,0.19-1.778l0.709,0.268
		c2.13,0.572,4.1,1.654,4.1,1.654s0.465-0.961,0.687-2.158c0.426,0.566,1.054,1.048,1.99,1.305c2.135,0.576,4.094,1.644,4.094,1.644
		s2.284-4.616-0.902-6.274c-1.704-0.873-3.268-1.01-4.354-0.931c-0.698,0.124-1.076,0.628-1.283,1.155l-0.129-0.176
		c0.414-0.967,1.729-4.605-1.021-6.035c-1.695-0.877-3.257-1.002-4.354-0.933l-0.676,0.325c-0.252-0.547-0.673-1.031-1.345-1.382
		l-0.409-0.171c0.787-0.406,1.566-0.807,2.348-1.211c0.586,0.273,0.962,0.475,0.962,0.475l0.075-0.164
		c0.316,1.043,1.045,2.076,2.615,2.498c2.121,0.594,4.094,1.66,4.094,1.66s2.278-4.621-0.911-6.277
		c-1.698-0.879-3.268-1.009-4.354-0.938l-0.754,0.387c0.098-1.287-0.21-2.675-1.673-3.436c-1.177-0.605-2.265-0.846-3.194-0.925
		c0.532-0.44,1.073-0.856,1.619-1.23l0.087,0.052l0.09-0.178l1.233-0.801c-0.174,0.611-0.154,1.174-0.154,1.174
		c0.243,1.182,0.933,2.451,2.715,2.939c2.133,0.578,4.098,1.65,4.098,1.65s2.278-4.623-0.905-6.278
		c-1.704-0.876-3.265-1.005-4.366-0.943l-0.976,0.628l-1.235,0.484c0.423-1.493,0.681-3.863-1.407-4.953
		c-1.698-0.878-3.259-1.008-4.354-0.938l-0.16,0.06c0.351-1.37,0.479-3.312-1.031-4.424c0.491-1.408,1.127-4.244-1.235-5.474
		c-1.698-0.872-3.262-1.001-4.357-0.934l-0.566,0.23c-1.448-0.609-2.771-0.732-3.728-0.674c-1.628,0.306-1.547,2.626-1.547,2.626
		l0.109,0.401l-0.49,0.209c-0.07-0.691-0.336-1.969-1.521-2.181c-1.099-0.083-2.662,0.055-4.357,0.931
		c-2.158,1.122-1.811,3.602-1.367,5.086c-0.589,0.143-1.214,0.352-1.872,0.69c-1.071,0.556-1.517,1.454-1.646,2.392l-0.378-0.14
		c-1.093-0.071-2.654,0.059-4.36,0.944c-2.338,1.213-1.735,4.014-1.25,5.431l-0.121,0.12c-0.143-0.68-0.507-1.529-1.448-1.705
		c-1.093-0.07-2.668,0.059-4.354,0.938c-3.189,1.656-0.917,6.28-0.917,6.28s1.97-1.077,4.097-1.655
		c0.883-0.249,1.488-0.672,1.917-1.191l0.174,1.109c-0.538,0.15-1.096,0.342-1.684,0.645c-3.187,1.656-0.905,6.271-0.905,6.271
		s0.678-0.369,1.667-0.785c-0.078,0.463-0.078,0.926-0.028,1.373l-0.733,0.312c-0.521,0.278-0.88,0.625-1.146,1.021
		c-0.207-0.526-0.586-1.023-1.275-1.154c-1.101-0.075-2.665,0.059-4.36,0.936c-3.186,1.661-0.919,6.273-0.919,6.273
		s1.973-1.062,4.105-1.647c0.938-0.257,1.572-0.738,2.001-1.304c0.219,1.203,0.689,2.16,0.689,2.16s0.852-0.459,2.034-0.946
		l0.418,0.348c-0.617,0.14-1.259,0.351-1.951,0.706c-1.19,0.618-1.619,1.656-1.679,2.711c-0.237-0.41-0.585-0.755-1.132-0.855
		c-1.101-0.076-2.656,0.059-4.368,0.93c-3.184,1.66-0.911,6.285-0.911,6.285s1.973-1.078,4.091-1.656
		c1.553-0.42,2.281-1.432,2.606-2.471l0.274,0.83c-0.904,1.33-0.543,3.169-0.171,4.295l-0.703,0.303
		c-3.181,1.654-0.911,6.275-0.911,6.275s1.031-0.554,2.402-1.088c0.045,1.595,0.779,3.088,0.779,3.088s0.756-0.414,1.852-0.865
		l1.536,1.332l-0.076,0.033c-0.513,0.266-0.883,0.624-1.141,1.021c-0.21-0.535-0.588-1.032-1.277-1.155
		c-1.093-0.079-2.668,0.052-4.354,0.931c-1.962,1.016-1.853,3.154-1.491,4.647c-1.073-0.036-2.525,0.129-4.105,0.942
		c-3.187,1.65-0.919,6.281-0.919,6.281s1.967-1.072,4.094-1.658l0.104-0.031c-0.616,1.982,0.605,4.471,0.605,4.471
		s1.965-1.072,4.098-1.651c0.619-0.168,1.096-0.437,1.479-0.755l0.011,0.02l0.297-0.162l2.553,2.814l0.031,0.219
		c-0.734,0.136-1.535,0.387-2.371,0.819l-0.975,0.774c-0.143-0.684-0.499-1.529-1.455-1.709c-1.09-0.077-2.656,0.057-4.352,0.935
		c-3.184,1.659-0.914,6.282-0.914,6.282s1.637-0.889,3.54-1.486l3.211,2.803c-0.476,0.141-0.986,0.319-1.493,0.586
		c-3.187,1.663-0.914,6.284-0.914,6.284s1.971-1.071,4.101-1.653c1.174-0.325,1.872-0.992,2.28-1.74l0.163,0.133l0.274,0.662
		l0.303-0.154l0.703,0.619c-0.714-0.127-1.367-0.145-1.911-0.104c-1.614,0.305-1.532,2.623-1.532,2.623
		c0.238,1.181,0.927,2.449,2.709,2.931c0.779,0.216,1.522,0.487,2.164,0.763c-0.163,1.796,0.765,3.686,0.765,3.686
		s1.968-1.066,4.095-1.652c0.846-0.234,1.445-0.639,1.866-1.133l0.067,0.059c0.129,1.455,0.754,2.727,0.754,2.727
		s0.622-0.328,1.535-0.729l2.836,2.484l0.138,0.306l0.14-0.065l0.566,0.494c0.67,6.951-0.104,14.854-0.104,21.525
		c0,6.778-1.482,14.791-0.384,21.3c2.853,0.124,5.772,0.042,8.664,0.079c-4.548-1.371-2.695-12.071-2.97-15.349
		c-0.376-4.616-0.325-8.339-0.443-13.015c-0.109-4.667,1.388-8.916,1.328-13.789c-0.002-0.521-0.002-1.061-0.002-1.598l1.748-3.766
		c0.421,0.551,1.048,1.02,1.971,1.266c2.138,0.58,4.105,1.66,4.105,1.66s2.213-4.514-0.818-6.215c0.05-1.24-0.292-2.529-1.696-3.258
		l-0.439-0.188l0.216-0.461l0.232,0.084c1.496,0.41,2.893,1.057,3.602,1.41c-0.365,0.742-0.328,1.637-0.328,1.637
		c0.24,1.184,0.928,2.451,2.71,2.939c2.13,0.578,4.103,1.653,4.103,1.653s2.267-4.618-0.92-6.278l-0.936-0.396
		c0.342-1.326,0.51-3.201-0.821-4.359l0.228-0.612c0.432,0.532,1.048,0.968,1.941,1.215c2.133,0.583,4.098,1.661,4.098,1.661
		s2.27-4.629-0.917-6.292c-0.812-0.413-1.583-0.649-2.298-0.788c0.042-1.21-0.313-2.475-1.692-3.192
		c-1.225-0.638-2.368-0.874-3.318-0.934l0.695-1.501c0.922,0.395,1.541,0.733,1.541,0.733s0.317-0.649,0.556-1.55
		c0.423,0.651,1.087,1.207,2.129,1.49l0.115,0.035c-0.462,0.782-0.442,1.813-0.442,1.813c0.246,1.179,0.944,2.454,2.721,2.942
		c2.136,0.579,4.1,1.654,4.1,1.654s2.281-4.623-0.91-6.282l-0.866-0.367c0.18-0.797,0.246-1.761-0.02-2.617l0.092,0.029
		c2.139,0.579,4.098,1.651,4.098,1.651s2.27-4.616-0.908-6.272c-1.701-0.88-3.268-1.012-4.363-0.937l-0.79,0.418
		c0.109-0.758,0.101-1.573-0.196-2.312c0.364,0.285,0.802,0.521,1.359,0.674c2.135,0.58,4.097,1.65,4.097,1.65
		s2.275-4.619-0.908-6.279c-0.498-0.254-0.975-0.43-1.451-0.578c0.274-0.58,2.012-4.664-0.937-6.2l-0.955-0.411
		c0.216-0.526,0.636-1.701,0.645-2.926C168.611,75.893,169.22,76.326,170.091,76.557"/>
	<path fill="#B3A895" d="M25.025,167.918c0-1.445,27.998-2.617,62.537-2.617c34.541,0,62.539,1.172,62.539,2.617
		c0,1.455-27.998,2.631-62.539,2.631C53.023,170.549,25.025,169.373,25.025,167.918"/>
</g>
</svg>
