<?xml version="1.0" encoding="utf-8"?>
<!-- Generator: Adobe Illustrator 16.0.0, SVG Export Plug-In . SVG Version: 6.00 Build 0)  -->
<!DOCTYPE svg PUBLIC "-//W3C//DTD SVG 1.1//EN" "http://www.w3.org/Graphics/SVG/1.1/DTD/svg11.dtd">
<svg version="1.1" id="Capa_1" xmlns="http://www.w3.org/2000/svg" xmlns:xlink="http://www.w3.org/1999/xlink" x="0px" y="0px"
	 width="200px" height="200px" viewBox="0 0 200 200" enable-background="new 0 0 200 200" xml:space="preserve">
<g>
	<path fill="#FFFFFF" d="M117.051,82.76c1.884-0.518,2.624-1.867,2.877-3.112c0,0,0.089-2.458-1.644-2.786
		c-1.159-0.082-2.817,0.064-4.614,0.994c-3.376,1.76-0.96,6.66-0.96,6.66S114.787,83.373,117.051,82.76 M173.239,83.912
		c-1.033-0.266-1.973-0.328-2.709-0.284c-0.601,0.118-0.976,0.501-1.216,0.945c0.065-0.782,0-1.61-0.362-2.339l0.291,0.1
		C170.955,82.802,172.565,83.57,173.239,83.912 M166.302,93.787c-0.532,0.097-0.882,0.407-1.12,0.785l-0.035-0.092l1.019-2.197
		c1.955,0.637,3.61,1.533,3.61,1.533l0.024-0.027l0.175,0.582C168.546,93.82,167.256,93.719,166.302,93.787 M168.911,86.455
		l0.312,0.974l-0.413-0.263l-0.14-0.063L168.911,86.455z M164.189,86.164c-0.621,0.117-0.998,0.524-1.248,0.985
		c-0.137-0.995-0.612-1.944-1.744-2.528l-1.147-0.482l0.089-0.672c0.215-0.504,0.734-1.836,0.74-3.22
		c0.229-0.866,0.473-1.726,0.698-2.603c1.735,0.615,3.123,1.366,3.123,1.366s1.13-2.304,0.755-4.323
		c0.419,0.381,0.966,0.688,1.673,0.877c0.978,0.273,1.92,0.639,2.674,0.963c-0.671-0.097-1.289-0.116-1.803-0.094
		c-1.73,0.33-1.635,2.785-1.635,2.785l0.467,1.295c-1.516-0.626-2.903-0.754-3.911-0.684c-1.723,0.316-1.634,2.772-1.634,2.772
		c0.253,1.257,0.993,2.601,2.88,3.118c0.534,0.146,1.055,0.317,1.551,0.506C165.152,86.162,164.627,86.141,164.189,86.164
		 M163.212,92.863c-1.168-0.521-2.268-0.738-3.183-0.78c-0.053-0.618-0.096-1.236-0.134-1.843c1.314,0.525,2.265,1.039,2.265,1.039
		s0.342-0.691,0.588-1.643c0.223,0.613,0.588,1.208,1.18,1.67L163.212,92.863z M160.633,98.418l-0.038-0.361l0.178,0.054
		L160.633,98.418z M159.578,108.582l-0.817-0.344l0.068-0.152l1.104,0.47l0.063,0.026H159.578z M158.657,102.676
		c-1.683,0.366-1.608,2.762-1.608,2.762l0.119,0.451l-0.857,1.848h-0.996c-1.732,0.33-1.646,2.781-1.646,2.781
		c0.11,0.525,0.31,1.061,0.627,1.55l-0.582,1.257c-0.669-0.096-1.283-0.117-1.789-0.086l-0.181,0.07
		c-0.526-0.037-1.159-0.012-1.852,0.102c1.581-0.59,2.243-1.818,2.48-2.973c0,0,0.022-1.201-0.54-2.039
		c0.621-0.24,1.298-0.492,2.012-0.681c1.887-0.519,2.626-1.864,2.879-3.12c0,0,0.047-1.336-0.627-2.171l0.704-0.214
		c0.588-0.156,1.052-0.396,1.444-0.689l0.439,1.08L158.657,102.676z M150.804,119.59l-0.018-0.462l0.282-0.097L150.804,119.59z
		 M149.434,103.635c-0.137-0.621-0.438-1.352-1.152-1.674l0.4-1.164v-0.037l1.338,1.16l0.8-0.922l-1.792-1.568l0.891-0.553v0.018
		l0.229-0.117l1.158-0.37c0.681-0.188,1.2-0.476,1.616-0.835l0.221-0.078c-1.766,1.135-1.658,3.234-1.284,4.736
		c-0.448,0.145-0.912,0.335-1.39,0.58L149.434,103.635z M148.056,107.927l-0.198-0.738l0.824-0.735l0.209,1.287L148.056,107.927z
		 M146.062,71.129c-0.749-0.388-1.462-0.615-2.14-0.771l0.116-0.44c0,0,0.015-0.677-0.208-1.356c0.416-0.19,0.9-0.387,1.432-0.572
		l-0.053,0.659c0.262,1.249,0.995,2.601,2.885,3.116l0.934,0.281c0.252,1.25,0.992,2.588,2.867,3.099
		c0.918,0.251,1.785,0.58,2.525,0.891c-1.663,0.372-1.598,2.763-1.598,2.763l0.127,0.463l-0.826-0.18
		c-0.25-0.658-0.725-1.241-1.509-1.652l-0.432-0.176c0.286-1.549,0.2-3.492-1.669-4.469l-1.189-0.504
		C147.042,71.828,146.642,71.424,146.062,71.129 M143.703,41.053c-1.773,0.931-1.955,2.711-1.718,4.203
		c-0.865,0.642-0.96,1.994-0.96,2.371l-1.084,0.416c-0.22-0.547-0.621-1.077-1.35-1.215H138.1c0.517-0.441,0.847-0.973,1.058-1.531
		c0.891-0.649,1.316-1.574,1.491-2.45c0,0,0.015-0.675-0.205-1.359c0.787-0.346,1.78-0.742,2.826-1.022
		c0.713-0.2,1.268-0.514,1.681-0.895c0.349,0.253,0.768,0.475,1.264,0.624C145.441,40.332,144.591,40.6,143.703,41.053
		 M143.536,84.937v-0.035l0.023,0.024L143.536,84.937z M142.711,82.413l-0.976-0.747c-1.535-0.799-2.941-1.006-4.053-1.006
		l0.013-0.003l1.348-0.44c1.124-0.301,1.823-0.898,2.265-1.594c0.304,0.882,0.889,1.729,1.985,2.238L142.711,82.413z
		 M142.432,99.002c-0.55,0.289-0.939,0.664-1.21,1.087l-0.449-0.728c0.099-0.047,1.094-0.57,2.404-1.082l0.035,0.393L142.432,99.002
		z M141.822,122.141l1.066-0.354l0.065,1.344L141.822,122.141z M139.894,116.771l-1.036,0.821c-0.149-0.721-0.529-1.626-1.53-1.812
		c-0.69-0.054-1.565,0.006-2.525,0.229l-0.957-0.836c0.712-0.355,2.272-1.08,3.931-1.539c0.647-0.179,1.155-0.463,1.565-0.805
		l0.016,0.025l0.406-0.217l1.091,1.195l0.317,0.771l0.259-0.131l0.029,0.029c-0.056,0.547-0.008,1.101,0.081,1.621
		C141.011,116.277,140.461,116.475,139.894,116.771 M130.888,101.054l-0.208-0.853c0.47-0.179,0.969-0.346,1.478-0.487
		c0.35,1.466,0.799,2.865,1.315,3.911l0.035,0.307L130.888,101.054z M129.859,111.704c0.794-0.347,1.779-0.74,2.823-1.022
		l0.101-0.035c-0.416,1.346-0.032,2.902,0.291,3.857L129.859,111.704z M129.311,105.774c-1.031,0.535-1.527,1.37-1.715,2.267
		l-0.897-0.506c-0.442-0.029-0.972-0.008-1.535,0.061l-1.332-1.158c0.479-0.252,2.279-1.152,4.213-1.682
		c1.418-0.383,2.182-1.246,2.583-2.173l2.025,2.235C131.669,104.897,130.528,105.146,129.311,105.774 M125.584,95.227
		c0.79-0.35,1.811-0.756,2.88-1.046c1.89-0.519,2.629-1.864,2.881-3.122l-0.008-0.234l0.089-0.025
		c0.937-0.254,1.586-0.711,2.041-1.268c0.062,0.898,0.303,1.736,0.518,2.301l-0.477,0.201c-0.861,0.446-1.343,1.102-1.589,1.816
		c-0.915,0.109-1.928,0.365-3.019,0.924c-1.022,0.529-1.506,1.344-1.703,2.227L125.584,95.227z M123.62,90.824
		c-0.559-0.025-1.194-0.011-1.919,0.119l-1.629-1.78l-0.014-0.077c0.816-0.381,2.031-0.902,3.329-1.25
		c1.005-0.277,1.683-0.785,2.122-1.381c0.234,1.273,0.726,2.287,0.726,2.287l0.026-0.014l-0.006,0.051l-1.174,0.498
		C124.345,89.668,123.888,90.209,123.62,90.824 M120.114,91.42l0.095-0.301l0.167,0.177L120.114,91.42z M128.009,80.289
		l-0.063,0.733l-0.54-0.472L128.009,80.289z M126.24,71.917l0.539-0.153c1.89-0.516,2.617-1.867,2.873-3.116l-0.027-0.591
		c0.752-0.321,1.676-0.681,2.642-0.945c0.761-0.207,1.325-0.549,1.753-0.959c1.001,0.503,1.961,0.994,2.829,1.463l0.687,0.438
		l-0.208-0.072c-0.529-0.041-1.168-0.014-1.861,0.094l-0.261-0.094c-1.165-0.076-2.819,0.065-4.617,1
		c-2.027,1.051-1.964,3.227-1.592,4.811l-0.423,0.114l-1.072,0.086C127.43,73.328,127.146,72.309,126.24,71.917 M130.086,56.808
		c0,0,0.009-0.564-0.16-1.18c0.582-0.198,1.057-0.451,1.419-0.776l1.142-0.367c-0.57,1.333-0.24,2.979,0.104,4.024l-0.731,0.314
		c-0.959,0.493-1.427,1.243-1.649,2.048c-0.923-0.379-1.835-0.732-2.76-1.041C129.144,59.269,129.837,57.99,130.086,56.808
		 M130.582,46.809l0.775-0.301c0.073,0.833,0.291,1.6,0.49,2.14c-0.547,0.104-1.156,0.294-1.774,0.549l0.013-0.005
		c0,0,0.021-1.213-0.55-2.056L130.582,46.809z M140.324,67.252l-1.281-1.11c0.634-0.259,1.353-0.519,2.113-0.721l0.354-0.13
		c-0.065,0.623-0.015,1.261,0.102,1.834L140.324,67.252z M135.663,75.316l-0.669,0.462c-0.484,0.097-1.002,0.273-1.527,0.489v-0.01
		c0,0,0.015-0.674-0.211-1.356c0.775-0.346,1.779-0.735,2.82-1.024l0.338-0.117c0.205,0.617,0.398,1.024,0.398,1.024
		s1.391-0.747,3.129-1.361l0.413,0.927l-0.068-0.02C139.124,74.247,137.463,74.388,135.663,75.316 M133.31,82.697
		c0.567-0.184,1.014-0.434,1.379-0.736l0.009,0.012l0.217-0.117l1.046-0.328c-0.505,0.828-0.481,1.926-0.481,1.926
		c0.143,0.668,0.428,1.359,0.936,1.943l-1.179,0.496l-0.912,0.699l-0.185-0.158c-0.154-0.552-0.479-1.118-1.085-1.392l0.413-1.168
		C133.467,83.874,133.473,83.311,133.31,82.697 M135.711,108.18l-0.375,0.159l0.14-0.425L135.711,108.18z M140.744,103.369
		c0.226,1.277,0.728,2.288,0.728,2.288l0.021-0.011l-0.006,0.053l-1.167,0.496c-0.752,0.388-1.208,0.938-1.478,1.541
		c-0.514-0.019-1.117,0-1.777,0.104l-1.135-1.227l-0.023-0.884c0.761-0.336,1.718-0.701,2.71-0.975
		C139.617,104.48,140.286,103.972,140.744,103.369 M140.19,97.856c0.199,0.723,0.438,1.272,0.523,1.462l-0.853-0.459
		c-1.162-0.082-2.82,0.06-4.626,0.99l-0.689,0.483c-0.202-0.511-0.407-1.019-0.622-1.522l0.862-1.154
		c0.636-0.254,1.352-0.514,2.091-0.723c0.539-0.142,0.967-0.363,1.332-0.617c0.238,1.211,0.695,2.156,0.695,2.156
		S139.418,98.205,140.19,97.856 M142.039,91.045c-0.595,0.133-1.216,0.342-1.869,0.654l-1.176-1.035
		c1.58-0.571,2.248-1.787,2.498-2.939l0.015,0.01C141.379,88.991,141.748,90.293,142.039,91.045 M141.896,75.724l-0.141,0.149
		l-0.1-0.277L141.896,75.724z M140.19,54.1l0.681-0.277l0.816,1.271c-1.381,1.179-1.257,3.103-0.915,4.5l-1.31,0.272
		c-0.246-0.383-0.601-0.715-1.141-0.814l-0.496-0.008c-0.182-0.448-0.499-0.865-0.99-1.08l0.512-0.157
		c1.89-0.519,2.63-1.867,2.885-3.12L140.19,54.1z M133.375,39.99l0.051,0.113c0,0,2.091-1.146,4.35-1.76l0.354-0.117
		c-0.074,0.613-0.012,1.26,0.095,1.828c-1.073,0.029-2.403,0.264-3.832,0.998c-0.547,0.289-0.939,0.67-1.213,1.082l-0.832-1.033
		L133.375,39.99z M141.204,32.222l0.698-0.253c0,1.041,0.282,2.061,0.514,2.721c-0.55,0.102-1.149,0.291-1.768,0.545v-0.008
		c0,0,0.056-1.77-0.99-2.502C140.152,32.545,140.663,32.375,141.204,32.222 M148.795,54.645l-0.101,0.096l0.01-0.133L148.795,54.645
		z M147.078,33.695c1.248-0.339,1.988-1.041,2.413-1.842l0.76,0.316c-0.422,0.807-0.386,1.791-0.386,1.791
		c0.255,1.25,0.986,2.604,2.892,3.121c1.482,0.399,2.878,1.031,3.663,1.41c-0.221,0.699-0.208,1.391-0.208,1.391
		c0.249,1.252,0.983,2.598,2.873,3.119c1.31,0.352,2.534,0.876,3.352,1.26c-0.812,0.549-1.646,1.205-2.46,1.878l-0.307,0.187
		c-0.271-0.578-0.716-1.095-1.436-1.461c-1.271-0.67-2.478-0.921-3.491-0.984c0.491-1.236,1.603-4.768-1.158-6.205
		c-0.841-0.439-1.658-0.691-2.409-0.84c-0.271-0.594-0.72-1.119-1.444-1.502c-1.785-0.918-3.414-1.066-4.579-0.99
		C145.747,34.117,146.401,33.878,147.078,33.695 M154.776,50.451l0.119-0.674l0.57,0.179L154.776,50.451z M161.625,51.887
		l1.204,0.373c-1.014,0.359-2.015,0.814-3.067,1.391c-0.546-0.056-1.06-0.078-1.494-0.052c-0.986,0.183-1.379,1.073-1.536,1.798
		l-0.811,0.417c-0.696-0.11-1.335-0.138-1.854-0.1c0.276-0.831,0.601-2.115,0.41-3.318c0.669-0.599,1.411-1.284,2.201-2.019
		c1.441,0.558,2.529,1.142,2.529,1.142s0.166-0.37,0.367-0.919C160.024,51.148,160.678,51.625,161.625,51.887 M149.461,57.512
		c0.585-0.711,1.191-1.388,1.794-2.033c0.75,0.291,1.38,0.582,1.811,0.793l-0.309,0.504
		C151.643,57.021,150.519,57.229,149.461,57.512 M152.577,59.113c0.271,0.804,0.785,1.572,1.718,2.088
		c-1.251-0.398-2.368-0.463-3.215-0.408l-0.021,0.003l-0.428-0.888C151.285,59.654,151.927,59.389,152.577,59.113 M149.942,42.488
		l0.267,0.092c1.335,0.359,2.604,0.9,3.424,1.29h-0.012c-0.829,0.161-1.236,0.791-1.438,1.427c-1.158-0.441-2.214-0.588-3.084-0.588
		c0.469-0.561,0.725-1.23,0.864-1.862L149.942,42.488z M159.085,77.015c-0.892-0.467-1.753-0.731-2.534-0.877
		c0.525-1.445,1.28-4.562-1.275-5.894c-0.71-0.362-1.399-0.594-2.05-0.753c-0.109-1.028-0.58-2.022-1.759-2.636
		c-0.906-0.469-1.78-0.729-2.576-0.873l0.484-0.984c0.481,0.232,0.82,0.404,0.963,0.477c0.448,0.528,1.084,0.963,1.99,1.209
		c2.25,0.617,4.341,1.752,4.341,1.752s2.41-4.893-0.974-6.648l-0.372-0.162c1.42,0.387,2.761,0.979,3.565,1.365
		c-1.471,0.501-1.412,2.695-1.412,2.695l0.393,1.142c-0.428,0.819-0.393,1.82-0.393,1.82c0.205,1.003,0.731,2.062,1.911,2.715
		l-0.268,0.004c-1.732,0.321-1.644,2.772-1.644,2.772c0.26,1.256,0.99,2.605,2.88,3.123l0.841,0.249
		c-0.143,0.534-0.297,1.06-0.455,1.591C160.534,78.275,160.05,77.511,159.085,77.015 M156.628,83.628
		c0.041-0.479,0.021-0.983-0.087-1.458c1.302,0.422,2.439,0.963,3.055,1.26l-0.118,0.533
		C158.381,83.652,157.397,83.584,156.628,83.628 M149.193,88.511l-0.205-0.233l0.318-0.677l0.271,0.128L149.193,88.511z
		 M149.823,91.607l0.856,0.766l-0.455,0.329l-0.672,0.167L149.823,91.607z M157.477,94.867l0.334,1.035l-0.024,0.41
		c-0.627-0.021-1.376,0.041-2.213,0.229c0.947-0.647,1.394-1.608,1.574-2.516c0,0,0.021-0.708-0.229-1.414
		c0.324-1.561,0.297-3.594-1.644-4.601c-1.801-0.938-3.458-1.075-4.62-0.993l-0.464,0.162c0.223-0.619,0.509-1.58,0.535-2.589
		l0.746,0.279c1.363,0.382,2.65,0.937,3.476,1.315l-0.011,0.221c0.261,1.252,0.988,2.602,2.885,3.123l0.751,0.227
		c-0.143,0.919-0.291,1.887-0.428,2.893C157.436,93.474,157.477,94.867,157.477,94.867 M163.856,61.248c0,0,0.176-0.357,0.371-0.924
		l1.082,0.887h-0.273c-1.402,0.271-1.607,1.938-1.628,2.549c-1.344-0.627-2.58-0.844-3.571-0.861
		c0.24-0.646,0.646-1.876,0.615-3.109C162.314,60.414,163.856,61.248,163.856,61.248 M121.591,104.48
		c0.553-0.252,0.975-0.598,1.296-0.982c0.08,1.148,0.463,2.208,0.681,2.697L121.591,104.48z M174.314,75.144
		c2.262,0.62,4.342,1.754,4.342,1.754s2.416-4.894-0.963-6.653c-1.797-0.932-3.461-1.063-4.62-0.998
		c-1.183,0.225-1.5,1.427-1.593,2.176l-0.98-0.758c-1.794-0.926-3.453-1.068-4.617-0.985l-0.354,0.128l-0.202-1.094
		c0.134-0.57,0.237-1.23,0.202-1.886l0.752,0.284c2.258,0.606,4.347,1.754,4.347,1.754s0.493-1.02,0.728-2.289
		c0.451,0.602,1.117,1.111,2.11,1.384c2.264,0.61,4.341,1.743,4.341,1.743s2.422-4.895-0.957-6.653
		c-1.807-0.926-3.465-1.07-4.617-0.987c-0.74,0.133-1.141,0.666-1.36,1.226l-0.137-0.187c0.439-1.025,1.833-4.883-1.082-6.398
		c-1.798-0.93-3.453-1.062-4.617-0.989l-0.716,0.345c-0.268-0.58-0.714-1.094-1.426-1.465l-0.434-0.182
		c0.834-0.43,1.66-0.855,2.488-1.283c0.621,0.289,1.021,0.503,1.021,0.503l0.079-0.174c0.336,1.105,1.108,2.201,2.773,2.648
		c2.249,0.63,4.34,1.761,4.34,1.761s2.416-4.9-0.966-6.656c-1.801-0.932-3.464-1.069-4.617-0.994l-0.799,0.41
		c0.104-1.365-0.223-2.836-1.773-3.643c-1.248-0.643-2.401-0.896-3.388-0.98c0.564-0.467,1.139-0.908,1.717-1.305l0.093,0.055
		l0.095-0.188l1.309-0.849c-0.185,0.648-0.164,1.244-0.164,1.244c0.258,1.253,0.988,2.6,2.879,3.117
		c2.261,0.613,4.344,1.75,4.344,1.75s2.416-4.902-0.959-6.657c-1.808-0.929-3.462-1.065-4.63-0.999l-1.034,0.664l-1.31,0.514
		c0.448-1.582,0.722-4.096-1.492-5.251c-1.801-0.931-3.455-1.069-4.617-0.994l-0.17,0.063c0.372-1.453,0.509-3.513-1.093-4.691
		c0.521-1.492,1.194-4.5-1.311-5.803c-1.801-0.925-3.458-1.062-4.62-0.99l-0.601,0.244c-1.535-0.646-2.938-0.775-3.952-0.714
		c-1.726,0.323-1.64,2.784-1.64,2.784l0.116,0.426l-0.521,0.221c-0.074-0.732-0.355-2.087-1.613-2.312
		c-1.164-0.088-2.822,0.058-4.619,0.987c-2.289,1.189-1.92,3.818-1.45,5.393c-0.624,0.15-1.287,0.372-1.984,0.731
		c-1.136,0.589-1.608,1.542-1.745,2.536l-0.4-0.148c-1.159-0.076-2.814,0.062-4.623,1.001c-2.479,1.286-1.84,4.256-1.325,5.759
		l-0.129,0.127c-0.151-0.721-0.537-1.621-1.535-1.809c-1.159-0.074-2.829,0.062-4.617,0.994c-3.382,1.756-0.972,6.659-0.972,6.659
		s2.088-1.142,4.343-1.755c0.937-0.264,1.578-0.713,2.033-1.264l0.184,1.176c-0.57,0.16-1.161,0.363-1.785,0.684
		c-3.378,1.756-0.96,6.65-0.96,6.65s0.719-0.393,1.768-0.833c-0.082,0.491-0.082,0.981-0.029,1.456l-0.778,0.331
		c-0.553,0.296-0.933,0.663-1.215,1.083c-0.22-0.559-0.622-1.085-1.353-1.224c-1.167-0.079-2.826,0.062-4.623,0.991
		c-3.378,1.762-0.975,6.652-0.975,6.652s2.092-1.125,4.354-1.747c0.994-0.272,1.666-0.782,2.121-1.382
		c0.232,1.275,0.73,2.29,0.73,2.29s0.903-0.487,2.157-1.003l0.443,0.368c-0.654,0.147-1.335,0.372-2.069,0.749
		c-1.262,0.654-1.717,1.756-1.779,2.874c-0.252-0.435-0.62-0.8-1.2-0.907c-1.167-0.08-2.816,0.062-4.632,0.986
		c-3.375,1.76-0.966,6.664-0.966,6.664s2.092-1.144,4.338-1.757c1.646-0.445,2.419-1.518,2.763-2.62l0.291,0.881
		c-0.958,1.41-0.575,3.359-0.181,4.554l-0.745,0.321c-3.373,1.754-0.967,6.653-0.967,6.653s1.094-0.587,2.547-1.153
		c0.048,1.69,0.827,3.273,0.827,3.273s0.801-0.438,1.963-0.917l1.629,1.412l-0.081,0.035c-0.544,0.282-0.936,0.661-1.209,1.083
		c-0.223-0.567-0.624-1.094-1.354-1.225c-1.159-0.084-2.829,0.055-4.617,0.986c-2.08,1.077-1.964,3.345-1.581,4.928
		c-1.138-0.038-2.678,0.137-4.353,1c-3.379,1.749-0.975,6.659-0.975,6.659s2.085-1.137,4.341-1.759l0.109-0.033
		c-0.653,2.103,0.642,4.74,0.642,4.74s2.084-1.137,4.345-1.75c0.656-0.178,1.162-0.463,1.568-0.801l0.012,0.021l0.314-0.172
		l2.707,2.983l0.033,0.231c-0.778,0.145-1.628,0.41-2.514,0.869l-1.033,0.821c-0.151-0.726-0.529-1.622-1.543-1.812
		c-1.156-0.082-2.816,0.06-4.614,0.99c-3.375,1.76-0.969,6.66-0.969,6.66s1.735-0.941,3.753-1.575l3.404,2.972
		c-0.504,0.148-1.045,0.338-1.583,0.621c-3.378,1.764-0.969,6.663-0.969,6.663s2.089-1.136,4.348-1.753
		c1.244-0.345,1.984-1.053,2.418-1.846l0.173,0.141l0.291,0.703l0.32-0.164l0.746,0.656c-0.757-0.135-1.45-0.152-2.026-0.109
		c-1.712,0.322-1.625,2.781-1.625,2.781c0.253,1.252,0.982,2.597,2.872,3.107c0.826,0.229,1.614,0.516,2.295,0.809
		c-0.173,1.904,0.811,3.907,0.811,3.907s2.086-1.13,4.342-1.752c0.896-0.249,1.532-0.677,1.979-1.2l0.071,0.062
		c0.137,1.542,0.8,2.891,0.8,2.891s0.659-0.348,1.627-0.772l3.007,2.635l0.146,0.324l0.147-0.07l0.602,0.524
		c0.71,7.37-0.11,15.749-0.11,22.822c0,7.187-1.571,15.683-0.407,22.583c3.024,0.133,6.121,0.045,9.187,0.084
		c-4.822-1.453-2.857-12.799-3.148-16.273c-0.398-4.895-0.345-8.842-0.471-13.799c-0.115-4.948,1.472-9.453,1.408-14.62
		c-0.002-0.552-0.002-1.124-0.002-1.694l1.854-3.992c0.446,0.584,1.111,1.081,2.09,1.342c2.267,0.615,4.353,1.761,4.353,1.761
		s2.347-4.786-0.867-6.589c0.053-1.316-0.31-2.683-1.799-3.455l-0.466-0.199l0.229-0.488l0.247,0.09
		c1.586,0.434,3.066,1.119,3.818,1.494c-0.388,0.787-0.348,1.736-0.348,1.736c0.254,1.254,0.983,2.598,2.873,3.116
		c2.258,0.612,4.35,1.753,4.35,1.753s2.403-4.896-0.976-6.656l-0.992-0.421c0.362-1.406,0.541-3.394-0.87-4.622l0.241-0.649
		c0.457,0.564,1.11,1.026,2.059,1.288c2.261,0.618,4.345,1.762,4.345,1.762s2.406-4.908-0.973-6.672
		c-0.861-0.438-1.679-0.688-2.437-0.836c0.045-1.282-0.332-2.623-1.794-3.385c-1.299-0.676-2.512-0.926-3.519-0.989l0.737-1.591
		c0.978,0.418,1.634,0.777,1.634,0.777s0.336-0.689,0.589-1.644c0.448,0.69,1.152,1.28,2.258,1.58l0.122,0.037
		c-0.49,0.829-0.47,1.923-0.47,1.923c0.262,1.25,1.002,2.602,2.885,3.119c2.265,0.615,4.347,1.754,4.347,1.754s2.419-4.9-0.965-6.66
		l-0.918-0.389c0.19-0.846,0.261-1.867-0.021-2.775l0.098,0.031c2.268,0.613,4.345,1.75,4.345,1.75s2.406-4.895-0.963-6.65
		c-1.804-0.933-3.465-1.072-4.626-0.992l-0.838,0.443c0.116-0.805,0.106-1.668-0.208-2.452c0.386,0.302,0.85,0.552,1.441,0.714
		c2.263,0.615,4.344,1.75,4.344,1.75s2.412-4.897-0.964-6.658c-0.527-0.269-1.033-0.455-1.538-0.612
		c0.291-0.615,2.133-4.945-0.993-6.573l-1.013-0.437c0.229-0.558,0.674-1.804,0.684-3.103
		C172.746,74.439,173.392,74.899,174.314,75.144"/>
	<path fill="#FFFFFF" d="M20.507,172.011c0-1.532,29.686-2.774,66.306-2.774c36.623,0,66.309,1.242,66.309,2.774
		c0,1.543-29.686,2.79-66.309,2.79C50.192,174.801,20.507,173.554,20.507,172.011"/>
</g>
</svg>
