<?xml version="1.0" encoding="utf-8"?>
<!-- Generator: Adobe Illustrator 16.0.0, SVG Export Plug-In . SVG Version: 6.00 Build 0)  -->
<!DOCTYPE svg PUBLIC "-//W3C//DTD SVG 1.1//EN" "http://www.w3.org/Graphics/SVG/1.1/DTD/svg11.dtd">
<svg version="1.1" id="Capa_1" xmlns="http://www.w3.org/2000/svg" xmlns:xlink="http://www.w3.org/1999/xlink" x="0px" y="0px"
	 width="200px" height="200px" viewBox="0 0 200 200" enable-background="new 0 0 200 200" xml:space="preserve">
<g>
	<path fill="#FFFFFF" d="M60.56,37.311c0-3.314-2.688-6.002-6.006-6.002c-2.27,0-4.171,1.305-5.19,3.158
		c-0.605-2.68-2.888-4.725-5.75-4.725c-2.099,0-3.856,1.145-4.933,2.775c-0.981-0.707-2.126-1.209-3.429-1.209
		c-3.321,0-6.01,2.688-6.01,6.002c0,3.318,2.688,6.008,6.01,6.008c0.844,0,1.611-0.225,2.322-0.551
		c-0.313,0.723-0.486,1.52-0.486,2.359c0,3.314,2.691,6.004,6.004,6.004c0.974,0,1.857-0.283,2.667-0.693
		c0.732,2.49,2.942,4.34,5.668,4.34c3.316,0,6.007-2.689,6.007-6.004c0-2.178-1.169-4.064-2.896-5.117
		c0.052-0.109,0.067-0.232,0.11-0.348C57.921,43.256,60.56,40.594,60.56,37.311"/>
	<path fill="#FFFFFF" d="M144.382,140.848h-16.705v-16.705h16.705V140.848z M132.585,79.691h-0.908c0,0-4.565,0.025-9.855,1.939
		V61.348h10.764V79.691z M119.81,82.453c-6.805,3.047-14.007,9.459-14.007,23.111v5.242h-9.871l-1.793-32.449h16.908h1.423h0.584
		v-8.184h6.756V82.453z M100.383,124.141h16.703v16.705h-16.703V124.141z M89.795,141.621H73.093v-16.705h16.702V141.621z
		 M74.812,98.066l-0.941,12.74h-9.065L64.1,98.066H74.812z M45.799,124.916h16.703v16.705H45.799V124.916z M170.259,169.639v-58.832
		h-8.89v-5.242c0,0,0-25.873-25.877-25.873h-0.895V61.348v-2.012h-2.013H119.81v1.371v0.641v6.814h-6.756h-2.007v2.012v6.176H94.024
		l-0.364-6.627H76.9l-1.939,26.336H63.992l-0.979-17.701h1.97v-5h-2.251l-0.197-3.635H45.777l-0.271,3.635h-2.045v5h1.675
		l-2.392,32.449H32.463v58.832H170.259z"/>
</g>
</svg>
