<?xml version="1.0" encoding="utf-8"?>
<!-- Generator: Adobe Illustrator 16.0.0, SVG Export Plug-In . SVG Version: 6.00 Build 0)  -->
<!DOCTYPE svg PUBLIC "-//W3C//DTD SVG 1.1//EN" "http://www.w3.org/Graphics/SVG/1.1/DTD/svg11.dtd">
<svg version="1.1" id="Capa_1" xmlns="http://www.w3.org/2000/svg" xmlns:xlink="http://www.w3.org/1999/xlink" x="0px" y="0px"
	 width="150px" height="150px" viewBox="0 0 150 150" enable-background="new 0 0 150 150" xml:space="preserve">
<g>
	<g id="Rounded_Rectangle_1_3_">
		<g>
			<path fill="#E8E8E8" d="M44.659,90.442V61.997c0-11.969,9.703-21.676,21.672-21.676h39.014v-2.168
				c0-10.773-8.734-19.506-19.505-19.506H29.486c-10.773,0-19.509,8.732-19.509,19.506v26.01c0,10.771,8.735,19.507,19.509,19.507
				l-8.668,21.673L44.659,90.442z"/>
		</g>
	</g>
	<path fill-rule="evenodd" clip-rule="evenodd" fill="#FFFFFF" d="M66.331,44.657h56.354c9.577,0,17.337,7.764,17.337,17.34v30.346
		c0,9.572-7.76,17.337-17.337,17.337h-4.333l8.666,21.673L92.341,109.68h-26.01c-9.576,0-17.341-7.765-17.341-17.337V61.997
		C48.99,52.421,56.755,44.657,66.331,44.657z"/>
</g>
</svg>
