<?xml version="1.0" encoding="utf-8"?>
<!-- Generator: Adobe Illustrator 16.0.0, SVG Export Plug-In . SVG Version: 6.00 Build 0)  -->
<!DOCTYPE svg PUBLIC "-//W3C//DTD SVG 1.1//EN" "http://www.w3.org/Graphics/SVG/1.1/DTD/svg11.dtd">
<svg version="1.1" id="Capa_1" xmlns="http://www.w3.org/2000/svg" xmlns:xlink="http://www.w3.org/1999/xlink" x="0px" y="0px"
	 width="150px" height="150px" viewBox="0 0 150 150" enable-background="new 0 0 150 150" xml:space="preserve">
<g>
	<path fill="#FFFFFF" d="M127.318,111.292c-6.542,0.023-13.017,0.396-19.264,0.484c0.186-16.396,0.921-33.362,0.325-49.553
		c-0.018-0.455-0.059-0.891-0.106-1.323c2.686-0.049,6.057-1.362,7.359-2.881c1.555-1.814,2.159-4.163,2.07-6.325
		c-0.204-4.991-4.086-8.996-8.422-3.182c1.709-7.823-7.693-10.163-7.377-0.215c-0.003-0.004-0.005-0.008-0.006-0.011
		c-0.841-1.431-1.705-2.645-3.174-3.502c-3.142-1.835-7.449,6.348-1.284,9.088c-1.031,7.06,4.682,8.813,7.721,2.006
		c-1.265,2.836-0.436,4.269,1.221,4.788c-0.188,11.92-0.983,29.202-1.033,51.125c-0.524,0-1.052,0.003-1.571-0.004
		c-2.685-0.035-5.785,0.151-8.417,0.115c-2.189-0.027-2.043-0.265-4.17-0.56c-2.771-0.384-4.621-0.237-6.856-0.146
		c-0.084-18.325,1.053-37.725,0.352-56.097c-0.059-1.52-0.322-2.899-0.644-4.242c0.533-0.321,0.982-0.594,1.31-0.776
		c2.481,4.389,5.726,4.026,8.141,1.761c-0.569-1.294-0.624-2.694-0.366-3.911c0.489-2.306,2.01-4.124,3.729-4.614
		c-0.112-1.31-0.556-2.53-1.42-3.501c-1.379-1.55-3.831-2.459-7.728-2.073c-1.192-10.837-12.526-1.213-13.944,4.254
		c-2.496-2.337-9.251-4.711-10.79,0.069c-0.015,0.048-0.022,0.094-0.035,0.139c0.679-0.227,1.275-0.28,1.683-0.28
		c2.122,0,4.223,1.244,5.618,3.328c1.253,1.868,1.747,4.122,1.444,6.338c0.662,0.318,1.272,0.759,1.754,1.157
		c0.766,0.636,1.53,1.444,2.136,2.351c2.337-0.692,5.066-2.211,7.142-3.441c-0.134,12.911-1.234,33.16-1.038,59.579
		c-1.858-0.042-3.496-0.391-5.43-0.481c-2.479-0.115-3.591,0.363-5.69,0.428c-1.491,0.044-2.091-0.216-3.509-0.246
		c-1.114-0.024-2.197,0.002-3.274,0.044c0.226-15.021,0.852-30.472,0.286-45.255c-0.043-1.157-0.211-2.232-0.428-3.274
		c0.365-0.316,0.725-0.645,1.055-1.028c1.103-1.276,8.415,2.95,10.178-2.024c0.611-1.725-0.947-3.939-2.564-5.279
		c-1.281-1.063-2.601-1.577-2.896-0.863c2.979-7.248-6.15-14.271-9.2-5.39c-3.71-3.279-8.916,0.477-9.625,5.073
		c-0.794,5.132,3.795,4.421,3.828,4.772c0.321,3.538,4.271,8.21,5.491,2.173c-0.31,1.524,0.995,3.088,2.174,3.688
		c-0.159,11.078-0.931,27.147-1.033,47.554c-1.105,0.073-2.218,0.152-3.359,0.229c-4.678,0.312-7.954,0.459-12.112,0.224
		c-0.102-18.436,1.059-37.979,0.352-56.478c-0.017-0.443-0.06-0.869-0.107-1.292c0.938-0.388,1.787-0.804,2.493-1.199
		c0.143,0.252,0.289,0.484,0.438,0.707c0.018-0.212,0.041-0.427,0.076-0.647c0.666-4.314,4.366-7.824,8.25-7.824
		c0.809,0,1.597,0.153,2.34,0.453c0.083-0.144,0.169-0.274,0.253-0.406c-0.213-0.945-0.622-1.817-1.271-2.547
		c-3.637-4.092-10.13-7.198-15.493-7.051c-4.095,0.113-15.454,5.354-6.409,8.658c-4.252-1.554-4.586,7.137-3.12,9.129
		c2.237,3.038,6.731,2.652,10.539,1.428c-0.241,12.987-1.183,32.268-0.995,56.897c-2.627-0.12-4.91,0.173-7.253,0.284
		c-4.644,0.22-10.112-0.114-13.422,1.45c0.068,0.814-1.67,1.322-0.668,1.966c2.004,1.295,12.217,0.638,15.426,0.535
		c5.373-0.173,10.91,0.121,16.273,0.24c5.132,0.112,9.794-0.162,14.637-0.277c2.588-0.062,4.449,0.29,7.337,0.598
		c2.964,0.315,6.176,0.54,9.265,0.457c1.262-0.036,3.98-0.507,5.055-0.459c-0.342-0.015,2.591,0.692,3.652,0.814
		c3.685,0.42,7.199-0.028,10.657-0.409c6.463-0.712,15.609-0.873,20.91-2.365c0.938-0.264,3.808-1.286,3.963-1.734
		C128.782,112.394,127.282,111.724,127.318,111.292z"/>
	<path fill="#FFFFFF" d="M21.899,113.303c0.107-0.058,0.225-0.107,0.337-0.161c-0.003-0.03-0.003-0.061-0.011-0.092L21.899,113.303z
		"/>
</g>
</svg>
