<?xml version="1.0" encoding="utf-8"?>
<!-- Generator: Adobe Illustrator 16.0.0, SVG Export Plug-In . SVG Version: 6.00 Build 0)  -->
<!DOCTYPE svg PUBLIC "-//W3C//DTD SVG 1.1//EN" "http://www.w3.org/Graphics/SVG/1.1/DTD/svg11.dtd">
<svg version="1.1" id="Capa_1" xmlns="http://www.w3.org/2000/svg" xmlns:xlink="http://www.w3.org/1999/xlink" x="0px" y="0px"
	 width="200px" height="200px" viewBox="0 0 200 200" enable-background="new 0 0 200 200" xml:space="preserve">
<g>
	<path fill="#3A3330" d="M5.278,130.071c5.569-7.785,15.276-6.135,23.465-7.144c4.407-0.544,8.684-2.091,13.767-1.054
		c8.684,1.771,14.675,1.145,23.788-0.436c5.448-0.945,10.52-2.166,15.977-1.857c2.42,0.137,3.439,1.293,5.984,1.09
		c3.58-0.281,5.478-2.404,9.703-1.889c3.468,0.418,6.362,2.15,9.74,2.186c5.961,0.049,9.467-1.84,15.745,0.418
		c3.627,1.31,3.377,2.357,7.111,2.483c4.487,0.161,9.774-0.666,14.354-0.511c12.861,0.43,26.424-2.076,40.146-2.204
		c-0.062,1.915,2.497,4.891,2.429,5.391c-0.264,1.985-5.161,6.519-6.76,7.69c-9.039,6.615-24.636,7.33-35.659,10.49
		c-5.896,1.691-11.889,3.677-18.173,1.814c-1.81-0.539-6.812-3.677-6.229-3.608c-1.832-0.215-6.469,1.871-8.621,2.029
		c-5.267,0.37-10.745-0.622-15.798-2.025c-4.927-1.364-8.1-2.924-12.513-2.649c-8.26,0.508-16.21,1.729-24.962,1.229
		c-9.147-0.528-18.589-1.833-27.753-1.067c-5.473,0.457-22.89,3.373-26.307-2.369c-1.773-2.965,1.495-5.275,1.121-9.127"/>
	<path fill="#3A3330" d="M159.104,96.81c-0.302,6.349-1.204,12.68-2.401,18.931c-1.652,8.611-15.897,10.723-10.855,20.823
		c5.208,10.413,27.095,7.955,30.058-3.125c3.196-12.016-13.654-9.451-13.194-17.604c0.033-0.56,0.062-1.118,0.092-1.679
		c0.175-3.878,0.234-7.762,0.133-11.645c-0.104-4.009-0.358-8.047-1.076-11.995c-0.334-1.817-0.766-3.606-1.414-5.338
		c-0.225-0.602-0.561-1.245-1.338-1.063c-0.373,0.086-0.67,0.39-0.753,0.768c-0.06,0.258,0.021,0.508,0.08,0.754
		C159.29,89.276,159.282,93.088,159.104,96.81"/>
	<path fill="#3A3330" d="M39.393,96.81c-0.305,6.35-1.203,12.684-2.401,18.931c-1.503,7.847-20.428,7.831-16.498,18.967
		c2.805,7.949,34.965,9.904,38.037,1.57c3.391-9.243-15.893-13.973-15.527-20.425c0.032-0.564,0.059-1.132,0.088-1.697
		c0.172-3.878,0.238-7.762,0.134-11.645c-0.104-4.009-0.356-8.047-1.077-11.995c-0.332-1.817-0.762-3.606-1.413-5.338
		c-0.226-0.602-0.558-1.245-1.336-1.063c-0.374,0.086-0.673,0.39-0.756,0.768c-0.059,0.258,0.024,0.508,0.077,0.754
		C39.583,89.276,39.573,93.088,39.393,96.81"/>
	<path fill="#3A3330" d="M97.726,80.977c-0.43,8.923-1.696,17.818-3.382,26.602c-1.687,8.8-28.656,12.712-23.729,25.96
		c4.858,13.039,44.216,12.004,50.195,0.48c8.837-17.028-18.65-15.379-18.025-26.337c0.048-0.79,0.086-1.585,0.125-2.376
		c0.245-5.437,0.335-10.885,0.191-16.328c-0.151-5.625-0.501-11.29-1.515-16.83c-0.466-2.546-1.07-5.06-1.979-7.485
		c-0.316-0.846-0.791-1.75-1.877-1.494c-0.525,0.124-0.939,0.554-1.056,1.077c-0.08,0.364,0.026,0.709,0.109,1.061
		C97.995,70.411,97.978,75.76,97.726,80.977"/>
	<path fill="#867F7F" d="M164.267,94.144c1.38-0.019,2.731-0.485,3.927-0.89c2.301-0.791,4.522-1.757,6.673-2.763
		c-0.516,0.342-1.003,0.675-1.501,1.006c-1.266,0.857-2.924,2.005-4.538,3.23l-0.133,0.094c-1.002,0.768-2.04,1.553-2.921,2.502
		c-0.089,0.107-0.175,0.245-0.163,0.389c0.012,0.146,0.115,0.268,0.219,0.363c1.706,1.381,4.04,2.088,6.913,2.088
		c0.623,0,1.285-0.045,1.955-0.109c3.79-0.382,7.666-1.768,10.644-3.773c3.002-2.008,5.525-5.197,7.75-9.744
		c1.192-2.438,2.01-4.73,2.648-7.08c0.044-0.186,0.14-0.529,0.015-0.671c-0.575-0.661-4.532-1.353-6.14-1.614
		c-2.15-0.346-4.083-0.51-5.901-0.51c-3.001,0-5.688,0.475-7.979,1.416c-2.276,0.928-4.655,2.507-6.87,4.559
		c-1.996,1.852-3.482,3.812-4.432,5.852c-0.465,1.016-0.782,2.018-0.949,2.996c-0.074,0.51-0.109,1.022-0.101,1.514
		c0.007,0.234,0.016,0.459,0.042,0.682C163.496,94.196,164.267,94.144,164.267,94.144"/>
	<path fill="#867F7F" d="M8.752,86.587c1.606,2.842,3.956,4.938,7.761,7.127c0.742,0.43,20.707,7.276,19.413,3.455
		c-1.31-3.877-0.026-9.062-2.219-12.599c-4.602-7.432-20.418-10.973-27.586-5.732C6.792,82.042,7.58,84.513,8.752,86.587"/>
	<path fill="#867F7F" d="M155.669,91.999c-1.257-6.043-2.633-11.025-9.766-13.92c-0.76-0.311-1.558-0.566-2.396-0.773
		c-2.088,2.637-4.344,4.764-6.818,6.417c-2.277,1.532-4.875,2.831-7.622,3.837c2.098,4.003,4.451,6.865,7.226,8.72
		c7.452,5.024,12.978,3.67,20.498,0.905C156.345,95.388,156.014,93.658,155.669,91.999"/>
	<path fill="#867F7F" d="M54.859,66.567c3.126,6.378,6.658,10.849,10.866,13.672c4.318,2.892,10.869,5.713,16.211,5.4
		c4.775-0.285,8.543-3.315,13.306-4.14c-0.551-7.72-0.272-14.735-6.402-20.403c-3.104-2.876-6.438-5.1-9.635-6.395
		c-3.212-1.321-6.981-1.993-11.196-1.993c-2.541,0-5.258,0.235-8.274,0.716c-2.257,0.369-7.799,1.342-8.615,2.262
		c-0.169,0.201-0.04,0.692,0.024,0.949C52.042,59.926,53.184,63.142,54.859,66.567"/>
	<path fill="#867F7F" d="M104.063,77.193c-0.045,1.38,0.026,2.774,0.236,4.165c7.877-0.186,14.379,4.674,22.184,2.72
		c8.93-2.233,15.049-9.612,18.912-17.511c1.676-3.426,2.824-6.635,3.723-9.937c0.062-0.252,0.189-0.737,0.021-0.94
		c-0.81-0.924-6.357-1.896-8.615-2.266c-3.017-0.477-5.733-0.715-8.271-0.715c-4.22,0-7.987,0.669-11.198,1.994
		c-3.193,1.295-6.53,3.517-9.635,6.389C106.926,65.256,104.273,71.085,104.063,77.193"/>
	<path fill="#867F7F" d="M72.553,88.139c-3.382-1.062-6.599-2.571-9.345-4.425c-2.311-1.545-4.443-3.513-6.416-5.925
		c-0.26,0.092-0.512,0.185-0.764,0.286c-7.801,3.195-10.431,12.662-9.18,20.421c-0.604-3.764,12.718-2.735,14.01-2.848
		C66.968,95.101,69.539,93.658,72.553,88.139"/>
</g>
</svg>
