<?xml version="1.0" encoding="utf-8"?>
<!-- Generator: Adobe Illustrator 16.0.0, SVG Export Plug-In . SVG Version: 6.00 Build 0)  -->
<!DOCTYPE svg PUBLIC "-//W3C//DTD SVG 1.1//EN" "http://www.w3.org/Graphics/SVG/1.1/DTD/svg11.dtd">
<svg version="1.1" id="Capa_1" xmlns="http://www.w3.org/2000/svg" xmlns:xlink="http://www.w3.org/1999/xlink" x="0px" y="0px"
	 width="150px" height="150px" viewBox="0 0 150 150" enable-background="new 0 0 150 150" xml:space="preserve">
<g>
	<rect x="109.055" y="62.873" fill="#FFFFFF" width="1.236" height="5.629"/>
	<polyline fill="#FFFFFF" points="130.411,64.467 109.672,64.467 109.672,66.908 130.411,66.908 	"/>
	<rect x="114.988" y="63.328" fill="#FFFFFF" width="13.266" height="4.656"/>
	<path fill="#FFFFFF" d="M39.459,57.084v-3.641c0-1.482-1.203-2.684-2.687-2.684c-1.482,0-2.684,1.201-2.684,2.684v3.641H39.459z"/>
	<path fill="#FFFFFF" d="M102.833,50.549c-0.79,0-1.431-0.641-1.431-1.432c0-0.789,0.641-1.43,1.431-1.43s1.432,0.641,1.432,1.43
		C104.265,49.908,103.623,50.549,102.833,50.549 M102.676,43.451c0.792,0,1.433,0.641,1.433,1.43c0,0.791-0.641,1.434-1.433,1.434
		c-0.791,0-1.431-0.643-1.431-1.434C101.245,44.092,101.885,43.451,102.676,43.451 M97.42,56.586c-0.855,0-1.55-0.695-1.55-1.553
		c0-0.711,0.48-1.303,1.134-1.486v-8.994c0-0.23,0.187-0.418,0.416-0.418c0.231,0,0.419,0.188,0.419,0.418v8.994
		c0.652,0.184,1.134,0.777,1.134,1.486C98.973,55.891,98.279,56.586,97.42,56.586 M93.633,52.658h2.507v0.371h-2.507V52.658z
		 M78.801,49.623c0.071-3.213,2.691-5.799,5.921-5.799s5.85,2.586,5.921,5.799H78.801z M93.633,50.193h2.507v0.371h-2.507V50.193z
		 M93.633,47.727h2.507V48.1h-2.507V47.727z M93.633,45.262h2.507v0.371h-2.507V45.262z M75.062,58.262h30.606V41.045H75.062V58.262
		z"/>
	<rect x="21.805" y="79.506" fill="#FFFFFF" width="2.7" height="10.303"/>
	
		<rect x="20.958" y="82.04" transform="matrix(0.6901 -0.7237 0.7237 0.6901 -54.2521 41.6177)" fill="#FFFFFF" width="1.015" height="4.224"/>
	<rect x="84.457" y="44.09" fill="#FFFFFF" width="0.528" height="1.514"/>
	
		<rect x="81.034" y="45.935" transform="matrix(0.695 -0.7191 0.7191 0.695 -8.7742 72.7001)" fill="#FFFFFF" width="0.527" height="1.513"/>
	
		<rect x="87.882" y="45.934" transform="matrix(-0.694 -0.72 0.72 -0.694 115.7016 142.5579)" fill="#FFFFFF" width="0.526" height="1.514"/>
	<path fill="#FFFFFF" d="M85.769,49.621c-0.035-0.551-0.488-0.988-1.047-0.988c-0.56,0-1.012,0.438-1.047,0.988H85.769z"/>
	<rect x="32.656" y="56.486" fill="#FFFFFF" width="8.473" height="2.387"/>
	<path fill="#FFFFFF" d="M102.234,73.516H31.735v-4.012h70.499V73.516z M102.234,79.828H31.735v-4.014h70.499V79.828z
		 M102.234,86.139H31.735v-4.014h70.499V86.139z M102.234,92.451H31.735v-4.014h70.499V92.451z M102.234,98.762H31.735v-4.014
		h70.499V98.762z M102.234,105.074H31.735v-4.014h70.499V105.074z M26.812,62.457c0.015-0.711,0.392-1.281,0.854-1.281
		c0.463,0,0.838,0.57,0.853,1.281H26.812z M28.468,74.572h-1.504V73.07h1.504V74.572z M28.468,72.533h-1.504v-1.504h1.504V72.533z
		 M28.468,70.492h-1.504v-1.504h1.504V70.492z M28.468,68.451h-1.504v-1.506h1.504V68.451z M26.964,62.865h1.504v1.504h-1.504
		V62.865z M28.468,66.41h-1.504v-1.504h1.504V66.41z M27.665,76.236c-0.462,0-0.839-0.568-0.854-1.281h1.706
		C28.503,75.668,28.128,76.236,27.665,76.236 M24.039,108.955h85.893V57.814H24.039V108.955z"/>
</g>
</svg>
