<?xml version="1.0" encoding="utf-8"?>
<!-- Generator: Adobe Illustrator 16.0.0, SVG Export Plug-In . SVG Version: 6.00 Build 0)  -->
<!DOCTYPE svg PUBLIC "-//W3C//DTD SVG 1.1//EN" "http://www.w3.org/Graphics/SVG/1.1/DTD/svg11.dtd">
<svg version="1.1" id="Capa_1" xmlns="http://www.w3.org/2000/svg" xmlns:xlink="http://www.w3.org/1999/xlink" x="0px" y="0px"
	 width="150px" height="150px" viewBox="0 0 150 150" enable-background="new 0 0 150 150" xml:space="preserve">
<g>
	<path fill="#FFFFFF" d="M74.382,85.752h-3.655V45.539h3.655V85.752z M92.66,52.852l10.968-7.312h-25.59v14.623h25.59L92.66,52.852z
		 M85.35,63.818l-7.312,3.656v4.088l5.483-2.742v21.068l-18.277,9.141v-21.07l1.828-0.914v-4.088l-3.656,1.828L45.139,63.818v29.244
		l18.277,10.969L85.35,93.062l18.278,10.969V74.785L85.35,63.818z M61.588,98.672l-12.794-7.68V70.273l12.74,7.646l0.054,0.031
		V98.672z M99.972,97.572L87.23,89.93l-0.054-0.033V69.182l12.795,7.674V97.572z M99.972,97.572"/>
</g>
</svg>
