<?xml version="1.0" encoding="utf-8"?>
<!-- Generator: Adobe Illustrator 16.0.0, SVG Export Plug-In . SVG Version: 6.00 Build 0)  -->
<!DOCTYPE svg PUBLIC "-//W3C//DTD SVG 1.1//EN" "http://www.w3.org/Graphics/SVG/1.1/DTD/svg11.dtd">
<svg version="1.1" id="Capa_1" xmlns="http://www.w3.org/2000/svg" xmlns:xlink="http://www.w3.org/1999/xlink" x="0px" y="0px"
	 width="200px" height="200px" viewBox="0 0 200 200" enable-background="new 0 0 200 200" xml:space="preserve">
<g>
	<path fill="#3A3330" d="M63.607,137.938c-1.296,1.297-2.348,3.84-2.348,5.668v23.83h13.844v-37.672
		c0-1.828-1.056-2.266-2.348-0.971L63.607,137.938z M63.607,137.938"/>
	<path fill="#3A3330" d="M124.397,115.355c-1.296,1.295-2.348,3.836-2.348,5.666v46.414h13.845v-60.27
		c0-1.832-1.053-2.27-2.349-0.973L124.397,115.355z M124.397,115.355"/>
	<path fill="#3A3330" d="M144.652,95.07c-1.296,1.295-2.349,3.82-2.349,5.648v66.717h12.87V87.883c0-1.83-1.052-2.266-2.348-0.971
		L144.652,95.07z M144.652,95.07"/>
	<path fill="#3A3330" d="M104.55,135.203c0,0-0.615,0.615-1.393,1.393c-0.743,0.762-1.374,2.867-1.374,4.695v26.145h13.842v-39.988
		c0-1.828-1.053-2.266-2.349-0.969L104.55,135.203z M104.55,135.203"/>
	<path fill="#3A3330" d="M83.877,128.178c-1.296-1.295-2.352-0.857-2.352,0.971v38.287H95.37v-24.479
		c0-1.828-1.002-4.307-2.232-5.537l-2.22-2.217L83.877,128.178z M83.877,128.178"/>
	<path fill="#3A3330" d="M46.185,155.373l-4.464,4.471c-1.296,1.295-2.333,3.531-2.333,4.971v2.621H54.83v-17.402
		c0-1.828-1.048-2.266-2.344-0.973L46.185,155.373z M46.185,155.373"/>
	<path fill="#867F7F" d="M171.865,87.268c1.296,1.295,2.345,0.859,2.345-0.971V38.928c0-3.387-3.253-6.363-6.619-6.363h-47.108
		c-1.833,0-2.27,1.051-0.971,2.348l16.754,16.773l-6.831,6.797L97.737,90.195L80.98,73.441c-1.297-1.295-3.404-1.295-4.696,0
		l-46.609,46.656c-5.18,5.18-5.18,13.586,0,18.75L30,139.186c5.18,5.18,13.581,5.18,18.745,0l29.887-29.902l16.758,16.756
		c1.292,1.281,3.399,1.281,4.692,0l55.27-55.27L171.865,87.268z M171.865,87.268"/>
</g>
</svg>
