<?xml version="1.0" encoding="utf-8"?>
<!-- Generator: Adobe Illustrator 16.0.0, SVG Export Plug-In . SVG Version: 6.00 Build 0)  -->
<!DOCTYPE svg PUBLIC "-//W3C//DTD SVG 1.1//EN" "http://www.w3.org/Graphics/SVG/1.1/DTD/svg11.dtd">
<svg version="1.1" id="Capa_1" xmlns="http://www.w3.org/2000/svg" xmlns:xlink="http://www.w3.org/1999/xlink" x="0px" y="0px"
	 width="150px" height="150px" viewBox="0 0 150 150" enable-background="new 0 0 150 150" xml:space="preserve">
<symbol  id="Nuevo_símbolo" viewBox="-74.412 -12.332 148.824 24.665">
	<path fill="#FFFFFF" d="M-69.082-5.332c-0.245,0-0.49-0.211-0.734-0.195c-0.246,0.017-0.395-0.174-0.537-0.381
		c-0.925-1.346-1.877-2.932-2.796-4.281c-0.425-0.625-0.901-1.143-1.263-2.143c38.857,0,77.714,0,116.57,0
		c0.922,2,1.844,3.411,2.766,4.91c0.334,0.542,0.67,1.09,1.04,2.09c-0.228,0-0.368,0-0.507,0C7.277-5.332-30.902-5.332-69.082-5.332
		z"/>
	<path fill="#FFFFFF" d="M-9.643-2.652c0.9,0.016,1.804,0.025,2.704-0.003c0.376-0.012,0.488,0.069,0.485,0.472
		C-6.474,0.65-6.465,3.484-6.465,6.318c0.02-0.001,0.038-0.001,0.057-0.002c0.019-0.045,0.04-0.09,0.057-0.136
		c0.992-2.824,1.988-5.647,2.973-8.474c0.088-0.25,0.184-0.365,0.478-0.36C-1.51-2.636-0.118-2.642,1.272-2.65
		c0.225-0.002,0.31,0.039,0.309,0.291C1.573,2.433,1.574,7.225,1.58,12.017c0,0.226-0.072,0.276-0.284,0.274
		c-0.952-0.01-1.906-0.02-2.859,0.004c-0.312,0.008-0.19-0.104-0.188-0.372c0.012-1.674,0.164-3.349,0.164-5.024
		c0-1.246,0-2.493,0-3.763c0,0.11-0.311,0.258-0.355,0.381c-1.021,2.8-2.119,5.6-3.128,8.404c-0.095,0.262-0.247,0.378-0.55,0.374
		c-1.328-0.02-2.674-0.015-4.001-0.002c-0.253,0.002-0.329-0.068-0.329-0.32c0.008-4.766,0.003-9.533-0.005-14.299
		C-9.956-2.574-9.902-2.657-9.643-2.652z"/>
	<path fill="#FFFFFF" d="M51.251,12.293c-1.042-0.02-2.086-0.021-3.128,0c-0.339,0.007-0.455-0.063-0.45-0.432
		c0.022-1.751,0.002-3.503,0.018-5.254c0.003-0.296-0.081-0.374-0.366-0.357c-0.423,0.024-0.851,0.028-1.273-0.001
		c-0.299-0.02-0.357,0.082-0.355,0.364c0.014,1.776,0.001,3.554,0.012,5.331c0.002,0.261-0.053,0.354-0.334,0.349
		c-1.081-0.018-2.164-0.02-3.244,0.001c-0.309,0.006-0.35-0.102-0.35-0.373c0.008-4.726,0.008-9.452,0-14.178
		c0-0.281,0.038-0.406,0.368-0.398c1.056,0.024,2.112,0.022,3.168,0c0.331-0.007,0.397,0.1,0.394,0.411
		c-0.016,1.648,0.001,3.297-0.015,4.945c-0.003,0.311,0.087,0.399,0.388,0.378c0.371-0.025,0.746,0,1.119-0.007
		c0.511-0.009,0.481,0.111,0.482-0.503c0.002-1.61,0.006-3.219-0.007-4.829c-0.002-0.285,0.046-0.402,0.372-0.395
		c1.068,0.022,2.138,0.021,3.206,0c0.303-0.006,0.354,0.093,0.354,0.37c-0.011,2.356-0.007,4.713-0.007,7.069
		c0,2.382-0.004,4.765,0.008,7.147C51.611,12.217,51.545,12.299,51.251,12.293z"/>
	<path fill="#FFFFFF" d="M31.682-2.572c0.788-0.156,1.59-0.103,2.387-0.1c0.926,0.003,1.854-0.061,2.772,0.117
		c1.41,0.273,2.317,1.049,2.479,2.289c0.151,1.147,0.058,2.313,0.068,3.471c0.002,0.205-0.137,0.179-0.264,0.179
		c-1.12,0-2.241-0.007-3.361,0.005c-0.239,0.003-0.273-0.097-0.27-0.298c0.011-0.476-0.004-0.953,0.006-1.429
		c0.007-0.322-0.149-0.501-0.442-0.592c-0.379-0.118-0.768-0.069-1.151-0.065c-0.508,0.004-0.778,0.292-0.778,0.794
		c-0.002,2.009-0.001,4.018-0.001,6.027c0.001,0.465,0.21,0.745,0.658,0.795c0.408,0.046,0.823,0.056,1.229-0.047
		c0.33-0.083,0.499-0.28,0.488-0.638c-0.016-0.463,0.004-0.927-0.008-1.391c-0.005-0.2,0.023-0.298,0.265-0.295
		c1.12,0.013,2.24,0.009,3.36,0.002c0.185-0.001,0.277,0.025,0.274,0.247c-0.014,1.03,0.012,2.061-0.02,3.09
		c-0.024,0.786-0.37,1.435-1.005,1.914c-0.515,0.389-1.102,0.626-1.734,0.698c-1.539,0.178-3.004,0.158-4.538,0.042
		c-1.806-0.137-2.685-1.322-2.685-3.127c0-1.417,0-2.833,0-4.25c0-1.48-0.09-2.961-0.087-4.442
		C29.328-1.19,30.108-2.261,31.682-2.572z"/>
	<path fill="#FFFFFF" d="M-20.293-2.318c0-0.248,0.033-0.365,0.327-0.364c2.37,0.012,4.741,0.01,7.111,0.001
		c0.249-0.001,0.336,0.062,0.331,0.323c-0.016,0.85-0.02,1.7-0.001,2.55c0.007,0.285-0.092,0.339-0.352,0.336
		c-1.044-0.013-2.087,0.003-3.13-0.011c-0.271-0.004-0.389,0.039-0.374,0.35c0.028,0.617,0.025,1.237,0.002,1.854
		c-0.013,0.297,0.083,0.364,0.367,0.359c1.044-0.018,2.087,0.006,3.13-0.015c0.304-0.006,0.363,0.093,0.357,0.372
		c-0.017,0.824-0.021,1.649,0.002,2.473c0.009,0.307-0.099,0.355-0.373,0.352c-1.043-0.016-2.087,0.007-3.13-0.014
		c-0.302-0.006-0.361,0.088-0.354,0.367c0.021,0.708,0.021,1.417,0,2.125c-0.008,0.278,0.086,0.345,0.347,0.342
		c1.031-0.014,2.062,0.01,3.092-0.018c0.357-0.01,0.428,0.108,0.418,0.436c-0.023,0.798-0.023,1.598-0.002,2.396
		c0.008,0.306-0.078,0.385-0.385,0.383c-2.331-0.013-4.663-0.015-6.994,0.001c-0.337,0.002-0.395-0.11-0.393-0.415
		c0.012-2.357,0.007-4.715,0.007-7.073C-20.288,2.423-20.285,0.053-20.293-2.318z"/>
	<path fill="#FFFFFF" d="M58.59,9.081c1.029-0.014,2.061,0.006,3.09-0.013c0.319-0.006,0.449,0.046,0.434,0.411
		c-0.034,0.797-0.026,1.597-0.004,2.395c0.01,0.312-0.062,0.41-0.393,0.408c-2.318-0.016-4.636-0.018-6.953,0.002
		c-0.365,0.003-0.412-0.117-0.411-0.435c0.013-2.343,0.007-4.687,0.007-7.03c0-2.382,0.004-4.765-0.006-7.146
		c0-0.257,0.051-0.354,0.334-0.354c2.369,0.012,4.738,0.011,7.107,0c0.268-0.001,0.316,0.092,0.312,0.332
		c-0.014,0.824-0.02,1.648,0.002,2.472c0.01,0.312-0.061,0.416-0.393,0.409c-1.056-0.023-2.112-0.002-3.168-0.013
		c-0.234-0.003-0.311,0.063-0.305,0.303c0.016,0.631,0.021,1.262-0.001,1.893C58.233,3,58.311,3.087,58.605,3.082
		c1.055-0.019,2.111,0.003,3.167-0.014c0.276-0.004,0.342,0.077,0.337,0.344c-0.018,0.836-0.019,1.674,0,2.51
		c0.006,0.267-0.061,0.347-0.336,0.342c-1.068-0.018-2.138,0-3.206-0.013c-0.253-0.004-0.329,0.064-0.323,0.32
		c0.017,0.721,0.017,1.442,0,2.163C58.238,9.003,58.319,9.084,58.59,9.081z"/>
	<path fill="#FFFFFF" d="M-49.689-2.319c0-0.189-0.02-0.335,0.266-0.333c2.396,0.012,4.792,0.009,7.188,0.002
		c0.221,0,0.285,0.065,0.283,0.285c-0.012,0.863-0.015,1.726,0.001,2.588c0.005,0.258-0.075,0.322-0.325,0.319
		c-1.068-0.014-2.138,0.002-3.207-0.012c-0.258-0.004-0.325,0.074-0.318,0.324c0.016,0.631,0.018,1.263-0.002,1.893
		c-0.008,0.267,0.061,0.351,0.338,0.346c1.057-0.017,2.113,0.002,3.168-0.013c0.264-0.004,0.354,0.058,0.348,0.336
		c-0.02,0.837-0.018,1.674-0.001,2.511c0.006,0.268-0.066,0.351-0.341,0.347c-1.056-0.016-2.112,0.003-3.168-0.013
		c-0.273-0.004-0.35,0.077-0.344,0.347c0.019,0.721,0.025,1.443-0.001,2.163c-0.012,0.312,0.103,0.354,0.374,0.35
		c1.043-0.015,2.086,0.002,3.129-0.012c0.258-0.003,0.358,0.047,0.352,0.332c-0.02,0.836-0.019,1.675,0,2.511
		c0.006,0.277-0.081,0.339-0.346,0.338c-2.344-0.01-4.688-0.014-7.033,0.003c-0.329,0.002-0.364-0.118-0.363-0.394
		c0.009-2.357,0.005-4.714,0.005-7.071C-49.688,2.446-49.688,0.063-49.689-2.319z"/>
	<path fill="#FFFFFF" d="M-29.803-2.307c-0.002-0.278,0.055-0.381,0.355-0.375c1.07,0.018,2.14,0.017,3.208,0
		c0.286-0.004,0.37,0.072,0.367,0.365c-0.015,1.649,0.001,3.298-0.015,4.947c-0.003,0.333,0.055,0.465,0.432,0.454
		c1.017-0.031,2.035-0.001,3.053-0.017c0.278-0.004,0.381,0.054,0.373,0.356c-0.022,0.824-0.02,1.649-0.002,2.473
		c0.007,0.281-0.057,0.374-0.357,0.368c-1.043-0.021-2.087,0.001-3.13-0.015c-0.274-0.004-0.38,0.046-0.368,0.352
		c0.025,0.707,0.024,1.417,0,2.125c-0.012,0.306,0.097,0.358,0.373,0.354c1.043-0.015,2.086,0.001,3.13-0.012
		c0.262-0.003,0.358,0.06,0.353,0.34c-0.018,0.837-0.02,1.675,0.001,2.512c0.007,0.299-0.093,0.36-0.374,0.358
		c-2.331-0.011-4.663-0.013-6.994,0.001c-0.322,0.002-0.407-0.081-0.406-0.404c0.015-2.357,0.008-4.715,0.008-7.072
		C-29.797,2.435-29.792,0.063-29.803-2.307z"/>
	<path fill="#FFFFFF" d="M-38.926-2.653c1.068,0.018,2.137,0.02,3.205-0.001c0.302-0.006,0.354,0.09,0.353,0.367
		c-0.013,1.687-0.001,3.373-0.013,5.06c-0.001,0.248,0.06,0.324,0.316,0.321c1.068-0.015,2.137,0.003,3.205-0.013
		c0.264-0.004,0.322,0.081,0.319,0.326c-0.014,0.85-0.016,1.699,0.001,2.549c0.004,0.26-0.081,0.322-0.33,0.319
		c-1.068-0.013-2.137,0.001-3.205-0.011c-0.233-0.002-0.312,0.054-0.307,0.298c0.016,0.747,0.017,1.494,0,2.24
		c-0.005,0.249,0.061,0.325,0.316,0.321c1.068-0.015,2.137,0.003,3.206-0.013c0.264-0.004,0.321,0.082,0.317,0.326
		c-0.014,0.824-0.021,1.648-0.001,2.471c0.007,0.293-0.054,0.389-0.37,0.387c-2.33-0.015-4.66-0.018-6.99,0.002
		c-0.365,0.003-0.41-0.116-0.409-0.433c0.013-2.343,0.007-4.687,0.007-7.03c0-2.369,0.006-4.738-0.008-7.106
		C-39.314-2.583-39.226-2.658-38.926-2.653z"/>
	<path fill="#FFFFFF" d="M-56.42-2.651c1.056,0.011,2.112,0.018,3.168-0.003c0.324-0.006,0.433,0.055,0.43,0.413
		c-0.02,2.344-0.01,4.688-0.01,7.033c0,2.383-0.004,4.766,0.006,7.149c0,0.253-0.039,0.357-0.328,0.352
		c-1.081-0.018-2.164-0.014-3.246-0.002c-0.237,0.002-0.329-0.043-0.329-0.311c0.009-4.779,0.009-9.558,0.001-14.337
		C-56.729-2.605-56.648-2.653-56.42-2.651z"/>
	<path fill="#FFFFFF" d="M74.412,9.812c0,0.264-0.089,0.604-0.277,0.872c-0.707,1.006-1.649,1.566-2.861,1.59
		c-2.124,0.042-4.232,0.007-6.357,0.017c-0.256,0.001-0.344-0.046-0.343-0.331c0.009-4.764,0.013-9.529,0.005-14.293
		c0-0.261,0.083-0.321,0.331-0.318c1.042,0.013,2.087,0.019,3.13-0.003c0.329-0.007,0.399,0.097,0.396,0.41
		c-0.017,1.674-0.008,3.348-0.006,5.022c0,0.139-0.065,0.321,0.201,0.312c0.463-0.014,0.929,0.017,1.39-0.015
		c0.637-0.043,0.907-0.361,0.906-1.002c-0.003-1.468-0.005-2.936-0.015-4.403c-0.002-0.203-0.064-0.328,0.208-0.323
		c1.12,0.021,2.292,0.015,3.292,0.02c0,1.933,0,3.865,0,5.797c0,0.681-0.561,1.173-0.978,1.663c0.427,0.498,0.978,0.987,0.978,1.662
		C74.412,7.596,74.412,8.704,74.412,9.812z M70.443,6.28c-0.615-0.021-1.228-0.005-1.844-0.013
		c-0.197-0.002-0.188,0.121-0.188,0.254c0,0.346,0,1.146,0,1.146s0.008,0,0.016,0c0,0,0.008,0.64-0.002,0.986
		c-0.006,0.186,0.033,0.253,0.25,0.249c0.604-0.013,1.207-0.015,1.811-0.02c0.297-0.002,0.445-0.158,0.442-0.463
		c-0.006-0.539-0.013-1.083,0.003-1.622C70.941,6.446,70.745,6.291,70.443,6.28z"/>
	<path fill="#FFFFFF" d="M4.604-2.652c2.073,0.012,4.146,0.007,6.221,0.006c0.259,0,0.512,0.034,0.765,0.091
		c1.53,0.344,2.386,1.246,2.624,2.783c0.043,0.279,0.049,0.563,0.072,0.846c0.111,1.278,0.018,2.505-0.945,3.487
		c-0.205,0.208-0.159,0.339,0.007,0.54c0.507,0.611,0.921,1.267,0.949,2.102c0.022,0.657,0.005,1.312-0.056,1.964
		c-0.051,0.548-0.081,1.115-0.421,1.583c-0.711,0.979-1.689,1.509-2.891,1.527c-2.099,0.031-4.198,0.001-6.298,0.017
		c-0.32,0.003-0.37-0.104-0.369-0.389c0.011-2.356,0.007-4.713,0.007-7.07C4.268,2.453,4.272,0.07,4.262-2.312
		C4.26-2.584,4.334-2.654,4.604-2.652z M10.619,0.984c0-0.298-0.146-0.458-0.446-0.459C9.567,0.522,8.962,0.53,8.357,0.52
		C8.166,0.517,8.108,0.597,8.11,0.77c0.004,0.361,0.001,0.721,0.001,1.082C8.11,2.174,8.117,2.496,8.107,2.817
		C8.103,3,8.133,3.099,8.355,3.094c0.605-0.012,1.211,0.004,1.816,0.004c0.296,0,0.451-0.144,0.449-0.452
		C10.616,2.092,10.619,1.538,10.619,0.984z M8.342,8.875c0.59-0.011,1.181-0.004,1.771-0.004c0.33,0,0.496-0.159,0.494-0.495
		c-0.003-0.526-0.01-1.053,0.002-1.579c0.008-0.341-0.162-0.514-0.479-0.518C9.503,6.272,8.875,6.295,8.246,6.298
		C8.068,6.299,8.08,6.409,8.08,6.529c0.002,0.346,0.002,0.693,0.002,1.04s0.008,0.693-0.004,1.04
		C8.071,8.808,8.138,8.879,8.342,8.875z"/>
	<path fill="#FFFFFF" d="M17.15-2.651c1.068,0.013,2.137,0.017,3.205-0.002c0.297-0.005,0.365,0.083,0.361,0.368
		c-0.017,1.068,0,2.138-0.012,3.206c-0.002,0.239,0.07,0.312,0.309,0.304c0.488-0.017,0.979-0.02,1.467,0
		c0.27,0.012,0.35-0.069,0.346-0.343c-0.016-1.068,0.006-2.138-0.014-3.206c-0.006-0.302,0.093-0.361,0.371-0.357
		c1.056,0.016,2.112,0.016,3.168,0c0.284-0.004,0.369,0.066,0.367,0.361c-0.014,1.996-0.008,3.992-0.008,5.987
		c0,1.944,0.006,3.889-0.002,5.833c-0.004,0.893-0.352,1.626-1.094,2.145c-0.596,0.417-1.279,0.618-1.995,0.633
		c-1.261,0.028-2.523,0.031-3.785,0.002c-1.765-0.041-3.024-1.254-3.028-2.902c-0.009-3.901,0-7.803-0.01-11.704
		C16.796-2.616,16.898-2.654,17.15-2.651z M20.707,7.991c-0.01,0.352,0.159,0.49,0.484,0.494c0.386,0.004,0.771,0.008,1.157,0.013
		c0.319,0.003,0.472-0.157,0.472-0.474c0-1.119-0.006-2.237,0.006-3.356c0.002-0.233-0.086-0.276-0.293-0.271
		c-0.514,0.012-1.028,0.013-1.543,0c-0.213-0.005-0.291,0.052-0.284,0.277c0.015,0.552,0.005,1.106,0.005,1.659
		S20.721,7.439,20.707,7.991z"/>
	<path fill="#FFFFFF" d="M-69.472-2.322c-0.001-0.274,0.103-0.314,0.334-0.314c2.086,0.001,4.172-0.017,6.257-0.005
		c1.512,0.008,2.627,0.784,3.126,2.137c0.18,0.487,0.249,0.996,0.249,1.515c0,2.279-0.002,4.559,0.002,6.838
		c0.002,0.412-0.021,0.822-0.066,1.231c-0.211,1.883-1.613,3.158-3.504,3.17c-1.994,0.013-3.99,0.006-5.985,0.034
		c-0.356,0.005-0.415-0.104-0.413-0.429c0.015-2.343,0.008-4.687,0.008-7.03C-69.465,2.441-69.459,0.06-69.472-2.322z
		 M-65.345,8.995c0.1-0.018,0.206,0.027,0.308,0.02c1.226-0.088,1.622-0.467,1.617-1.613c-0.009-1.737-0.002-3.464-0.003-5.203
		c-0.001-0.988-0.374-1.444-1.353-1.515c-0.863-0.062-0.812-0.062-0.812,0.809c0,1.12,0,2.174,0,3.174c0,0-0.094,0-0.089,0
		c0,1,0.009,2.668-0.007,3.956C-65.687,8.896-65.619,9.046-65.345,8.995z"/>
</symbol>
<use xlink:href="#Nuevo_símbolo"  width="148.824" height="24.665" x="-74.412" y="-12.332" transform="matrix(0.8188 0 0 -0.8188 75 75)" overflow="visible"/>
</svg>
