<?xml version="1.0" encoding="utf-8"?>
<!-- Generator: Adobe Illustrator 16.0.0, SVG Export Plug-In . SVG Version: 6.00 Build 0)  -->
<!DOCTYPE svg PUBLIC "-//W3C//DTD SVG 1.1//EN" "http://www.w3.org/Graphics/SVG/1.1/DTD/svg11.dtd">
<svg version="1.1" id="Capa_1" xmlns="http://www.w3.org/2000/svg" xmlns:xlink="http://www.w3.org/1999/xlink" x="0px" y="0px"
	 width="150px" height="150px" viewBox="0 0 150 150" enable-background="new 0 0 150 150" xml:space="preserve">
<g>
	<polygon fill="#FFFFFF" points="27,72.463 27,77.336 78.767,89.182 123,72.463 123,67.846 78.427,83.365 	"/>
	<polygon fill="#FFFFFF" points="70.624,77.674 107.131,64.15 122.679,66.691 78.272,82.055 26.688,71.451 35.781,69.826 	"/>
	<polygon fill="#FFFFFF" points="18,60.336 18,65.209 70.269,77.053 115,60.336 115,55.717 69.93,71.238 	"/>
	<polygon fill="#FFFFFF" points="68.868,48.592 114.968,54.572 70.114,69.93 18.53,59.324 	"/>
	<polygon fill="#FFFFFF" points="34,84.689 34,89.562 86.267,101.408 131,84.689 131,80.072 85.928,95.594 	"/>
	<polygon fill="#FFFFFF" points="78.631,89.9 115.138,76.377 130.916,78.969 86.279,94.283 34.694,83.68 43.787,82.055 	"/>
</g>
</svg>
