<?xml version="1.0" encoding="utf-8"?>
<!-- Generator: Adobe Illustrator 16.0.0, SVG Export Plug-In . SVG Version: 6.00 Build 0)  -->
<!DOCTYPE svg PUBLIC "-//W3C//DTD SVG 1.1//EN" "http://www.w3.org/Graphics/SVG/1.1/DTD/svg11.dtd">
<svg version="1.1" id="Capa_1" xmlns="http://www.w3.org/2000/svg" xmlns:xlink="http://www.w3.org/1999/xlink" x="0px" y="0px"
	 width="150px" height="150px" viewBox="0 0 150 150" enable-background="new 0 0 150 150" xml:space="preserve">
<g>
	<path fill="#FFFFFF" d="M47.045,85.816c-0.819-2.651-1.228-5.512-1.228-8.366c0-12.447,8.367-23.055,20-26.528v3.474l15.306-7.759
		l-15.306-7.754v5.511c-14.9,3.877-26.121,17.14-26.121,33.057c0,2.245,0.206,4.492,0.612,6.528l0.611-3.266L47.045,85.816z
		 M47.045,85.816"/>
	<path fill="#FFFFFF" d="M97.039,82.345l-1.025,17.146l14.29-9.387l-4.693-2.86c1.019-3.06,1.428-6.327,1.428-9.794
		c0-14.693-9.591-27.138-22.649-31.832l2.444,1.837l-7.344,3.06c12.241,2.855,21.428,13.874,21.428,26.936
		c0,2.245-0.41,4.488-0.818,6.528L97.039,82.345z M97.039,82.345"/>
	<path fill="#FFFFFF" d="M93.771,96.021C88.671,101.532,81.527,105,73.364,105c-7.343,0-14.078-3.063-18.976-7.757l3.06-1.632
		l-14.282-9.385l1.018,17.137l4.693-2.854c6.126,6.53,14.898,10.608,24.487,10.608c8.367,0,15.922-3.06,21.836-8.163l-2.446,0.82
		L93.771,96.021z M93.771,96.021"/>
	<path fill="#FFFFFF" d="M71.123,58.27v4.487c-5.102,1.023-7.958,4.289-7.958,8.366c0,4.494,3.47,6.94,8.367,8.572
		c3.47,1.229,4.897,2.247,4.897,4.083c0,1.834-1.84,2.857-4.491,2.857c-3.062,0-5.714-1.023-7.755-2.043l-1.428,5.512
		c1.837,1.018,4.897,1.837,7.957,2.037v4.493h4.693v-4.898c5.308-1.019,8.367-4.488,8.367-8.571c0-4.283-2.246-6.735-7.754-8.771
		c-4.081-1.428-5.713-2.451-5.713-4.084c0-1.223,1.021-2.649,4.081-2.649c3.47,0,5.508,1.021,6.735,1.632l1.428-5.307
		c-1.632-0.814-3.677-1.428-6.736-1.631v-4.082L71.123,58.27z M71.123,58.27"/>
</g>
</svg>
