<?xml version="1.0" encoding="utf-8"?>
<!-- Generator: Adobe Illustrator 16.0.0, SVG Export Plug-In . SVG Version: 6.00 Build 0)  -->
<!DOCTYPE svg PUBLIC "-//W3C//DTD SVG 1.1//EN" "http://www.w3.org/Graphics/SVG/1.1/DTD/svg11.dtd">
<svg version="1.1" id="Capa_1" xmlns="http://www.w3.org/2000/svg" xmlns:xlink="http://www.w3.org/1999/xlink" x="0px" y="0px"
	 width="200px" height="200px" viewBox="0 0 200 200" enable-background="new 0 0 200 200" xml:space="preserve">
<g>
	<path fill="#FFFFFF" d="M159.362,99.097l3.779-10.026l0.157-0.236l0.126,0.236l3.348,9.002
		C163.111,98.059,160.752,98.597,159.362,99.097 M174.485,103.342c-0.312,0-0.706-0.027-1.1-0.104
		c-0.546-0.13-1.307-0.5-2.299-2.849c-1.674-3.975-5.856-14.641-6.484-16.077c-0.261-0.602-0.419-0.836-0.653-0.836
		c-0.265,0-0.418,0.287-0.731,1.046l-6.56,16.416c-0.526,1.307-1.023,2.196-2.225,2.352c-0.212,0.025-0.572,0.053-0.807,0.053
		c-0.211,0-0.317,0.052-0.317,0.208c0,0.212,0.156,0.264,0.498,0.264c1.358,0,2.798-0.079,3.085-0.079
		c0.808,0,1.937,0.079,2.771,0.079c0.289,0,0.445-0.052,0.445-0.264c0-0.156-0.081-0.208-0.397-0.208h-0.388
		c-0.81,0-1.046-0.342-1.046-0.809c0-0.316,0.132-0.94,0.394-1.596l0.149-0.405c2.479-1.168,6.032-0.993,8.634-0.626l1.044,2.808
		c0.13,0.315-0.054,0.552-0.235,0.601c-0.261,0.027-0.364,0.08-0.364,0.236c0,0.186,0.312,0.186,0.782,0.212
		c2.091,0.052,4,0.052,4.94,0.052c0.968,0,1.206-0.052,1.206-0.264C174.827,103.369,174.693,103.342,174.485,103.342"/>
	<path fill="#FFFFFF" d="M123.766,85.423l-3.915,0.104c-1.524,0.054-2.156,0.186-2.551,0.763c-0.264,0.394-0.396,0.709-0.447,0.919
		s-0.129,0.314-0.288,0.314c-0.185,0-0.234-0.13-0.234-0.421c0-0.419,0.496-2.812,0.548-3.022c0.083-0.339,0.158-0.497,0.318-0.497
		c0.21,0,0.469,0.261,1.13,0.314c0.762,0.078,1.762,0.131,2.627,0.131h10.402c0.843,0,1.42-0.078,1.814-0.131
		c0.394-0.079,0.604-0.131,0.709-0.131c0.183,0,0.211,0.158,0.211,0.553c0,0.55-0.081,2.363-0.081,3.048
		c-0.025,0.26-0.076,0.419-0.234,0.419c-0.211,0-0.265-0.13-0.291-0.527l-0.025-0.288c-0.053-0.683-0.762-1.42-3.1-1.473
		l-3.311-0.077v10.772c0,2.416,0,4.492,0.131,5.619c0.079,0.738,0.237,1.314,1.026,1.42c0.363,0.05,0.943,0.105,1.341,0.105
		c0.287,0,0.416,0.079,0.416,0.209c0,0.186-0.209,0.266-0.498,0.266c-1.734,0-3.386-0.08-4.126-0.08c-0.602,0-2.257,0.08-3.312,0.08
		c-0.34,0-0.523-0.08-0.523-0.266c0-0.131,0.108-0.209,0.422-0.209c0.394,0,0.71-0.055,0.945-0.105
		c0.526-0.106,0.683-0.682,0.76-1.446c0.136-1.102,0.136-3.178,0.136-5.594V85.423z"/>
	<path fill="#FFFFFF" d="M182.099,92.727h0.132c0.894-0.973,4.729-4.887,5.491-5.781c0.735-0.867,1.312-1.521,1.312-1.969
		c0-0.289-0.105-0.475-0.368-0.525c-0.229-0.055-0.342-0.108-0.342-0.265c0-0.184,0.133-0.237,0.42-0.237
		c0.552,0,2,0.078,2.708,0.078c0.813,0,2.26-0.078,3.072-0.078c0.264,0,0.449,0.053,0.449,0.237s-0.133,0.235-0.397,0.235
		c-0.365,0-1.023,0.107-1.521,0.292c-0.815,0.316-1.707,0.866-2.838,1.969c-0.815,0.788-4.782,4.73-5.676,5.675
		c0.945,1.234,6.094,6.78,7.123,7.751c1.152,1.102,2.334,2.287,3.756,2.838c0.787,0.318,1.313,0.393,1.628,0.393
		c0.183,0,0.341,0.053,0.341,0.209c0,0.186-0.134,0.265-0.633,0.265h-2.281c-0.791,0-1.261,0-1.814-0.052
		c-1.417-0.133-2.127-0.711-3.259-1.708c-1.156-1.025-6.33-7.093-6.881-7.855l-0.291-0.394h-0.132v2.389c0,2.416,0,4.492,0.08,5.622
		c0.052,0.736,0.288,1.313,0.945,1.419c0.369,0.052,0.944,0.105,1.288,0.105c0.208,0,0.339,0.079,0.339,0.209
		c0,0.186-0.209,0.265-0.496,0.265c-1.473,0-3.127-0.079-3.783-0.079c-0.606,0-2.262,0.079-3.313,0.079
		c-0.339,0-0.523-0.079-0.523-0.265c0-0.13,0.105-0.209,0.42-0.209c0.396,0,0.71-0.054,0.944-0.105
		c0.526-0.106,0.658-0.683,0.765-1.446c0.13-1.104,0.13-3.18,0.13-5.595v-4.623c0-3.994,0-4.73-0.052-5.571
		c-0.054-0.893-0.264-1.312-1.13-1.499c-0.212-0.05-0.657-0.08-1.022-0.08c-0.288,0-0.449-0.051-0.449-0.235
		s0.187-0.237,0.579-0.237c1.391,0,3.046,0.078,3.679,0.078c0.63,0,2.284-0.078,3.179-0.078c0.364,0,0.552,0.053,0.552,0.237
		s-0.16,0.235-0.367,0.235c-0.263,0-0.421,0.03-0.737,0.08c-0.707,0.132-0.918,0.579-0.97,1.499
		c-0.056,0.841-0.056,1.577-0.056,5.571V92.727z"/>
	<path fill="#FFFFFF" d="M143.483,96.194c0,0.894-0.023,3.312,0,4.071c0.049,1.815,0.474,2.21,3.152,2.21
		c0.685,0,1.791,0,2.473-0.315c0.681-0.317,0.996-0.869,1.182-1.946c0.049-0.287,0.103-0.395,0.287-0.395
		c0.21,0,0.21,0.211,0.21,0.474c0,0.604-0.21,2.392-0.342,2.913c-0.181,0.688-0.418,0.688-1.42,0.688
		c-1.969,0-3.413-0.054-4.541-0.079c-1.131-0.052-1.946-0.079-2.732-0.079c-0.293,0-0.87,0-1.5,0.027
		c-0.604,0-1.287,0.052-1.812,0.052c-0.344,0-0.527-0.079-0.527-0.264c0-0.131,0.106-0.209,0.421-0.209
		c0.396,0,0.708-0.054,0.944-0.105c0.528-0.104,0.66-0.683,0.762-1.445c0.135-1.103,0.135-3.178,0.135-5.596v-4.623
		c0-3.994,0-4.731-0.053-5.571c-0.052-0.893-0.261-1.313-1.129-1.498c-0.213-0.053-0.659-0.08-1.026-0.08
		c-0.288,0-0.445-0.051-0.445-0.236c0-0.184,0.182-0.236,0.575-0.236c0.71,0,1.474,0.026,2.132,0.026
		c0.68,0.026,1.285,0.052,1.652,0.052c0.841,0,6.071,0,6.569-0.026c0.503-0.052,0.922-0.105,1.133-0.158
		c0.13-0.025,0.286-0.103,0.42-0.103c0.131,0,0.153,0.103,0.153,0.235c0,0.185-0.129,0.499-0.208,1.708
		c-0.027,0.263-0.079,1.417-0.133,1.735c-0.026,0.132-0.078,0.289-0.263,0.289c-0.181,0-0.238-0.131-0.238-0.368
		c0-0.184-0.026-0.631-0.155-0.946c-0.184-0.472-0.445-0.79-1.759-0.946c-0.447-0.054-3.204-0.105-3.731-0.105
		c-0.137,0-0.186,0.079-0.186,0.261V96.194z"/>
	<path fill="#FFFFFF" d="M145.407,92.848c0.741,0.047,1.467,0.025,2.067-0.028c0.63-0.052,1.026-0.13,1.262-0.394
		c0.184-0.209,0.288-0.342,0.42-0.342c0.101,0,0.187,0.052,0.187,0.211c0,0.158-0.106,0.578-0.212,1.919
		c-0.028,0.525-0.106,1.576-0.106,1.757c0,0.209,0,0.502-0.236,0.502c-0.183,0-0.234-0.108-0.234-0.238
		c-0.029-0.264-0.029-0.602-0.106-0.943c-0.13-0.527-0.389-0.971-1.363-1.05C144.021,93.987,144.496,92.79,145.407,92.848"/>
	<path fill="#FFFFFF" d="M24.832,95.879c0.451-0.125,0.626-0.446,0.689-0.744c0,0,0.02-0.587-0.394-0.666
		c-0.278-0.02-0.675,0.016-1.104,0.237c-0.808,0.422-0.23,1.593-0.23,1.593S24.292,96.026,24.832,95.879 M38.263,96.155
		c-0.248-0.064-0.471-0.079-0.646-0.067c-0.144,0.027-0.234,0.12-0.292,0.226c0.018-0.188,0-0.385-0.085-0.56l0.067,0.024
		C37.717,95.889,38.102,96.072,38.263,96.155 M36.605,98.515c-0.127,0.023-0.211,0.098-0.269,0.188l-0.009-0.021l0.244-0.526
		c0.468,0.152,0.864,0.368,0.864,0.368l0.005-0.007l0.041,0.139C37.141,98.523,36.833,98.499,36.605,98.515 M37.228,96.762
		l0.074,0.232l-0.098-0.062l-0.032-0.016L37.228,96.762z M36.1,96.694c-0.148,0.027-0.24,0.124-0.299,0.234
		c-0.032-0.237-0.146-0.465-0.416-0.604l-0.274-0.114l0.021-0.162c0.052-0.12,0.175-0.438,0.177-0.769
		c0.056-0.206,0.111-0.413,0.166-0.622c0.415,0.146,0.748,0.326,0.748,0.326s0.269-0.55,0.179-1.034
		c0.102,0.092,0.232,0.165,0.4,0.21c0.232,0.064,0.458,0.151,0.641,0.23c-0.163-0.023-0.312-0.028-0.433-0.021
		c-0.413,0.078-0.391,0.665-0.391,0.665l0.111,0.31c-0.361-0.149-0.694-0.18-0.934-0.163c-0.412,0.076-0.393,0.663-0.393,0.663
		c0.061,0.3,0.24,0.621,0.689,0.745c0.129,0.035,0.252,0.077,0.371,0.121C36.331,96.692,36.205,96.687,36.1,96.694 M35.868,98.293
		c-0.28-0.124-0.544-0.175-0.762-0.185c-0.013-0.148-0.024-0.295-0.034-0.441c0.315,0.126,0.544,0.249,0.544,0.249
		s0.081-0.165,0.14-0.393c0.053,0.147,0.142,0.289,0.281,0.399L35.868,98.293z M35.25,99.622l-0.008-0.085l0.042,0.013L35.25,99.622
		z M34.998,102.051l-0.194-0.083l0.016-0.035l0.263,0.112l0.016,0.005H34.998z M34.777,100.64c-0.4,0.086-0.383,0.659-0.383,0.659
		l0.026,0.108l-0.204,0.442h-0.239c-0.413,0.079-0.393,0.666-0.393,0.666c0.027,0.125,0.073,0.252,0.15,0.37l-0.139,0.299
		c-0.16-0.021-0.307-0.028-0.429-0.02l-0.043,0.016c-0.126-0.007-0.276-0.003-0.442,0.026c0.378-0.142,0.537-0.436,0.594-0.712
		c0,0,0.005-0.286-0.131-0.486c0.148-0.057,0.312-0.117,0.481-0.163c0.451-0.124,0.629-0.446,0.689-0.746
		c0,0,0.011-0.319-0.151-0.518l0.168-0.051c0.142-0.04,0.254-0.097,0.345-0.167l0.107,0.26L34.777,100.64z M32.899,104.683
		l-0.003-0.11l0.067-0.024L32.899,104.683z M32.573,100.869c-0.032-0.149-0.105-0.323-0.274-0.4l0.095-0.28v-0.006l0.319,0.277
		l0.192-0.22l-0.431-0.377l0.215-0.131v0.005l0.055-0.03l0.275-0.086c0.164-0.045,0.289-0.114,0.388-0.201l0.054-0.019
		c-0.422,0.271-0.397,0.774-0.309,1.133c-0.107,0.035-0.217,0.08-0.331,0.139L32.573,100.869z M32.244,101.896l-0.048-0.177
		l0.197-0.176l0.051,0.307L32.244,101.896z M31.766,93.098c-0.178-0.092-0.351-0.147-0.51-0.184l0.026-0.105
		c0,0,0.005-0.161-0.05-0.325c0.101-0.044,0.215-0.091,0.343-0.137l-0.013,0.159c0.062,0.298,0.238,0.621,0.688,0.745l0.223,0.067
		c0.062,0.299,0.238,0.618,0.687,0.741c0.219,0.06,0.427,0.138,0.604,0.212c-0.397,0.088-0.381,0.661-0.381,0.661l0.028,0.11
		L33.216,95c-0.062-0.158-0.173-0.297-0.361-0.395l-0.104-0.043c0.069-0.369,0.048-0.833-0.4-1.067l-0.282-0.121
		C32.002,93.265,31.905,93.169,31.766,93.098 M31.204,85.909c-0.425,0.223-0.467,0.65-0.411,1.005
		c-0.207,0.153-0.23,0.477-0.23,0.567l-0.258,0.099c-0.052-0.131-0.148-0.257-0.323-0.291h-0.118
		c0.123-0.105,0.203-0.232,0.252-0.366c0.213-0.155,0.315-0.377,0.357-0.585c0,0,0.004-0.162-0.049-0.326
		c0.188-0.082,0.426-0.177,0.676-0.244c0.17-0.047,0.305-0.123,0.4-0.213c0.085,0.061,0.186,0.112,0.305,0.147
		C31.618,85.737,31.415,85.801,31.204,85.909 M31.163,96.399V96.39l0.007,0.007L31.163,96.399z M30.966,95.796l-0.233-0.179
		c-0.367-0.19-0.703-0.24-0.969-0.24l0.002-0.001l0.322-0.105c0.269-0.072,0.436-0.214,0.542-0.38
		c0.073,0.209,0.213,0.412,0.475,0.535L30.966,95.796z M30.899,99.762c-0.131,0.068-0.225,0.158-0.289,0.259l-0.106-0.172
		c0.023-0.012,0.26-0.137,0.573-0.26l0.009,0.095L30.899,99.762z M30.753,105.292l0.255-0.083l0.016,0.321L30.753,105.292z
		 M30.292,104.009l-0.246,0.196c-0.037-0.172-0.128-0.388-0.367-0.433c-0.165-0.014-0.375,0.002-0.604,0.055l-0.229-0.199
		c0.171-0.085,0.545-0.259,0.94-0.368c0.154-0.043,0.277-0.11,0.374-0.192l0.003,0.006l0.099-0.053l0.26,0.287l0.076,0.183
		l0.062-0.031l0.007,0.007c-0.013,0.131-0.001,0.263,0.021,0.387C30.56,103.892,30.427,103.939,30.292,104.009 M28.139,100.252
		l-0.049-0.204c0.112-0.042,0.229-0.083,0.352-0.115c0.084,0.35,0.191,0.683,0.316,0.934l0.007,0.073L28.139,100.252z
		 M27.893,102.798c0.188-0.082,0.426-0.177,0.675-0.245l0.025-0.009c-0.101,0.322-0.009,0.694,0.068,0.923L27.893,102.798z
		 M27.761,101.381c-0.246,0.126-0.365,0.327-0.409,0.541l-0.215-0.121c-0.105-0.005-0.231-0.001-0.366,0.014l-0.319-0.277
		c0.115-0.06,0.547-0.275,1.007-0.401c0.341-0.092,0.522-0.298,0.619-0.52l0.483,0.533
		C28.326,101.171,28.054,101.231,27.761,101.381 M26.873,98.858c0.188-0.083,0.433-0.18,0.688-0.25
		c0.452-0.124,0.628-0.446,0.688-0.745l-0.001-0.057l0.021-0.006c0.223-0.061,0.378-0.17,0.486-0.302
		c0.015,0.214,0.074,0.414,0.124,0.548l-0.113,0.049c-0.206,0.106-0.322,0.262-0.379,0.434c-0.218,0.027-0.461,0.087-0.723,0.221
		c-0.245,0.126-0.358,0.321-0.406,0.531L26.873,98.858z M26.402,97.807c-0.133-0.006-0.286-0.003-0.458,0.028l-0.39-0.426
		l-0.004-0.018c0.196-0.091,0.486-0.215,0.795-0.299c0.241-0.065,0.402-0.186,0.51-0.33c0.057,0.304,0.173,0.546,0.173,0.546
		l0.004-0.003v0.014l-0.28,0.118C26.576,97.53,26.466,97.66,26.402,97.807 M25.563,97.949l0.023-0.071l0.041,0.042L25.563,97.949z
		 M27.451,95.289l-0.013,0.176l-0.13-0.113L27.451,95.289z M27.031,93.287l0.126-0.036c0.452-0.124,0.627-0.447,0.688-0.745
		l-0.009-0.141c0.181-0.077,0.404-0.164,0.635-0.227c0.181-0.049,0.314-0.131,0.418-0.23c0.238,0.121,0.47,0.239,0.678,0.351
		l0.161,0.104l-0.049-0.017c-0.126-0.01-0.277-0.004-0.445,0.023l-0.062-0.023c-0.278-0.019-0.674,0.016-1.104,0.239
		c-0.484,0.251-0.471,0.772-0.381,1.15l-0.103,0.027l-0.255,0.02C27.313,93.625,27.246,93.38,27.031,93.287 M27.946,89.675
		c0,0,0.005-0.135-0.036-0.282c0.139-0.046,0.252-0.108,0.339-0.186l0.273-0.086c-0.138,0.318-0.058,0.711,0.024,0.961l-0.175,0.075
		c-0.229,0.118-0.342,0.297-0.395,0.491c-0.222-0.092-0.438-0.176-0.659-0.25C27.722,90.263,27.889,89.958,27.946,89.675
		 M28.067,87.285l0.185-0.072c0.019,0.2,0.068,0.383,0.117,0.512c-0.131,0.025-0.275,0.071-0.424,0.132l0.001-0.002
		c0,0,0.006-0.289-0.131-0.491L28.067,87.285z M30.395,92.172l-0.307-0.265c0.152-0.062,0.323-0.125,0.506-0.173l0.085-0.031
		c-0.016,0.15-0.004,0.302,0.024,0.439L30.395,92.172z M29.281,94.1l-0.16,0.11c-0.114,0.025-0.239,0.066-0.366,0.118v-0.003
		c0,0,0.005-0.16-0.049-0.324c0.186-0.082,0.425-0.176,0.675-0.244l0.081-0.028c0.048,0.147,0.094,0.244,0.094,0.244
		s0.332-0.179,0.748-0.325l0.101,0.222l-0.017-0.006C30.108,93.845,29.711,93.877,29.281,94.1 M28.719,95.864
		c0.135-0.043,0.24-0.104,0.329-0.176v0.003l0.053-0.028l0.25-0.078c-0.119,0.198-0.114,0.459-0.114,0.459
		c0.034,0.162,0.103,0.326,0.225,0.466l-0.283,0.118l-0.219,0.167l-0.043-0.037c-0.038-0.133-0.115-0.268-0.259-0.333l0.097-0.279
		C28.754,96.145,28.758,96.01,28.719,95.864 M29.292,101.955l-0.089,0.038l0.033-0.101L29.292,101.955z M30.496,100.805
		c0.054,0.305,0.174,0.546,0.174,0.546l0.005-0.002v0.015l-0.28,0.118c-0.178,0.091-0.289,0.224-0.354,0.368
		c-0.123-0.004-0.266,0-0.424,0.026l-0.271-0.295l-0.006-0.211c0.181-0.079,0.409-0.166,0.646-0.231
		C30.226,101.071,30.387,100.949,30.496,100.805 M30.363,99.486c0.048,0.175,0.104,0.306,0.125,0.351l-0.203-0.108
		c-0.278-0.022-0.675,0.013-1.106,0.235l-0.165,0.116c-0.046-0.122-0.097-0.244-0.149-0.364l0.207-0.276
		c0.153-0.061,0.324-0.124,0.501-0.172c0.128-0.034,0.229-0.087,0.318-0.147c0.057,0.291,0.165,0.516,0.165,0.516
		S30.178,99.57,30.363,99.486 M30.805,97.859c-0.142,0.032-0.291,0.082-0.446,0.157l-0.281-0.247
		c0.378-0.138,0.536-0.428,0.597-0.704l0.004,0.002C30.647,97.369,30.737,97.679,30.805,97.859 M30.77,94.197l-0.032,0.036
		l-0.024-0.065L30.77,94.197z M30.363,89.029l0.164-0.068l0.194,0.304c-0.33,0.282-0.301,0.741-0.218,1.075l-0.314,0.065
		c-0.059-0.091-0.143-0.17-0.274-0.194l-0.117-0.001c-0.044-0.108-0.118-0.207-0.236-0.259l0.121-0.038
		c0.454-0.124,0.629-0.446,0.69-0.745L30.363,89.029z M28.735,85.655l0.013,0.027c0,0,0.499-0.274,1.038-0.419l0.084-0.029
		c-0.017,0.147-0.002,0.302,0.022,0.437c-0.255,0.008-0.572,0.062-0.914,0.238c-0.133,0.07-0.226,0.16-0.291,0.259l-0.2-0.247
		L28.735,85.655z M30.605,83.798l0.167-0.061c0,0.25,0.067,0.493,0.123,0.65c-0.132,0.023-0.273,0.069-0.423,0.131v-0.002
		c0,0,0.016-0.423-0.236-0.597C30.353,83.875,30.476,83.834,30.605,83.798 M32.42,89.157l-0.024,0.023l0.003-0.031L32.42,89.157z
		 M32.009,84.15c0.297-0.081,0.475-0.249,0.577-0.44l0.183,0.076c-0.1,0.192-0.095,0.427-0.095,0.427
		c0.062,0.299,0.237,0.622,0.692,0.746c0.354,0.095,0.688,0.247,0.876,0.337c-0.053,0.168-0.05,0.332-0.05,0.332
		c0.06,0.3,0.235,0.622,0.688,0.747c0.312,0.083,0.604,0.209,0.801,0.3c-0.194,0.131-0.395,0.288-0.588,0.448l-0.074,0.045
		c-0.064-0.139-0.171-0.262-0.344-0.349c-0.304-0.16-0.591-0.22-0.833-0.235c0.118-0.296,0.383-1.141-0.278-1.485
		c-0.201-0.104-0.395-0.164-0.574-0.199c-0.065-0.142-0.172-0.268-0.346-0.358c-0.426-0.22-0.816-0.255-1.095-0.238
		C31.692,84.251,31.847,84.194,32.009,84.15 M33.851,88.156l0.028-0.159l0.134,0.041L33.851,88.156z M35.487,88.5l0.288,0.09
		c-0.242,0.085-0.48,0.194-0.735,0.331c-0.13-0.013-0.252-0.019-0.355-0.012c-0.236,0.043-0.329,0.257-0.367,0.43l-0.194,0.099
		c-0.165-0.026-0.319-0.033-0.442-0.022c0.065-0.2,0.145-0.507,0.098-0.795c0.16-0.143,0.338-0.306,0.526-0.482
		c0.345,0.133,0.605,0.273,0.605,0.273s0.04-0.088,0.087-0.22C35.106,88.323,35.261,88.437,35.487,88.5 M32.58,89.843
		c0.139-0.169,0.284-0.331,0.427-0.485c0.18,0.069,0.331,0.139,0.435,0.189l-0.074,0.121C33.1,89.727,32.833,89.775,32.58,89.843
		 M33.323,90.227c0.067,0.191,0.189,0.376,0.412,0.499c-0.299-0.095-0.565-0.11-0.769-0.097l-0.006,0l-0.101-0.212
		C33.015,90.356,33.169,90.293,33.323,90.227 M32.695,86.252l0.062,0.023c0.32,0.084,0.622,0.215,0.819,0.308h-0.003
		c-0.199,0.038-0.296,0.189-0.345,0.34c-0.277-0.105-0.527-0.14-0.737-0.14c0.113-0.135,0.175-0.294,0.205-0.445L32.695,86.252z
		 M34.88,94.505c-0.215-0.111-0.42-0.174-0.605-0.209c0.124-0.346,0.306-1.09-0.305-1.409c-0.173-0.087-0.335-0.142-0.491-0.181
		c-0.027-0.246-0.139-0.483-0.421-0.63c-0.217-0.112-0.426-0.174-0.614-0.208l0.113-0.234c0.116,0.054,0.199,0.095,0.231,0.112
		c0.107,0.128,0.26,0.232,0.476,0.289c0.539,0.148,1.038,0.419,1.038,0.419s0.575-1.17-0.232-1.59l-0.09-0.039
		c0.34,0.094,0.662,0.235,0.853,0.326c-0.352,0.121-0.338,0.646-0.338,0.646l0.095,0.272c-0.103,0.195-0.095,0.436-0.095,0.436
		c0.05,0.24,0.177,0.493,0.458,0.648l-0.065,0.001c-0.413,0.076-0.393,0.663-0.393,0.663c0.063,0.301,0.238,0.623,0.689,0.747
		l0.201,0.061c-0.034,0.126-0.072,0.251-0.108,0.379C35.226,94.806,35.111,94.625,34.88,94.505 M34.292,96.087
		c0.01-0.116,0.005-0.235-0.021-0.35c0.312,0.103,0.584,0.23,0.731,0.302l-0.03,0.128C34.712,96.093,34.477,96.076,34.292,96.087
		 M32.515,97.254l-0.051-0.057l0.077-0.161l0.066,0.03L32.515,97.254z M32.667,97.994l0.201,0.183l-0.106,0.079l-0.159,0.039
		L32.667,97.994z M34.495,98.774l0.08,0.248l-0.004,0.098c-0.151-0.005-0.33,0.01-0.532,0.053c0.229-0.154,0.335-0.385,0.378-0.601
		c0,0,0.004-0.168-0.055-0.338c0.077-0.373,0.071-0.859-0.392-1.1c-0.432-0.224-0.828-0.256-1.106-0.237l-0.109,0.039
		c0.055-0.148,0.122-0.377,0.126-0.618l0.18,0.066c0.326,0.091,0.634,0.224,0.83,0.315l-0.003,0.051
		c0.063,0.301,0.237,0.622,0.69,0.748l0.181,0.054c-0.033,0.219-0.07,0.45-0.104,0.691C34.485,98.44,34.495,98.774,34.495,98.774
		 M36.02,90.736c0,0,0.042-0.086,0.09-0.221l0.258,0.212h-0.064c-0.337,0.065-0.386,0.464-0.39,0.609
		c-0.32-0.149-0.619-0.202-0.854-0.205c0.058-0.155,0.155-0.448,0.148-0.744C35.652,90.537,36.02,90.736,36.02,90.736
		 M25.917,101.071c0.131-0.062,0.232-0.144,0.311-0.235c0.019,0.274,0.11,0.528,0.162,0.646L25.917,101.071z M38.521,94.059
		c0.539,0.147,1.039,0.418,1.039,0.418s0.575-1.17-0.232-1.59c-0.43-0.223-0.828-0.255-1.105-0.239
		c-0.279,0.054-0.358,0.341-0.381,0.52l-0.233-0.18c-0.429-0.222-0.825-0.256-1.104-0.235l-0.084,0.03l-0.049-0.262
		c0.033-0.135,0.058-0.293,0.049-0.45l0.181,0.068c0.539,0.146,1.037,0.418,1.037,0.418s0.118-0.243,0.176-0.545
		c0.106,0.143,0.265,0.265,0.504,0.33c0.54,0.145,1.037,0.417,1.037,0.417s0.579-1.17-0.229-1.59
		c-0.431-0.221-0.827-0.256-1.104-0.237c-0.175,0.032-0.271,0.16-0.323,0.293l-0.034-0.043c0.105-0.246,0.44-1.167-0.258-1.53
		c-0.43-0.222-0.826-0.253-1.103-0.235l-0.173,0.081c-0.062-0.138-0.169-0.26-0.342-0.35l-0.104-0.044
		c0.203-0.103,0.4-0.205,0.598-0.306c0.148,0.069,0.244,0.121,0.244,0.121l0.02-0.042c0.079,0.263,0.265,0.525,0.662,0.632
		c0.539,0.15,1.037,0.42,1.037,0.42s0.577-1.171-0.23-1.591c-0.43-0.222-0.828-0.256-1.104-0.236l-0.19,0.097
		c0.023-0.326-0.054-0.678-0.426-0.87c-0.297-0.154-0.574-0.215-0.81-0.234c0.136-0.111,0.271-0.217,0.412-0.312l0.021,0.013
		l0.022-0.045l0.313-0.203c-0.043,0.155-0.039,0.298-0.039,0.298c0.062,0.299,0.235,0.622,0.688,0.744
		c0.541,0.148,1.039,0.42,1.039,0.42s0.576-1.172-0.229-1.592c-0.432-0.223-0.827-0.254-1.106-0.239l-0.247,0.158l-0.314,0.124
		c0.108-0.38,0.174-0.98-0.355-1.257c-0.431-0.222-0.826-0.255-1.104-0.237l-0.04,0.015c0.088-0.347,0.121-0.84-0.262-1.121
		c0.124-0.356,0.285-1.075-0.312-1.386c-0.432-0.222-0.828-0.255-1.106-0.238l-0.143,0.059c-0.367-0.154-0.702-0.186-0.945-0.17
		c-0.41,0.078-0.391,0.665-0.391,0.665l0.026,0.102l-0.123,0.052c-0.02-0.174-0.085-0.498-0.387-0.552
		c-0.278-0.021-0.675,0.015-1.104,0.236c-0.548,0.284-0.458,0.914-0.346,1.29c-0.148,0.036-0.307,0.087-0.474,0.174
		c-0.272,0.141-0.385,0.367-0.419,0.606l-0.095-0.035c-0.277-0.019-0.674,0.014-1.104,0.239c-0.593,0.307-0.44,1.018-0.318,1.377
		l-0.029,0.03c-0.036-0.173-0.129-0.387-0.368-0.433c-0.276-0.017-0.675,0.016-1.104,0.238c-0.808,0.42-0.232,1.593-0.232,1.593
		s0.5-0.273,1.037-0.42c0.225-0.062,0.38-0.17,0.487-0.302l0.044,0.282c-0.136,0.038-0.277,0.086-0.427,0.163
		c-0.807,0.419-0.23,1.59-0.23,1.59s0.173-0.093,0.423-0.198c-0.02,0.116-0.02,0.232-0.007,0.347l-0.186,0.078
		c-0.132,0.071-0.222,0.16-0.29,0.26c-0.054-0.133-0.148-0.26-0.325-0.293c-0.277-0.018-0.674,0.016-1.104,0.238
		c-0.808,0.421-0.232,1.59-0.232,1.59s0.5-0.269,1.039-0.418c0.239-0.064,0.399-0.186,0.509-0.329
		c0.055,0.305,0.173,0.546,0.173,0.546s0.218-0.117,0.518-0.239l0.104,0.087c-0.155,0.035-0.319,0.089-0.493,0.179
		c-0.302,0.158-0.411,0.42-0.427,0.688c-0.059-0.104-0.148-0.193-0.287-0.217c-0.28-0.019-0.674,0.015-1.106,0.235
		c-0.807,0.42-0.23,1.592-0.23,1.592s0.5-0.272,1.037-0.419c0.393-0.107,0.578-0.364,0.66-0.626l0.069,0.211
		c-0.23,0.335-0.137,0.803-0.043,1.088l-0.178,0.076c-0.809,0.419-0.231,1.59-0.231,1.59s0.261-0.14,0.607-0.275
		c0.013,0.405,0.199,0.784,0.199,0.784s0.191-0.106,0.469-0.22l0.387,0.338l-0.017,0.007c-0.129,0.069-0.223,0.159-0.288,0.259
		c-0.054-0.135-0.148-0.26-0.325-0.293c-0.276-0.02-0.675,0.014-1.104,0.237c-0.497,0.256-0.469,0.798-0.377,1.178
		c-0.271-0.009-0.64,0.032-1.041,0.238c-0.809,0.418-0.233,1.592-0.233,1.592s0.499-0.271,1.038-0.421l0.025-0.007
		c-0.155,0.502,0.154,1.133,0.154,1.133s0.497-0.272,1.037-0.419c0.157-0.042,0.278-0.11,0.375-0.189l0.003,0.003l0.076-0.041
		l0.647,0.712l0.008,0.056c-0.187,0.035-0.389,0.099-0.6,0.208l-0.249,0.197c-0.037-0.174-0.128-0.389-0.368-0.433
		c-0.276-0.022-0.674,0.013-1.103,0.235c-0.808,0.421-0.232,1.592-0.232,1.592s0.416-0.226,0.897-0.376l0.812,0.711
		c-0.12,0.036-0.246,0.08-0.378,0.148c-0.807,0.42-0.229,1.593-0.229,1.593s0.498-0.272,1.037-0.419
		c0.297-0.083,0.475-0.251,0.578-0.442l0.041,0.034l0.071,0.167l0.074-0.04l0.179,0.158c-0.18-0.032-0.346-0.036-0.482-0.026
		c-0.412,0.077-0.39,0.665-0.39,0.665c0.061,0.298,0.235,0.621,0.688,0.744c0.197,0.053,0.387,0.122,0.549,0.192
		c-0.042,0.455,0.192,0.935,0.192,0.935s0.5-0.271,1.039-0.42c0.215-0.059,0.365-0.163,0.473-0.286l0.016,0.014
		c0.033,0.369,0.193,0.692,0.193,0.692s0.157-0.084,0.39-0.186l0.718,0.63l0.035,0.079l0.033-0.017l0.145,0.125
		c0.171,1.761-0.026,3.766-0.026,5.457c0,1.718-0.375,3.749-0.099,5.398c0.725,0.031,1.465,0.01,2.196,0.02
		c-1.151-0.347-0.683-3.059-0.752-3.89c-0.094-1.168-0.083-2.113-0.112-3.299c-0.026-1.182,0.35-2.26,0.338-3.495
		c-0.002-0.132-0.002-0.268-0.002-0.404l0.444-0.954c0.107,0.139,0.266,0.259,0.5,0.321c0.541,0.147,1.04,0.42,1.04,0.42
		s0.56-1.144-0.207-1.575c0.013-0.314-0.076-0.64-0.432-0.826l-0.11-0.047l0.055-0.116l0.06,0.021
		c0.377,0.104,0.732,0.268,0.912,0.356c-0.093,0.188-0.084,0.415-0.084,0.415c0.062,0.3,0.236,0.623,0.688,0.746
		c0.539,0.147,1.039,0.418,1.039,0.418s0.574-1.17-0.233-1.592l-0.238-0.1c0.087-0.335,0.13-0.81-0.207-1.104l0.059-0.154
		c0.107,0.134,0.265,0.245,0.491,0.307c0.539,0.148,1.038,0.421,1.038,0.421s0.575-1.173-0.232-1.594
		c-0.206-0.104-0.399-0.165-0.581-0.199c0.01-0.308-0.08-0.63-0.431-0.812c-0.309-0.16-0.599-0.22-0.84-0.234l0.175-0.381
		c0.234,0.101,0.393,0.186,0.393,0.186s0.08-0.165,0.14-0.394c0.108,0.166,0.274,0.305,0.539,0.378l0.031,0.01
		c-0.118,0.196-0.112,0.458-0.112,0.458c0.062,0.298,0.238,0.623,0.688,0.747c0.542,0.147,1.04,0.418,1.04,0.418
		s0.577-1.17-0.23-1.592l-0.22-0.093c0.045-0.202,0.062-0.447-0.005-0.663l0.024,0.006c0.539,0.147,1.036,0.419,1.036,0.419
		s0.577-1.169-0.229-1.59c-0.432-0.222-0.828-0.256-1.106-0.237l-0.2,0.106c0.028-0.192,0.025-0.399-0.049-0.586
		c0.091,0.072,0.203,0.132,0.346,0.171c0.54,0.147,1.037,0.418,1.037,0.418s0.577-1.171-0.232-1.592
		c-0.124-0.064-0.245-0.108-0.365-0.147c0.068-0.146,0.51-1.181-0.238-1.57l-0.242-0.104c0.057-0.134,0.161-0.431,0.163-0.741
		C38.144,93.891,38.299,93.999,38.521,94.059"/>
	<path fill="#FFFFFF" d="M1.753,117.215c0-0.367,7.096-0.664,15.85-0.664c8.757,0,15.851,0.297,15.851,0.664
		s-7.094,0.666-15.851,0.666C8.849,117.88,1.753,117.582,1.753,117.215"/>
	<path fill="#FFFFFF" d="M58.987,91.378c0-4.057,0-4.803-0.052-5.659c-0.056-0.906-0.269-1.333-1.148-1.521
		c-0.214-0.052-0.668-0.08-1.042-0.08c-0.292,0-0.452-0.053-0.452-0.239c0-0.187,0.186-0.242,0.587-0.242
		c1.414,0,3.096,0.08,3.843,0.08c1.095,0,2.641-0.08,3.868-0.08c3.337,0,4.538,1.122,4.963,1.522
		c0.589,0.56,1.336,1.761,1.336,3.176c0,3.79-2.777,6.456-6.563,6.456c-0.133,0-0.43,0-0.56-0.026
		c-0.136-0.027-0.324-0.054-0.324-0.241c0-0.211,0.188-0.292,0.751-0.292c1.491,0,3.576-1.681,3.576-4.403
		c0-0.882-0.084-2.669-1.578-4.003c-0.959-0.882-2.053-1.041-2.666-1.041c-0.4,0-0.803,0.027-1.043,0.106
		c-0.132,0.052-0.212,0.213-0.212,0.508v10.674c0,2.456,0,4.563,0.131,5.711c0.081,0.748,0.242,1.332,1.041,1.441
		c0.377,0.052,0.964,0.106,1.364,0.106c0.291,0,0.426,0.079,0.426,0.213c0,0.188-0.214,0.268-0.509,0.268
		c-1.758,0-3.441-0.08-4.136-0.08c-0.612,0-2.294,0.08-3.362,0.08c-0.346,0-0.535-0.08-0.535-0.268c0-0.134,0.106-0.213,0.429-0.213
		c0.4,0,0.722-0.054,0.961-0.106c0.533-0.109,0.669-0.693,0.775-1.467c0.132-1.121,0.132-3.229,0.132-5.685V91.378z"/>
	<path fill="#FFFFFF" d="M79.158,93.486c0,0.293,0.055,0.4,0.239,0.479c0.56,0.188,1.36,0.268,2.027,0.268
		c1.069,0,1.416-0.106,1.896-0.454c0.8-0.587,1.574-1.814,1.574-4.002c0-3.789-2.508-4.884-4.082-4.884
		c-0.669,0-1.147,0.027-1.415,0.107c-0.185,0.052-0.239,0.16-0.239,0.372V93.486z M76.011,91.379c0-4.058,0-4.804-0.055-5.66
		c-0.055-0.906-0.267-1.333-1.149-1.521c-0.213-0.052-0.665-0.08-1.039-0.08c-0.294,0-0.455-0.053-0.455-0.239
		c0-0.187,0.188-0.242,0.586-0.242c1.416,0,3.098,0.08,3.656,0.08c0.907,0,2.938-0.08,3.763-0.08c1.681,0,3.47,0.162,4.909,1.148
		c0.751,0.507,1.814,1.868,1.814,3.656c0,1.975-0.824,3.791-3.52,5.978c2.374,2.988,4.216,5.363,5.79,7.017
		c1.494,1.549,2.589,1.734,2.989,1.815c0.291,0.054,0.532,0.082,0.745,0.082c0.216,0,0.322,0.079,0.322,0.212
		c0,0.214-0.187,0.268-0.508,0.268h-2.537c-1.494,0-2.16-0.133-2.854-0.507c-1.146-0.613-2.16-1.87-3.657-3.923
		c-1.067-1.468-2.295-3.282-2.64-3.682c-0.135-0.161-0.294-0.187-0.48-0.187l-2.324-0.054c-0.132,0-0.211,0.054-0.211,0.213v0.375
		c0,2.482,0,4.59,0.133,5.711c0.078,0.774,0.24,1.36,1.042,1.467c0.397,0.052,0.985,0.107,1.309,0.107
		c0.21,0,0.319,0.079,0.319,0.212c0,0.188-0.188,0.268-0.536,0.268c-1.547,0-3.521-0.08-3.922-0.08c-0.506,0-2.188,0.08-3.256,0.08
		c-0.348,0-0.532-0.08-0.532-0.268c0-0.133,0.106-0.212,0.428-0.212c0.397,0,0.718-0.056,0.957-0.107
		c0.536-0.107,0.671-0.693,0.776-1.467c0.136-1.121,0.136-3.229,0.136-5.684V91.379z"/>
	<path fill="#FFFFFF" d="M110.724,94.233c0-5.979-3.444-9.687-7.82-9.687c-3.07,0-6.564,1.708-6.564,8.351
		c0,5.552,3.069,9.955,8.191,9.955C106.401,102.853,110.724,101.945,110.724,94.233 M92.659,93.727
		c0-4.565,3.013-10.462,11.019-10.462c6.646,0,10.781,3.871,10.781,9.98c0,6.111-4.268,10.942-11.048,10.942
		C95.75,104.187,92.659,98.449,92.659,93.727"/>
	<path fill="#FFFFFF" d="M56.829,111.041c-0.071-0.223-0.137-0.367-0.223-0.427l-0.24-0.054l-0.094-0.053l0.132-0.052
		c0.311,0,0.64,0.017,0.692,0.017c0.057,0,0.321-0.017,0.665-0.017l0.129,0.052l-0.109,0.053l-0.149,0.026l-0.065,0.132
		c0,0.077,0.059,0.28,0.133,0.549c0.103,0.396,0.658,2.211,0.766,2.545h0.017l1.161-3.12c0.061-0.168,0.104-0.216,0.152-0.216
		c0.064,0,0.094,0.09,0.173,0.281l1.246,3.014h0.018c0.108-0.402,0.586-1.983,0.796-2.684c0.043-0.136,0.059-0.263,0.059-0.345
		c0-0.098-0.053-0.183-0.287-0.183l-0.103-0.053l0.139-0.052c0.316,0,0.569,0.017,0.622,0.017c0.045,0,0.303-0.017,0.497-0.017
		l0.109,0.048l-0.084,0.058l-0.21,0.031c-0.143,0.054-0.207,0.295-0.335,0.636c-0.275,0.756-0.904,2.66-1.198,3.558
		c-0.066,0.209-0.096,0.281-0.173,0.281c-0.06,0-0.095-0.071-0.188-0.292l-1.244-3.002h-0.013c-0.113,0.307-0.91,2.427-1.168,2.977
		c-0.115,0.246-0.145,0.317-0.216,0.317c-0.059,0-0.081-0.065-0.136-0.221L56.829,111.041z"/>
	<path fill="#FFFFFF" d="M65.958,112.189c0-0.909,0-1.079-0.015-1.271c-0.01-0.203-0.059-0.297-0.257-0.339l-0.231-0.019
		l-0.104-0.052l0.134-0.054c0.161,0,0.334,0.004,0.483,0.004c0.157,0.008,0.293,0.013,0.377,0.013c0.193,0,1.384,0,1.497-0.004
		c0.114-0.013,0.21-0.026,0.257-0.037l0.099-0.024l0.035,0.053c0,0.042-0.031,0.115-0.048,0.389l-0.031,0.395l-0.059,0.066
		l-0.055-0.083l-0.036-0.216c-0.041-0.108-0.101-0.179-0.4-0.217c-0.101-0.01-0.731-0.023-0.85-0.023l-0.042,0.062v1.514
		l0.042,0.066c0.131,0,0.82,0,0.956-0.012c0.145-0.012,0.233-0.03,0.288-0.089l0.097-0.079l0.042,0.047
		c0,0.036-0.025,0.132-0.049,0.438c-0.006,0.12-0.022,0.36-0.022,0.4l-0.055,0.114l-0.055-0.054l-0.022-0.214
		c-0.03-0.119-0.116-0.208-0.336-0.235c-0.114-0.01-0.708-0.016-0.852-0.016l-0.034,0.06v0.473c0,0.204-0.009,0.754,0,0.928
		c0.011,0.415,0.106,0.503,0.718,0.503c0.155,0,0.406,0,0.562-0.07c0.158-0.073,0.229-0.198,0.271-0.444l0.064-0.09l0.048,0.108
		c0,0.139-0.048,0.544-0.077,0.666C68.258,115,68.202,115,67.975,115c-0.449,0-0.777-0.011-1.035-0.02
		c-0.259-0.011-0.443-0.016-0.623-0.016c-0.067,0-0.198,0-0.34,0.005c-0.141,0-0.296,0.011-0.416,0.011l-0.119-0.059l0.096-0.047
		l0.215-0.025c0.121-0.023,0.151-0.155,0.174-0.331c0.031-0.249,0.031-0.722,0.031-1.273V112.189z"/>
	<path fill="#FFFFFF" d="M75.953,110.477l0.104-0.155c0.047,0,0.084,0.031,0.161,0.185l1.634,3.38l1.63-3.419l0.133-0.146
		c0.054,0,0.088,0.06,0.107,0.185l0.544,3.702c0.056,0.378,0.114,0.55,0.295,0.604c0.174,0.056,0.292,0.062,0.37,0.062l0.097,0.042
		l-0.157,0.064c-0.146,0-0.975-0.016-1.215-0.035c-0.136-0.012-0.174-0.029-0.174-0.064l0.065-0.068
		c0.036-0.011,0.055-0.088,0.031-0.255l-0.361-2.637h-0.022l-1.307,2.719c-0.137,0.282-0.167,0.336-0.22,0.336
		c-0.055,0-0.113-0.12-0.21-0.299c-0.146-0.276-0.619-1.192-0.689-1.36c-0.054-0.126-0.415-0.881-0.623-1.33h-0.024l-0.31,2.384
		l-0.02,0.281l0.182,0.192l0.249,0.03l0.091,0.042l-0.144,0.064c-0.252,0-0.521-0.016-0.628-0.016c-0.113,0-0.403,0.016-0.594,0.016
		l-0.107-0.064l0.096-0.042l0.178-0.018c0.169-0.037,0.218-0.27,0.247-0.474L75.953,110.477z"/>
	<path fill="#FFFFFF" d="M85.598,113.118l0.028-0.037l-0.538-1.477l-0.03-0.055l-0.035,0.055l-0.552,1.474l0.025,0.04H85.598z
		 M84.374,113.417l-0.051,0.049l-0.325,0.857c-0.06,0.148-0.089,0.292-0.089,0.363c0,0.11,0.053,0.188,0.239,0.188h0.09l0.089,0.047
		l-0.101,0.061c-0.191,0-0.451-0.018-0.636-0.018c-0.064,0-0.394,0.018-0.707,0.018l-0.112-0.061l0.071-0.047l0.187-0.012
		c0.273-0.035,0.388-0.239,0.509-0.538l1.505-3.764c0.068-0.172,0.106-0.238,0.165-0.238c0.054,0,0.09,0.055,0.15,0.192
		c0.144,0.33,1.102,2.772,1.485,3.682c0.229,0.539,0.402,0.623,0.526,0.652l0.252,0.025l0.077,0.047
		c0,0.048-0.056,0.061-0.275,0.061c-0.216,0-0.651,0-1.132-0.013l-0.181-0.048l0.086-0.053l0.053-0.14l-0.479-1.268l-0.061-0.043
		H84.374z"/>
	<path fill="#FFFFFF" d="M91.156,112.454h0.029c0.205-0.222,1.078-1.115,1.252-1.318c0.17-0.197,0.3-0.348,0.3-0.45l-0.084-0.12
		l-0.078-0.058l0.095-0.054c0.128,0,0.457,0.017,0.618,0.017c0.186,0,0.515-0.017,0.701-0.017l0.103,0.054l-0.09,0.052
		c-0.084,0-0.232,0.025-0.349,0.065c-0.185,0.072-0.388,0.2-0.646,0.451c-0.187,0.18-1.09,1.078-1.294,1.294
		c0.214,0.281,1.388,1.545,1.623,1.766c0.263,0.252,0.533,0.521,0.855,0.647c0.179,0.072,0.3,0.09,0.372,0.09l0.077,0.047
		c0,0.043-0.029,0.059-0.145,0.059h-0.52c-0.18,0-0.288,0-0.415-0.011c-0.321-0.029-0.483-0.163-0.741-0.389
		c-0.263-0.231-1.443-1.617-1.569-1.791l-0.066-0.09h-0.029v0.545c0,0.551,0,1.024,0.017,1.282c0.013,0.167,0.066,0.299,0.218,0.322
		l0.291,0.025l0.08,0.047l-0.115,0.059c-0.335,0-0.713-0.016-0.862-0.016c-0.135,0-0.514,0.016-0.754,0.016l-0.118-0.059
		l0.095-0.047l0.216-0.025c0.119-0.023,0.148-0.155,0.172-0.329c0.031-0.25,0.031-0.724,0.031-1.275v-1.054
		c0-0.91,0-1.08-0.013-1.27c-0.012-0.204-0.061-0.299-0.258-0.341l-0.233-0.019l-0.102-0.052l0.132-0.054
		c0.318,0,0.697,0.017,0.839,0.017c0.143,0,0.521-0.017,0.724-0.017l0.128,0.054l-0.086,0.052l-0.166,0.019
		c-0.163,0.029-0.21,0.132-0.223,0.341c-0.012,0.19-0.012,0.36-0.012,1.27V112.454z"/>
	<path fill="#FFFFFF" d="M97.121,112.189c0-0.909,0-1.079-0.012-1.271c-0.013-0.203-0.062-0.297-0.257-0.339l-0.232-0.019
		l-0.104-0.052l0.133-0.054c0.16,0,0.335,0.004,0.484,0.004c0.157,0.008,0.293,0.013,0.379,0.013c0.191,0,1.38,0,1.496-0.004
		c0.113-0.013,0.21-0.026,0.257-0.037l0.1-0.024l0.033,0.053c0,0.042-0.029,0.115-0.048,0.389l-0.03,0.395l-0.06,0.066l-0.053-0.083
		l-0.038-0.216c-0.043-0.108-0.102-0.179-0.4-0.217c-0.103-0.01-0.732-0.023-0.85-0.023l-0.042,0.062v1.514l0.042,0.066
		c0.132,0,0.819,0,0.956-0.012c0.146-0.012,0.232-0.03,0.287-0.089l0.098-0.079l0.042,0.047c0,0.036-0.024,0.132-0.049,0.438
		c-0.006,0.12-0.023,0.36-0.023,0.4l-0.054,0.114l-0.055-0.054l-0.021-0.214c-0.033-0.119-0.118-0.208-0.339-0.235
		c-0.113-0.01-0.707-0.016-0.85-0.016l-0.035,0.06v0.473c0,0.204-0.007,0.754,0,0.928c0.011,0.415,0.107,0.503,0.717,0.503
		c0.155,0,0.407,0,0.562-0.07c0.157-0.073,0.229-0.198,0.271-0.444l0.064-0.09l0.049,0.108c0,0.139-0.049,0.544-0.075,0.666
		C99.421,115,99.369,115,99.139,115c-0.448,0-0.776-0.011-1.036-0.02c-0.258-0.011-0.442-0.016-0.622-0.016
		c-0.067,0-0.197,0-0.342,0.005c-0.137,0-0.294,0.011-0.413,0.011l-0.117-0.059l0.094-0.047l0.216-0.025
		c0.12-0.023,0.15-0.155,0.175-0.331c0.027-0.249,0.027-0.722,0.027-1.273V112.189z"/>
	<path fill="#FFFFFF" d="M107.652,113.244c0,0.574,0,1.024,0.027,1.274c0.018,0.175,0.056,0.307,0.236,0.33l0.3,0.025l0.101,0.047
		l-0.133,0.059c-0.375,0-0.754-0.018-0.909-0.018c-0.156,0-0.533,0.018-0.762,0.018l-0.124-0.059l0.089-0.047l0.216-0.025
		c0.122-0.023,0.148-0.155,0.176-0.33c0.027-0.25,0.027-0.7,0.027-1.274v-1.055c0-0.909,0-1.079-0.011-1.271
		c-0.013-0.203-0.061-0.297-0.258-0.339l-0.234-0.019l-0.101-0.047l0.136-0.059c0.155,0,0.332,0.004,0.486,0.004
		c0.156,0.008,0.294,0.013,0.377,0.013c0.228,0,1.444,0,1.582-0.004l0.245-0.026l0.095-0.036l0.044,0.053
		c0,0.042-0.031,0.113-0.048,0.271l-0.029,0.484l-0.062,0.086l-0.061-0.098l-0.035-0.229c-0.042-0.083-0.168-0.172-0.395-0.179
		l-0.923-0.017l-0.054,0.083v1.498l0.041,0.053l0.768-0.003l0.271-0.01l0.256-0.106l0.078-0.06l0.037,0.055
		c0,0.036-0.031,0.186-0.05,0.371c-0.011,0.118-0.023,0.397-0.023,0.436l-0.059,0.116l-0.049-0.085l-0.035-0.185
		c-0.031-0.084-0.122-0.193-0.307-0.216c-0.151-0.02-0.786-0.02-0.887-0.02l-0.041,0.054V113.244z"/>
	<path fill="#FFFFFF" d="M116.12,112.831c0-1.342-0.771-2.174-1.755-2.174c-0.688,0-1.472,0.384-1.472,1.874
		c0,1.246,0.689,2.233,1.838,2.233C115.151,114.764,116.12,114.562,116.12,112.831 M112.069,112.717c0-1.025,0.676-2.348,2.47-2.348
		c1.493,0,2.42,0.867,2.42,2.24c0,1.371-0.956,2.455-2.478,2.455C112.762,115.064,112.069,113.777,112.069,112.717"/>
	<path fill="#FFFFFF" d="M121.016,112.664l0.054,0.107c0.124,0.042,0.305,0.061,0.453,0.061c0.241,0,0.316-0.024,0.425-0.104
		c0.181-0.131,0.354-0.405,0.354-0.897c0-0.85-0.562-1.096-0.917-1.096c-0.148,0-0.256,0.006-0.314,0.024l-0.054,0.085V112.664z
		 M120.309,112.189c0-0.909,0-1.079-0.013-1.271c-0.013-0.203-0.062-0.297-0.256-0.339l-0.234-0.019l-0.102-0.052l0.131-0.054
		c0.316,0,0.693,0.017,0.819,0.017c0.202,0,0.66-0.017,0.848-0.017c0.374,0,0.775,0.037,1.099,0.256
		c0.17,0.116,0.406,0.419,0.406,0.821c0,0.442-0.184,0.851-0.79,1.341c0.535,0.672,0.947,1.205,1.3,1.575
		c0.335,0.347,0.582,0.389,0.671,0.408l0.168,0.018l0.072,0.047l-0.113,0.059h-0.568c-0.337,0-0.485-0.029-0.64-0.112
		c-0.259-0.14-0.486-0.42-0.822-0.881c-0.24-0.328-0.514-0.737-0.594-0.825l-0.107-0.043l-0.521-0.011l-0.046,0.046v0.085
		c0,0.558,0,1.031,0.028,1.281c0.018,0.175,0.055,0.307,0.235,0.33l0.29,0.025l0.074,0.047l-0.121,0.059
		c-0.347,0-0.791-0.018-0.879-0.018c-0.115,0-0.492,0.018-0.729,0.018l-0.123-0.059l0.096-0.047l0.216-0.025
		c0.122-0.023,0.151-0.155,0.176-0.33c0.03-0.25,0.03-0.723,0.03-1.274V112.189z"/>
	<path fill="#FFFFFF" d="M126.926,112.189c0-0.909,0-1.079-0.012-1.271c-0.012-0.203-0.058-0.297-0.258-0.339l-0.232-0.019
		l-0.104-0.052l0.133-0.054c0.161,0,0.336,0.004,0.485,0.004c0.154,0.008,0.292,0.013,0.378,0.013c0.189,0,1.381,0,1.496-0.004
		c0.113-0.013,0.21-0.026,0.258-0.037l0.098-0.024l0.033,0.053c0,0.042-0.029,0.115-0.049,0.389l-0.027,0.395l-0.062,0.066
		l-0.052-0.083l-0.037-0.216c-0.039-0.108-0.103-0.179-0.399-0.217c-0.104-0.01-0.73-0.023-0.853-0.023l-0.039,0.062v1.514
		l0.039,0.066c0.133,0,0.82,0,0.959-0.012c0.145-0.012,0.234-0.03,0.287-0.089l0.095-0.079l0.043,0.047
		c0,0.036-0.024,0.132-0.048,0.438c-0.007,0.12-0.022,0.36-0.022,0.4l-0.055,0.114l-0.055-0.054l-0.021-0.214
		c-0.033-0.119-0.113-0.208-0.337-0.235c-0.115-0.01-0.707-0.016-0.852-0.016l-0.033,0.06v0.473c0,0.204-0.007,0.754,0,0.928
		c0.011,0.415,0.104,0.503,0.717,0.503c0.155,0,0.407,0,0.564-0.07c0.153-0.073,0.224-0.198,0.269-0.444l0.063-0.09l0.049,0.108
		c0,0.139-0.049,0.544-0.077,0.666C129.227,115,129.172,115,128.943,115c-0.448,0-0.775-0.011-1.034-0.02
		c-0.258-0.011-0.441-0.016-0.622-0.016c-0.067,0-0.197,0-0.343,0.005c-0.138,0-0.293,0.011-0.412,0.011l-0.12-0.059l0.097-0.047
		l0.216-0.025c0.118-0.023,0.148-0.155,0.173-0.331c0.029-0.249,0.029-0.722,0.029-1.273V112.189z"/>
	<path fill="#FFFFFF" d="M132.479,114.909c-0.096-0.041-0.113-0.072-0.113-0.203c0-0.328,0.023-0.688,0.029-0.784l0.069-0.157
		l0.062,0.102l0.055,0.305c0.132,0.444,0.486,0.605,0.855,0.605c0.541,0,0.803-0.364,0.803-0.684c0-0.293-0.09-0.565-0.588-0.957
		l-0.273-0.214c-0.659-0.514-0.886-0.935-0.886-1.42c0-0.659,0.549-1.132,1.385-1.132c0.386,0,0.638,0.06,0.796,0.102l0.085,0.071
		c0,0.08-0.025,0.252-0.025,0.72c0,0.132-0.017,0.179-0.066,0.179l-0.062-0.108c0-0.053-0.029-0.239-0.152-0.394
		c-0.093-0.113-0.264-0.293-0.653-0.293c-0.443,0-0.712,0.256-0.712,0.616c0,0.276,0.136,0.486,0.635,0.862l0.166,0.125
		c0.724,0.548,0.981,0.961,0.981,1.527c0,0.347-0.132,0.762-0.563,1.043c-0.298,0.192-0.633,0.245-0.95,0.245
		C133.005,115.064,132.736,115.023,132.479,114.909"/>
	<path fill="#FFFFFF" d="M139.187,110.788l-0.892,0.025c-0.348,0.013-0.491,0.042-0.583,0.172l-0.101,0.211l-0.064,0.07
		l-0.056-0.094l0.127-0.689l0.071-0.114c0.048,0,0.106,0.06,0.258,0.071c0.176,0.018,0.402,0.03,0.599,0.03h2.371
		c0.193,0,0.325-0.017,0.416-0.03l0.158-0.029l0.05,0.125c0,0.126-0.019,0.54-0.019,0.694l-0.055,0.097l-0.064-0.121l-0.007-0.066
		c-0.01-0.157-0.173-0.323-0.706-0.336l-0.753-0.018v2.456c0,0.551,0,1.024,0.027,1.282c0.019,0.167,0.055,0.299,0.234,0.322
		l0.305,0.025l0.096,0.047l-0.115,0.059c-0.392,0-0.77-0.016-0.938-0.016c-0.139,0-0.516,0.016-0.755,0.016l-0.12-0.059l0.095-0.047
		l0.214-0.025c0.124-0.023,0.157-0.155,0.179-0.331c0.027-0.249,0.027-0.722,0.027-1.273V110.788z"/>
	<path fill="#FFFFFF" d="M145.448,112.664l0.053,0.107c0.127,0.042,0.305,0.061,0.457,0.061c0.239,0,0.315-0.024,0.423-0.104
		c0.182-0.131,0.355-0.405,0.355-0.897c0-0.85-0.565-1.096-0.917-1.096c-0.149,0-0.258,0.006-0.318,0.024l-0.053,0.085V112.664z
		 M144.739,112.189c0-0.909,0-1.079-0.011-1.271c-0.013-0.203-0.059-0.297-0.256-0.339l-0.234-0.019l-0.104-0.052l0.132-0.054
		c0.317,0,0.694,0.017,0.821,0.017c0.203,0,0.658-0.017,0.845-0.017c0.377,0,0.778,0.037,1.103,0.256
		c0.168,0.116,0.405,0.419,0.405,0.821c0,0.442-0.185,0.851-0.789,1.341c0.533,0.672,0.945,1.205,1.299,1.575
		c0.336,0.347,0.583,0.389,0.673,0.408l0.166,0.018l0.07,0.047l-0.113,0.059h-0.567c-0.335,0-0.486-0.029-0.639-0.112
		c-0.262-0.14-0.487-0.42-0.824-0.881c-0.238-0.328-0.513-0.737-0.593-0.825l-0.109-0.043l-0.517-0.011l-0.049,0.046v0.085
		c0,0.558,0,1.031,0.028,1.281c0.021,0.175,0.055,0.307,0.233,0.33l0.294,0.025l0.073,0.047l-0.119,0.059
		c-0.351,0-0.791-0.018-0.881-0.018c-0.116,0-0.493,0.018-0.73,0.018l-0.122-0.059l0.095-0.047l0.219-0.025
		c0.119-0.023,0.148-0.155,0.172-0.33c0.029-0.25,0.029-0.723,0.029-1.274V112.189z"/>
	<path fill="#FFFFFF" d="M151.91,113.431c0-0.325-0.06-0.456-0.137-0.63c-0.044-0.095-0.846-1.414-1.055-1.725
		c-0.149-0.222-0.298-0.372-0.414-0.437l-0.25-0.079l-0.091-0.054l0.113-0.052c0.109,0,0.558,0.018,0.755,0.018
		c0.125,0,0.371-0.018,0.64-0.018l0.092,0.052l-0.134,0.067l-0.084,0.107l0.071,0.205c0.087,0.179,0.923,1.621,1.02,1.79
		c0.061-0.145,0.816-1.462,0.899-1.647c0.061-0.132,0.082-0.233,0.082-0.312l-0.124-0.15l-0.106-0.06l0.103-0.052
		c0.194,0,0.389,0.018,0.562,0.018c0.131,0,0.526-0.018,0.64-0.018l0.106,0.048l-0.112,0.059l-0.265,0.072
		c-0.123,0.06-0.19,0.132-0.323,0.295c-0.194,0.239-1.033,1.645-1.145,1.904c-0.091,0.214-0.091,0.399-0.091,0.599v0.49
		c0,0.095,0,0.347,0.021,0.597c0.011,0.175,0.064,0.307,0.246,0.33l0.298,0.025l0.096,0.047l-0.125,0.059
		c-0.376,0-0.757-0.018-0.915-0.018c-0.148,0-0.528,0.018-0.751,0.018l-0.132-0.059l0.096-0.047l0.211-0.025
		c0.121-0.023,0.174-0.155,0.184-0.33c0.02-0.25,0.02-0.502,0.02-0.597V113.431z"/>
	<path fill="#FFFFFF" d="M161.463,110.477l0.102-0.155c0.047,0,0.084,0.031,0.162,0.185l1.636,3.38l1.628-3.419l0.132-0.146
		c0.054,0,0.09,0.06,0.107,0.185l0.544,3.702c0.056,0.378,0.114,0.55,0.295,0.604c0.174,0.056,0.292,0.062,0.371,0.062l0.094,0.042
		l-0.153,0.064c-0.15,0-0.978-0.016-1.215-0.035c-0.14-0.012-0.175-0.029-0.175-0.064l0.066-0.068
		c0.034-0.011,0.055-0.088,0.029-0.255l-0.358-2.637h-0.024l-1.306,2.719c-0.138,0.282-0.167,0.336-0.221,0.336
		c-0.056,0-0.114-0.12-0.208-0.299c-0.146-0.276-0.619-1.192-0.69-1.36c-0.055-0.126-0.415-0.881-0.623-1.33h-0.026l-0.31,2.384
		l-0.019,0.281l0.18,0.192l0.253,0.03l0.088,0.042l-0.143,0.064c-0.25,0-0.521-0.016-0.63-0.016c-0.11,0-0.4,0.016-0.593,0.016
		l-0.106-0.064l0.093-0.042l0.184-0.018c0.167-0.037,0.214-0.27,0.243-0.474L161.463,110.477z"/>
	<path fill="#FFFFFF" d="M171.107,113.118l0.029-0.037l-0.539-1.477l-0.03-0.055l-0.035,0.055l-0.549,1.474l0.023,0.04H171.107z
		 M169.885,113.417l-0.054,0.049l-0.323,0.857c-0.062,0.148-0.088,0.292-0.088,0.363c0,0.11,0.052,0.188,0.234,0.188h0.094
		l0.09,0.047l-0.102,0.061c-0.193,0-0.453-0.018-0.636-0.018c-0.067,0-0.396,0.018-0.706,0.018l-0.116-0.061l0.072-0.047
		l0.186-0.012c0.275-0.035,0.391-0.239,0.51-0.538l1.504-3.764c0.071-0.172,0.107-0.238,0.166-0.238
		c0.054,0,0.093,0.055,0.151,0.192c0.145,0.33,1.103,2.772,1.484,3.682c0.229,0.539,0.403,0.623,0.526,0.652l0.251,0.025
		l0.078,0.047c0,0.048-0.052,0.061-0.274,0.061c-0.214,0-0.652,0-1.131-0.013l-0.18-0.048l0.081-0.053l0.055-0.14l-0.476-1.268
		l-0.061-0.043H169.885z"/>
	<path fill="#FFFFFF" d="M176.342,110.788l-0.892,0.025c-0.35,0.013-0.491,0.042-0.581,0.172l-0.103,0.211l-0.068,0.07l-0.05-0.094
		l0.124-0.689l0.07-0.114c0.049,0,0.11,0.06,0.258,0.071c0.176,0.018,0.403,0.03,0.601,0.03h2.373c0.189,0,0.323-0.017,0.409-0.03
		l0.164-0.029l0.047,0.125c0,0.126-0.018,0.54-0.018,0.694l-0.054,0.097l-0.065-0.121l-0.007-0.066
		c-0.012-0.157-0.176-0.323-0.706-0.336l-0.753-0.018v2.456c0,0.551,0,1.024,0.027,1.282c0.019,0.167,0.055,0.299,0.235,0.322
		l0.306,0.025l0.095,0.047l-0.114,0.059c-0.394,0-0.771-0.016-0.939-0.016c-0.137,0-0.516,0.016-0.757,0.016l-0.12-0.059
		l0.097-0.047l0.217-0.025c0.119-0.023,0.157-0.155,0.174-0.331c0.03-0.249,0.03-0.722,0.03-1.273V110.788z"/>
	<path fill="#FFFFFF" d="M182.692,110.788l-0.893,0.025c-0.349,0.013-0.493,0.042-0.582,0.172l-0.102,0.211l-0.065,0.07
		l-0.053-0.094l0.126-0.689l0.071-0.114c0.045,0,0.107,0.06,0.256,0.071c0.171,0.018,0.402,0.03,0.6,0.03h2.369
		c0.193,0,0.326-0.017,0.414-0.03l0.166-0.029l0.044,0.125c0,0.126-0.017,0.54-0.017,0.694l-0.058,0.097l-0.062-0.121l-0.007-0.066
		c-0.013-0.157-0.175-0.323-0.707-0.336l-0.753-0.018v2.456c0,0.551,0,1.024,0.027,1.282c0.02,0.167,0.055,0.299,0.234,0.322
		l0.307,0.025l0.095,0.047l-0.114,0.059c-0.396,0-0.771-0.016-0.941-0.016c-0.134,0-0.514,0.016-0.752,0.016l-0.119-0.059
		l0.096-0.047l0.214-0.025c0.119-0.023,0.157-0.155,0.173-0.331c0.032-0.249,0.032-0.722,0.032-1.273V110.788z"/>
	<path fill="#FFFFFF" d="M188.245,112.189c0-0.909,0-1.079-0.016-1.271c-0.01-0.203-0.056-0.297-0.253-0.339l-0.236-0.019
		l-0.103-0.052l0.135-0.054c0.159,0,0.334,0.004,0.484,0.004c0.156,0.008,0.291,0.013,0.376,0.013c0.189,0,1.383,0,1.499-0.004
		l0.256-0.037l0.096-0.024l0.037,0.053c0,0.042-0.029,0.115-0.049,0.389l-0.031,0.395l-0.06,0.066l-0.054-0.083l-0.036-0.216
		c-0.041-0.108-0.098-0.179-0.4-0.217c-0.103-0.01-0.73-0.023-0.85-0.023l-0.042,0.062v1.514l0.042,0.066c0.13,0,0.82,0,0.957-0.012
		c0.145-0.012,0.234-0.03,0.284-0.089l0.099-0.079l0.042,0.047c0,0.036-0.021,0.132-0.048,0.438c-0.007,0.12-0.023,0.36-0.023,0.4
		l-0.055,0.114l-0.052-0.054l-0.024-0.214c-0.027-0.119-0.114-0.208-0.334-0.235c-0.118-0.01-0.709-0.016-0.852-0.016l-0.036,0.06
		v0.473c0,0.204-0.009,0.754,0,0.928c0.01,0.415,0.107,0.503,0.718,0.503c0.157,0,0.406,0,0.562-0.07
		c0.158-0.073,0.229-0.198,0.269-0.444l0.069-0.09l0.046,0.108c0,0.139-0.046,0.544-0.075,0.666C190.542,115,190.491,115,190.26,115
		c-0.447,0-0.776-0.011-1.037-0.02c-0.254-0.011-0.439-0.016-0.62-0.016c-0.067,0-0.195,0-0.342,0.005
		c-0.139,0-0.294,0.011-0.417,0.011l-0.116-0.059l0.096-0.047l0.215-0.025c0.119-0.023,0.148-0.155,0.173-0.331
		c0.033-0.249,0.033-0.722,0.033-1.273V112.189z"/>
	<path fill="#FFFFFF" d="M194.833,112.664l0.054,0.107c0.126,0.042,0.306,0.061,0.456,0.061c0.238,0,0.316-0.024,0.425-0.104
		c0.179-0.131,0.354-0.405,0.354-0.897c0-0.85-0.563-1.096-0.919-1.096c-0.149,0-0.256,0.006-0.316,0.024l-0.054,0.085V112.664z
		 M194.125,112.189c0-0.909,0-1.079-0.013-1.271c-0.011-0.203-0.06-0.297-0.257-0.339l-0.232-0.019l-0.104-0.052l0.133-0.054
		c0.319,0,0.693,0.017,0.82,0.017c0.204,0,0.658-0.017,0.843-0.017c0.38,0,0.781,0.037,1.103,0.256
		c0.169,0.116,0.408,0.419,0.408,0.821c0,0.442-0.185,0.851-0.791,1.341c0.532,0.672,0.948,1.205,1.3,1.575
		c0.334,0.347,0.579,0.389,0.671,0.408l0.168,0.018l0.072,0.047l-0.116,0.059h-0.565c-0.339,0-0.487-0.029-0.643-0.112
		c-0.258-0.14-0.483-0.42-0.819-0.881c-0.242-0.328-0.516-0.737-0.591-0.825l-0.112-0.043l-0.521-0.011l-0.047,0.046v0.085
		c0,0.558,0,1.031,0.027,1.281c0.02,0.175,0.056,0.307,0.237,0.33l0.292,0.025l0.072,0.047l-0.119,0.059
		c-0.351,0-0.791-0.018-0.88-0.018c-0.116,0-0.49,0.018-0.732,0.018l-0.121-0.059l0.097-0.047l0.217-0.025
		c0.118-0.023,0.146-0.155,0.176-0.33c0.027-0.25,0.027-0.723,0.027-1.274V112.189z"/>
</g>
</svg>
