<?xml version="1.0" encoding="utf-8"?>
<!-- Generator: Adobe Illustrator 16.0.0, SVG Export Plug-In . SVG Version: 6.00 Build 0)  -->
<!DOCTYPE svg PUBLIC "-//W3C//DTD SVG 1.1//EN" "http://www.w3.org/Graphics/SVG/1.1/DTD/svg11.dtd">
<svg version="1.1" id="Capa_1" xmlns="http://www.w3.org/2000/svg" xmlns:xlink="http://www.w3.org/1999/xlink" x="0px" y="0px"
	 width="150px" height="150px" viewBox="0 0 150 150" enable-background="new 0 0 150 150" xml:space="preserve">
<g>
	<path fill="#B9AB96" d="M20.467,71.992c0.328-0.09,0.457-0.325,0.502-0.542c0,0,0.016-0.429-0.287-0.486
		c-0.201-0.014-0.49,0.012-0.805,0.174c-0.588,0.307-0.168,1.161-0.168,1.161S20.072,72.101,20.467,71.992 M30.268,72.194
		c-0.182-0.047-0.344-0.058-0.475-0.05c-0.104,0.021-0.17,0.087-0.211,0.165c0.012-0.137,0-0.281-0.062-0.408l0.051,0.018
		C29.869,72,30.15,72.134,30.268,72.194 M29.059,73.916c-0.094,0.017-0.156,0.071-0.197,0.137l-0.006-0.015l0.178-0.385
		c0.342,0.111,0.631,0.268,0.631,0.268l0.002-0.004l0.031,0.101C29.449,73.923,29.225,73.903,29.059,73.916 M29.514,72.638
		l0.053,0.17l-0.072-0.046l-0.023-0.012L29.514,72.638z M28.688,72.587c-0.107,0.02-0.174,0.092-0.217,0.171
		c-0.023-0.173-0.105-0.339-0.303-0.44l-0.201-0.084l0.016-0.117c0.037-0.088,0.127-0.32,0.129-0.561
		c0.041-0.151,0.082-0.303,0.121-0.455c0.303,0.107,0.545,0.238,0.545,0.238s0.197-0.401,0.131-0.754
		c0.074,0.066,0.17,0.119,0.293,0.153c0.17,0.048,0.334,0.11,0.467,0.167c-0.117-0.016-0.227-0.02-0.316-0.016
		c-0.301,0.057-0.283,0.485-0.283,0.485l0.08,0.226c-0.264-0.109-0.506-0.131-0.682-0.119c-0.299,0.056-0.285,0.484-0.285,0.484
		c0.045,0.219,0.174,0.452,0.502,0.543c0.094,0.025,0.186,0.057,0.271,0.089C28.857,72.587,28.764,72.583,28.688,72.587
		 M28.518,73.755c-0.203-0.091-0.395-0.129-0.555-0.137c-0.008-0.107-0.016-0.214-0.023-0.32c0.229,0.092,0.396,0.182,0.396,0.182
		s0.059-0.121,0.102-0.287c0.039,0.107,0.102,0.211,0.205,0.291L28.518,73.755z M28.068,74.725l-0.006-0.063l0.029,0.01
		L28.068,74.725z M27.885,76.497l-0.143-0.061l0.012-0.025l0.193,0.081l0.01,0.005H27.885z M27.723,75.466
		c-0.291,0.064-0.279,0.482-0.279,0.482l0.02,0.078l-0.148,0.323h-0.174c-0.303,0.058-0.287,0.484-0.287,0.484
		c0.02,0.093,0.055,0.185,0.109,0.271l-0.102,0.219c-0.117-0.017-0.225-0.021-0.312-0.014l-0.031,0.012
		c-0.092-0.006-0.203-0.003-0.322,0.018c0.275-0.102,0.391-0.317,0.434-0.52c0,0,0.002-0.209-0.096-0.354
		c0.107-0.043,0.227-0.087,0.352-0.12c0.328-0.091,0.459-0.325,0.502-0.544c0,0,0.008-0.232-0.109-0.379l0.123-0.037
		c0.102-0.027,0.184-0.07,0.25-0.121l0.078,0.189L27.723,75.466z M26.354,78.417l-0.002-0.081l0.049-0.017L26.354,78.417z
		 M26.115,75.633c-0.023-0.108-0.076-0.235-0.201-0.292l0.07-0.203v-0.005l0.232,0.202l0.139-0.161l-0.312-0.274l0.156-0.096v0.002
		l0.041-0.02l0.201-0.063c0.119-0.033,0.209-0.083,0.281-0.146l0.039-0.015c-0.307,0.198-0.289,0.563-0.225,0.827
		c-0.078,0.024-0.158,0.058-0.24,0.101L26.115,75.633z M25.875,76.383l-0.035-0.129l0.145-0.128l0.037,0.224L25.875,76.383z
		 M25.527,69.964c-0.131-0.068-0.256-0.107-0.373-0.135l0.02-0.076c0,0,0.002-0.118-0.037-0.236c0.074-0.033,0.158-0.067,0.25-0.102
		l-0.01,0.117c0.047,0.217,0.176,0.453,0.504,0.543l0.162,0.049c0.045,0.218,0.174,0.451,0.5,0.541
		c0.162,0.043,0.312,0.102,0.441,0.154c-0.291,0.064-0.279,0.482-0.279,0.482l0.023,0.08l-0.145-0.031
		c-0.043-0.114-0.125-0.217-0.264-0.287l-0.074-0.031c0.051-0.271,0.033-0.609-0.293-0.779l-0.205-0.088
		C25.699,70.086,25.627,70.017,25.527,69.964 M25.115,64.719c-0.309,0.161-0.34,0.474-0.299,0.733
		c-0.15,0.111-0.168,0.347-0.168,0.413l-0.189,0.073c-0.037-0.097-0.107-0.188-0.234-0.213h-0.086
		c0.09-0.076,0.148-0.169,0.184-0.267c0.156-0.112,0.23-0.274,0.26-0.428c0,0,0.004-0.118-0.035-0.236
		c0.137-0.061,0.311-0.13,0.494-0.179c0.123-0.035,0.219-0.089,0.293-0.156c0.061,0.045,0.133,0.082,0.219,0.108
		C25.418,64.593,25.27,64.64,25.115,64.719 M25.086,72.372v-0.006l0.004,0.004L25.086,72.372z M24.943,71.932l-0.17-0.13
		c-0.27-0.139-0.514-0.175-0.707-0.175l0.002-0.001l0.234-0.077c0.195-0.052,0.318-0.155,0.395-0.278
		c0.055,0.154,0.156,0.303,0.348,0.391L24.943,71.932z M24.893,74.826c-0.094,0.05-0.162,0.116-0.211,0.188l-0.078-0.126
		c0.02-0.009,0.191-0.101,0.42-0.188l0.006,0.068L24.893,74.826z M24.787,78.86l0.186-0.061l0.012,0.234L24.787,78.86z
		 M24.451,77.926l-0.18,0.142c-0.025-0.125-0.094-0.283-0.27-0.315c-0.119-0.009-0.271,0.002-0.439,0.04l-0.168-0.146
		c0.127-0.063,0.398-0.188,0.688-0.269c0.113-0.031,0.201-0.081,0.273-0.14l0.002,0.003l0.072-0.037l0.188,0.209l0.057,0.135
		l0.045-0.023l0.006,0.006c-0.01,0.095-0.002,0.191,0.016,0.282C24.646,77.839,24.551,77.873,24.451,77.926 M22.881,75.184
		l-0.037-0.149c0.082-0.03,0.17-0.061,0.258-0.084c0.061,0.256,0.141,0.5,0.23,0.682l0.004,0.054L22.881,75.184z M22.701,77.04
		c0.137-0.059,0.311-0.129,0.492-0.178l0.018-0.006c-0.072,0.234-0.006,0.506,0.051,0.674L22.701,77.04z M22.604,76.008
		c-0.178,0.093-0.266,0.237-0.297,0.394l-0.158-0.087c-0.076-0.005-0.168-0.001-0.268,0.01l-0.23-0.202
		c0.084-0.043,0.396-0.201,0.734-0.293c0.246-0.066,0.381-0.217,0.451-0.379l0.352,0.391C23.018,75.854,22.818,75.897,22.604,76.008
		 M21.957,74.167c0.137-0.061,0.314-0.131,0.5-0.182c0.33-0.09,0.459-0.326,0.504-0.545l-0.002-0.041l0.016-0.004
		c0.162-0.045,0.275-0.125,0.355-0.221c0.01,0.156,0.053,0.303,0.09,0.399l-0.084,0.036c-0.148,0.078-0.234,0.191-0.275,0.316
		c-0.158,0.02-0.336,0.064-0.527,0.16c-0.178,0.094-0.262,0.236-0.295,0.389L21.957,74.167z M21.611,73.399
		c-0.096-0.004-0.207-0.002-0.334,0.021l-0.283-0.312l-0.004-0.012c0.145-0.067,0.355-0.158,0.582-0.22
		c0.176-0.047,0.293-0.135,0.371-0.239c0.039,0.222,0.125,0.398,0.125,0.398l0.004-0.002v0.008l-0.203,0.088
		C21.74,73.198,21.66,73.292,21.611,73.399 M21,73.503l0.018-0.052l0.029,0.03L21,73.503z M22.379,71.562l-0.012,0.129l-0.094-0.084
		L22.379,71.562z M22.07,70.103l0.094-0.027c0.33-0.09,0.457-0.326,0.502-0.543l-0.006-0.104c0.131-0.056,0.293-0.119,0.461-0.166
		c0.133-0.035,0.23-0.096,0.307-0.166c0.174,0.087,0.342,0.173,0.492,0.256l0.119,0.075l-0.037-0.013
		c-0.092-0.006-0.201-0.002-0.324,0.017l-0.045-0.017c-0.203-0.013-0.492,0.012-0.805,0.174c-0.354,0.184-0.344,0.564-0.277,0.84
		l-0.074,0.02l-0.188,0.014C22.277,70.349,22.229,70.169,22.07,70.103 M22.74,67.466c0,0,0.002-0.098-0.027-0.205
		c0.102-0.034,0.184-0.079,0.248-0.136l0.199-0.063c-0.102,0.232-0.043,0.52,0.018,0.701l-0.129,0.055
		c-0.166,0.086-0.25,0.217-0.287,0.358c-0.16-0.065-0.32-0.128-0.48-0.183C22.576,67.896,22.697,67.673,22.74,67.466 M22.826,65.723
		l0.135-0.053c0.014,0.145,0.053,0.28,0.086,0.374c-0.094,0.018-0.201,0.051-0.309,0.095h0.002c0,0,0.004-0.213-0.096-0.358
		L22.826,65.723z M24.527,69.288l-0.227-0.193c0.113-0.046,0.238-0.092,0.371-0.126l0.061-0.022c-0.01,0.107-0.002,0.221,0.02,0.32
		L24.527,69.288z M23.713,70.694l-0.117,0.081c-0.084,0.018-0.176,0.048-0.266,0.085v-0.002c0,0,0.004-0.116-0.037-0.236
		c0.137-0.06,0.311-0.129,0.492-0.179l0.061-0.021c0.035,0.107,0.068,0.18,0.068,0.18s0.242-0.131,0.545-0.238l0.072,0.162
		l-0.012-0.004C24.316,70.509,24.027,70.532,23.713,70.694 M23.303,71.981c0.098-0.031,0.178-0.076,0.242-0.127v0.001l0.037-0.02
		l0.182-0.058c-0.088,0.145-0.082,0.336-0.082,0.336c0.023,0.116,0.074,0.236,0.164,0.339l-0.207,0.087l-0.158,0.121l-0.033-0.027
		c-0.027-0.097-0.082-0.195-0.188-0.242l0.07-0.204C23.33,72.188,23.332,72.089,23.303,71.981 M23.721,76.426l-0.064,0.028
		l0.023-0.074L23.721,76.426z M24.6,75.587c0.037,0.223,0.127,0.398,0.127,0.398l0.004-0.002l-0.002,0.012l-0.203,0.085
		c-0.131,0.067-0.211,0.163-0.258,0.27c-0.09-0.004-0.193,0-0.311,0.019l-0.197-0.215l-0.004-0.154
		c0.133-0.058,0.299-0.123,0.473-0.17C24.402,75.78,24.52,75.693,24.6,75.587 M24.502,74.625c0.035,0.126,0.076,0.224,0.092,0.255
		l-0.148-0.079c-0.203-0.015-0.492,0.011-0.807,0.173l-0.121,0.084c-0.033-0.09-0.07-0.178-0.107-0.266l0.15-0.201
		c0.111-0.045,0.234-0.09,0.363-0.125c0.094-0.025,0.17-0.064,0.234-0.108c0.041,0.212,0.121,0.376,0.121,0.376
		S24.367,74.687,24.502,74.625 M24.824,73.438c-0.102,0.022-0.211,0.059-0.324,0.113l-0.207-0.18c0.277-0.1,0.393-0.312,0.438-0.514
		l0.002,0.002C24.711,73.079,24.775,73.307,24.824,73.438 M24.799,70.767l-0.023,0.025l-0.018-0.049L24.799,70.767z M24.502,66.994
		l0.121-0.048l0.141,0.221c-0.24,0.207-0.219,0.541-0.16,0.785l-0.229,0.047c-0.041-0.066-0.104-0.124-0.199-0.142l-0.086-0.001
		c-0.031-0.078-0.086-0.15-0.172-0.189l0.088-0.027c0.332-0.09,0.459-0.324,0.504-0.543L24.502,66.994z M23.314,64.532l0.008,0.021
		c0,0,0.365-0.201,0.76-0.307l0.062-0.021c-0.014,0.107-0.004,0.22,0.016,0.318c-0.188,0.006-0.42,0.046-0.668,0.175
		c-0.098,0.05-0.164,0.116-0.213,0.188l-0.145-0.18L23.314,64.532z M24.68,63.179l0.123-0.044c-0.002,0.181,0.047,0.358,0.09,0.474
		c-0.098,0.018-0.201,0.051-0.311,0.096v-0.002c0,0,0.012-0.309-0.172-0.436C24.496,63.233,24.586,63.204,24.68,63.179
		 M26.004,67.089l-0.018,0.018l0.002-0.024L26.004,67.089z M25.703,63.435c0.219-0.059,0.348-0.182,0.422-0.32l0.133,0.056
		c-0.072,0.14-0.068,0.312-0.068,0.312c0.045,0.219,0.172,0.454,0.504,0.545c0.26,0.069,0.504,0.18,0.641,0.246
		c-0.039,0.122-0.037,0.242-0.037,0.242c0.045,0.219,0.172,0.453,0.502,0.544c0.227,0.062,0.441,0.152,0.584,0.22
		c-0.143,0.096-0.287,0.21-0.428,0.327L27.9,65.638c-0.047-0.1-0.125-0.189-0.25-0.254c-0.223-0.117-0.432-0.161-0.609-0.172
		c0.086-0.217,0.279-0.832-0.203-1.082c-0.146-0.077-0.287-0.121-0.418-0.146c-0.049-0.104-0.125-0.195-0.254-0.262
		c-0.311-0.161-0.594-0.187-0.797-0.173C25.473,63.509,25.586,63.468,25.703,63.435 M27.047,66.358l0.021-0.117l0.098,0.03
		L27.047,66.358z M28.24,66.608l0.211,0.064c-0.178,0.062-0.352,0.143-0.535,0.242c-0.096-0.01-0.186-0.014-0.26-0.008
		c-0.174,0.032-0.24,0.188-0.268,0.312l-0.143,0.072c-0.121-0.018-0.232-0.022-0.324-0.016c0.049-0.146,0.107-0.369,0.072-0.58
		c0.117-0.104,0.246-0.223,0.385-0.352c0.25,0.098,0.441,0.199,0.441,0.199s0.029-0.064,0.062-0.16
		C27.963,66.479,28.076,66.563,28.24,66.608 M26.119,67.589c0.102-0.124,0.207-0.241,0.314-0.354
		c0.129,0.051,0.238,0.102,0.316,0.139l-0.057,0.087C26.5,67.504,26.305,67.54,26.119,67.589 M26.662,67.868
		c0.049,0.141,0.139,0.275,0.301,0.364c-0.217-0.069-0.412-0.081-0.561-0.071h-0.004l-0.074-0.154
		C26.438,67.963,26.551,67.916,26.662,67.868 M26.203,64.968l0.047,0.018c0.234,0.062,0.455,0.157,0.598,0.226h-0.002
		c-0.145,0.026-0.217,0.138-0.252,0.248c-0.203-0.078-0.385-0.103-0.537-0.103c0.082-0.098,0.127-0.215,0.15-0.325L26.203,64.968z
		 M27.799,70.991c-0.156-0.082-0.307-0.127-0.443-0.152c0.092-0.254,0.225-0.797-0.221-1.029c-0.125-0.062-0.244-0.104-0.359-0.132
		c-0.02-0.179-0.1-0.352-0.307-0.459c-0.158-0.081-0.309-0.127-0.447-0.151l0.084-0.172c0.084,0.039,0.143,0.07,0.166,0.082
		c0.08,0.094,0.191,0.169,0.348,0.211c0.393,0.107,0.758,0.306,0.758,0.306s0.42-0.854-0.17-1.16l-0.066-0.028
		c0.25,0.068,0.484,0.172,0.623,0.24c-0.256,0.087-0.246,0.469-0.246,0.469l0.068,0.199c-0.074,0.143-0.068,0.318-0.068,0.318
		c0.035,0.174,0.129,0.359,0.334,0.473h-0.049c-0.301,0.057-0.285,0.484-0.285,0.484c0.047,0.219,0.174,0.455,0.504,0.545
		l0.146,0.044c-0.025,0.093-0.053,0.184-0.08,0.277C28.051,71.21,27.967,71.078,27.799,70.991 M27.369,72.145
		c0.008-0.084,0.004-0.171-0.014-0.255c0.227,0.074,0.426,0.168,0.531,0.219l-0.02,0.094C27.676,72.149,27.504,72.137,27.369,72.145
		 M26.072,72.996l-0.035-0.041l0.055-0.118l0.049,0.022L26.072,72.996z M26.184,73.536l0.148,0.133l-0.078,0.059l-0.117,0.027
		L26.184,73.536z M27.518,74.104l0.059,0.181l-0.004,0.071c-0.109-0.004-0.24,0.008-0.387,0.041c0.166-0.113,0.242-0.281,0.275-0.44
		c0,0,0.002-0.123-0.041-0.246c0.057-0.271,0.053-0.626-0.285-0.802c-0.314-0.163-0.604-0.188-0.807-0.174l-0.082,0.029
		c0.041-0.109,0.09-0.277,0.094-0.451l0.131,0.047c0.238,0.066,0.463,0.164,0.605,0.23v0.039c0.045,0.218,0.172,0.453,0.502,0.543
		l0.131,0.04c-0.025,0.161-0.051,0.329-0.074,0.505C27.51,73.86,27.518,74.104,27.518,74.104 M28.631,68.241
		c0,0,0.031-0.062,0.064-0.162l0.188,0.156h-0.047c-0.244,0.047-0.279,0.337-0.285,0.443c-0.232-0.109-0.449-0.146-0.621-0.149
		c0.043-0.114,0.113-0.327,0.107-0.542C28.361,68.096,28.631,68.241,28.631,68.241 M21.26,75.78c0.096-0.044,0.17-0.103,0.227-0.17
		c0.012,0.199,0.08,0.385,0.117,0.47L21.26,75.78z M30.455,70.665c0.395,0.107,0.758,0.306,0.758,0.306s0.42-0.854-0.168-1.161
		c-0.314-0.162-0.605-0.186-0.807-0.174c-0.207,0.039-0.262,0.248-0.279,0.379l-0.17-0.131c-0.312-0.162-0.602-0.188-0.805-0.173
		l-0.062,0.022l-0.035-0.19c0.025-0.1,0.041-0.215,0.035-0.329l0.131,0.049c0.395,0.107,0.758,0.307,0.758,0.307
		s0.086-0.178,0.127-0.398c0.078,0.104,0.195,0.193,0.369,0.24c0.395,0.107,0.758,0.305,0.758,0.305s0.422-0.854-0.168-1.16
		c-0.314-0.162-0.604-0.188-0.805-0.174c-0.129,0.024-0.199,0.117-0.238,0.215l-0.023-0.032c0.076-0.18,0.32-0.852-0.189-1.116
		c-0.312-0.162-0.602-0.186-0.805-0.172l-0.125,0.059c-0.045-0.1-0.125-0.189-0.25-0.256l-0.076-0.031
		c0.148-0.074,0.291-0.148,0.438-0.223C28.93,66.875,29,66.913,29,66.913l0.014-0.031c0.057,0.193,0.193,0.384,0.482,0.463
		c0.393,0.109,0.758,0.307,0.758,0.307s0.42-0.855-0.168-1.162c-0.314-0.162-0.605-0.186-0.807-0.173l-0.139,0.071
		c0.018-0.238-0.039-0.494-0.309-0.635c-0.219-0.111-0.422-0.156-0.592-0.171c0.098-0.081,0.199-0.158,0.299-0.228l0.018,0.01
		l0.016-0.033l0.229-0.148c-0.033,0.114-0.027,0.217-0.027,0.217c0.043,0.219,0.17,0.454,0.502,0.544
		c0.393,0.106,0.756,0.306,0.756,0.306s0.422-0.855-0.168-1.161c-0.314-0.162-0.604-0.185-0.805-0.175l-0.182,0.117l-0.229,0.09
		c0.078-0.277,0.127-0.715-0.26-0.917c-0.314-0.163-0.604-0.187-0.807-0.173l-0.029,0.01c0.064-0.253,0.088-0.612-0.191-0.818
		c0.092-0.258,0.209-0.783-0.227-1.012c-0.314-0.16-0.604-0.185-0.807-0.172l-0.105,0.043c-0.266-0.113-0.512-0.137-0.688-0.124
		c-0.303,0.056-0.287,0.484-0.287,0.484l0.02,0.073l-0.09,0.039c-0.012-0.127-0.062-0.362-0.281-0.402
		c-0.203-0.016-0.492,0.01-0.807,0.172c-0.398,0.208-0.334,0.667-0.252,0.94c-0.109,0.026-0.225,0.065-0.346,0.128
		c-0.199,0.104-0.281,0.27-0.305,0.442l-0.07-0.026c-0.203-0.014-0.49,0.012-0.807,0.176c-0.432,0.224-0.32,0.742-0.23,1.004
		l-0.023,0.023c-0.025-0.127-0.092-0.284-0.266-0.316c-0.203-0.014-0.494,0.011-0.807,0.173c-0.59,0.307-0.17,1.161-0.17,1.161
		s0.365-0.199,0.758-0.306c0.164-0.046,0.275-0.124,0.355-0.222l0.031,0.207c-0.1,0.027-0.201,0.062-0.312,0.119
		c-0.588,0.305-0.166,1.16-0.166,1.16s0.125-0.068,0.307-0.146c-0.014,0.086-0.014,0.172-0.004,0.255l-0.137,0.056
		c-0.096,0.053-0.16,0.117-0.211,0.189c-0.039-0.097-0.107-0.189-0.236-0.213c-0.203-0.014-0.492,0.012-0.807,0.173
		c-0.588,0.308-0.168,1.16-0.168,1.16s0.363-0.196,0.758-0.304c0.174-0.047,0.291-0.137,0.371-0.241
		c0.039,0.222,0.127,0.399,0.127,0.399s0.158-0.086,0.377-0.176l0.076,0.064c-0.113,0.025-0.232,0.064-0.359,0.13
		c-0.221,0.116-0.301,0.307-0.312,0.502c-0.043-0.075-0.107-0.14-0.209-0.158c-0.203-0.013-0.49,0.011-0.807,0.173
		c-0.59,0.307-0.17,1.162-0.17,1.162s0.365-0.199,0.758-0.307c0.285-0.078,0.422-0.266,0.48-0.457l0.051,0.154
		c-0.166,0.245-0.1,0.586-0.031,0.794l-0.129,0.056c-0.59,0.306-0.168,1.16-0.168,1.16s0.189-0.104,0.443-0.201
		c0.01,0.296,0.145,0.571,0.145,0.571s0.141-0.077,0.342-0.16l0.283,0.247l-0.012,0.004c-0.096,0.051-0.164,0.117-0.213,0.189
		c-0.039-0.098-0.107-0.189-0.234-0.213c-0.203-0.014-0.494,0.01-0.807,0.173c-0.363,0.187-0.342,0.582-0.275,0.858
		c-0.199-0.006-0.467,0.023-0.76,0.175c-0.59,0.306-0.17,1.161-0.17,1.161s0.363-0.199,0.758-0.307l0.018-0.006
		c-0.113,0.367,0.113,0.827,0.113,0.827s0.361-0.198,0.758-0.306c0.113-0.031,0.201-0.08,0.271-0.139l0.004,0.002l0.055-0.029
		l0.473,0.521l0.006,0.041c-0.137,0.024-0.285,0.07-0.439,0.15l-0.18,0.143c-0.027-0.127-0.092-0.283-0.27-0.315
		c-0.201-0.015-0.49,0.011-0.805,0.173c-0.59,0.308-0.168,1.161-0.168,1.161s0.303-0.164,0.654-0.274l0.594,0.519
		c-0.09,0.026-0.182,0.06-0.275,0.108c-0.59,0.307-0.17,1.162-0.17,1.162s0.365-0.198,0.758-0.306
		c0.217-0.06,0.346-0.184,0.422-0.322l0.029,0.024l0.051,0.123l0.057-0.028l0.129,0.114c-0.131-0.023-0.252-0.027-0.352-0.02
		c-0.301,0.057-0.285,0.484-0.285,0.484c0.045,0.219,0.174,0.453,0.502,0.544c0.145,0.038,0.283,0.09,0.4,0.14
		c-0.029,0.332,0.141,0.682,0.141,0.682s0.363-0.197,0.758-0.305c0.156-0.044,0.266-0.119,0.346-0.209l0.012,0.01
		c0.025,0.269,0.141,0.504,0.141,0.504s0.113-0.061,0.283-0.135l0.523,0.459l0.025,0.057l0.025-0.013l0.105,0.093
		c0.125,1.285-0.02,2.746-0.02,3.98c0,1.254-0.273,2.734-0.07,3.938c0.527,0.022,1.068,0.007,1.602,0.015
		c-0.84-0.254-0.498-2.232-0.549-2.838c-0.068-0.854-0.061-1.542-0.082-2.406c-0.02-0.863,0.256-1.649,0.246-2.551
		c0-0.096,0-0.196,0-0.295l0.324-0.696c0.076,0.101,0.193,0.188,0.363,0.233c0.395,0.107,0.76,0.308,0.76,0.308
		s0.408-0.836-0.15-1.15c0.008-0.229-0.057-0.467-0.314-0.603l-0.082-0.034l0.041-0.085l0.041,0.016
		c0.277,0.076,0.535,0.196,0.668,0.26c-0.068,0.139-0.062,0.303-0.062,0.303c0.045,0.22,0.172,0.454,0.502,0.544
		c0.395,0.107,0.76,0.306,0.76,0.306s0.418-0.854-0.172-1.162l-0.174-0.072c0.066-0.244,0.096-0.592-0.15-0.807l0.041-0.111
		c0.08,0.098,0.193,0.178,0.361,0.223c0.393,0.108,0.756,0.309,0.756,0.309s0.42-0.855-0.168-1.164
		c-0.152-0.076-0.293-0.121-0.426-0.145c0.008-0.225-0.059-0.459-0.314-0.592c-0.225-0.117-0.438-0.161-0.611-0.172l0.127-0.277
		c0.17,0.072,0.285,0.135,0.285,0.135s0.059-0.12,0.104-0.286c0.078,0.12,0.201,0.224,0.395,0.276l0.021,0.006
		c-0.086,0.145-0.082,0.335-0.082,0.335c0.045,0.218,0.174,0.454,0.502,0.544c0.395,0.107,0.758,0.306,0.758,0.306
		s0.422-0.854-0.168-1.161l-0.16-0.068c0.033-0.147,0.047-0.325-0.004-0.484l0.018,0.006c0.395,0.107,0.758,0.306,0.758,0.306
		s0.418-0.854-0.168-1.161c-0.314-0.161-0.605-0.186-0.807-0.172l-0.148,0.078c0.021-0.141,0.02-0.293-0.035-0.43
		c0.068,0.054,0.148,0.098,0.252,0.125c0.395,0.107,0.758,0.307,0.758,0.307s0.42-0.855-0.168-1.162
		c-0.094-0.047-0.182-0.079-0.268-0.107c0.049-0.106,0.371-0.861-0.174-1.146l-0.178-0.075c0.041-0.098,0.117-0.315,0.119-0.541
		C30.182,70.541,30.295,70.622,30.455,70.665"/>
	<path fill="#B9AB96" d="M3.629,87.56c0-0.268,5.178-0.484,11.564-0.484s11.564,0.217,11.564,0.484c0,0.27-5.178,0.486-11.564,0.486
		S3.629,87.829,3.629,87.56"/>
	<path fill="#B9AB96" d="M45.387,69.335c0-2.961,0-3.504-0.037-4.128c-0.041-0.661-0.195-0.974-0.838-1.109
		c-0.156-0.038-0.486-0.06-0.76-0.06c-0.213,0-0.33-0.037-0.33-0.174s0.135-0.177,0.428-0.177c1.031,0,2.26,0.058,2.803,0.058
		c0.801,0,1.928-0.058,2.824-0.058c2.434,0,3.311,0.818,3.621,1.11c0.43,0.409,0.975,1.284,0.975,2.318
		c0,2.764-2.027,4.71-4.789,4.71c-0.098,0-0.312,0-0.41-0.019c-0.098-0.02-0.234-0.039-0.234-0.177c0-0.153,0.137-0.212,0.547-0.212
		c1.088,0,2.609-1.227,2.609-3.213c0-0.644-0.061-1.947-1.15-2.922c-0.701-0.643-1.498-0.758-1.945-0.758
		c-0.293,0-0.586,0.02-0.762,0.078c-0.098,0.037-0.154,0.154-0.154,0.369v7.789c0,1.791,0,3.328,0.096,4.166
		c0.059,0.547,0.176,0.972,0.76,1.053c0.273,0.037,0.703,0.076,0.994,0.076c0.213,0,0.311,0.059,0.311,0.155
		c0,0.138-0.154,0.195-0.369,0.195c-1.283,0-2.512-0.058-3.02-0.058c-0.445,0-1.674,0.058-2.453,0.058
		c-0.252,0-0.389-0.058-0.389-0.195c0-0.097,0.078-0.155,0.312-0.155c0.291,0,0.525-0.039,0.701-0.076
		c0.389-0.081,0.486-0.506,0.564-1.072c0.096-0.818,0.096-2.355,0.096-4.146V69.335z"/>
	<path fill="#B9AB96" d="M60.105,70.873c0,0.214,0.039,0.292,0.174,0.351c0.408,0.137,0.994,0.195,1.48,0.195
		c0.779,0,1.031-0.078,1.383-0.332c0.584-0.428,1.148-1.323,1.148-2.92c0-2.765-1.83-3.562-2.979-3.562
		c-0.488,0-0.838,0.019-1.033,0.076c-0.135,0.039-0.174,0.117-0.174,0.271V70.873z M57.809,69.335c0-2.959,0-3.504-0.039-4.128
		c-0.039-0.661-0.195-0.974-0.84-1.109c-0.156-0.038-0.484-0.06-0.758-0.06c-0.215,0-0.332-0.039-0.332-0.174
		c0-0.137,0.139-0.177,0.428-0.177c1.035,0,2.26,0.06,2.668,0.06c0.662,0,2.145-0.06,2.746-0.06c1.227,0,2.531,0.118,3.582,0.839
		c0.547,0.369,1.324,1.361,1.324,2.667c0,1.441-0.602,2.765-2.568,4.362c1.73,2.18,3.076,3.912,4.225,5.119
		c1.09,1.13,1.889,1.265,2.18,1.324c0.213,0.039,0.389,0.06,0.545,0.06s0.234,0.058,0.234,0.154c0,0.156-0.135,0.195-0.369,0.195
		h-1.852c-1.09,0-1.576-0.097-2.084-0.37c-0.836-0.448-1.576-1.363-2.666-2.862c-0.779-1.071-1.676-2.394-1.928-2.687
		c-0.098-0.117-0.213-0.137-0.35-0.137l-1.695-0.039c-0.098,0-0.154,0.039-0.154,0.156v0.273c0,1.811,0,3.35,0.098,4.166
		c0.057,0.566,0.174,0.992,0.758,1.072c0.291,0.037,0.721,0.077,0.955,0.077c0.154,0,0.234,0.058,0.234,0.154
		c0,0.138-0.137,0.195-0.391,0.195c-1.129,0-2.57-0.058-2.861-0.058c-0.371,0-1.596,0.058-2.377,0.058
		c-0.254,0-0.389-0.058-0.389-0.195c0-0.097,0.078-0.154,0.312-0.154c0.291,0,0.523-0.04,0.699-0.077
		c0.391-0.08,0.488-0.506,0.566-1.072c0.098-0.816,0.098-2.355,0.098-4.146V69.335z"/>
	<path fill="#B9AB96" d="M83.137,71.375c0-4.362-2.514-7.067-5.705-7.067c-2.24,0-4.789,1.246-4.789,6.095
		c0,4.049,2.238,7.262,5.977,7.262C79.982,77.664,83.137,77.003,83.137,71.375 M69.955,71.006c0-3.331,2.199-7.634,8.039-7.634
		c4.85,0,7.867,2.825,7.867,7.283c0,4.459-3.113,7.983-8.059,7.983C72.211,78.639,69.955,74.451,69.955,71.006"/>
	<path fill="#3A2F2C" d="M118.068,74.897l2.811-7.463l0.117-0.176l0.094,0.176l2.494,6.701
		C120.857,74.125,119.102,74.524,118.068,74.897 M129.322,78.058c-0.232,0-0.525-0.021-0.818-0.078
		c-0.406-0.098-0.971-0.372-1.711-2.121c-1.244-2.957-4.357-10.896-4.826-11.966c-0.193-0.447-0.311-0.621-0.484-0.621
		c-0.199,0-0.314,0.213-0.545,0.778l-4.885,12.217c-0.391,0.975-0.76,1.636-1.654,1.751c-0.158,0.019-0.428,0.04-0.602,0.04
		c-0.156,0-0.234,0.039-0.234,0.154c0,0.157,0.117,0.196,0.371,0.196c1.01,0,2.08-0.058,2.295-0.058
		c0.602,0,1.441,0.058,2.062,0.058c0.215,0,0.332-0.039,0.332-0.196c0-0.115-0.061-0.154-0.297-0.154h-0.289
		c-0.602,0-0.777-0.254-0.777-0.603c0-0.235,0.098-0.7,0.291-1.188l0.113-0.302c1.844-0.868,4.49-0.738,6.426-0.466l0.777,2.09
		c0.096,0.235-0.041,0.41-0.176,0.447c-0.193,0.021-0.271,0.061-0.271,0.176c0,0.139,0.232,0.139,0.584,0.157
		c1.555,0.039,2.975,0.039,3.676,0.039c0.721,0,0.898-0.039,0.898-0.196C129.578,78.077,129.479,78.058,129.322,78.058"/>
	<path fill="#3A2F2C" d="M91.572,64.72l-2.914,0.078c-1.135,0.039-1.604,0.138-1.896,0.567c-0.197,0.293-0.295,0.528-0.334,0.685
		s-0.096,0.233-0.215,0.233c-0.137,0-0.174-0.097-0.174-0.313c0-0.312,0.369-2.092,0.408-2.25c0.061-0.252,0.117-0.368,0.234-0.368
		c0.158,0,0.352,0.192,0.842,0.233c0.566,0.059,1.311,0.098,1.955,0.098h7.742c0.629,0,1.059-0.059,1.352-0.098
		c0.293-0.059,0.451-0.098,0.527-0.098c0.137,0,0.158,0.117,0.158,0.412c0,0.409-0.061,1.759-0.061,2.268
		c-0.02,0.193-0.059,0.312-0.174,0.312c-0.158,0-0.197-0.098-0.217-0.392l-0.02-0.214c-0.039-0.509-0.568-1.057-2.307-1.096
		l-2.465-0.059v8.018c0,1.799,0,3.344,0.098,4.184c0.059,0.549,0.176,0.979,0.762,1.057c0.273,0.038,0.705,0.078,1,0.078
		c0.215,0,0.311,0.06,0.311,0.156c0,0.139-0.156,0.196-0.371,0.196c-1.291,0-2.521-0.058-3.07-0.058
		c-0.449,0-1.68,0.058-2.465,0.058c-0.254,0-0.391-0.058-0.391-0.196c0-0.097,0.08-0.156,0.314-0.156
		c0.293,0,0.527-0.04,0.703-0.078c0.393-0.078,0.508-0.508,0.566-1.076c0.1-0.82,0.1-2.365,0.1-4.164V64.72z"/>
	<path fill="#3A2F2C" d="M134.99,70.157h0.098c0.666-0.725,3.521-3.639,4.088-4.304c0.547-0.646,0.977-1.133,0.977-1.466
		c0-0.214-0.076-0.352-0.273-0.391c-0.172-0.04-0.256-0.08-0.256-0.197c0-0.137,0.1-0.176,0.312-0.176
		c0.412,0,1.49,0.059,2.018,0.059c0.604,0,1.682-0.059,2.285-0.059c0.197,0,0.336,0.039,0.336,0.176c0,0.139-0.1,0.176-0.297,0.176
		c-0.271,0-0.762,0.079-1.133,0.217c-0.605,0.234-1.27,0.645-2.111,1.466c-0.607,0.586-3.559,3.521-4.225,4.225
		c0.703,0.918,4.537,5.046,5.303,5.769c0.857,0.82,1.738,1.702,2.795,2.111c0.586,0.236,0.979,0.293,1.211,0.293
		c0.137,0,0.254,0.041,0.254,0.156c0,0.139-0.1,0.196-0.471,0.196h-1.697c-0.59,0-0.939,0-1.352-0.039
		c-1.055-0.098-1.584-0.527-2.426-1.271c-0.859-0.763-4.711-5.278-5.119-5.847l-0.219-0.293h-0.098v1.779
		c0,1.799,0,3.344,0.061,4.184c0.037,0.549,0.213,0.979,0.703,1.057c0.275,0.039,0.703,0.078,0.957,0.078
		c0.156,0,0.252,0.06,0.252,0.156c0,0.139-0.154,0.196-0.369,0.196c-1.094,0-2.326-0.058-2.812-0.058
		c-0.453,0-1.686,0.058-2.469,0.058c-0.25,0-0.389-0.058-0.389-0.196c0-0.097,0.078-0.156,0.312-0.156
		c0.293,0,0.527-0.039,0.703-0.078c0.391-0.078,0.49-0.508,0.568-1.075c0.098-0.821,0.098-2.366,0.098-4.165v-3.441
		c0-2.971,0-3.52-0.039-4.146c-0.039-0.665-0.195-0.977-0.842-1.114c-0.156-0.039-0.488-0.061-0.76-0.061
		c-0.215,0-0.336-0.037-0.336-0.176c0-0.137,0.139-0.176,0.434-0.176c1.033,0,2.266,0.059,2.736,0.059
		c0.469,0,1.701-0.059,2.367-0.059c0.27,0,0.41,0.039,0.41,0.176c0,0.139-0.119,0.176-0.273,0.176c-0.195,0-0.314,0.021-0.549,0.061
		c-0.527,0.098-0.684,0.43-0.723,1.114c-0.041,0.626-0.041,1.175-0.041,4.146V70.157z"/>
	<path fill="#3A2F2C" d="M106.25,72.679c0,0.666-0.02,2.465,0,3.031c0.035,1.35,0.35,1.644,2.346,1.644c0.508,0,1.332,0,1.84-0.235
		c0.506-0.234,0.74-0.646,0.879-1.449c0.037-0.213,0.076-0.291,0.215-0.291c0.154,0,0.154,0.156,0.154,0.352
		c0,0.45-0.154,1.779-0.254,2.168c-0.135,0.511-0.312,0.511-1.057,0.511c-1.465,0-2.539-0.04-3.379-0.058
		c-0.842-0.039-1.449-0.059-2.035-0.059c-0.219,0-0.646,0-1.115,0.02c-0.451,0-0.959,0.039-1.35,0.039
		c-0.254,0-0.391-0.059-0.391-0.197c0-0.098,0.078-0.154,0.312-0.154c0.295,0,0.527-0.042,0.705-0.08
		c0.391-0.078,0.488-0.508,0.564-1.076c0.1-0.82,0.1-2.365,0.1-4.164v-3.441c0-2.972,0-3.521-0.039-4.146
		c-0.039-0.665-0.193-0.978-0.84-1.115c-0.158-0.038-0.49-0.06-0.764-0.06c-0.215,0-0.332-0.037-0.332-0.175s0.135-0.177,0.43-0.177
		c0.527,0,1.096,0.021,1.586,0.021c0.506,0.019,0.957,0.037,1.23,0.037c0.625,0,4.518,0,4.889-0.019
		c0.373-0.039,0.686-0.077,0.844-0.117c0.096-0.02,0.211-0.076,0.312-0.076c0.096,0,0.113,0.076,0.113,0.175
		c0,0.137-0.098,0.371-0.156,1.271c-0.02,0.195-0.059,1.055-0.098,1.291c-0.02,0.099-0.057,0.215-0.195,0.215
		c-0.135,0-0.176-0.097-0.176-0.273c0-0.137-0.02-0.469-0.117-0.705c-0.137-0.35-0.332-0.588-1.309-0.703
		c-0.332-0.04-2.385-0.078-2.777-0.078c-0.102,0-0.137,0.06-0.137,0.193V72.679z"/>
	<path fill="#3A2F2C" d="M107.682,70.188c0.551,0.035,1.09,0.019,1.537-0.021c0.469-0.038,0.764-0.096,0.939-0.293
		c0.137-0.155,0.215-0.253,0.312-0.253c0.074,0,0.139,0.039,0.139,0.156s-0.08,0.43-0.158,1.429
		c-0.02,0.391-0.078,1.171-0.078,1.308c0,0.155,0,0.374-0.178,0.374c-0.135,0-0.174-0.081-0.174-0.179
		c-0.021-0.195-0.021-0.447-0.078-0.701c-0.098-0.393-0.289-0.723-1.016-0.781C106.648,71.036,107.002,70.146,107.682,70.188"/>
	<path fill="#3A2F2C" d="M43.795,83.409c-0.053-0.161-0.1-0.266-0.162-0.309l-0.174-0.041l-0.068-0.039l0.096-0.037
		c0.227,0,0.465,0.014,0.504,0.014s0.23-0.014,0.48-0.014l0.094,0.037l-0.08,0.039l-0.107,0.02l-0.049,0.096
		c0,0.057,0.043,0.203,0.098,0.398c0.074,0.287,0.477,1.604,0.555,1.847h0.012l0.844-2.264c0.043-0.121,0.074-0.155,0.109-0.155
		c0.047,0,0.068,0.064,0.125,0.203l0.902,2.185h0.016c0.078-0.29,0.424-1.437,0.576-1.944c0.031-0.101,0.043-0.191,0.043-0.252
		c0-0.07-0.039-0.133-0.209-0.133l-0.072-0.039l0.098-0.037c0.23,0,0.414,0.014,0.453,0.014c0.031,0,0.219-0.014,0.359-0.014
		l0.08,0.035l-0.061,0.041l-0.152,0.022c-0.105,0.04-0.152,0.214-0.244,0.461c-0.199,0.549-0.656,1.929-0.869,2.581
		c-0.047,0.15-0.068,0.203-0.125,0.203c-0.043,0-0.07-0.053-0.135-0.212l-0.904-2.176h-0.01c-0.08,0.222-0.658,1.759-0.846,2.157
		c-0.082,0.178-0.104,0.23-0.156,0.23c-0.043,0-0.061-0.047-0.098-0.16L43.795,83.409z"/>
	<path fill="#3A2F2C" d="M50.416,84.243c0-0.661,0-0.783-0.012-0.922c-0.008-0.147-0.043-0.217-0.186-0.247l-0.17-0.013
		l-0.074-0.039l0.098-0.039c0.117,0,0.242,0.004,0.35,0.004c0.115,0.006,0.213,0.01,0.275,0.01c0.139,0,1.002,0,1.084-0.004
		c0.084-0.01,0.152-0.02,0.188-0.027l0.07-0.018l0.025,0.039c0,0.029-0.021,0.083-0.035,0.283l-0.021,0.285l-0.041,0.048
		l-0.041-0.06l-0.027-0.156c-0.029-0.078-0.072-0.131-0.289-0.158c-0.074-0.008-0.531-0.016-0.617-0.016l-0.029,0.043v1.099
		l0.029,0.048c0.096,0,0.596,0,0.693-0.009c0.105-0.009,0.17-0.021,0.209-0.064l0.072-0.056l0.029,0.033
		c0,0.023-0.02,0.096-0.035,0.318c-0.004,0.086-0.018,0.261-0.018,0.289l-0.039,0.083l-0.039-0.04l-0.018-0.154
		c-0.021-0.088-0.082-0.152-0.242-0.171c-0.084-0.007-0.516-0.013-0.617-0.013l-0.025,0.043v0.344c0,0.147-0.006,0.547,0,0.674
		c0.008,0.3,0.076,0.363,0.52,0.363c0.113,0,0.297,0,0.408-0.051c0.113-0.053,0.166-0.143,0.195-0.322l0.047-0.065l0.035,0.078
		c0,0.102-0.035,0.396-0.055,0.483c-0.029,0.113-0.07,0.113-0.234,0.113c-0.326,0-0.564-0.008-0.752-0.014
		c-0.188-0.01-0.32-0.013-0.453-0.013c-0.047,0-0.143,0-0.246,0.003c-0.1,0-0.213,0.01-0.299,0.01l-0.086-0.043l0.068-0.035
		l0.156-0.018c0.086-0.017,0.107-0.113,0.125-0.24c0.023-0.181,0.023-0.523,0.023-0.924V84.243z"/>
	<path fill="#3A2F2C" d="M57.664,83.001l0.074-0.114c0.035,0,0.061,0.022,0.117,0.134l1.186,2.451l1.182-2.479l0.096-0.106
		c0.039,0,0.064,0.044,0.078,0.134l0.395,2.686c0.041,0.274,0.084,0.4,0.213,0.438c0.127,0.042,0.213,0.045,0.27,0.045l0.07,0.03
		l-0.113,0.048c-0.107,0-0.707-0.013-0.883-0.026c-0.098-0.008-0.125-0.021-0.125-0.046l0.047-0.051
		c0.027-0.008,0.039-0.064,0.023-0.186l-0.262-1.91h-0.018l-0.947,1.971c-0.1,0.205-0.121,0.244-0.16,0.244s-0.082-0.087-0.15-0.217
		c-0.105-0.199-0.449-0.864-0.502-0.986c-0.037-0.093-0.299-0.639-0.449-0.965h-0.018l-0.227,1.729l-0.014,0.204l0.131,0.139
		l0.182,0.021l0.066,0.03l-0.105,0.048c-0.182,0-0.379-0.013-0.455-0.013c-0.082,0-0.293,0.013-0.43,0.013l-0.078-0.048l0.068-0.03
		l0.129-0.013c0.123-0.026,0.158-0.195,0.18-0.343L57.664,83.001z"/>
	<path fill="#3A2F2C" d="M64.66,84.915l0.018-0.025l-0.389-1.072l-0.021-0.039l-0.025,0.039l-0.402,1.069l0.02,0.028H64.66z
		 M63.771,85.133l-0.037,0.034l-0.236,0.622c-0.043,0.107-0.064,0.214-0.064,0.265c0,0.078,0.039,0.135,0.174,0.135h0.064
		l0.066,0.035l-0.074,0.043c-0.139,0-0.326-0.013-0.461-0.013c-0.047,0-0.285,0.013-0.514,0.013l-0.082-0.043l0.055-0.035
		l0.133-0.009c0.199-0.024,0.283-0.174,0.369-0.391l1.092-2.729c0.051-0.124,0.078-0.173,0.119-0.173
		c0.039,0,0.066,0.04,0.109,0.141c0.104,0.238,0.799,2.011,1.078,2.671c0.164,0.391,0.291,0.451,0.381,0.473l0.182,0.018
		l0.057,0.035c0,0.034-0.039,0.043-0.199,0.043c-0.154,0-0.473,0-0.82-0.009l-0.131-0.034l0.061-0.038l0.039-0.103l-0.348-0.919
		l-0.043-0.031H63.771z"/>
	<path fill="#3A2F2C" d="M68.689,84.433h0.021c0.148-0.158,0.783-0.807,0.908-0.954c0.123-0.145,0.215-0.253,0.215-0.325
		l-0.059-0.088l-0.057-0.043l0.068-0.039c0.092,0,0.332,0.014,0.447,0.014c0.137,0,0.375-0.014,0.51-0.014l0.074,0.039l-0.064,0.039
		c-0.062,0-0.17,0.019-0.254,0.047c-0.135,0.053-0.281,0.145-0.469,0.327c-0.135,0.129-0.789,0.782-0.938,0.938
		c0.154,0.204,1.006,1.121,1.176,1.282c0.191,0.182,0.387,0.377,0.623,0.467c0.129,0.054,0.217,0.066,0.27,0.066l0.055,0.035
		c0,0.03-0.021,0.043-0.105,0.043h-0.377c-0.129,0-0.207,0-0.299-0.01c-0.234-0.021-0.352-0.117-0.539-0.281
		c-0.189-0.168-1.047-1.172-1.139-1.299l-0.047-0.064h-0.021v0.395c0,0.4,0,0.743,0.014,0.931c0.008,0.12,0.047,0.217,0.156,0.233
		l0.211,0.018l0.059,0.035l-0.084,0.043c-0.242,0-0.516-0.013-0.625-0.013c-0.098,0-0.373,0.013-0.547,0.013l-0.086-0.043
		l0.068-0.035l0.156-0.018c0.088-0.017,0.107-0.113,0.125-0.238c0.023-0.183,0.023-0.525,0.023-0.926v-0.764
		c0-0.661,0-0.783-0.01-0.921c-0.008-0.148-0.043-0.218-0.188-0.248l-0.17-0.013l-0.072-0.039l0.096-0.039
		c0.23,0,0.506,0.014,0.607,0.014c0.105,0,0.379-0.014,0.525-0.014l0.094,0.039l-0.062,0.039l-0.121,0.013
		c-0.117,0.021-0.152,0.095-0.162,0.248c-0.008,0.138-0.008,0.26-0.008,0.921V84.433z"/>
	<path fill="#3A2F2C" d="M73.016,84.243c0-0.661,0-0.783-0.008-0.922c-0.01-0.147-0.045-0.217-0.188-0.247l-0.17-0.013l-0.074-0.039
		l0.096-0.039c0.117,0,0.244,0.004,0.354,0.004c0.113,0.006,0.211,0.01,0.273,0.01c0.139,0,1.002,0,1.084-0.004
		c0.084-0.01,0.154-0.02,0.188-0.027l0.072-0.018l0.025,0.039c0,0.029-0.023,0.083-0.035,0.283l-0.023,0.285l-0.043,0.048
		l-0.039-0.06l-0.025-0.156c-0.031-0.078-0.074-0.131-0.291-0.158c-0.074-0.008-0.531-0.016-0.617-0.016l-0.031,0.043v1.099
		l0.031,0.048c0.096,0,0.596,0,0.695-0.009c0.104-0.009,0.168-0.021,0.207-0.064l0.07-0.056l0.031,0.033
		c0,0.023-0.018,0.096-0.035,0.318c-0.004,0.086-0.018,0.261-0.018,0.289l-0.039,0.083l-0.039-0.04l-0.016-0.154
		c-0.023-0.088-0.084-0.152-0.244-0.171c-0.084-0.007-0.514-0.013-0.617-0.013l-0.027,0.043v0.344c0,0.147-0.004,0.547,0,0.674
		c0.01,0.3,0.08,0.363,0.521,0.363c0.113,0,0.295,0,0.408-0.051c0.113-0.053,0.166-0.143,0.197-0.322l0.047-0.065l0.033,0.078
		c0,0.102-0.033,0.396-0.055,0.483c-0.031,0.113-0.07,0.113-0.234,0.113c-0.326,0-0.564-0.008-0.754-0.014
		c-0.186-0.01-0.32-0.013-0.449-0.013c-0.049,0-0.145,0-0.248,0.003c-0.1,0-0.213,0.01-0.301,0.01l-0.086-0.043l0.068-0.035
		l0.158-0.018c0.086-0.017,0.109-0.113,0.127-0.24c0.02-0.181,0.02-0.523,0.02-0.924V84.243z"/>
	<path fill="#3A2F2C" d="M80.652,85.007c0,0.417,0,0.743,0.021,0.924c0.012,0.127,0.039,0.224,0.17,0.24l0.219,0.018l0.072,0.035
		l-0.096,0.043c-0.273,0-0.547-0.013-0.66-0.013s-0.387,0.013-0.551,0.013l-0.092-0.043l0.064-0.035l0.158-0.018
		c0.086-0.017,0.107-0.113,0.125-0.24c0.021-0.181,0.021-0.507,0.021-0.924v-0.764c0-0.661,0-0.783-0.01-0.922
		c-0.008-0.146-0.043-0.216-0.188-0.246l-0.168-0.014l-0.072-0.035l0.098-0.043c0.113,0,0.24,0.004,0.352,0.004
		c0.115,0.006,0.213,0.01,0.273,0.01c0.166,0,1.049,0,1.148-0.004l0.178-0.02l0.068-0.025l0.031,0.039
		c0,0.031-0.021,0.083-0.035,0.195l-0.02,0.352l-0.045,0.062l-0.045-0.07l-0.025-0.166c-0.029-0.061-0.121-0.125-0.285-0.131
		l-0.67-0.012l-0.039,0.062v1.085l0.029,0.039l0.557-0.004l0.195-0.006l0.188-0.078l0.057-0.042l0.027,0.039
		c0,0.025-0.023,0.134-0.035,0.269c-0.01,0.088-0.018,0.288-0.018,0.318l-0.043,0.082l-0.035-0.062l-0.027-0.134
		c-0.021-0.062-0.088-0.139-0.221-0.156c-0.109-0.014-0.57-0.014-0.645-0.014l-0.029,0.039V85.007z"/>
	<path fill="#3A2F2C" d="M86.793,84.708c0-0.974-0.559-1.577-1.271-1.577c-0.498,0-1.066,0.278-1.066,1.358
		c0,0.904,0.5,1.621,1.332,1.621C86.09,86.11,86.793,85.962,86.793,84.708 M83.855,84.626c0-0.743,0.49-1.704,1.793-1.704
		c1.08,0,1.754,0.63,1.754,1.624s-0.695,1.781-1.797,1.781C84.359,86.327,83.855,85.394,83.855,84.626"/>
	<path fill="#3A2F2C" d="M90.344,84.586l0.039,0.077c0.092,0.031,0.221,0.045,0.33,0.045c0.174,0,0.23-0.017,0.307-0.075
		c0.133-0.096,0.258-0.295,0.258-0.651c0-0.615-0.408-0.795-0.664-0.795c-0.109,0-0.188,0.006-0.23,0.018l-0.039,0.062V84.586z
		 M89.832,84.243c0-0.661,0-0.782-0.008-0.922c-0.01-0.147-0.045-0.217-0.188-0.246l-0.17-0.014l-0.074-0.039l0.096-0.039
		c0.23,0,0.504,0.014,0.596,0.014c0.146,0,0.479-0.014,0.613-0.014c0.271,0,0.562,0.026,0.797,0.186
		c0.123,0.084,0.295,0.305,0.295,0.596c0,0.32-0.133,0.617-0.572,0.975c0.387,0.484,0.686,0.873,0.943,1.141
		c0.242,0.252,0.422,0.282,0.486,0.296l0.121,0.013l0.051,0.035l-0.082,0.043h-0.412c-0.244,0-0.35-0.021-0.463-0.082
		c-0.188-0.102-0.354-0.305-0.598-0.639c-0.174-0.238-0.371-0.534-0.43-0.6l-0.076-0.031l-0.379-0.008l-0.035,0.033v0.062
		c0,0.404,0,0.747,0.021,0.928c0.014,0.127,0.039,0.224,0.17,0.24l0.211,0.018l0.053,0.035l-0.086,0.043
		c-0.252,0-0.572-0.014-0.639-0.014c-0.082,0-0.355,0.014-0.529,0.014l-0.09-0.043l0.07-0.035l0.158-0.018
		c0.086-0.017,0.109-0.113,0.127-0.24c0.021-0.181,0.021-0.523,0.021-0.924V84.243z"/>
	<path fill="#3A2F2C" d="M94.631,84.243c0-0.661,0-0.783-0.008-0.922c-0.01-0.147-0.043-0.217-0.188-0.247l-0.168-0.013
		l-0.074-0.039l0.096-0.039c0.117,0,0.242,0.004,0.352,0.004c0.111,0.006,0.211,0.01,0.273,0.01c0.139,0,1.002,0,1.084-0.004
		c0.084-0.01,0.154-0.02,0.188-0.027l0.07-0.018l0.025,0.039c0,0.029-0.021,0.083-0.035,0.283l-0.021,0.285l-0.043,0.048
		l-0.039-0.06l-0.025-0.156c-0.029-0.078-0.076-0.131-0.289-0.158c-0.076-0.008-0.531-0.016-0.621-0.016l-0.027,0.043v1.099
		l0.027,0.048c0.098,0,0.596,0,0.697-0.009c0.104-0.009,0.168-0.021,0.209-0.064l0.068-0.056l0.029,0.033
		c0,0.023-0.018,0.096-0.033,0.318c-0.006,0.086-0.018,0.261-0.018,0.289l-0.039,0.083l-0.039-0.04l-0.016-0.154
		c-0.025-0.088-0.084-0.152-0.246-0.171c-0.082-0.007-0.512-0.013-0.615-0.013l-0.025,0.043v0.344c0,0.147-0.006,0.547,0,0.674
		c0.01,0.3,0.076,0.363,0.521,0.363c0.111,0,0.295,0,0.408-0.051c0.111-0.053,0.162-0.143,0.193-0.322l0.047-0.065l0.035,0.078
		c0,0.102-0.035,0.396-0.055,0.483c-0.031,0.113-0.07,0.113-0.234,0.113c-0.326,0-0.564-0.008-0.752-0.014
		c-0.188-0.01-0.32-0.013-0.451-0.013c-0.049,0-0.145,0-0.248,0.003c-0.1,0-0.213,0.01-0.299,0.01l-0.088-0.043l0.07-0.035
		l0.156-0.018c0.086-0.017,0.107-0.113,0.127-0.24c0.02-0.181,0.02-0.523,0.02-0.924V84.243z"/>
	<path fill="#3A2F2C" d="M98.658,86.215c-0.07-0.03-0.082-0.053-0.082-0.147c0-0.238,0.018-0.5,0.021-0.57l0.051-0.112l0.043,0.075
		l0.039,0.221c0.098,0.322,0.354,0.439,0.623,0.439c0.391,0,0.58-0.266,0.58-0.497c0-0.214-0.064-0.411-0.426-0.694l-0.199-0.156
		c-0.477-0.373-0.641-0.678-0.641-1.029c0-0.478,0.398-0.82,1.002-0.82c0.283,0,0.465,0.043,0.578,0.074l0.062,0.051
		c0,0.058-0.02,0.182-0.02,0.521c0,0.096-0.012,0.131-0.047,0.131l-0.045-0.08c0-0.038-0.023-0.172-0.113-0.286
		c-0.064-0.081-0.189-0.212-0.471-0.212c-0.324,0-0.518,0.188-0.518,0.447c0,0.199,0.1,0.353,0.461,0.625l0.119,0.092
		c0.525,0.396,0.713,0.695,0.713,1.106c0,0.253-0.096,0.553-0.408,0.757c-0.217,0.139-0.459,0.178-0.691,0.178
		C99.041,86.327,98.844,86.298,98.658,86.215"/>
	<path fill="#3A2F2C" d="M103.523,83.226l-0.648,0.019c-0.252,0.009-0.355,0.03-0.42,0.125l-0.074,0.152l-0.047,0.052l-0.041-0.069
		l0.094-0.499l0.051-0.082c0.035,0,0.078,0.043,0.186,0.051c0.127,0.014,0.293,0.023,0.436,0.023h1.721
		c0.141,0,0.234-0.014,0.301-0.023l0.115-0.021l0.035,0.092c0,0.092-0.014,0.392-0.014,0.504l-0.039,0.07l-0.049-0.088l-0.002-0.048
		c-0.008-0.113-0.127-0.234-0.514-0.243l-0.547-0.014v1.781c0,0.4,0,0.743,0.021,0.931c0.012,0.12,0.039,0.217,0.17,0.233
		l0.221,0.018l0.07,0.035l-0.084,0.043c-0.285,0-0.559-0.013-0.682-0.013c-0.1,0-0.373,0.013-0.547,0.013l-0.086-0.043l0.068-0.035
		l0.156-0.018c0.088-0.017,0.113-0.113,0.129-0.24c0.02-0.181,0.02-0.523,0.02-0.924V83.226z"/>
	<path fill="#3A2F2C" d="M108.062,84.586l0.039,0.077c0.092,0.031,0.221,0.045,0.33,0.045c0.176,0,0.23-0.017,0.309-0.075
		c0.131-0.096,0.258-0.295,0.258-0.651c0-0.615-0.41-0.795-0.666-0.795c-0.107,0-0.188,0.006-0.23,0.018l-0.039,0.062V84.586z
		 M107.549,84.243c0-0.661,0-0.782-0.008-0.922c-0.01-0.147-0.043-0.217-0.186-0.246l-0.17-0.014l-0.074-0.039l0.096-0.039
		c0.229,0,0.504,0.014,0.594,0.014c0.148,0,0.479-0.014,0.615-0.014c0.271,0,0.562,0.026,0.797,0.186
		c0.123,0.084,0.295,0.305,0.295,0.596c0,0.32-0.135,0.617-0.572,0.975c0.387,0.484,0.686,0.873,0.941,1.141
		c0.244,0.252,0.424,0.282,0.488,0.296l0.121,0.013l0.051,0.035l-0.082,0.043h-0.412c-0.242,0-0.352-0.021-0.465-0.082
		c-0.188-0.102-0.35-0.305-0.596-0.639c-0.172-0.238-0.371-0.534-0.43-0.6l-0.08-0.031l-0.375-0.008l-0.035,0.033v0.062
		c0,0.404,0,0.747,0.021,0.928c0.014,0.127,0.039,0.224,0.168,0.24l0.215,0.018l0.053,0.035l-0.088,0.043
		c-0.252,0-0.572-0.014-0.639-0.014c-0.082,0-0.357,0.014-0.529,0.014l-0.088-0.043l0.07-0.035l0.156-0.018
		c0.088-0.017,0.107-0.113,0.125-0.24c0.021-0.181,0.021-0.523,0.021-0.924V84.243z"/>
	<path fill="#3A2F2C" d="M112.75,85.143c0-0.235-0.043-0.331-0.1-0.456c-0.031-0.07-0.613-1.025-0.766-1.251
		c-0.107-0.161-0.217-0.271-0.299-0.317l-0.182-0.057l-0.066-0.039l0.082-0.039c0.08,0,0.404,0.014,0.549,0.014
		c0.09,0,0.268-0.014,0.463-0.014l0.066,0.039l-0.096,0.048l-0.062,0.077l0.053,0.149c0.062,0.13,0.67,1.175,0.738,1.297
		c0.045-0.104,0.592-1.06,0.654-1.194c0.043-0.096,0.059-0.17,0.059-0.225l-0.09-0.109l-0.078-0.043l0.074-0.039
		c0.143,0,0.283,0.014,0.408,0.014c0.094,0,0.381-0.014,0.463-0.014l0.078,0.035l-0.082,0.043l-0.191,0.052
		c-0.09,0.044-0.139,0.095-0.234,0.214c-0.143,0.173-0.75,1.193-0.83,1.381c-0.066,0.156-0.066,0.291-0.066,0.435v0.354
		c0,0.07,0,0.252,0.016,0.434c0.008,0.127,0.047,0.224,0.178,0.24l0.217,0.018l0.07,0.035l-0.092,0.043
		c-0.273,0-0.549-0.013-0.664-0.013c-0.107,0-0.383,0.013-0.545,0.013l-0.094-0.043l0.07-0.035l0.15-0.018
		c0.088-0.017,0.127-0.113,0.135-0.24c0.014-0.182,0.014-0.363,0.014-0.434V85.143z"/>
	<path fill="#3A2F2C" d="M119.678,83.001l0.074-0.114c0.035,0,0.061,0.022,0.117,0.134l1.186,2.451l1.182-2.479l0.096-0.106
		c0.039,0,0.066,0.044,0.078,0.134l0.395,2.686c0.039,0.274,0.082,0.4,0.215,0.438c0.125,0.042,0.209,0.045,0.268,0.045l0.068,0.03
		l-0.111,0.048c-0.109,0-0.709-0.013-0.881-0.026c-0.102-0.008-0.127-0.021-0.127-0.046l0.049-0.051
		c0.025-0.008,0.039-0.064,0.02-0.186l-0.26-1.91h-0.016l-0.947,1.971c-0.102,0.205-0.123,0.244-0.16,0.244
		c-0.041,0-0.084-0.087-0.152-0.217c-0.105-0.199-0.449-0.864-0.5-0.986c-0.039-0.093-0.301-0.639-0.453-0.965h-0.018l-0.225,1.729
		l-0.014,0.204l0.131,0.139l0.182,0.021l0.066,0.03l-0.105,0.048c-0.182,0-0.377-0.013-0.457-0.013s-0.289,0.013-0.428,0.013
		l-0.078-0.048l0.068-0.03l0.131-0.013c0.123-0.026,0.156-0.195,0.178-0.343L119.678,83.001z"/>
	<path fill="#3A2F2C" d="M126.672,84.915l0.021-0.025l-0.391-1.072l-0.021-0.039l-0.027,0.039l-0.398,1.069l0.018,0.028H126.672z
		 M125.787,85.133l-0.039,0.034l-0.234,0.622c-0.045,0.107-0.066,0.214-0.066,0.265c0,0.078,0.039,0.135,0.172,0.135h0.068
		l0.064,0.035l-0.074,0.043c-0.139,0-0.328-0.013-0.461-0.013c-0.049,0-0.287,0.013-0.512,0.013l-0.084-0.043l0.053-0.035
		l0.135-0.009c0.199-0.024,0.283-0.174,0.369-0.391l1.092-2.729c0.051-0.124,0.076-0.173,0.119-0.173
		c0.039,0,0.066,0.04,0.109,0.141c0.105,0.238,0.799,2.011,1.076,2.671c0.166,0.391,0.293,0.451,0.383,0.473l0.182,0.018
		l0.057,0.035c0,0.034-0.037,0.043-0.199,0.043c-0.156,0-0.473,0-0.82-0.009l-0.131-0.034l0.061-0.038l0.039-0.103l-0.346-0.919
		l-0.043-0.031H125.787z"/>
	<path fill="#3A2F2C" d="M130.469,83.226l-0.646,0.019c-0.254,0.009-0.357,0.03-0.422,0.125l-0.074,0.152l-0.049,0.052l-0.037-0.069
		l0.09-0.499l0.051-0.082c0.035,0,0.08,0.043,0.188,0.051c0.127,0.014,0.293,0.023,0.436,0.023h1.723
		c0.137,0,0.232-0.014,0.297-0.023l0.117-0.021l0.035,0.092c0,0.092-0.014,0.392-0.014,0.504l-0.039,0.07l-0.047-0.088l-0.006-0.048
		c-0.008-0.113-0.125-0.234-0.512-0.243l-0.547-0.014v1.781c0,0.4,0,0.743,0.021,0.931c0.012,0.12,0.039,0.217,0.17,0.233
		l0.221,0.018l0.07,0.035l-0.084,0.043c-0.285,0-0.561-0.013-0.68-0.013c-0.1,0-0.375,0.013-0.551,0.013l-0.086-0.043l0.07-0.035
		l0.158-0.018c0.086-0.017,0.111-0.113,0.125-0.24c0.021-0.181,0.021-0.523,0.021-0.924V83.226z"/>
	<path fill="#3A2F2C" d="M135.074,83.226l-0.646,0.019c-0.254,0.009-0.357,0.03-0.424,0.125l-0.074,0.152l-0.047,0.052l-0.039-0.069
		l0.092-0.499l0.053-0.082c0.033,0,0.078,0.043,0.186,0.051c0.125,0.014,0.291,0.023,0.436,0.023h1.719
		c0.139,0,0.234-0.014,0.299-0.023l0.119-0.021l0.033,0.092c0,0.092-0.012,0.392-0.012,0.504l-0.041,0.07l-0.045-0.088l-0.004-0.048
		c-0.01-0.113-0.129-0.234-0.514-0.243l-0.547-0.014v1.781c0,0.4,0,0.743,0.02,0.931c0.014,0.12,0.039,0.217,0.17,0.233l0.223,0.018
		l0.07,0.035l-0.086,0.043c-0.285,0-0.559-0.013-0.68-0.013c-0.1,0-0.375,0.013-0.547,0.013l-0.086-0.043l0.07-0.035l0.154-0.018
		c0.084-0.017,0.113-0.113,0.125-0.24c0.023-0.181,0.023-0.523,0.023-0.924V83.226z"/>
	<path fill="#3A2F2C" d="M139.102,84.243c0-0.661,0-0.783-0.012-0.922c-0.008-0.147-0.041-0.217-0.184-0.247l-0.172-0.013
		l-0.074-0.039l0.098-0.039c0.115,0,0.242,0.004,0.352,0.004c0.113,0.006,0.211,0.01,0.273,0.01c0.137,0,1,0,1.086-0.004
		l0.188-0.027l0.066-0.018l0.027,0.039c0,0.029-0.021,0.083-0.035,0.283l-0.021,0.285l-0.045,0.048l-0.037-0.06l-0.027-0.156
		c-0.029-0.078-0.07-0.131-0.291-0.158c-0.072-0.008-0.529-0.016-0.615-0.016l-0.031,0.043v1.099l0.031,0.048
		c0.094,0,0.596,0,0.693-0.009c0.105-0.009,0.17-0.021,0.207-0.064l0.07-0.056l0.033,0.033c0,0.023-0.018,0.096-0.037,0.318
		c-0.004,0.086-0.016,0.261-0.016,0.289l-0.041,0.083l-0.037-0.04l-0.018-0.154c-0.02-0.088-0.082-0.152-0.242-0.171
		c-0.084-0.007-0.514-0.013-0.617-0.013l-0.027,0.043v0.344c0,0.147-0.006,0.547,0,0.674c0.008,0.3,0.078,0.363,0.521,0.363
		c0.113,0,0.295,0,0.408-0.051c0.113-0.053,0.166-0.143,0.193-0.322l0.051-0.065l0.033,0.078c0,0.102-0.033,0.396-0.055,0.483
		c-0.033,0.113-0.07,0.113-0.236,0.113c-0.324,0-0.564-0.008-0.752-0.014c-0.186-0.01-0.318-0.013-0.449-0.013
		c-0.049,0-0.143,0-0.248,0.003c-0.102,0-0.213,0.01-0.303,0.01l-0.084-0.043l0.068-0.035l0.156-0.018
		c0.088-0.017,0.109-0.113,0.125-0.24c0.025-0.181,0.025-0.523,0.025-0.924V84.243z"/>
	<path fill="#3A2F2C" d="M143.879,84.586l0.037,0.077c0.092,0.031,0.223,0.045,0.334,0.045c0.17,0,0.229-0.017,0.307-0.075
		c0.129-0.096,0.256-0.295,0.256-0.651c0-0.615-0.408-0.795-0.666-0.795c-0.109,0-0.186,0.006-0.23,0.018l-0.037,0.062V84.586z
		 M143.365,84.243c0-0.661,0-0.782-0.008-0.922c-0.01-0.147-0.043-0.217-0.188-0.246L143,83.062l-0.074-0.039l0.098-0.039
		c0.23,0,0.502,0.014,0.594,0.014c0.148,0,0.479-0.014,0.613-0.014c0.275,0,0.564,0.026,0.799,0.186
		c0.123,0.084,0.295,0.305,0.295,0.596c0,0.32-0.133,0.617-0.572,0.975c0.385,0.484,0.686,0.873,0.941,1.141
		c0.242,0.252,0.42,0.282,0.486,0.296l0.123,0.013l0.051,0.035l-0.082,0.043h-0.412c-0.244,0-0.354-0.021-0.465-0.082
		c-0.188-0.102-0.352-0.305-0.596-0.639c-0.174-0.238-0.373-0.534-0.428-0.6l-0.08-0.031l-0.379-0.008l-0.033,0.033v0.062
		c0,0.404,0,0.747,0.02,0.928c0.014,0.127,0.039,0.224,0.172,0.24l0.211,0.018l0.055,0.035l-0.086,0.043
		c-0.256,0-0.576-0.014-0.641-0.014c-0.084,0-0.355,0.014-0.529,0.014l-0.09-0.043l0.07-0.035l0.158-0.018
		c0.086-0.017,0.105-0.113,0.127-0.24c0.02-0.181,0.02-0.523,0.02-0.924V84.243z"/>
</g>
</svg>
