<?xml version="1.0" encoding="utf-8"?>
<!-- Generator: Adobe Illustrator 16.0.0, SVG Export Plug-In . SVG Version: 6.00 Build 0)  -->
<!DOCTYPE svg PUBLIC "-//W3C//DTD SVG 1.1//EN" "http://www.w3.org/Graphics/SVG/1.1/DTD/svg11.dtd">
<svg version="1.1" id="Capa_1" xmlns="http://www.w3.org/2000/svg" xmlns:xlink="http://www.w3.org/1999/xlink" x="0px" y="0px"
	 width="200px" height="200px" viewBox="0 0 200 200" enable-background="new 0 0 200 200" xml:space="preserve">
<g>
	<rect x="17.968" y="138.156" fill="#FFFFFF" width="144.868" height="8.248"/>
	<path fill="#FFFFFF" d="M133.897,34.098c-2.204,0-3.989-1.297-3.989-2.893c0-1.598,1.785-2.893,3.989-2.893
		c2.201,0,3.989,1.295,3.989,2.893C137.887,32.801,136.099,34.098,133.897,34.098"/>
	<path fill="#FFFFFF" d="M133.897,38.227c-2.204,0-3.989-1.295-3.989-2.891s1.785-2.895,3.989-2.895
		c2.201,0,3.989,1.299,3.989,2.895S136.099,38.227,133.897,38.227"/>
	<path fill="#FFFFFF" d="M133.897,42.355c-2.204,0-3.989-1.293-3.989-2.891s1.785-2.891,3.989-2.891
		c2.201,0,3.989,1.293,3.989,2.891S136.099,42.355,133.897,42.355"/>
	<path fill="#FFFFFF" d="M133.897,46.488c-2.204,0-3.989-1.297-3.989-2.896c0-1.592,1.785-2.887,3.989-2.887
		c2.201,0,3.989,1.295,3.989,2.891C137.887,45.193,136.099,46.488,133.897,46.488"/>
	<path fill="#FFFFFF" d="M133.897,50.617c-2.204,0-3.989-1.295-3.989-2.893c0-1.596,1.785-2.891,3.989-2.891
		c2.201,0,3.989,1.295,3.989,2.891C137.887,49.322,136.099,50.617,133.897,50.617"/>
	<path fill="#FFFFFF" d="M133.897,54.748c-2.204,0-3.989-1.297-3.989-2.893c0-1.598,1.785-2.893,3.989-2.893
		c2.201,0,3.989,1.295,3.989,2.893C137.887,53.451,136.099,54.748,133.897,54.748"/>
	<path fill="#FFFFFF" d="M133.897,58.877c-2.204,0-3.989-1.295-3.989-2.893c0-1.596,1.785-2.889,3.989-2.889
		c2.201,0,3.989,1.293,3.989,2.889C137.887,57.586,136.099,58.877,133.897,58.877"/>
	<path fill="#FFFFFF" d="M133.897,63.008c-2.204,0-3.989-1.297-3.989-2.895c0-1.592,1.785-2.891,3.989-2.891
		c2.201,0,3.989,1.299,3.989,2.893C137.887,61.711,136.099,63.008,133.897,63.008"/>
	<path fill="#FFFFFF" d="M133.897,67.137c-2.204,0-3.989-1.295-3.989-2.895c0-1.596,1.785-2.889,3.989-2.889
		c2.201,0,3.989,1.293,3.989,2.889C137.887,65.842,136.099,67.137,133.897,67.137"/>
	<path fill="#FFFFFF" d="M133.897,71.268c-2.204,0-3.989-1.293-3.989-2.893c0-1.596,1.785-2.891,3.989-2.891
		c2.201,0,3.989,1.295,3.989,2.891C137.887,69.975,136.099,71.268,133.897,71.268"/>
	<path fill="#FFFFFF" d="M133.897,75.396c-2.204,0-3.989-1.293-3.989-2.891c0-1.596,1.785-2.893,3.989-2.893
		c2.201,0,3.989,1.297,3.989,2.893C137.887,74.104,136.099,75.396,133.897,75.396"/>
	<path fill="#FFFFFF" d="M133.897,79.529c-2.204,0-3.989-1.297-3.989-2.895s1.785-2.889,3.989-2.889
		c2.201,0,3.989,1.291,3.989,2.891C137.887,78.232,136.099,79.529,133.897,79.529"/>
	<path fill="#FFFFFF" d="M133.897,83.656c-2.204,0-3.989-1.293-3.989-2.891c0-1.6,1.785-2.891,3.989-2.891
		c2.201,0,3.989,1.295,3.989,2.891C137.887,82.363,136.099,83.656,133.897,83.656"/>
	<path fill="#FFFFFF" d="M133.897,87.789c-2.204,0-3.989-1.297-3.989-2.893c0-1.598,1.785-2.893,3.989-2.893
		c2.201,0,3.989,1.295,3.989,2.893C137.887,86.492,136.099,87.789,133.897,87.789"/>
	<path fill="#FFFFFF" d="M133.897,91.916c-2.204,0-3.989-1.295-3.989-2.889c0-1.6,1.785-2.895,3.989-2.895
		c2.201,0,3.989,1.295,3.989,2.895C137.887,90.621,136.099,91.916,133.897,91.916"/>
	<path fill="#FFFFFF" d="M128.616,113.918c-0.028-0.297-0.28-0.523-0.58-0.523h-12.681c-0.236,0-0.335,0.309-0.14,0.441
		c0.757,0.516,2.529,0.967,2.596,1.516c0.088,0.711-2.55,1.912-2.387,2.598c0.173,0.691,3.068,0.535,3.319,1.191
		c0.254,0.668-2.021,2.473-1.691,3.098c0.333,0.627,3.104-0.221,3.508,0.359c0.403,0.586-1.368,2.879-0.899,3.41
		c0.471,0.529,2.964-0.955,3.494-0.484c0.529,0.471-0.65,3.121-0.063,3.525c0.58,0.402,2.646-1.635,3.276-1.303
		c0.624,0.328,0.117,3.184,0.785,3.436c0.658,0.25,2.171-2.221,2.863-2.053c0.685,0.17,0.88,3.064,1.59,3.148
		c0.697,0.084,1.573-2.682,2.291-2.682s1.595,2.766,2.291,2.682c0.712-0.084,0.906-2.979,1.589-3.148
		c0.692-0.168,2.208,2.303,2.865,2.053c0.668-0.252,0.158-3.107,0.784-3.436c0.632-0.332,2.692,1.705,3.278,1.303
		c0.584-0.404-0.593-3.055-0.065-3.525c0.533-0.471,3.026,1.014,3.494,0.484c0.47-0.531-1.303-2.824-0.898-3.41
		c0.401-0.58,3.176,0.268,3.507-0.359c0.329-0.625-1.943-2.43-1.688-3.098c0.249-0.656,3.146-0.5,3.314-1.191
		c0.169-0.686-2.471-1.887-2.386-2.598c0.066-0.549,1.841-1,2.599-1.516c0.193-0.133,0.097-0.441-0.139-0.441h-12.686
		c-0.296,0-0.549,0.227-0.58,0.523c-0.263,2.688-2.525,4.783-5.279,4.783S128.881,116.605,128.616,113.918"/>
	<path fill="#FFFFFF" d="M141.89,108.139h-3.427c-0.828-1.799-2.676-3.051-4.825-3.051c-2.146,0-3.994,1.252-4.823,3.051h-3.424
		c-0.518,0-0.926-0.449-0.87-0.963c0.479-4.609,4.378-8.205,9.117-8.205c4.738,0,8.639,3.596,9.12,8.205
		C142.812,107.689,142.406,108.139,141.89,108.139 M161.835,107.703c-0.122-0.123-0.291-0.199-0.477-0.199h-6.683
		c-0.454-5.049-2.709-9.664-6.121-13.074c-3.757-3.756-8.916-6.053-14.608-5.857c-5.866,0.205-11.014,2.477-14.723,6.035
		c0-0.053-0.004-0.104-0.006-0.154c-3.399,3.408-5.646,8.012-6.099,13.051h-6.687c-0.182,0-0.349,0.076-0.473,0.199
		c-0.122,0.123-0.196,0.289-0.196,0.475v2.418c0,0.369,0.301,0.672,0.673,0.672h7.132c-0.004,0.021-0.007,0.041-0.01,0.062h8.169
		c0.297,0,0.586-0.021,0.871-0.062h38.76c0.372,0,0.675-0.303,0.675-0.672v-2.418C162.033,107.992,161.957,107.826,161.835,107.703"
		/>
	<rect x="125.387" y="83.658" fill="#FFFFFF" width="16.835" height="6.842"/>
	<path fill="#FFFFFF" d="M171.814,158.68c-1.16,0-2.106,0.947-2.106,2.107c0,1.164,0.946,2.109,2.106,2.109
		c1.163,0,2.109-0.945,2.109-2.109C173.924,159.627,172.978,158.68,171.814,158.68"/>
	<path fill="#FFFFFF" d="M171.814,168.971c-4.51,0-8.18-3.67-8.18-8.184c0-4.508,3.67-8.176,8.18-8.176
		c4.511,0,8.181,3.668,8.181,8.176C179.995,165.301,176.325,168.971,171.814,168.971 M23.666,168.971
		c-4.511,0-8.182-3.67-8.182-8.184c0-4.508,3.671-8.176,8.182-8.176c4.512,0,8.179,3.668,8.179,8.176
		C31.845,165.301,28.178,168.971,23.666,168.971 M183.955,150.318H15.323c-5.898,0-10.684,4.785-10.684,10.684
		c0,5.9,4.785,10.684,10.684,10.684h168.632c5.899,0,10.681-4.783,10.681-10.684C194.636,155.104,189.854,150.318,183.955,150.318"
		/>
	<path fill="#FFFFFF" d="M23.666,158.68c-1.161,0-2.107,0.947-2.107,2.107c0,1.164,0.946,2.109,2.107,2.109
		c1.162,0,2.107-0.945,2.107-2.109C25.773,159.627,24.828,158.68,23.666,158.68"/>
	<rect x="56.209" y="28.32" fill="#FFFFFF" width="106.627" height="8.244"/>
</g>
</svg>
