<?xml version="1.0" encoding="utf-8"?>
<!-- Generator: Adobe Illustrator 16.0.0, SVG Export Plug-In . SVG Version: 6.00 Build 0)  -->
<!DOCTYPE svg PUBLIC "-//W3C//DTD SVG 1.1//EN" "http://www.w3.org/Graphics/SVG/1.1/DTD/svg11.dtd">
<svg version="1.1" id="Capa_1" xmlns="http://www.w3.org/2000/svg" xmlns:xlink="http://www.w3.org/1999/xlink" x="0px" y="0px"
	 width="125.833px" height="24px" viewBox="0 0 125.833 24" enable-background="new 0 0 125.833 24" xml:space="preserve">
<g>
	<path fill="#B9AB96" d="M15.495,9.411c0.283-0.077,0.394-0.279,0.432-0.466c0,0,0.014-0.369-0.247-0.419
		c-0.173-0.012-0.422,0.01-0.693,0.15c-0.506,0.264-0.145,1-0.145,1S15.155,9.504,15.495,9.411 M23.932,9.585
		c-0.156-0.041-0.296-0.05-0.409-0.043c-0.089,0.019-0.146,0.075-0.181,0.142c0.01-0.118,0-0.242-0.054-0.352l0.044,0.015
		C23.589,9.417,23.831,9.533,23.932,9.585 M22.891,11.067c-0.081,0.014-0.135,0.062-0.17,0.118l-0.005-0.013l0.153-0.331
		c0.294,0.096,0.543,0.23,0.543,0.23l0.002-0.003l0.027,0.086C23.227,11.073,23.034,11.056,22.891,11.067 M23.283,9.966l0.045,0.146
		l-0.062-0.04l-0.021-0.01L23.283,9.966z M22.571,9.923c-0.092,0.017-0.149,0.079-0.187,0.147c-0.02-0.148-0.091-0.292-0.26-0.379
		l-0.173-0.072l0.013-0.101c0.032-0.076,0.109-0.276,0.111-0.482c0.035-0.13,0.07-0.261,0.104-0.392
		c0.261,0.093,0.469,0.205,0.469,0.205s0.17-0.345,0.113-0.648c0.063,0.056,0.146,0.102,0.252,0.131
		c0.146,0.041,0.288,0.095,0.402,0.144c-0.101-0.014-0.195-0.017-0.272-0.014c-0.259,0.049-0.244,0.418-0.244,0.418l0.069,0.194
		c-0.227-0.094-0.436-0.113-0.587-0.103c-0.257,0.048-0.245,0.417-0.245,0.417c0.039,0.188,0.149,0.389,0.432,0.467
		c0.081,0.022,0.16,0.049,0.233,0.077C22.718,9.923,22.637,9.92,22.571,9.923 M22.425,10.928c-0.175-0.078-0.34-0.11-0.478-0.118
		c-0.007-0.093-0.014-0.184-0.02-0.276c0.197,0.079,0.341,0.156,0.341,0.156s0.05-0.104,0.087-0.247
		c0.034,0.093,0.087,0.182,0.176,0.25L22.425,10.928z M22.039,11.763l-0.005-0.054l0.025,0.008L22.039,11.763z M21.88,13.289
		l-0.123-0.052l0.01-0.022l0.166,0.07l0.009,0.004H21.88z M21.741,12.401c-0.25,0.056-0.24,0.416-0.24,0.416l0.017,0.067
		l-0.128,0.278h-0.15c-0.26,0.05-0.247,0.417-0.247,0.417c0.017,0.08,0.047,0.159,0.094,0.233L21,14
		c-0.101-0.014-0.193-0.018-0.269-0.012l-0.027,0.01c-0.079-0.005-0.175-0.002-0.277,0.015c0.237-0.087,0.336-0.273,0.373-0.447
		c0,0,0.002-0.18-0.083-0.304c0.093-0.037,0.195-0.075,0.303-0.104c0.283-0.078,0.395-0.28,0.432-0.468c0,0,0.007-0.2-0.094-0.326
		l0.106-0.032c0.087-0.023,0.158-0.061,0.215-0.104l0.067,0.163L21.741,12.401z M20.562,14.942l-0.002-0.071l0.042-0.014
		L20.562,14.942z M20.357,12.545c-0.021-0.093-0.066-0.203-0.173-0.251l0.061-0.175v-0.004l0.2,0.175l0.119-0.14l-0.269-0.236
		l0.135-0.083v0.001l0.035-0.017l0.173-0.055c0.103-0.029,0.18-0.071,0.242-0.125l0.034-0.012c-0.264,0.17-0.249,0.486-0.193,0.712
		c-0.067,0.021-0.136,0.049-0.207,0.086L20.357,12.545z M20.15,13.19l-0.03-0.111l0.125-0.109l0.032,0.191L20.15,13.19z
		 M19.851,7.665c-0.113-0.059-0.22-0.092-0.321-0.116l0.017-0.066c0,0,0.001-0.102-0.032-0.203c0.064-0.029,0.136-0.058,0.215-0.087
		l-0.008,0.1c0.041,0.188,0.151,0.39,0.434,0.468l0.14,0.042c0.039,0.187,0.15,0.388,0.431,0.466
		c0.139,0.037,0.269,0.086,0.38,0.132c-0.25,0.056-0.241,0.416-0.241,0.416l0.021,0.069l-0.125-0.027
		c-0.037-0.098-0.107-0.187-0.227-0.247L20.47,8.584c0.044-0.233,0.029-0.525-0.252-0.671l-0.177-0.075
		C19.999,7.77,19.937,7.71,19.851,7.665 M19.497,3.149c-0.266,0.139-0.293,0.408-0.257,0.631c-0.129,0.096-0.145,0.298-0.145,0.355
		l-0.163,0.063c-0.032-0.083-0.093-0.16-0.202-0.183h-0.074c0.077-0.065,0.128-0.146,0.158-0.229
		c0.134-0.097,0.198-0.236,0.224-0.368c0,0,0.003-0.102-0.03-0.204c0.118-0.052,0.267-0.111,0.425-0.154
		c0.106-0.03,0.188-0.076,0.252-0.134c0.052,0.039,0.114,0.071,0.188,0.093C19.757,3.041,19.629,3.082,19.497,3.149 M19.471,9.738
		V9.733l0.003,0.003L19.471,9.738z M19.349,9.358l-0.146-0.112c-0.232-0.119-0.442-0.15-0.609-0.15h0.002l0.202-0.067
		c0.168-0.045,0.274-0.134,0.34-0.24c0.047,0.133,0.134,0.261,0.299,0.336L19.349,9.358z M19.305,11.851
		c-0.081,0.043-0.14,0.1-0.182,0.162l-0.067-0.108c0.017-0.008,0.165-0.087,0.362-0.163l0.005,0.059L19.305,11.851z M19.214,15.323
		l0.16-0.052l0.01,0.202L19.214,15.323z M18.925,14.519l-0.155,0.122c-0.022-0.108-0.081-0.244-0.232-0.271
		c-0.103-0.008-0.234,0.001-0.378,0.035l-0.145-0.126c0.109-0.054,0.343-0.162,0.592-0.231c0.098-0.027,0.173-0.07,0.235-0.12
		l0.002,0.002l0.062-0.032l0.162,0.18l0.048,0.116l0.039-0.02l0.005,0.005c-0.008,0.082-0.002,0.165,0.013,0.243
		C19.093,14.444,19.01,14.473,18.925,14.519 M17.573,12.158l-0.032-0.129c0.071-0.026,0.146-0.052,0.222-0.072
		c0.052,0.22,0.121,0.431,0.199,0.587l0.003,0.046L17.573,12.158z M17.418,13.756c0.118-0.051,0.267-0.111,0.423-0.153l0.015-0.005
		c-0.062,0.202-0.005,0.436,0.044,0.58L17.418,13.756z M17.334,12.868c-0.153,0.08-0.229,0.204-0.255,0.339l-0.136-0.075
		c-0.065-0.004-0.145,0-0.23,0.009l-0.198-0.174c0.072-0.037,0.341-0.173,0.632-0.252c0.212-0.057,0.328-0.187,0.388-0.326
		l0.303,0.336C17.69,12.735,17.519,12.772,17.334,12.868 M16.778,11.284c0.118-0.053,0.271-0.113,0.43-0.157
		c0.284-0.077,0.395-0.281,0.434-0.469l-0.002-0.035l0.014-0.003c0.139-0.039,0.237-0.107,0.306-0.19
		c0.009,0.135,0.045,0.261,0.078,0.344l-0.072,0.031c-0.128,0.067-0.202,0.165-0.237,0.272c-0.136,0.017-0.289,0.055-0.454,0.138
		c-0.153,0.081-0.225,0.204-0.254,0.334L16.778,11.284z M16.48,10.622c-0.083-0.003-0.178-0.001-0.288,0.019l-0.244-0.269
		l-0.003-0.01c0.125-0.058,0.306-0.136,0.501-0.189c0.151-0.041,0.252-0.116,0.32-0.206c0.033,0.191,0.107,0.343,0.107,0.343
		l0.003-0.002v0.008l-0.175,0.075C16.591,10.449,16.522,10.53,16.48,10.622 M15.954,10.711l0.015-0.045l0.025,0.026L15.954,10.711z
		 M17.141,9.04l-0.01,0.111L17.05,9.079L17.141,9.04z M16.875,7.784l0.081-0.023c0.284-0.078,0.393-0.28,0.432-0.468l-0.005-0.089
		c0.113-0.048,0.252-0.103,0.397-0.143c0.114-0.03,0.198-0.082,0.264-0.143c0.149,0.075,0.294,0.149,0.423,0.22l0.103,0.065
		l-0.032-0.01c-0.079-0.006-0.173-0.002-0.279,0.014L18.22,7.193c-0.175-0.012-0.424,0.009-0.693,0.149
		c-0.304,0.158-0.296,0.486-0.239,0.723l-0.063,0.017l-0.162,0.012C17.053,7.996,17.011,7.841,16.875,7.784 M17.452,5.514
		c0,0,0.002-0.084-0.023-0.176c0.087-0.03,0.158-0.068,0.214-0.117l0.171-0.055c-0.087,0.2-0.037,0.447,0.015,0.604l-0.111,0.047
		c-0.143,0.074-0.215,0.187-0.247,0.309c-0.138-0.057-0.275-0.11-0.414-0.157C17.311,5.884,17.415,5.692,17.452,5.514 M17.526,4.014
		l0.116-0.045c0.012,0.125,0.045,0.241,0.074,0.322c-0.081,0.015-0.173,0.044-0.266,0.082h0.001c0,0,0.003-0.183-0.082-0.308
		L17.526,4.014z M18.99,7.083l-0.195-0.167c0.097-0.04,0.205-0.079,0.319-0.108l0.052-0.02c-0.009,0.093-0.002,0.191,0.017,0.276
		L18.99,7.083z M18.289,8.293l-0.101,0.07c-0.072,0.015-0.151,0.041-0.229,0.073V8.435c0,0,0.003-0.1-0.032-0.203
		c0.118-0.051,0.267-0.111,0.424-0.154l0.052-0.018c0.03,0.093,0.059,0.155,0.059,0.155s0.208-0.113,0.469-0.205l0.062,0.14
		l-0.01-0.003C18.809,8.134,18.56,8.154,18.289,8.293 M17.936,9.401c0.084-0.027,0.153-0.065,0.208-0.109v0.001l0.032-0.017
		l0.156-0.05c-0.076,0.125-0.071,0.289-0.071,0.289c0.02,0.1,0.064,0.204,0.141,0.292l-0.178,0.075l-0.136,0.104l-0.028-0.024
		c-0.023-0.083-0.071-0.168-0.162-0.208l0.061-0.175C17.959,9.579,17.961,9.494,17.936,9.401 M18.296,13.228l-0.056,0.024
		l0.021-0.064L18.296,13.228z M19.053,12.505c0.032,0.191,0.109,0.343,0.109,0.343l0.003-0.001l-0.001,0.01l-0.175,0.073
		c-0.113,0.058-0.182,0.141-0.222,0.232c-0.077-0.003-0.167,0-0.267,0.016l-0.17-0.185l-0.003-0.132
		c0.114-0.05,0.257-0.106,0.407-0.147C18.883,12.672,18.983,12.597,19.053,12.505 M18.968,11.677
		c0.03,0.109,0.066,0.192,0.079,0.219l-0.127-0.068c-0.175-0.013-0.424,0.009-0.695,0.149l-0.104,0.072
		c-0.029-0.078-0.061-0.153-0.093-0.228l0.13-0.174c0.096-0.039,0.202-0.077,0.312-0.108c0.081-0.022,0.146-0.055,0.202-0.093
		c0.036,0.183,0.104,0.324,0.104,0.324S18.853,11.73,18.968,11.677 M19.246,10.656c-0.088,0.02-0.182,0.05-0.279,0.098l-0.178-0.155
		c0.239-0.086,0.338-0.269,0.376-0.442l0.002,0.002C19.148,10.346,19.204,10.542,19.246,10.656 M19.224,8.355l-0.021,0.023
		l-0.015-0.043L19.224,8.355z M18.968,5.108l0.104-0.042l0.121,0.191c-0.207,0.178-0.188,0.466-0.138,0.675l-0.196,0.041
		c-0.036-0.058-0.089-0.107-0.172-0.123l-0.074-0.001c-0.027-0.067-0.074-0.129-0.148-0.162l0.076-0.024
		c0.286-0.078,0.395-0.279,0.434-0.468L18.968,5.108z M17.946,2.989l0.007,0.019c0,0,0.314-0.173,0.654-0.264l0.054-0.018
		c-0.012,0.093-0.003,0.189,0.014,0.274c-0.162,0.005-0.362,0.04-0.575,0.15c-0.084,0.043-0.141,0.101-0.183,0.162l-0.125-0.154
		L17.946,2.989z M19.122,1.824l0.106-0.038c-0.002,0.156,0.04,0.309,0.077,0.408c-0.084,0.016-0.173,0.044-0.267,0.083V2.274
		c0,0,0.01-0.266-0.148-0.375C18.963,1.871,19.041,1.846,19.122,1.824 M20.261,5.19l-0.015,0.015l0.002-0.021L20.261,5.19z
		 M20.002,2.044c0.188-0.05,0.299-0.156,0.363-0.276l0.114,0.048c-0.062,0.121-0.059,0.269-0.059,0.269
		c0.039,0.188,0.148,0.391,0.434,0.469c0.224,0.06,0.434,0.155,0.551,0.212c-0.034,0.105-0.032,0.208-0.032,0.208
		c0.039,0.188,0.148,0.39,0.432,0.468c0.195,0.053,0.38,0.131,0.502,0.189c-0.123,0.083-0.247,0.181-0.368,0.281L21.894,3.94
		c-0.041-0.085-0.108-0.163-0.215-0.218c-0.191-0.101-0.372-0.139-0.524-0.148c0.074-0.187,0.24-0.716-0.175-0.932
		c-0.126-0.066-0.248-0.104-0.36-0.126c-0.042-0.089-0.108-0.168-0.219-0.226c-0.267-0.139-0.511-0.161-0.686-0.149
		C19.804,2.108,19.901,2.073,20.002,2.044 M21.159,4.561l0.019-0.101l0.084,0.026L21.159,4.561z M22.187,4.776l0.182,0.055
		c-0.153,0.054-0.303,0.123-0.461,0.209c-0.082-0.009-0.16-0.013-0.224-0.008c-0.149,0.028-0.207,0.162-0.23,0.269l-0.123,0.063
		c-0.104-0.016-0.2-0.02-0.279-0.014c0.042-0.126,0.092-0.318,0.062-0.5c0.101-0.089,0.212-0.191,0.331-0.302
		c0.215,0.084,0.38,0.171,0.38,0.171s0.025-0.056,0.054-0.138C21.948,4.665,22.045,4.737,22.187,4.776 M20.36,5.62
		c0.088-0.107,0.178-0.208,0.271-0.304c0.111,0.043,0.205,0.087,0.272,0.12L20.855,5.51C20.688,5.547,20.521,5.578,20.36,5.62
		 M20.828,5.86c0.042,0.121,0.119,0.237,0.259,0.314c-0.187-0.06-0.355-0.07-0.482-0.062h-0.003L20.537,5.98
		C20.635,5.942,20.732,5.902,20.828,5.86 M20.433,3.364l0.04,0.015c0.202,0.054,0.392,0.135,0.515,0.194h-0.002
		c-0.124,0.022-0.187,0.119-0.217,0.213c-0.175-0.067-0.331-0.088-0.462-0.088c0.071-0.084,0.109-0.185,0.129-0.28L20.433,3.364z
		 M21.807,8.549c-0.135-0.07-0.264-0.109-0.382-0.131c0.079-0.218,0.193-0.685-0.19-0.886c-0.107-0.054-0.21-0.089-0.31-0.113
		c-0.017-0.153-0.085-0.303-0.264-0.395c-0.136-0.07-0.266-0.109-0.385-0.13l0.072-0.148c0.072,0.034,0.123,0.061,0.143,0.07
		c0.069,0.081,0.165,0.146,0.299,0.182c0.338,0.093,0.652,0.263,0.652,0.263s0.361-0.735-0.146-0.999L21.24,6.237
		c0.215,0.06,0.417,0.148,0.537,0.207c-0.22,0.075-0.212,0.404-0.212,0.404l0.059,0.171c-0.063,0.123-0.059,0.274-0.059,0.274
		c0.03,0.15,0.111,0.31,0.288,0.407H21.81c-0.259,0.048-0.246,0.417-0.246,0.417c0.041,0.189,0.149,0.392,0.434,0.469l0.126,0.038
		c-0.022,0.08-0.045,0.158-0.069,0.239C22.023,8.737,21.951,8.624,21.807,8.549 M21.437,9.542c0.007-0.072,0.003-0.147-0.012-0.22
		c0.195,0.064,0.367,0.145,0.458,0.188l-0.017,0.081C21.701,9.546,21.553,9.535,21.437,9.542 M20.32,10.275l-0.03-0.035l0.047-0.102
		l0.042,0.02L20.32,10.275z M20.416,10.74l0.128,0.114l-0.067,0.051l-0.101,0.023L20.416,10.74z M21.564,11.229l0.05,0.156
		l-0.003,0.061c-0.094-0.003-0.207,0.007-0.333,0.036c0.143-0.098,0.208-0.242,0.237-0.379c0,0,0.002-0.106-0.035-0.212
		c0.049-0.233,0.045-0.538-0.246-0.69c-0.271-0.141-0.52-0.162-0.694-0.15l-0.071,0.025c0.036-0.094,0.078-0.239,0.081-0.388
		l0.112,0.04c0.205,0.057,0.398,0.142,0.521,0.199v0.033c0.039,0.188,0.148,0.391,0.432,0.468l0.112,0.034
		c-0.021,0.14-0.043,0.284-0.063,0.435C21.558,11.019,21.564,11.229,21.564,11.229 M22.523,6.182c0,0,0.027-0.054,0.055-0.14
		l0.162,0.135h-0.041c-0.21,0.04-0.24,0.29-0.246,0.382c-0.2-0.094-0.387-0.126-0.535-0.129c0.037-0.098,0.098-0.282,0.093-0.466
		C22.291,6.057,22.523,6.182,22.523,6.182 M16.177,12.672c0.083-0.038,0.146-0.088,0.195-0.146c0.01,0.171,0.069,0.331,0.101,0.404
		L16.177,12.672z M24.093,8.269c0.339,0.092,0.652,0.262,0.652,0.262s0.361-0.734-0.145-1c-0.271-0.14-0.521-0.159-0.694-0.149
		c-0.178,0.034-0.226,0.213-0.241,0.326L23.52,7.596c-0.269-0.14-0.518-0.161-0.693-0.149l-0.054,0.02l-0.03-0.164
		c0.021-0.085,0.035-0.185,0.03-0.283l0.112,0.042c0.34,0.092,0.652,0.264,0.652,0.264s0.074-0.153,0.109-0.343
		c0.067,0.089,0.168,0.167,0.318,0.207c0.34,0.092,0.652,0.262,0.652,0.262s0.363-0.735-0.145-0.999
		c-0.271-0.14-0.52-0.162-0.693-0.15c-0.111,0.021-0.171,0.102-0.205,0.185l-0.02-0.028c0.065-0.155,0.276-0.733-0.163-0.961
		c-0.269-0.14-0.518-0.16-0.693-0.148l-0.107,0.051c-0.039-0.086-0.108-0.164-0.215-0.221l-0.065-0.027
		c0.127-0.064,0.25-0.127,0.376-0.191c0.092,0.043,0.153,0.076,0.153,0.076l0.012-0.027c0.048,0.166,0.166,0.33,0.415,0.398
		c0.338,0.094,0.652,0.264,0.652,0.264s0.361-0.736-0.145-1c-0.271-0.139-0.521-0.16-0.694-0.148l-0.12,0.061
		c0.015-0.205-0.034-0.425-0.266-0.546c-0.188-0.096-0.363-0.134-0.509-0.147c0.084-0.069,0.171-0.136,0.257-0.196l0.015,0.008
		l0.013-0.028l0.197-0.128c-0.028,0.098-0.023,0.187-0.023,0.187c0.037,0.188,0.146,0.391,0.432,0.468
		c0.338,0.092,0.651,0.264,0.651,0.264s0.363-0.737-0.145-1c-0.271-0.14-0.52-0.159-0.692-0.15l-0.156,0.101l-0.197,0.078
		c0.067-0.239,0.109-0.616-0.224-0.79c-0.271-0.141-0.52-0.161-0.694-0.149l-0.025,0.008c0.056-0.217,0.076-0.527-0.165-0.704
		c0.079-0.222,0.18-0.674-0.195-0.871c-0.271-0.138-0.52-0.159-0.694-0.148L20.45,0.879c-0.229-0.098-0.44-0.118-0.592-0.107
		c-0.261,0.048-0.247,0.417-0.247,0.417l0.017,0.063L19.55,1.286c-0.01-0.109-0.054-0.312-0.242-0.346
		c-0.175-0.014-0.424,0.008-0.694,0.148c-0.343,0.179-0.288,0.574-0.217,0.81c-0.094,0.022-0.193,0.056-0.298,0.11
		c-0.171,0.089-0.242,0.232-0.262,0.381l-0.061-0.022c-0.175-0.012-0.422,0.01-0.694,0.151c-0.372,0.192-0.276,0.639-0.198,0.864
		l-0.021,0.02c-0.022-0.109-0.079-0.245-0.229-0.272c-0.175-0.012-0.425,0.009-0.694,0.149c-0.508,0.264-0.146,1-0.146,1
		s0.314-0.171,0.652-0.263c0.142-0.04,0.237-0.107,0.306-0.19l0.027,0.178c-0.086,0.022-0.173,0.053-0.269,0.102
		c-0.506,0.262-0.143,0.999-0.143,0.999s0.108-0.059,0.264-0.126c-0.012,0.074-0.012,0.148-0.003,0.22L16.51,5.244
		c-0.083,0.045-0.138,0.101-0.182,0.163c-0.034-0.083-0.092-0.163-0.203-0.184c-0.175-0.012-0.424,0.01-0.695,0.149
		c-0.506,0.265-0.145,0.999-0.145,0.999s0.313-0.169,0.652-0.262c0.15-0.041,0.25-0.118,0.32-0.208
		c0.034,0.191,0.109,0.344,0.109,0.344s0.136-0.074,0.325-0.151l0.065,0.056c-0.097,0.022-0.2,0.055-0.309,0.112
		c-0.19,0.1-0.259,0.264-0.269,0.432c-0.037-0.065-0.093-0.121-0.18-0.136c-0.175-0.01-0.422,0.009-0.694,0.148
		c-0.508,0.264-0.146,1-0.146,1s0.314-0.171,0.652-0.264c0.245-0.067,0.363-0.229,0.414-0.393l0.043,0.132
		c-0.143,0.211-0.085,0.504-0.027,0.684L16.13,7.914c-0.508,0.263-0.145,0.999-0.145,0.999s0.163-0.089,0.381-0.173
		c0.009,0.254,0.125,0.492,0.125,0.492s0.121-0.066,0.294-0.138l0.244,0.213L17.02,9.31c-0.082,0.042-0.141,0.1-0.183,0.162
		c-0.034-0.084-0.092-0.162-0.202-0.183c-0.175-0.012-0.425,0.008-0.694,0.148c-0.313,0.161-0.294,0.501-0.237,0.739
		c-0.171-0.004-0.402,0.02-0.654,0.15c-0.508,0.263-0.146,1-0.146,1s0.313-0.171,0.652-0.264l0.015-0.005
		c-0.097,0.316,0.098,0.712,0.098,0.712s0.311-0.17,0.652-0.263c0.098-0.027,0.173-0.069,0.234-0.119l0.003,0.001l0.047-0.025
		l0.407,0.449l0.005,0.035c-0.118,0.021-0.246,0.061-0.378,0.13L16.483,12.1c-0.023-0.109-0.079-0.243-0.232-0.271
		c-0.173-0.013-0.422,0.009-0.693,0.149c-0.508,0.265-0.145,1-0.145,1s0.261-0.142,0.563-0.236l0.511,0.446
		c-0.077,0.023-0.156,0.051-0.237,0.093c-0.508,0.264-0.146,1-0.146,1s0.314-0.171,0.652-0.263c0.187-0.051,0.298-0.158,0.363-0.277
		l0.025,0.021l0.043,0.106l0.049-0.024l0.111,0.098c-0.112-0.02-0.217-0.023-0.302-0.017c-0.259,0.049-0.246,0.417-0.246,0.417
		c0.039,0.188,0.149,0.39,0.432,0.468c0.125,0.033,0.244,0.077,0.345,0.12c-0.025,0.286,0.121,0.588,0.121,0.588
		s0.312-0.171,0.652-0.263c0.134-0.038,0.229-0.103,0.297-0.18l0.01,0.008c0.022,0.231,0.121,0.435,0.121,0.435
		s0.097-0.053,0.244-0.117l0.451,0.395l0.022,0.049l0.021-0.011l0.091,0.08c0.108,1.106-0.017,2.365-0.017,3.427
		c0,1.08-0.235,2.354-0.061,3.391c0.454,0.019,0.919,0.006,1.378,0.013c-0.723-0.219-0.429-1.922-0.472-2.443
		c-0.059-0.735-0.052-1.327-0.071-2.071c-0.017-0.743,0.22-1.42,0.212-2.196c0-0.083,0-0.169,0-0.254l0.279-0.6
		c0.065,0.087,0.167,0.163,0.312,0.201c0.34,0.092,0.654,0.265,0.654,0.265s0.351-0.72-0.13-0.99
		c0.007-0.197-0.048-0.402-0.271-0.519l-0.07-0.029l0.035-0.073l0.035,0.013c0.239,0.066,0.461,0.169,0.575,0.224
		c-0.059,0.12-0.054,0.261-0.054,0.261c0.039,0.189,0.148,0.391,0.432,0.468c0.339,0.092,0.654,0.263,0.654,0.263
		s0.36-0.735-0.148-1L22.735,14.2c0.057-0.21,0.082-0.51-0.13-0.694l0.036-0.097c0.069,0.084,0.167,0.153,0.311,0.192
		c0.338,0.093,0.65,0.266,0.65,0.266s0.362-0.736-0.145-1.002c-0.131-0.066-0.252-0.104-0.367-0.125
		c0.007-0.193-0.05-0.395-0.271-0.51c-0.193-0.101-0.376-0.139-0.526-0.148l0.109-0.239c0.146,0.062,0.246,0.116,0.246,0.116
		s0.05-0.104,0.089-0.246c0.067,0.103,0.173,0.192,0.34,0.238l0.019,0.005c-0.074,0.125-0.071,0.289-0.071,0.289
		c0.039,0.188,0.15,0.391,0.432,0.468c0.34,0.092,0.652,0.263,0.652,0.263s0.363-0.735-0.145-1l-0.138-0.059
		c0.028-0.127,0.04-0.28-0.003-0.417l0.015,0.005c0.339,0.093,0.652,0.263,0.652,0.263s0.36-0.735-0.145-1
		c-0.271-0.139-0.521-0.16-0.694-0.148l-0.128,0.067c0.019-0.121,0.017-0.252-0.03-0.37c0.059,0.046,0.128,0.084,0.217,0.108
		c0.34,0.092,0.652,0.264,0.652,0.264s0.361-0.735-0.145-1c-0.081-0.04-0.156-0.068-0.23-0.092c0.042-0.092,0.32-0.741-0.149-0.987
		l-0.153-0.065c0.036-0.084,0.101-0.271,0.103-0.466C23.858,8.162,23.955,8.231,24.093,8.269"/>
	<path fill="#B9AB96" d="M1,22.812c0-0.229,4.457-0.416,9.955-0.416s9.955,0.188,9.955,0.416c0,0.232-4.457,0.419-9.955,0.419
		S1,23.044,1,22.812"/>
	<path fill="#B9AB96" d="M36.947,7.124c0-2.549,0-3.017-0.032-3.554C36.88,3,36.747,2.731,36.194,2.615
		c-0.135-0.033-0.419-0.051-0.654-0.051c-0.183,0-0.284-0.031-0.284-0.149c0-0.118,0.116-0.152,0.368-0.152
		c0.888,0,1.945,0.05,2.413,0.05c0.689,0,1.659-0.05,2.431-0.05c2.095,0,2.85,0.705,3.117,0.956c0.37,0.352,0.839,1.105,0.839,1.996
		c0,2.379-1.745,4.054-4.123,4.054c-0.084,0-0.269,0-0.353-0.016c-0.084-0.017-0.202-0.034-0.202-0.152
		c0-0.132,0.118-0.182,0.471-0.182c0.937,0,2.246-1.056,2.246-2.766c0-0.554-0.052-1.676-0.99-2.515
		c-0.604-0.553-1.29-0.652-1.675-0.652c-0.252,0-0.504,0.017-0.656,0.067c-0.084,0.032-0.133,0.133-0.133,0.317v6.706
		c0,1.542,0,2.865,0.083,3.586c0.05,0.471,0.151,0.836,0.654,0.906c0.235,0.032,0.605,0.066,0.855,0.066
		c0.184,0,0.268,0.05,0.268,0.133c0,0.119-0.133,0.168-0.318,0.168c-1.104,0-2.162-0.05-2.6-0.05c-0.383,0-1.44,0.05-2.111,0.05
		c-0.217,0-0.335-0.05-0.335-0.168c0-0.083,0.067-0.133,0.269-0.133c0.25,0,0.453-0.034,0.604-0.066
		c0.334-0.07,0.418-0.436,0.486-0.923c0.082-0.705,0.082-2.028,0.082-3.569V7.124z"/>
	<path fill="#B9AB96" d="M49.618,8.447c0,0.184,0.034,0.252,0.149,0.302c0.352,0.118,0.856,0.168,1.274,0.168
		c0.671,0,0.888-0.067,1.19-0.286c0.503-0.368,0.989-1.139,0.989-2.513c0-2.381-1.576-3.067-2.564-3.067
		c-0.42,0-0.722,0.016-0.89,0.065c-0.116,0.034-0.149,0.101-0.149,0.234V8.447z M47.64,7.124c0-2.547,0-3.017-0.034-3.554
		C47.573,3,47.438,2.731,46.884,2.615c-0.135-0.033-0.417-0.051-0.652-0.051c-0.185,0-0.286-0.033-0.286-0.149
		c0-0.118,0.12-0.152,0.368-0.152c0.891,0,1.945,0.051,2.297,0.051c0.57,0,1.846-0.051,2.364-0.051c1.056,0,2.179,0.102,3.084,0.722
		c0.471,0.318,1.14,1.172,1.14,2.296c0,1.241-0.518,2.381-2.211,3.755c1.49,1.876,2.648,3.368,3.637,4.407
		c0.938,0.973,1.626,1.088,1.876,1.141c0.183,0.033,0.334,0.05,0.469,0.05c0.134,0,0.202,0.05,0.202,0.133
		c0,0.135-0.116,0.168-0.318,0.168h-1.594c-0.938,0-1.357-0.083-1.794-0.319c-0.72-0.386-1.357-1.173-2.295-2.464
		c-0.67-0.922-1.442-2.061-1.659-2.312c-0.084-0.101-0.183-0.118-0.301-0.118L49.75,9.688c-0.084,0-0.133,0.033-0.133,0.134v0.235
		c0,1.559,0,2.884,0.084,3.586c0.049,0.487,0.149,0.854,0.652,0.923c0.25,0.032,0.62,0.066,0.822,0.066
		c0.133,0,0.202,0.05,0.202,0.133c0,0.119-0.118,0.168-0.336,0.168c-0.972,0-2.212-0.05-2.463-0.05c-0.32,0-1.374,0.05-2.046,0.05
		c-0.219,0-0.334-0.05-0.334-0.168c0-0.083,0.067-0.133,0.269-0.133c0.25,0,0.451-0.034,0.602-0.066
		c0.336-0.069,0.42-0.436,0.488-0.923c0.084-0.703,0.084-2.028,0.084-3.569V7.124z"/>
	<path fill="#B9AB96" d="M69.444,8.879c0-3.755-2.164-6.084-4.911-6.084c-1.929,0-4.123,1.073-4.123,5.247
		c0,3.485,1.927,6.251,5.145,6.251C66.729,14.293,69.444,13.724,69.444,8.879 M58.097,8.562c0-2.867,1.893-6.571,6.92-6.571
		c4.175,0,6.772,2.432,6.772,6.27c0,3.838-2.68,6.873-6.937,6.873C60.039,15.132,58.097,11.527,58.097,8.562"/>
	<path fill="#3A2F2C" d="M99.515,11.912l2.419-6.424l0.101-0.151l0.081,0.151l2.147,5.769
		C101.916,11.247,100.404,11.591,99.515,11.912 M109.202,14.632c-0.2,0-0.452-0.019-0.704-0.067c-0.35-0.084-0.836-0.32-1.473-1.826
		c-1.071-2.545-3.751-9.38-4.154-10.3c-0.167-0.385-0.268-0.535-0.417-0.535c-0.172,0-0.271,0.184-0.469,0.67L97.779,13.09
		c-0.336,0.839-0.654,1.408-1.424,1.507c-0.136,0.016-0.369,0.035-0.518,0.035c-0.134,0-0.202,0.033-0.202,0.133
		c0,0.135,0.101,0.169,0.319,0.169c0.869,0,1.791-0.05,1.976-0.05c0.518,0,1.241,0.05,1.775,0.05c0.185,0,0.286-0.034,0.286-0.169
		c0-0.1-0.052-0.133-0.256-0.133h-0.249c-0.518,0-0.669-0.219-0.669-0.519c0-0.203,0.084-0.603,0.25-1.023l0.098-0.26
		c1.587-0.748,3.865-0.636,5.532-0.4l0.669,1.798c0.083,0.203-0.035,0.354-0.151,0.385c-0.167,0.019-0.233,0.052-0.233,0.151
		c0,0.119,0.2,0.119,0.502,0.135c1.338,0.034,2.561,0.034,3.165,0.034c0.62,0,0.773-0.034,0.773-0.169
		C109.423,14.649,109.337,14.632,109.202,14.632"/>
	<path fill="#3A2F2C" d="M76.706,3.15l-2.509,0.067c-0.977,0.033-1.38,0.118-1.632,0.488c-0.17,0.252-0.254,0.455-0.288,0.589
		c-0.034,0.134-0.083,0.201-0.185,0.201c-0.118,0-0.149-0.083-0.149-0.27c0-0.269,0.318-1.801,0.351-1.937
		c0.052-0.217,0.101-0.317,0.202-0.317c0.136,0,0.302,0.166,0.725,0.202c0.487,0.049,1.128,0.083,1.683,0.083h6.665
		c0.542,0,0.911-0.049,1.164-0.083c0.252-0.051,0.388-0.085,0.454-0.085c0.118,0,0.136,0.101,0.136,0.355
		c0,0.352-0.052,1.514-0.052,1.953c-0.017,0.166-0.051,0.268-0.15,0.268c-0.136,0-0.169-0.084-0.187-0.337l-0.017-0.183
		c-0.034-0.439-0.489-0.911-1.986-0.944l-2.122-0.05v6.902c0,1.548,0,2.878,0.084,3.602c0.05,0.472,0.151,0.842,0.656,0.909
		c0.235,0.033,0.607,0.067,0.861,0.067c0.185,0,0.267,0.051,0.267,0.135c0,0.119-0.134,0.169-0.319,0.169
		c-1.111,0-2.171-0.05-2.643-0.05c-0.387,0-1.446,0.05-2.122,0.05c-0.218,0-0.336-0.05-0.336-0.169c0-0.083,0.069-0.135,0.271-0.135
		c0.252,0,0.454-0.034,0.605-0.067c0.338-0.067,0.437-0.437,0.487-0.926c0.086-0.706,0.086-2.036,0.086-3.584V3.15z"/>
	<path fill="#3A2F2C" d="M114.082,7.831h0.084c0.573-0.624,3.032-3.132,3.519-3.705c0.471-0.555,0.841-0.975,0.841-1.262
		c0-0.184-0.065-0.302-0.235-0.336c-0.148-0.035-0.22-0.068-0.22-0.17c0-0.118,0.085-0.15,0.269-0.15
		c0.354,0,1.283,0.049,1.737,0.049c0.52,0,1.447-0.049,1.967-0.049c0.17,0,0.29,0.033,0.29,0.15c0,0.119-0.086,0.151-0.256,0.151
		c-0.233,0-0.656,0.068-0.975,0.187c-0.521,0.202-1.093,0.555-1.817,1.262c-0.523,0.504-3.063,3.031-3.637,3.637
		c0.605,0.791,3.906,4.344,4.565,4.966c0.738,0.707,1.496,1.465,2.406,1.818c0.504,0.204,0.842,0.252,1.042,0.252
		c0.118,0,0.219,0.035,0.219,0.135c0,0.119-0.086,0.169-0.405,0.169h-1.461c-0.507,0-0.809,0-1.163-0.034
		c-0.908-0.084-1.364-0.454-2.088-1.095c-0.74-0.656-4.055-4.544-4.407-5.032l-0.188-0.252h-0.084v1.531
		c0,1.548,0,2.878,0.052,3.602c0.032,0.472,0.183,0.842,0.605,0.909c0.237,0.034,0.605,0.067,0.824,0.067
		c0.134,0,0.217,0.051,0.217,0.135c0,0.119-0.133,0.169-0.318,0.169c-0.941,0-2.002-0.05-2.421-0.05c-0.39,0-1.451,0.05-2.125,0.05
		c-0.215,0-0.334-0.05-0.334-0.169c0-0.083,0.067-0.135,0.269-0.135c0.252,0,0.454-0.034,0.605-0.067
		c0.336-0.067,0.422-0.437,0.489-0.925c0.084-0.707,0.084-2.037,0.084-3.585V7.09c0-2.558,0-3.03-0.034-3.569
		c-0.034-0.572-0.168-0.841-0.725-0.959c-0.135-0.034-0.42-0.052-0.654-0.052c-0.185,0-0.289-0.032-0.289-0.151
		c0-0.118,0.119-0.15,0.373-0.15c0.89,0,1.951,0.049,2.356,0.049c0.403,0,1.464-0.049,2.038-0.049c0.232,0,0.353,0.033,0.353,0.15
		c0,0.119-0.103,0.151-0.235,0.151c-0.168,0-0.271,0.019-0.473,0.052c-0.454,0.084-0.588,0.37-0.622,0.959
		c-0.035,0.539-0.035,1.011-0.035,3.569V7.831z"/>
	<path fill="#3A2F2C" d="M89.341,10.002c0,0.573-0.017,2.122,0,2.609c0.03,1.162,0.301,1.415,2.019,1.415
		c0.438,0,1.147,0,1.584-0.203c0.436-0.202,0.637-0.556,0.756-1.248c0.032-0.183,0.066-0.25,0.185-0.25
		c0.133,0,0.133,0.135,0.133,0.303c0,0.388-0.133,1.532-0.218,1.866c-0.116,0.44-0.269,0.44-0.91,0.44
		c-1.261,0-2.186-0.035-2.909-0.05c-0.725-0.034-1.248-0.049-1.752-0.049c-0.188,0-0.557,0-0.96,0.016
		c-0.389,0-0.826,0.034-1.162,0.034c-0.218,0-0.336-0.049-0.336-0.17c0-0.084,0.067-0.132,0.269-0.132
		c0.254,0,0.454-0.037,0.607-0.07c0.336-0.067,0.42-0.437,0.486-0.926c0.085-0.706,0.085-2.036,0.085-3.584V7.039
		c0-2.558,0-3.031-0.034-3.568c-0.033-0.573-0.166-0.842-0.723-0.96C86.326,2.478,86.04,2.46,85.805,2.46
		c-0.185,0-0.286-0.033-0.286-0.151c0-0.118,0.116-0.152,0.37-0.152c0.454,0,0.943,0.018,1.365,0.018
		c0.435,0.016,0.824,0.032,1.059,0.032c0.538,0,3.889,0,4.208-0.016c0.321-0.034,0.59-0.066,0.726-0.101
		c0.083-0.017,0.182-0.065,0.269-0.065c0.083,0,0.098,0.065,0.098,0.15c0,0.118-0.084,0.319-0.135,1.094
		c-0.017,0.168-0.05,0.908-0.084,1.111c-0.017,0.085-0.049,0.185-0.168,0.185c-0.116,0-0.151-0.083-0.151-0.235
		c0-0.118-0.017-0.404-0.101-0.607c-0.118-0.301-0.286-0.506-1.126-0.605c-0.286-0.035-2.053-0.067-2.391-0.067
		c-0.087,0-0.118,0.051-0.118,0.167V10.002z"/>
	<path fill="#3A2F2C" d="M90.573,7.857c0.474,0.03,0.938,0.016,1.323-0.019c0.403-0.033,0.657-0.083,0.809-0.252
		c0.118-0.134,0.185-0.218,0.269-0.218c0.064,0,0.119,0.034,0.119,0.135c0,0.101-0.069,0.37-0.136,1.23
		C92.94,9.069,92.89,9.742,92.89,9.859c0,0.134,0,0.322-0.153,0.322c-0.116,0-0.149-0.07-0.149-0.153
		c-0.019-0.169-0.019-0.386-0.067-0.604c-0.084-0.338-0.249-0.622-0.874-0.672C89.684,8.588,89.988,7.821,90.573,7.857"/>
	<path fill="#3A2F2C" d="M35.577,19.239c-0.045-0.139-0.086-0.229-0.14-0.266l-0.149-0.035l-0.059-0.034l0.083-0.032
		c0.195,0,0.4,0.012,0.434,0.012s0.199-0.012,0.414-0.012l0.081,0.032l-0.069,0.034l-0.093,0.017l-0.042,0.082
		c0,0.049,0.037,0.175,0.084,0.343c0.064,0.247,0.41,1.38,0.478,1.589h0.01l0.726-1.948c0.037-0.104,0.064-0.133,0.094-0.133
		c0.041,0,0.059,0.055,0.108,0.174l0.776,1.88h0.014c0.067-0.25,0.365-1.236,0.496-1.674c0.027-0.086,0.037-0.165,0.037-0.217
		c0-0.061-0.033-0.114-0.18-0.114l-0.062-0.034l0.084-0.032c0.198,0,0.356,0.012,0.39,0.012c0.027,0,0.188-0.012,0.309-0.012
		l0.069,0.03l-0.052,0.035l-0.131,0.02c-0.091,0.034-0.131,0.184-0.21,0.396c-0.172,0.473-0.565,1.661-0.749,2.223
		c-0.04,0.129-0.059,0.174-0.107,0.174c-0.037,0-0.061-0.045-0.116-0.183l-0.778-1.873h-0.008c-0.069,0.191-0.567,1.514-0.728,1.857
		c-0.071,0.153-0.089,0.198-0.135,0.198c-0.037,0-0.052-0.041-0.084-0.137L35.577,19.239z"/>
	<path fill="#3A2F2C" d="M41.276,19.957c0-0.569,0-0.674-0.01-0.794c-0.006-0.127-0.037-0.187-0.16-0.212l-0.146-0.011l-0.064-0.033
		l0.084-0.034c0.101,0,0.208,0.003,0.301,0.003c0.1,0.005,0.184,0.008,0.237,0.008c0.119,0,0.862,0,0.933-0.003
		c0.072-0.008,0.131-0.017,0.162-0.023l0.061-0.015l0.021,0.034c0,0.025-0.019,0.071-0.03,0.244l-0.019,0.246l-0.035,0.041
		l-0.035-0.051l-0.023-0.134c-0.025-0.067-0.062-0.113-0.249-0.136c-0.064-0.007-0.458-0.014-0.531-0.014l-0.025,0.037v0.946
		l0.025,0.041c0.083,0,0.513,0,0.597-0.007c0.091-0.008,0.146-0.019,0.18-0.056l0.062-0.048l0.025,0.028
		c0,0.021-0.017,0.083-0.03,0.275c-0.003,0.073-0.015,0.224-0.015,0.249l-0.034,0.071l-0.034-0.034l-0.015-0.134
		c-0.019-0.076-0.071-0.131-0.208-0.147c-0.072-0.005-0.444-0.011-0.531-0.011l-0.022,0.037v0.296c0,0.127-0.005,0.471,0,0.58
		c0.007,0.258,0.065,0.313,0.447,0.313c0.098,0,0.256,0,0.352-0.044c0.098-0.045,0.143-0.123,0.168-0.277l0.041-0.056l0.03,0.067
		c0,0.087-0.03,0.341-0.047,0.417c-0.025,0.097-0.061,0.097-0.202,0.097c-0.281,0-0.486-0.007-0.647-0.012
		c-0.161-0.008-0.275-0.011-0.39-0.011c-0.041,0-0.123,0-0.212,0.002c-0.086,0-0.184,0.008-0.257,0.008l-0.074-0.037l0.059-0.03
		l0.134-0.015c0.074-0.014,0.093-0.097,0.108-0.207c0.02-0.156,0.02-0.451,0.02-0.795V19.957z"/>
	<path fill="#3A2F2C" d="M47.516,18.888l0.064-0.099c0.03,0,0.052,0.02,0.101,0.115l1.021,2.11l1.017-2.134l0.083-0.092
		c0.034,0,0.056,0.038,0.067,0.115l0.339,2.312c0.036,0.236,0.072,0.345,0.184,0.376c0.109,0.036,0.183,0.039,0.232,0.039
		l0.061,0.026l-0.098,0.041c-0.092,0-0.608-0.011-0.76-0.022c-0.084-0.007-0.108-0.019-0.108-0.04l0.041-0.044
		c0.023-0.007,0.034-0.055,0.02-0.159l-0.225-1.646h-0.015l-0.815,1.697c-0.086,0.176-0.104,0.21-0.138,0.21
		c-0.033,0-0.07-0.075-0.129-0.187c-0.091-0.171-0.387-0.744-0.432-0.849c-0.032-0.08-0.257-0.55-0.387-0.831h-0.015l-0.195,1.489
		l-0.012,0.176l0.113,0.12l0.156,0.018l0.057,0.026l-0.091,0.041c-0.156,0-0.326-0.011-0.392-0.011c-0.071,0-0.252,0.011-0.37,0.011
		l-0.067-0.041l0.059-0.026l0.111-0.011c0.106-0.023,0.136-0.168,0.155-0.294L47.516,18.888z"/>
	<path fill="#3A2F2C" d="M53.539,20.536l0.015-0.022l-0.335-0.923L53.2,19.557l-0.021,0.034l-0.347,0.92l0.017,0.025H53.539z
		 M52.773,20.723l-0.032,0.03l-0.203,0.535c-0.037,0.093-0.056,0.184-0.056,0.228c0,0.067,0.034,0.116,0.15,0.116h0.055l0.057,0.03
		l-0.064,0.037c-0.119,0-0.281-0.011-0.396-0.011c-0.041,0-0.246,0.011-0.442,0.011l-0.07-0.037l0.047-0.03l0.114-0.007
		c0.171-0.021,0.244-0.15,0.318-0.336l0.94-2.35c0.043-0.107,0.067-0.149,0.103-0.149c0.034,0,0.057,0.035,0.094,0.121
		c0.089,0.205,0.688,1.731,0.928,2.299c0.142,0.336,0.25,0.388,0.328,0.407l0.156,0.015l0.049,0.03c0,0.03-0.034,0.037-0.171,0.037
		c-0.133,0-0.407,0-0.706-0.007l-0.113-0.03l0.052-0.033l0.033-0.087l-0.299-0.792l-0.037-0.027H52.773z"/>
	<path fill="#3A2F2C" d="M57.007,20.12h0.019c0.128-0.136,0.674-0.694,0.782-0.821c0.106-0.125,0.185-0.218,0.185-0.28l-0.05-0.076
		l-0.049-0.037l0.059-0.034c0.079,0,0.286,0.012,0.385,0.012c0.118,0,0.323-0.012,0.439-0.012l0.064,0.034l-0.056,0.033
		c-0.054,0-0.146,0.016-0.219,0.041c-0.116,0.045-0.242,0.125-0.403,0.282c-0.116,0.111-0.679,0.673-0.807,0.807
		c0.133,0.176,0.866,0.965,1.012,1.104c0.165,0.157,0.333,0.325,0.536,0.402c0.111,0.046,0.187,0.057,0.232,0.057l0.047,0.03
		c0,0.026-0.019,0.037-0.091,0.037h-0.325c-0.111,0-0.178,0-0.257-0.008c-0.202-0.018-0.303-0.101-0.464-0.242
		c-0.163-0.145-0.901-1.009-0.98-1.118l-0.041-0.055h-0.019v0.339c0,0.345,0,0.64,0.012,0.801c0.007,0.104,0.041,0.187,0.135,0.201
		l0.182,0.015l0.05,0.03l-0.072,0.037c-0.208,0-0.444-0.011-0.538-0.011c-0.084,0-0.321,0.011-0.471,0.011l-0.074-0.037l0.059-0.03
		l0.134-0.015c0.076-0.014,0.093-0.097,0.108-0.205c0.02-0.157,0.02-0.452,0.02-0.797v-0.657c0-0.569,0-0.674-0.008-0.793
		c-0.007-0.128-0.037-0.188-0.162-0.213l-0.146-0.011l-0.062-0.033l0.083-0.034c0.198,0,0.436,0.012,0.523,0.012
		c0.091,0,0.326-0.012,0.452-0.012l0.081,0.034l-0.054,0.033l-0.104,0.011c-0.101,0.018-0.131,0.082-0.14,0.213
		c-0.007,0.119-0.007,0.224-0.007,0.793V20.12z"/>
	<path fill="#3A2F2C" d="M60.731,19.957c0-0.569,0-0.674-0.006-0.794c-0.009-0.127-0.039-0.187-0.162-0.212l-0.146-0.011
		l-0.063-0.033l0.082-0.034c0.101,0,0.21,0.003,0.305,0.003c0.097,0.005,0.181,0.008,0.235,0.008c0.119,0,0.862,0,0.933-0.003
		c0.072-0.008,0.133-0.017,0.161-0.023l0.062-0.015l0.021,0.034c0,0.025-0.02,0.071-0.03,0.244l-0.02,0.246l-0.037,0.041
		l-0.033-0.051l-0.022-0.134c-0.027-0.067-0.064-0.113-0.25-0.136c-0.064-0.007-0.458-0.014-0.531-0.014l-0.027,0.037v0.946
		l0.027,0.041c0.082,0,0.513,0,0.598-0.007c0.089-0.008,0.145-0.019,0.178-0.056l0.061-0.048l0.027,0.028
		c0,0.021-0.015,0.083-0.03,0.275c-0.003,0.073-0.015,0.224-0.015,0.249l-0.034,0.071l-0.034-0.034l-0.014-0.134
		c-0.02-0.076-0.072-0.131-0.21-0.147c-0.072-0.005-0.442-0.011-0.531-0.011l-0.024,0.037v0.296c0,0.127-0.003,0.471,0,0.58
		c0.009,0.258,0.069,0.313,0.449,0.313c0.098,0,0.254,0,0.352-0.044c0.097-0.045,0.143-0.123,0.169-0.277l0.041-0.056l0.028,0.067
		c0,0.087-0.028,0.341-0.047,0.417c-0.027,0.097-0.061,0.097-0.202,0.097c-0.281,0-0.486-0.007-0.649-0.012
		c-0.16-0.008-0.276-0.011-0.387-0.011c-0.042,0-0.125,0-0.214,0.002c-0.085,0-0.183,0.008-0.259,0.008l-0.074-0.037l0.059-0.03
		l0.136-0.015c0.074-0.014,0.094-0.097,0.109-0.207c0.017-0.156,0.017-0.451,0.017-0.795V19.957z"/>
	<path fill="#3A2F2C" d="M67.305,20.614c0,0.359,0,0.64,0.019,0.795c0.01,0.109,0.034,0.192,0.146,0.207l0.188,0.015l0.062,0.03
		l-0.082,0.037c-0.235,0-0.471-0.011-0.568-0.011s-0.333,0.011-0.474,0.011l-0.079-0.037l0.056-0.03l0.136-0.015
		c0.074-0.014,0.092-0.097,0.107-0.207c0.019-0.156,0.019-0.437,0.019-0.795v-0.657c0-0.569,0-0.674-0.008-0.794
		c-0.007-0.126-0.037-0.186-0.162-0.211l-0.145-0.012l-0.062-0.03l0.084-0.037c0.097,0,0.207,0.003,0.302,0.003
		c0.1,0.005,0.184,0.008,0.236,0.008c0.143,0,0.903,0,0.988-0.003l0.153-0.017l0.059-0.022l0.027,0.034
		c0,0.027-0.019,0.071-0.03,0.168l-0.017,0.303L68.222,19.4l-0.039-0.061l-0.021-0.143c-0.025-0.052-0.104-0.107-0.246-0.112
		l-0.577-0.01l-0.034,0.053v0.934l0.025,0.034l0.479-0.003l0.168-0.005l0.162-0.067l0.049-0.036l0.023,0.034
		c0,0.022-0.02,0.115-0.03,0.231c-0.008,0.076-0.015,0.248-0.015,0.274l-0.037,0.07l-0.03-0.053l-0.023-0.115
		c-0.019-0.053-0.076-0.119-0.19-0.134c-0.094-0.012-0.491-0.012-0.555-0.012l-0.025,0.034V20.614z"/>
	<path fill="#3A2F2C" d="M72.591,20.358c0-0.839-0.481-1.358-1.095-1.358c-0.429,0-0.918,0.239-0.918,1.169
		c0,0.778,0.431,1.396,1.147,1.396C71.986,21.564,72.591,21.437,72.591,20.358 M70.062,20.287c0-0.641,0.422-1.468,1.543-1.468
		c0.93,0,1.51,0.542,1.51,1.398c0,0.856-0.599,1.534-1.547,1.534C70.496,21.751,70.062,20.947,70.062,20.287"/>
	<path fill="#3A2F2C" d="M75.648,20.252l0.034,0.066c0.079,0.027,0.19,0.04,0.284,0.04c0.149,0,0.198-0.015,0.264-0.065
		c0.115-0.083,0.222-0.254,0.222-0.561c0-0.529-0.352-0.684-0.572-0.684c-0.094,0-0.161,0.005-0.198,0.015l-0.034,0.053V20.252z
		 M75.208,19.957c0-0.569,0-0.673-0.007-0.794c-0.008-0.127-0.039-0.187-0.162-0.211l-0.146-0.012l-0.064-0.033l0.083-0.034
		c0.198,0,0.434,0.012,0.513,0.012c0.126,0,0.412-0.012,0.528-0.012c0.234,0,0.484,0.022,0.686,0.16
		c0.106,0.072,0.254,0.262,0.254,0.513c0,0.277-0.114,0.531-0.493,0.839c0.333,0.417,0.59,0.752,0.812,0.982
		c0.208,0.217,0.363,0.243,0.419,0.255l0.104,0.011l0.044,0.03l-0.071,0.037h-0.354c-0.21,0-0.301-0.019-0.399-0.071
		c-0.161-0.086-0.304-0.262-0.514-0.55c-0.15-0.205-0.319-0.459-0.37-0.516l-0.065-0.026l-0.326-0.008l-0.03,0.029v0.054
		c0,0.348,0,0.643,0.019,0.799c0.012,0.109,0.034,0.192,0.146,0.207l0.182,0.015l0.045,0.03l-0.074,0.037
		c-0.217,0-0.493-0.012-0.55-0.012c-0.071,0-0.306,0.012-0.456,0.012l-0.078-0.037l0.061-0.03l0.136-0.015
		c0.074-0.014,0.094-0.097,0.109-0.207c0.019-0.156,0.019-0.451,0.019-0.795V19.957z"/>
	<path fill="#3A2F2C" d="M79.338,19.957c0-0.569,0-0.674-0.007-0.794c-0.008-0.127-0.037-0.187-0.161-0.212l-0.145-0.011
		l-0.064-0.033l0.083-0.034c0.101,0,0.208,0.003,0.302,0.003c0.096,0.005,0.182,0.008,0.235,0.008c0.12,0,0.863,0,0.934-0.003
		c0.072-0.008,0.133-0.017,0.161-0.023l0.061-0.015l0.022,0.034c0,0.025-0.019,0.071-0.03,0.244l-0.019,0.246l-0.037,0.041
		l-0.034-0.051l-0.021-0.134c-0.025-0.067-0.066-0.113-0.249-0.136c-0.065-0.007-0.458-0.014-0.535-0.014l-0.023,0.037v0.946
		l0.023,0.041c0.084,0,0.513,0,0.6-0.007c0.089-0.008,0.145-0.019,0.18-0.056l0.059-0.048l0.025,0.028
		c0,0.021-0.015,0.083-0.029,0.275c-0.005,0.073-0.015,0.224-0.015,0.249l-0.034,0.071l-0.033-0.034l-0.014-0.134
		c-0.022-0.076-0.072-0.131-0.212-0.147c-0.07-0.005-0.44-0.011-0.529-0.011l-0.022,0.037v0.296c0,0.127-0.005,0.471,0,0.58
		c0.008,0.258,0.065,0.313,0.449,0.313c0.096,0,0.254,0,0.352-0.044c0.096-0.045,0.14-0.123,0.167-0.277l0.04-0.056l0.03,0.067
		c0,0.087-0.03,0.341-0.047,0.417c-0.027,0.097-0.061,0.097-0.202,0.097c-0.281,0-0.486-0.007-0.647-0.012
		c-0.162-0.008-0.276-0.011-0.388-0.011c-0.042,0-0.125,0-0.214,0.002c-0.085,0-0.183,0.008-0.257,0.008l-0.076-0.037l0.061-0.03
		l0.135-0.015c0.074-0.014,0.092-0.097,0.109-0.207c0.017-0.156,0.017-0.451,0.017-0.795V19.957z"/>
	<path fill="#3A2F2C" d="M82.805,21.654c-0.061-0.026-0.07-0.045-0.07-0.127c0-0.205,0.015-0.431,0.019-0.491l0.043-0.097
		l0.037,0.065l0.034,0.19c0.084,0.277,0.304,0.378,0.536,0.378c0.336,0,0.5-0.229,0.5-0.428c0-0.184-0.056-0.354-0.367-0.598
		l-0.171-0.134c-0.41-0.321-0.551-0.583-0.551-0.886c0-0.411,0.343-0.706,0.862-0.706c0.244,0,0.4,0.037,0.498,0.064l0.054,0.043
		c0,0.05-0.017,0.157-0.017,0.449c0,0.083-0.01,0.112-0.041,0.112l-0.039-0.069c0-0.033-0.02-0.148-0.097-0.246
		c-0.056-0.07-0.163-0.183-0.405-0.183c-0.279,0-0.446,0.162-0.446,0.385c0,0.171,0.086,0.303,0.397,0.538l0.103,0.079
		c0.452,0.341,0.614,0.598,0.614,0.952c0,0.218-0.083,0.476-0.352,0.651c-0.187,0.12-0.395,0.153-0.595,0.153
		C83.135,21.751,82.965,21.726,82.805,21.654"/>
	<path fill="#3A2F2C" d="M86.994,19.081l-0.558,0.016c-0.217,0.008-0.306,0.026-0.362,0.108l-0.064,0.131l-0.04,0.045l-0.035-0.06
		l0.081-0.429l0.043-0.071c0.03,0,0.067,0.037,0.16,0.044c0.109,0.012,0.252,0.02,0.375,0.02h1.481c0.121,0,0.202-0.012,0.259-0.02
		l0.099-0.019l0.03,0.079c0,0.079-0.012,0.337-0.012,0.434l-0.034,0.061l-0.042-0.076l-0.001-0.041
		c-0.007-0.098-0.109-0.202-0.442-0.209l-0.471-0.012v1.533c0,0.345,0,0.64,0.019,0.801c0.01,0.104,0.034,0.187,0.146,0.201
		l0.19,0.015l0.061,0.03l-0.072,0.037c-0.246,0-0.481-0.011-0.587-0.011c-0.086,0-0.321,0.011-0.471,0.011l-0.074-0.037l0.059-0.03
		l0.134-0.015c0.076-0.014,0.098-0.097,0.111-0.207c0.017-0.156,0.017-0.451,0.017-0.795V19.081z"/>
	<path fill="#3A2F2C" d="M90.901,20.252l0.034,0.066c0.079,0.027,0.19,0.04,0.284,0.04c0.151,0,0.198-0.015,0.266-0.065
		c0.113-0.083,0.222-0.254,0.222-0.561c0-0.529-0.353-0.684-0.574-0.684c-0.092,0-0.161,0.005-0.198,0.015l-0.034,0.053V20.252z
		 M90.459,19.957c0-0.569,0-0.673-0.007-0.794c-0.008-0.127-0.037-0.187-0.16-0.211l-0.146-0.012l-0.064-0.033l0.083-0.034
		c0.197,0,0.434,0.012,0.511,0.012c0.128,0,0.412-0.012,0.53-0.012c0.233,0,0.484,0.022,0.686,0.16
		c0.106,0.072,0.254,0.262,0.254,0.513c0,0.277-0.116,0.531-0.493,0.839c0.333,0.417,0.59,0.752,0.811,0.982
		c0.21,0.217,0.365,0.243,0.42,0.255l0.104,0.011l0.044,0.03l-0.071,0.037h-0.354c-0.208,0-0.303-0.019-0.4-0.071
		c-0.161-0.086-0.301-0.262-0.513-0.55c-0.148-0.205-0.319-0.459-0.37-0.516l-0.069-0.026l-0.323-0.008l-0.03,0.029v0.054
		c0,0.348,0,0.643,0.019,0.799c0.012,0.109,0.034,0.192,0.145,0.207l0.185,0.015l0.045,0.03l-0.076,0.037
		c-0.217,0-0.493-0.012-0.55-0.012c-0.071,0-0.308,0.012-0.456,0.012l-0.076-0.037l0.061-0.03l0.134-0.015
		c0.076-0.014,0.093-0.097,0.108-0.207c0.019-0.156,0.019-0.451,0.019-0.795V19.957z"/>
	<path fill="#3A2F2C" d="M94.936,20.731c0-0.203-0.037-0.285-0.085-0.393c-0.027-0.061-0.528-0.882-0.659-1.077
		c-0.092-0.139-0.187-0.232-0.257-0.273l-0.156-0.049l-0.057-0.033l0.07-0.034c0.069,0,0.348,0.012,0.473,0.012
		c0.077,0,0.23-0.012,0.398-0.012l0.057,0.034l-0.083,0.041l-0.054,0.066l0.045,0.128c0.054,0.112,0.577,1.012,0.636,1.117
		c0.039-0.09,0.509-0.912,0.563-1.028c0.037-0.082,0.051-0.146,0.051-0.193L95.8,18.943l-0.067-0.037l0.063-0.034
		c0.123,0,0.244,0.012,0.352,0.012c0.081,0,0.328-0.012,0.398-0.012l0.067,0.03l-0.071,0.037l-0.165,0.045
		c-0.078,0.038-0.12,0.082-0.202,0.184c-0.123,0.149-0.646,1.027-0.715,1.189c-0.057,0.134-0.057,0.25-0.057,0.373v0.305
		c0,0.061,0,0.218,0.014,0.374c0.006,0.109,0.04,0.192,0.153,0.207l0.187,0.015l0.061,0.03l-0.079,0.037
		c-0.235,0-0.472-0.011-0.571-0.011c-0.093,0-0.33,0.011-0.469,0.011l-0.081-0.037l0.061-0.03l0.129-0.015
		c0.076-0.014,0.109-0.097,0.116-0.207c0.012-0.156,0.012-0.313,0.012-0.374V20.731z"/>
	<path fill="#3A2F2C" d="M100.9,18.888l0.064-0.099c0.03,0,0.052,0.02,0.101,0.115l1.021,2.11l1.017-2.134l0.083-0.092
		c0.033,0,0.057,0.038,0.067,0.115l0.34,2.312c0.034,0.236,0.07,0.345,0.185,0.376c0.107,0.036,0.18,0.039,0.23,0.039l0.059,0.026
		l-0.096,0.041c-0.094,0-0.61-0.011-0.758-0.022c-0.087-0.007-0.109-0.019-0.109-0.04l0.042-0.044
		c0.022-0.007,0.034-0.055,0.017-0.159l-0.224-1.646h-0.013l-0.815,1.697c-0.087,0.176-0.106,0.21-0.138,0.21
		c-0.035,0-0.072-0.075-0.131-0.187c-0.091-0.171-0.387-0.744-0.431-0.849c-0.034-0.08-0.259-0.55-0.39-0.831h-0.016l-0.193,1.489
		l-0.012,0.176l0.113,0.12l0.156,0.018l0.057,0.026l-0.091,0.041c-0.156,0-0.324-0.011-0.393-0.011s-0.249,0.011-0.368,0.011
		l-0.067-0.041l0.059-0.026l0.113-0.011c0.106-0.023,0.135-0.168,0.153-0.294L100.9,18.888z"/>
	<path fill="#3A2F2C" d="M106.921,20.536l0.019-0.022l-0.336-0.923l-0.019-0.034l-0.023,0.034l-0.343,0.92l0.015,0.025H106.921z
		 M106.159,20.723l-0.034,0.03l-0.202,0.535c-0.039,0.093-0.057,0.184-0.057,0.228c0,0.067,0.034,0.116,0.148,0.116h0.059
		l0.056,0.03l-0.064,0.037c-0.119,0-0.282-0.011-0.397-0.011c-0.042,0-0.247,0.011-0.44,0.011l-0.072-0.037l0.045-0.03l0.116-0.007
		c0.171-0.021,0.244-0.15,0.318-0.336l0.939-2.35c0.044-0.107,0.066-0.149,0.103-0.149c0.034,0,0.058,0.035,0.094,0.121
		c0.091,0.205,0.688,1.731,0.927,2.299c0.143,0.336,0.252,0.388,0.33,0.407l0.156,0.015l0.049,0.03c0,0.03-0.032,0.037-0.172,0.037
		c-0.134,0-0.407,0-0.706-0.007l-0.113-0.03l0.052-0.033l0.034-0.087l-0.297-0.792l-0.037-0.027H106.159z"/>
	<path fill="#3A2F2C" d="M110.189,19.081l-0.557,0.016c-0.219,0.008-0.308,0.026-0.363,0.108l-0.064,0.131l-0.042,0.045l-0.032-0.06
		l0.077-0.429l0.044-0.071c0.03,0,0.069,0.037,0.161,0.044c0.109,0.012,0.252,0.02,0.375,0.02h1.483c0.118,0,0.2-0.012,0.256-0.02
		l0.101-0.019l0.03,0.079c0,0.079-0.012,0.337-0.012,0.434l-0.034,0.061l-0.04-0.076l-0.005-0.041
		c-0.007-0.098-0.107-0.202-0.44-0.209l-0.471-0.012v1.533c0,0.345,0,0.64,0.019,0.801c0.01,0.104,0.034,0.187,0.146,0.201
		l0.19,0.015l0.061,0.03L111,21.699c-0.245,0-0.482-0.011-0.585-0.011c-0.086,0-0.323,0.011-0.474,0.011l-0.074-0.037l0.06-0.03
		l0.136-0.015c0.074-0.014,0.096-0.097,0.108-0.207c0.019-0.156,0.019-0.451,0.019-0.795V19.081z"/>
	<path fill="#3A2F2C" d="M114.154,19.081l-0.557,0.016c-0.218,0.008-0.308,0.026-0.365,0.108l-0.064,0.131l-0.04,0.045l-0.034-0.06
		l0.079-0.429l0.045-0.071c0.028,0,0.067,0.037,0.16,0.044c0.107,0.012,0.25,0.02,0.375,0.02h1.479c0.119,0,0.202-0.012,0.257-0.02
		l0.103-0.019l0.028,0.079c0,0.079-0.01,0.337-0.01,0.434l-0.036,0.061l-0.039-0.076l-0.003-0.041
		c-0.008-0.098-0.111-0.202-0.442-0.209l-0.471-0.012v1.533c0,0.345,0,0.64,0.017,0.801c0.012,0.104,0.034,0.187,0.146,0.201
		l0.192,0.015l0.061,0.03l-0.074,0.037c-0.245,0-0.48-0.011-0.585-0.011c-0.085,0-0.323,0.011-0.471,0.011l-0.074-0.037l0.061-0.03
		l0.133-0.015c0.073-0.014,0.098-0.097,0.108-0.207c0.02-0.156,0.02-0.451,0.02-0.795V19.081z"/>
	<path fill="#3A2F2C" d="M117.621,19.957c0-0.569,0-0.674-0.01-0.794c-0.007-0.127-0.036-0.187-0.158-0.212l-0.148-0.011
		l-0.064-0.033l0.084-0.034c0.099,0,0.208,0.003,0.303,0.003c0.098,0.005,0.182,0.008,0.235,0.008c0.118,0,0.861,0,0.935-0.003
		l0.161-0.023l0.057-0.015l0.024,0.034c0,0.025-0.019,0.071-0.03,0.244l-0.019,0.246l-0.039,0.041l-0.032-0.051l-0.023-0.134
		c-0.025-0.067-0.061-0.113-0.25-0.136c-0.062-0.007-0.456-0.014-0.53-0.014l-0.027,0.037v0.946l0.027,0.041
		c0.081,0,0.513,0,0.597-0.007c0.091-0.008,0.146-0.019,0.178-0.056l0.061-0.048l0.028,0.028c0,0.021-0.015,0.083-0.032,0.275
		c-0.003,0.073-0.014,0.224-0.014,0.249l-0.035,0.071l-0.032-0.034l-0.015-0.134c-0.017-0.076-0.07-0.131-0.208-0.147
		c-0.072-0.005-0.442-0.011-0.531-0.011l-0.023,0.037v0.296c0,0.127-0.005,0.471,0,0.58c0.007,0.258,0.067,0.313,0.449,0.313
		c0.098,0,0.254,0,0.352-0.044c0.098-0.045,0.143-0.123,0.167-0.277l0.044-0.056l0.028,0.067c0,0.087-0.028,0.341-0.047,0.417
		c-0.029,0.097-0.061,0.097-0.204,0.097c-0.279,0-0.486-0.007-0.647-0.012c-0.16-0.008-0.274-0.011-0.387-0.011
		c-0.042,0-0.123,0-0.213,0.002c-0.087,0-0.183,0.008-0.261,0.008l-0.072-0.037l0.059-0.03l0.134-0.015
		c0.076-0.014,0.094-0.097,0.108-0.207c0.021-0.156,0.021-0.451,0.021-0.795V19.957z"/>
	<path fill="#3A2F2C" d="M121.733,20.252l0.032,0.066c0.079,0.027,0.192,0.04,0.288,0.04c0.146,0,0.197-0.015,0.264-0.065
		c0.111-0.083,0.22-0.254,0.22-0.561c0-0.529-0.352-0.684-0.573-0.684c-0.094,0-0.16,0.005-0.199,0.015l-0.032,0.053V20.252z
		 M121.291,19.957c0-0.569,0-0.673-0.007-0.794c-0.008-0.127-0.037-0.187-0.161-0.211l-0.146-0.012l-0.063-0.033l0.084-0.034
		c0.198,0,0.432,0.012,0.511,0.012c0.128,0,0.412-0.012,0.528-0.012c0.237,0,0.486,0.022,0.688,0.16
		c0.106,0.072,0.254,0.262,0.254,0.513c0,0.277-0.114,0.531-0.493,0.839c0.331,0.417,0.59,0.752,0.811,0.982
		c0.208,0.217,0.361,0.243,0.418,0.255l0.106,0.011l0.044,0.03l-0.071,0.037h-0.355c-0.21,0-0.304-0.019-0.4-0.071
		c-0.162-0.086-0.303-0.262-0.513-0.55c-0.15-0.205-0.321-0.459-0.368-0.516l-0.069-0.026l-0.326-0.008l-0.028,0.029v0.054
		c0,0.348,0,0.643,0.017,0.799c0.012,0.109,0.034,0.192,0.148,0.207l0.182,0.015l0.047,0.03l-0.074,0.037
		c-0.22,0-0.496-0.012-0.551-0.012c-0.072,0-0.306,0.012-0.456,0.012l-0.078-0.037l0.061-0.03l0.136-0.015
		c0.074-0.014,0.091-0.097,0.109-0.207c0.017-0.156,0.017-0.451,0.017-0.795V19.957z"/>
</g>
</svg>
