<?xml version="1.0" encoding="utf-8"?>
<!-- Generator: Adobe Illustrator 16.0.0, SVG Export Plug-In . SVG Version: 6.00 Build 0)  -->
<!DOCTYPE svg PUBLIC "-//W3C//DTD SVG 1.1//EN" "http://www.w3.org/Graphics/SVG/1.1/DTD/svg11.dtd">
<svg version="1.1" id="Capa_1" xmlns="http://www.w3.org/2000/svg" xmlns:xlink="http://www.w3.org/1999/xlink" x="0px" y="0px"
	 width="293px" height="74px" viewBox="0 0 293 74" enable-background="new 0 0 293 74" xml:space="preserve">
<g>
	<path fill="#FFFFFF" d="M232.51,35.691l5.476-14.526l0.228-0.342l0.183,0.342l4.85,13.043
		C237.942,34.188,234.525,34.968,232.51,35.691 M254.422,41.842c-0.453,0-1.023-0.04-1.593-0.15
		c-0.792-0.189-1.894-0.723-3.332-4.128c-2.425-5.759-8.485-21.213-9.395-23.294c-0.377-0.872-0.606-1.211-0.946-1.211
		c-0.384,0-0.606,0.415-1.061,1.515l-9.504,23.785c-0.762,1.894-1.483,3.183-3.223,3.407c-0.307,0.038-0.829,0.077-1.168,0.077
		c-0.306,0-0.46,0.075-0.46,0.302c0,0.307,0.227,0.383,0.722,0.383c1.968,0,4.054-0.114,4.47-0.114c1.17,0,2.806,0.114,4.014,0.114
		c0.42,0,0.646-0.076,0.646-0.383c0-0.227-0.118-0.302-0.577-0.302h-0.562c-1.173,0-1.515-0.496-1.515-1.172
		c0-0.459,0.191-1.363,0.57-2.312l0.216-0.587c3.591-1.692,8.74-1.438,12.51-0.907l1.513,4.068c0.188,0.457-0.079,0.8-0.341,0.871
		c-0.378,0.04-0.528,0.115-0.528,0.342c0,0.269,0.453,0.269,1.134,0.307c3.029,0.076,5.795,0.076,7.158,0.076
		c1.402,0,1.747-0.076,1.747-0.383C254.917,41.881,254.723,41.842,254.422,41.842"/>
	<path fill="#FFFFFF" d="M180.935,15.879l-5.672,0.15c-2.208,0.078-3.124,0.269-3.696,1.105c-0.381,0.571-0.573,1.028-0.647,1.333
		c-0.076,0.304-0.188,0.456-0.418,0.456c-0.267,0-0.339-0.189-0.339-0.611c0-0.607,0.719-4.073,0.793-4.379
		c0.121-0.491,0.23-0.719,0.461-0.719c0.305,0,0.68,0.378,1.638,0.455c1.104,0.113,2.553,0.189,3.806,0.189h15.072
		c1.221,0,2.057-0.112,2.628-0.189c0.571-0.114,0.876-0.189,1.027-0.189c0.265,0,0.306,0.229,0.306,0.801
		c0,0.796-0.117,3.424-0.117,4.416c-0.037,0.377-0.111,0.608-0.34,0.608c-0.305,0-0.384-0.188-0.421-0.763l-0.037-0.417
		c-0.077-0.99-1.104-2.058-4.491-2.134l-4.796-0.112v15.608c0,3.501,0,6.508,0.189,8.142c0.115,1.069,0.344,1.905,1.487,2.058
		c0.526,0.073,1.367,0.153,1.943,0.153c0.416,0,0.603,0.114,0.603,0.304c0,0.269-0.302,0.385-0.722,0.385
		c-2.512,0-4.905-0.116-5.978-0.116c-0.872,0-3.27,0.116-4.798,0.116c-0.492,0-0.758-0.116-0.758-0.385
		c0-0.19,0.157-0.304,0.611-0.304c0.57,0,1.028-0.08,1.369-0.153c0.762-0.153,0.99-0.989,1.101-2.095
		c0.196-1.597,0.196-4.604,0.196-8.104V15.879z"/>
	<path fill="#FFFFFF" d="M265.455,26.461h0.19c1.294-1.409,6.853-7.081,7.956-8.376c1.065-1.256,1.902-2.204,1.902-2.853
		c0-0.418-0.153-0.688-0.534-0.761c-0.333-0.079-0.495-0.157-0.495-0.383c0-0.267,0.192-0.344,0.608-0.344
		c0.8,0,2.898,0.113,3.924,0.113c1.179,0,3.274-0.113,4.451-0.113c0.382,0,0.651,0.077,0.651,0.344c0,0.267-0.193,0.339-0.577,0.339
		c-0.529,0-1.483,0.156-2.203,0.424c-1.181,0.458-2.473,1.254-4.112,2.852c-1.181,1.142-6.929,6.853-8.224,8.223
		c1.37,1.789,8.829,9.824,10.321,11.23c1.67,1.597,3.382,3.313,5.442,4.113c1.141,0.46,1.903,0.569,2.359,0.569
		c0.265,0,0.494,0.076,0.494,0.303c0,0.27-0.194,0.384-0.917,0.384h-3.306c-1.146,0-1.826,0-2.629-0.076
		c-2.053-0.193-3.082-1.03-4.721-2.475c-1.675-1.486-9.172-10.278-9.969-11.382l-0.422-0.57h-0.19v3.462c0,3.5,0,6.508,0.115,8.146
		c0.075,1.067,0.417,1.903,1.37,2.056c0.536,0.075,1.368,0.153,1.866,0.153c0.301,0,0.491,0.114,0.491,0.303
		c0,0.27-0.303,0.384-0.718,0.384c-2.135,0-4.531-0.114-5.482-0.114c-0.878,0-3.277,0.114-4.801,0.114
		c-0.491,0-0.758-0.114-0.758-0.384c0-0.189,0.152-0.303,0.607-0.303c0.573,0,1.028-0.078,1.369-0.153
		c0.762-0.153,0.953-0.989,1.107-2.095c0.188-1.599,0.188-4.606,0.188-8.106v-6.698c0-5.788,0-6.854-0.075-8.073
		c-0.078-1.293-0.382-1.901-1.637-2.171c-0.307-0.073-0.953-0.116-1.482-0.116c-0.417,0-0.651-0.073-0.651-0.339
		c0-0.267,0.271-0.344,0.839-0.344c2.015,0,4.414,0.113,5.33,0.113c0.913,0,3.31-0.113,4.606-0.113c0.528,0,0.799,0.077,0.799,0.344
		c0,0.267-0.232,0.339-0.532,0.339c-0.38,0-0.61,0.043-1.068,0.116c-1.024,0.191-1.33,0.839-1.405,2.171
		c-0.08,1.219-0.08,2.285-0.08,8.073V26.461z"/>
	<path fill="#FFFFFF" d="M209.502,31.486c0,1.295-0.033,4.798,0,5.899c0.071,2.63,0.687,3.202,4.567,3.202
		c0.992,0,2.596,0,3.583-0.457c0.986-0.46,1.443-1.259,1.712-2.819c0.07-0.417,0.148-0.573,0.416-0.573
		c0.304,0,0.304,0.307,0.304,0.687c0,0.876-0.304,3.465-0.495,4.221c-0.261,0.997-0.605,0.997-2.057,0.997
		c-2.853,0-4.945-0.079-6.58-0.115c-1.638-0.076-2.82-0.115-3.959-0.115c-0.425,0-1.261,0-2.174,0.039
		c-0.874,0-1.865,0.076-2.624,0.076c-0.498,0-0.764-0.115-0.764-0.383c0-0.19,0.154-0.304,0.61-0.304
		c0.573,0,1.026-0.078,1.368-0.153c0.766-0.151,0.957-0.989,1.104-2.094c0.195-1.598,0.195-4.604,0.195-8.107v-6.698
		c0-5.788,0-6.855-0.076-8.072c-0.075-1.294-0.378-1.903-1.636-2.17c-0.309-0.077-0.955-0.116-1.487-0.116
		c-0.417,0-0.646-0.073-0.646-0.342c0-0.267,0.264-0.342,0.834-0.342c1.029,0,2.135,0.037,3.088,0.037
		c0.985,0.038,1.862,0.075,2.395,0.075c1.218,0,8.796,0,9.518-0.037c0.729-0.075,1.336-0.153,1.641-0.229
		c0.189-0.036,0.415-0.149,0.608-0.149c0.19,0,0.222,0.149,0.222,0.34c0,0.269-0.186,0.724-0.301,2.474
		c-0.04,0.381-0.115,2.054-0.192,2.514c-0.039,0.191-0.113,0.419-0.381,0.419c-0.261,0-0.345-0.19-0.345-0.533
		c0-0.266-0.038-0.915-0.225-1.371c-0.266-0.684-0.646-1.144-2.548-1.37c-0.648-0.08-4.642-0.152-5.406-0.152
		c-0.198,0-0.27,0.114-0.27,0.378V31.486z"/>
	<path fill="#FFFFFF" d="M212.291,26.637c1.074,0.067,2.125,0.035,2.996-0.042c0.912-0.076,1.486-0.188,1.828-0.57
		c0.265-0.304,0.417-0.496,0.608-0.496c0.146,0,0.27,0.076,0.27,0.306c0,0.229-0.154,0.837-0.307,2.781
		c-0.042,0.761-0.155,2.283-0.155,2.546c0,0.303,0,0.728-0.342,0.728c-0.265,0-0.339-0.157-0.339-0.346
		c-0.042-0.382-0.042-0.872-0.154-1.366c-0.188-0.764-0.563-1.407-1.976-1.521C210.282,28.288,210.97,26.553,212.291,26.637"/>
	<path fill="#FFFFFF" d="M37.587,31.029c0.654-0.18,0.908-0.647,1-1.079c0,0,0.028-0.851-0.57-0.963
		c-0.404-0.03-0.978,0.022-1.599,0.343c-1.17,0.611-0.334,2.307-0.334,2.307S36.806,31.241,37.587,31.029 M57.049,31.429
		c-0.359-0.093-0.682-0.115-0.936-0.098c-0.208,0.039-0.34,0.173-0.423,0.327c0.025-0.272,0-0.558-0.124-0.812l0.098,0.035
		C56.258,31.043,56.815,31.309,57.049,31.429 M54.646,34.848c-0.183,0.034-0.305,0.142-0.388,0.272l-0.013-0.031l0.353-0.762
		c0.678,0.22,1.252,0.532,1.252,0.532l0.008-0.01l0.059,0.201C55.423,34.859,54.978,34.825,54.646,34.848 M55.549,32.309
		l0.108,0.336l-0.142-0.089l-0.047-0.023L55.549,32.309z M53.915,32.209c-0.215,0.039-0.348,0.179-0.433,0.34
		c-0.046-0.343-0.21-0.674-0.603-0.876l-0.398-0.166l0.032-0.234c0.075-0.174,0.253-0.636,0.255-1.114
		c0.081-0.298,0.162-0.598,0.241-0.901c0.601,0.212,1.083,0.472,1.083,0.472s0.389-0.796,0.259-1.498
		c0.147,0.133,0.337,0.239,0.58,0.305c0.337,0.094,0.664,0.219,0.928,0.333c-0.236-0.033-0.451-0.042-0.626-0.031
		c-0.599,0.112-0.567,0.962-0.567,0.962l0.162,0.449c-0.524-0.216-1.006-0.26-1.353-0.236c-0.597,0.11-0.569,0.959-0.569,0.959
		c0.088,0.435,0.348,0.899,0.999,1.08c0.187,0.05,0.365,0.112,0.538,0.176C54.25,32.207,54.066,32.199,53.915,32.209 M53.578,34.526
		c-0.406-0.179-0.788-0.254-1.104-0.267c-0.019-0.215-0.035-0.428-0.049-0.64c0.457,0.183,0.788,0.36,0.788,0.36
		s0.118-0.239,0.203-0.568c0.076,0.212,0.205,0.418,0.407,0.578L53.578,34.526z M52.683,36.452l-0.012-0.124l0.061,0.019
		L52.683,36.452z M52.318,39.972l-0.282-0.12l0.022-0.051l0.381,0.162l0.022,0.008H52.318z M51.998,37.927
		c-0.58,0.125-0.555,0.955-0.555,0.955l0.038,0.156l-0.296,0.641h-0.346c-0.599,0.114-0.568,0.964-0.568,0.964
		c0.039,0.182,0.105,0.365,0.218,0.536l-0.201,0.434c-0.232-0.03-0.444-0.04-0.621-0.028l-0.062,0.022
		c-0.182-0.011-0.4-0.004-0.642,0.038c0.548-0.205,0.779-0.631,0.861-1.032c0,0,0.007-0.415-0.19-0.705
		c0.216-0.082,0.453-0.17,0.698-0.236c0.654-0.179,0.912-0.646,0.999-1.08c0,0,0.016-0.462-0.219-0.751l0.243-0.074
		c0.206-0.057,0.368-0.14,0.5-0.243l0.156,0.377L51.998,37.927z M49.277,43.786l-0.004-0.16l0.098-0.034L49.277,43.786z
		 M48.804,38.259c-0.046-0.217-0.153-0.468-0.398-0.58l0.138-0.406v-0.009l0.462,0.401l0.279-0.319l-0.624-0.546l0.312-0.19v0.007
		l0.08-0.042l0.398-0.125c0.238-0.064,0.419-0.166,0.562-0.291l0.077-0.027c-0.611,0.394-0.575,1.122-0.447,1.642
		c-0.155,0.051-0.314,0.115-0.479,0.202L48.804,38.259z M48.327,39.746l-0.069-0.256l0.286-0.254l0.073,0.444L48.327,39.746z
		 M47.636,27c-0.258-0.133-0.509-0.213-0.738-0.266l0.037-0.153c0,0,0.008-0.233-0.071-0.471c0.146-0.064,0.311-0.132,0.496-0.198
		l-0.018,0.23c0.089,0.432,0.345,0.9,0.998,1.079l0.322,0.097c0.091,0.434,0.345,0.896,0.995,1.074
		c0.317,0.086,0.618,0.201,0.874,0.308c-0.576,0.127-0.551,0.957-0.551,0.957l0.041,0.16l-0.283-0.062
		c-0.089-0.229-0.25-0.43-0.524-0.572l-0.15-0.063c0.101-0.534,0.069-1.207-0.58-1.546l-0.409-0.175
		C47.978,27.241,47.836,27.103,47.636,27 M46.82,16.583c-0.615,0.323-0.676,0.941-0.596,1.456c-0.299,0.222-0.334,0.69-0.334,0.822
		l-0.374,0.144c-0.074-0.19-0.215-0.371-0.468-0.42h-0.171c0.178-0.152,0.294-0.336,0.365-0.53c0.309-0.225,0.458-0.546,0.518-0.848
		c0,0,0.006-0.234-0.071-0.472c0.273-0.119,0.617-0.257,0.979-0.354c0.246-0.068,0.441-0.177,0.58-0.308
		c0.123,0.087,0.269,0.163,0.441,0.214C47.42,16.334,47.126,16.426,46.82,16.583 M46.761,31.783V31.77l0.01,0.01L46.761,31.783z
		 M46.477,30.91l-0.338-0.26c-0.532-0.276-1.019-0.348-1.404-0.348l0.003-0.001l0.466-0.153c0.39-0.104,0.631-0.311,0.786-0.55
		c0.106,0.303,0.308,0.596,0.688,0.774L46.477,30.91z M46.379,36.655c-0.189,0.099-0.325,0.229-0.419,0.375l-0.154-0.25
		c0.034-0.018,0.376-0.199,0.831-0.376l0.013,0.137L46.379,36.655z M46.168,44.667l0.369-0.12l0.022,0.465L46.168,44.667z
		 M45.499,42.809l-0.355,0.284c-0.054-0.25-0.186-0.562-0.533-0.627c-0.239-0.02-0.543,0.003-0.875,0.08l-0.332-0.29
		c0.248-0.124,0.79-0.375,1.362-0.533c0.224-0.062,0.403-0.16,0.543-0.278l0.004,0.008l0.143-0.076l0.375,0.416l0.111,0.266
		l0.09-0.045l0.01,0.011c-0.019,0.19-0.001,0.381,0.031,0.561C45.888,42.639,45.696,42.707,45.499,42.809 M42.38,37.364l-0.07-0.295
		c0.163-0.061,0.332-0.12,0.509-0.167c0.122,0.508,0.277,0.989,0.458,1.354l0.01,0.105L42.38,37.364z M42.023,41.053
		c0.273-0.118,0.617-0.255,0.978-0.354l0.037-0.012c-0.146,0.466-0.013,1.006,0.099,1.337L42.023,41.053z M41.833,39.001
		c-0.356,0.183-0.528,0.474-0.592,0.783l-0.312-0.175c-0.152-0.008-0.334-0.002-0.53,0.021l-0.463-0.401
		c0.167-0.086,0.792-0.398,1.458-0.582c0.494-0.133,0.757-0.431,0.897-0.752l0.701,0.773C42.65,38.696,42.257,38.783,41.833,39.001
		 M40.545,35.345c0.273-0.12,0.627-0.261,0.996-0.361c0.655-0.18,0.911-0.646,0.998-1.08l-0.001-0.082l0.03-0.009
		c0.323-0.088,0.547-0.246,0.704-0.437c0.022,0.31,0.108,0.6,0.18,0.794l-0.164,0.07c-0.299,0.154-0.467,0.38-0.549,0.629
		c-0.316,0.039-0.668,0.126-1.047,0.32c-0.355,0.182-0.519,0.464-0.589,0.77L40.545,35.345z M39.864,33.822
		c-0.192-0.009-0.415-0.004-0.665,0.041l-0.564-0.618l-0.005-0.025c0.285-0.131,0.705-0.312,1.152-0.434
		c0.349-0.095,0.583-0.27,0.738-0.478c0.083,0.441,0.251,0.792,0.251,0.792l0.005-0.005v0.021l-0.406,0.17
		C40.115,33.421,39.957,33.609,39.864,33.822 M38.648,34.028l0.034-0.103l0.06,0.061L38.648,34.028z M41.383,30.173l-0.018,0.255
		l-0.188-0.164L41.383,30.173z M40.774,27.273l0.182-0.053c0.655-0.179,0.909-0.647,0.996-1.079l-0.012-0.205
		c0.261-0.111,0.585-0.238,0.919-0.329c0.262-0.071,0.456-0.189,0.606-0.333c0.345,0.175,0.681,0.346,0.982,0.509l0.233,0.151
		L44.61,25.91c-0.183-0.015-0.401-0.006-0.645,0.033l-0.089-0.033c-0.404-0.027-0.977,0.023-1.599,0.346
		c-0.702,0.364-0.683,1.12-0.552,1.667l-0.148,0.039l-0.369,0.029C41.184,27.763,41.085,27.408,40.774,27.273 M42.1,22.04
		c0,0,0.007-0.196-0.052-0.408c0.201-0.067,0.365-0.157,0.491-0.271l0.396-0.125c-0.2,0.46-0.084,1.031,0.035,1.393l-0.252,0.108
		c-0.333,0.17-0.496,0.43-0.572,0.712c-0.321-0.133-0.635-0.254-0.955-0.362C41.776,22.892,42.019,22.451,42.1,22.04 M42.275,18.576
		l0.267-0.104c0.028,0.29,0.1,0.554,0.17,0.742c-0.189,0.036-0.398,0.102-0.614,0.19l0.001-0.003c0,0,0.009-0.419-0.189-0.711
		L42.275,18.576z M45.648,25.657l-0.444-0.384c0.221-0.089,0.469-0.181,0.733-0.25l0.123-0.045
		c-0.022,0.218-0.005,0.438,0.036,0.636L45.648,25.657z M44.035,28.451l-0.233,0.159c-0.166,0.037-0.346,0.096-0.531,0.171v-0.004
		c0,0,0.008-0.232-0.07-0.469c0.269-0.119,0.616-0.255,0.978-0.354l0.118-0.04c0.069,0.212,0.136,0.353,0.136,0.353
		s0.481-0.258,1.083-0.471l0.146,0.322l-0.024-0.009C45.232,28.082,44.659,28.129,44.035,28.451 M43.221,31.007
		c0.195-0.063,0.349-0.152,0.477-0.255v0.004l0.076-0.041l0.363-0.114c-0.173,0.287-0.166,0.665-0.166,0.665
		c0.05,0.235,0.148,0.473,0.326,0.676l-0.411,0.171l-0.316,0.242l-0.062-0.053c-0.056-0.193-0.167-0.388-0.375-0.484l0.139-0.405
		C43.271,31.414,43.277,31.219,43.221,31.007 M44.05,39.832l-0.129,0.055l0.048-0.146L44.05,39.832z M45.794,38.166
		c0.079,0.443,0.253,0.791,0.253,0.791l0.007-0.002v0.021l-0.406,0.17c-0.258,0.132-0.419,0.325-0.513,0.533
		c-0.178-0.007-0.384,0-0.614,0.037l-0.394-0.427l-0.008-0.306c0.262-0.115,0.592-0.24,0.937-0.336
		C45.404,38.552,45.637,38.375,45.794,38.166 M45.603,36.255c0.068,0.253,0.15,0.443,0.181,0.508l-0.294-0.157
		c-0.403-0.032-0.978,0.019-1.604,0.341l-0.239,0.168c-0.066-0.178-0.14-0.354-0.216-0.528l0.3-0.399
		c0.222-0.089,0.47-0.18,0.726-0.25c0.185-0.05,0.332-0.127,0.461-0.213c0.083,0.42,0.239,0.747,0.239,0.747
		S45.335,36.377,45.603,36.255 M46.243,33.897c-0.205,0.046-0.422,0.119-0.646,0.228l-0.408-0.358
		c0.548-0.199,0.777-0.621,0.865-1.02l0.005,0.004C46.014,33.188,46.145,33.636,46.243,33.897 M46.192,28.592l-0.047,0.052
		l-0.035-0.095L46.192,28.592z M45.603,21.104l0.237-0.099l0.282,0.441c-0.479,0.408-0.436,1.074-0.316,1.558l-0.456,0.095
		c-0.084-0.133-0.206-0.246-0.397-0.282l-0.17-0.002c-0.063-0.156-0.171-0.299-0.342-0.375l0.175-0.055
		c0.658-0.179,0.911-0.646,1-1.079L45.603,21.104z M43.244,16.215l0.018,0.039c0,0,0.723-0.398,1.504-0.607l0.122-0.042
		c-0.024,0.213-0.002,0.438,0.033,0.633c-0.37,0.012-0.83,0.09-1.325,0.345c-0.192,0.101-0.327,0.231-0.422,0.375l-0.29-0.356
		L43.244,16.215z M45.953,13.525l0.242-0.088c0,0.361,0.098,0.713,0.178,0.942c-0.191,0.034-0.396,0.1-0.613,0.189v-0.003
		c0,0,0.023-0.613-0.343-0.865C45.588,13.636,45.767,13.577,45.953,13.525 M48.584,21.29l-0.036,0.034l0.004-0.045L48.584,21.29z
		 M47.987,14.035c0.431-0.116,0.688-0.36,0.837-0.637l0.264,0.111c-0.144,0.278-0.137,0.619-0.137,0.619
		c0.091,0.433,0.344,0.901,1.003,1.081c0.514,0.138,0.998,0.357,1.269,0.488c-0.076,0.244-0.072,0.481-0.072,0.481
		c0.087,0.436,0.341,0.901,0.997,1.083c0.453,0.121,0.875,0.303,1.16,0.435c-0.282,0.19-0.572,0.417-0.852,0.649l-0.107,0.065
		c-0.093-0.201-0.248-0.379-0.498-0.505c-0.439-0.231-0.856-0.319-1.207-0.341c0.171-0.429,0.555-1.653-0.403-2.152
		c-0.292-0.15-0.572-0.237-0.832-0.289c-0.094-0.205-0.249-0.389-0.5-0.52c-0.617-0.319-1.183-0.369-1.586-0.344
		C47.528,14.181,47.753,14.099,47.987,14.035 M50.657,19.838l0.041-0.23l0.194,0.059L50.657,19.838z M53.026,20.337l0.418,0.13
		c-0.352,0.123-0.697,0.281-1.066,0.479c-0.188-0.018-0.365-0.027-0.515-0.018c-0.342,0.063-0.477,0.372-0.532,0.623l-0.281,0.144
		c-0.239-0.037-0.462-0.047-0.641-0.032c0.094-0.29,0.209-0.734,0.141-1.151c0.232-0.208,0.489-0.443,0.762-0.699
		c0.5,0.193,0.878,0.396,0.878,0.396s0.058-0.127,0.126-0.319C52.475,20.081,52.7,20.246,53.026,20.337 M48.813,22.283
		c0.202-0.245,0.413-0.479,0.619-0.703c0.261,0.101,0.479,0.202,0.629,0.274l-0.107,0.176
		C49.568,22.114,49.182,22.185,48.813,22.283 M49.891,22.839c0.098,0.277,0.275,0.544,0.597,0.722
		c-0.434-0.138-0.82-0.16-1.114-0.14l-0.008,0.001l-0.146-0.307C49.445,23.027,49.668,22.935,49.891,22.839 M48.981,17.08
		l0.09,0.034c0.464,0.121,0.901,0.312,1.187,0.446h-0.005c-0.288,0.056-0.428,0.274-0.499,0.494
		c-0.402-0.153-0.764-0.203-1.068-0.203c0.165-0.195,0.253-0.427,0.297-0.645L48.981,17.08z M52.148,29.039
		c-0.312-0.162-0.608-0.252-0.877-0.303c0.179-0.5,0.443-1.579-0.442-2.041c-0.25-0.125-0.485-0.205-0.711-0.261
		c-0.04-0.356-0.202-0.701-0.61-0.913c-0.314-0.162-0.617-0.253-0.891-0.302l0.164-0.339c0.169,0.077,0.289,0.138,0.336,0.163
		c0.155,0.186,0.376,0.336,0.688,0.418c0.782,0.214,1.504,0.607,1.504,0.607s0.834-1.695-0.335-2.304l-0.131-0.056
		c0.493,0.136,0.958,0.341,1.235,0.473c-0.509,0.175-0.489,0.935-0.489,0.935l0.137,0.395c-0.149,0.283-0.137,0.631-0.137,0.631
		c0.071,0.348,0.256,0.715,0.663,0.939l-0.094,0.002c-0.598,0.11-0.568,0.96-0.568,0.96c0.092,0.436,0.345,0.902,0.999,1.082
		l0.292,0.088c-0.049,0.182-0.105,0.365-0.157,0.55C52.648,29.475,52.481,29.212,52.148,29.039 M51.296,31.331
		c0.013-0.168,0.007-0.341-0.031-0.508c0.452,0.148,0.845,0.333,1.059,0.438l-0.044,0.186
		C51.905,31.339,51.563,31.314,51.296,31.331 M48.721,33.021l-0.074-0.083l0.112-0.233l0.096,0.044L48.721,33.021z M48.94,34.092
		l0.292,0.266l-0.154,0.113l-0.23,0.057L48.94,34.092z M51.589,35.223l0.116,0.359l-0.006,0.142
		c-0.22-0.008-0.478,0.014-0.771,0.077c0.333-0.222,0.486-0.558,0.547-0.87c0,0,0.006-0.243-0.078-0.489
		c0.111-0.54,0.103-1.245-0.568-1.594c-0.626-0.324-1.2-0.371-1.603-0.344l-0.158,0.056c0.079-0.215,0.177-0.547,0.183-0.896
		l0.26,0.096c0.473,0.132,0.918,0.325,1.203,0.457l-0.004,0.075c0.092,0.437,0.344,0.9,1,1.083l0.261,0.078
		c-0.048,0.318-0.102,0.652-0.15,1.002C51.575,34.74,51.589,35.223,51.589,35.223 M53.799,23.578c0,0,0.061-0.125,0.13-0.32
		l0.374,0.307h-0.094c-0.488,0.095-0.559,0.673-0.564,0.884c-0.463-0.216-0.897-0.293-1.238-0.297
		c0.084-0.224,0.226-0.649,0.215-1.079C53.266,23.289,53.799,23.578,53.799,23.578 M39.162,38.552
		c0.189-0.09,0.336-0.208,0.449-0.341c0.027,0.398,0.16,0.765,0.235,0.935L39.162,38.552z M57.422,28.392
		c0.782,0.214,1.506,0.607,1.506,0.607s0.833-1.696-0.336-2.304c-0.623-0.323-1.2-0.369-1.602-0.346
		c-0.405,0.078-0.519,0.493-0.552,0.753L56.1,26.839c-0.622-0.321-1.196-0.371-1.6-0.34l-0.121,0.043l-0.071-0.379
		c0.048-0.197,0.084-0.425,0.071-0.653l0.261,0.098c0.781,0.211,1.503,0.606,1.503,0.606s0.171-0.351,0.255-0.791
		c0.154,0.208,0.383,0.385,0.73,0.478c0.783,0.21,1.502,0.604,1.502,0.604s0.839-1.695-0.332-2.304
		c-0.624-0.32-1.198-0.371-1.601-0.343c-0.253,0.047-0.393,0.232-0.468,0.424l-0.05-0.062c0.153-0.356,0.638-1.69-0.374-2.217
		c-0.623-0.322-1.196-0.367-1.598-0.341l-0.25,0.117c-0.091-0.2-0.245-0.378-0.495-0.507l-0.151-0.064
		c0.294-0.148,0.58-0.296,0.866-0.443c0.215,0.1,0.354,0.175,0.354,0.175l0.029-0.06c0.114,0.38,0.383,0.76,0.959,0.916
		c0.781,0.217,1.502,0.61,1.502,0.61s0.837-1.698-0.333-2.306c-0.623-0.322-1.2-0.371-1.6-0.342l-0.275,0.141
		c0.034-0.474-0.078-0.983-0.617-1.261c-0.43-0.224-0.833-0.311-1.173-0.339c0.197-0.161,0.394-0.314,0.597-0.452l0.029,0.018
		l0.033-0.064l0.454-0.294c-0.062,0.224-0.057,0.431-0.057,0.431c0.089,0.434,0.341,0.9,0.997,1.078
		c0.783,0.215,1.505,0.609,1.505,0.609s0.835-1.698-0.332-2.307c-0.626-0.322-1.199-0.368-1.604-0.346l-0.358,0.229l-0.455,0.179
		c0.157-0.551,0.252-1.42-0.515-1.821c-0.624-0.322-1.197-0.37-1.599-0.343l-0.059,0.021c0.127-0.503,0.176-1.218-0.378-1.625
		c0.179-0.516,0.413-1.559-0.453-2.009c-0.626-0.321-1.2-0.369-1.603-0.344l-0.207,0.085c-0.532-0.224-1.017-0.269-1.37-0.246
		c-0.594,0.113-0.566,0.963-0.566,0.963l0.039,0.148l-0.178,0.075c-0.029-0.252-0.124-0.721-0.561-0.8
		c-0.403-0.03-0.978,0.022-1.601,0.343c-0.793,0.412-0.664,1.323-0.5,1.869c-0.215,0.052-0.445,0.126-0.687,0.252
		c-0.395,0.204-0.557,0.532-0.607,0.878l-0.138-0.051c-0.401-0.027-0.976,0.021-1.601,0.346c-0.858,0.445-0.637,1.475-0.46,1.995
		l-0.042,0.043c-0.053-0.25-0.188-0.561-0.534-0.627c-0.401-0.024-0.978,0.023-1.599,0.345c-1.17,0.609-0.337,2.308-0.337,2.308
		s0.725-0.396,1.503-0.609c0.326-0.088,0.55-0.246,0.706-0.438l0.063,0.409c-0.196,0.055-0.402,0.125-0.618,0.237
		c-1.168,0.607-0.333,2.303-0.333,2.303s0.25-0.135,0.612-0.287c-0.028,0.167-0.028,0.337-0.01,0.503l-0.269,0.113
		c-0.19,0.103-0.321,0.231-0.42,0.376c-0.078-0.193-0.215-0.377-0.471-0.425c-0.402-0.025-0.977,0.023-1.599,0.345
		c-1.171,0.61-0.337,2.303-0.337,2.303s0.724-0.389,1.505-0.606c0.347-0.092,0.579-0.27,0.738-0.476
		c0.079,0.441,0.25,0.792,0.25,0.792s0.315-0.169,0.75-0.347l0.151,0.127c-0.225,0.05-0.462,0.129-0.714,0.259
		c-0.437,0.229-0.596,0.609-0.618,0.998c-0.085-0.151-0.216-0.28-0.417-0.314c-0.405-0.028-0.977,0.021-1.603,0.341
		c-1.168,0.609-0.333,2.307-0.333,2.307s0.724-0.395,1.502-0.607c0.569-0.155,0.838-0.527,0.957-0.908l0.1,0.307
		c-0.333,0.486-0.197,1.164-0.062,1.577l-0.258,0.111c-1.171,0.607-0.335,2.303-0.335,2.303s0.378-0.204,0.881-0.399
		c0.018,0.587,0.289,1.135,0.289,1.135s0.277-0.153,0.678-0.318l0.561,0.489l-0.024,0.01c-0.186,0.101-0.322,0.23-0.417,0.376
		c-0.078-0.197-0.214-0.377-0.471-0.424c-0.401-0.028-0.978,0.02-1.599,0.342c-0.72,0.372-0.679,1.157-0.546,1.707
		c-0.394-0.014-0.927,0.047-1.509,0.345c-1.171,0.606-0.338,2.307-0.338,2.307s0.723-0.394,1.504-0.611l0.037-0.009
		c-0.226,0.728,0.223,1.641,0.223,1.641s0.72-0.394,1.503-0.607c0.228-0.062,0.403-0.159,0.543-0.274l0.004,0.005l0.11-0.059
		l0.938,1.032l0.011,0.081c-0.27,0.052-0.563,0.143-0.868,0.301l-0.361,0.285c-0.054-0.251-0.186-0.563-0.533-0.626
		c-0.401-0.032-0.977,0.019-1.597,0.341c-1.171,0.61-0.337,2.306-0.337,2.306s0.602-0.327,1.3-0.544l1.177,1.03
		c-0.174,0.052-0.357,0.117-0.547,0.216c-1.169,0.608-0.333,2.308-0.333,2.308s0.722-0.395,1.503-0.607
		c0.43-0.121,0.688-0.365,0.838-0.642l0.059,0.049l0.104,0.243l0.107-0.057l0.26,0.229c-0.261-0.046-0.502-0.052-0.7-0.038
		c-0.597,0.111-0.564,0.963-0.564,0.963c0.087,0.433,0.34,0.9,0.996,1.078c0.285,0.078,0.561,0.177,0.794,0.279
		c-0.061,0.66,0.279,1.354,0.279,1.354s0.724-0.393,1.505-0.608c0.312-0.085,0.529-0.235,0.685-0.414l0.023,0.02
		c0.048,0.535,0.28,1.002,0.28,1.002s0.228-0.122,0.564-0.27l1.04,0.913l0.051,0.114l0.049-0.024l0.208,0.181
		c0.248,2.552-0.038,5.457-0.038,7.906c0,2.489-0.544,5.432-0.143,7.821c1.05,0.045,2.123,0.014,3.182,0.028
		c-1.667-0.503-0.989-4.432-1.089-5.636c-0.136-1.692-0.12-3.062-0.163-4.781c-0.038-1.712,0.507-3.274,0.49-5.063
		c-0.002-0.191-0.002-0.388-0.002-0.586l0.643-1.383c0.156,0.203,0.386,0.376,0.725,0.465c0.784,0.213,1.507,0.608,1.507,0.608
		s0.811-1.658-0.3-2.282c0.019-0.455-0.11-0.928-0.625-1.197l-0.161-0.068l0.079-0.168l0.087,0.031
		c0.545,0.15,1.061,0.388,1.321,0.517c-0.134,0.273-0.122,0.601-0.122,0.601c0.089,0.435,0.343,0.902,0.998,1.081
		c0.781,0.212,1.505,0.606,1.505,0.606s0.832-1.695-0.338-2.306l-0.345-0.145c0.126-0.486,0.188-1.174-0.3-1.6l0.085-0.224
		c0.156,0.194,0.383,0.354,0.711,0.444c0.781,0.215,1.504,0.61,1.504,0.61s0.833-1.699-0.336-2.309
		c-0.299-0.151-0.58-0.239-0.843-0.288c0.015-0.446-0.116-0.914-0.625-1.176c-0.446-0.232-0.867-0.319-1.216-0.34l0.253-0.552
		c0.339,0.146,0.569,0.27,0.569,0.27s0.116-0.238,0.202-0.57c0.158,0.24,0.398,0.442,0.782,0.548l0.045,0.014
		c-0.172,0.285-0.163,0.664-0.163,0.664c0.089,0.433,0.345,0.903,0.996,1.082c0.785,0.213,1.506,0.606,1.506,0.606
		s0.837-1.695-0.333-2.306l-0.318-0.135c0.064-0.292,0.09-0.647-0.008-0.96l0.036,0.009c0.781,0.213,1.501,0.607,1.501,0.607
		s0.836-1.694-0.332-2.303c-0.625-0.322-1.2-0.372-1.604-0.343l-0.29,0.154c0.042-0.278,0.037-0.579-0.071-0.85
		c0.132,0.105,0.294,0.192,0.502,0.248c0.782,0.213,1.502,0.606,1.502,0.606s0.836-1.697-0.336-2.306
		c-0.18-0.093-0.355-0.157-0.529-0.213c0.1-0.211,0.738-1.711-0.345-2.275l-0.352-0.151c0.083-0.193,0.234-0.625,0.237-1.074
		C56.876,28.148,57.102,28.305,57.422,28.392"/>
	<path fill="#FFFFFF" d="M4.149,61.942c0-0.531,10.282-0.962,22.965-0.962c12.688,0,22.966,0.431,22.966,0.962
		c0,0.533-10.277,0.965-22.966,0.965C14.431,62.907,4.149,62.475,4.149,61.942"/>
	<path fill="#FFFFFF" d="M87.076,24.507c0-5.877,0-6.959-0.075-8.199c-0.081-1.312-0.39-1.932-1.664-2.203
		c-0.31-0.075-0.968-0.116-1.509-0.116c-0.423,0-0.656-0.077-0.656-0.347c0-0.271,0.269-0.35,0.85-0.35
		c2.049,0,4.486,0.116,5.568,0.116c1.586,0,3.827-0.116,5.605-0.116c4.835,0,6.575,1.626,7.191,2.205
		c0.853,0.81,1.936,2.551,1.936,4.602c0,5.492-4.024,9.354-9.51,9.354c-0.193,0-0.623,0-0.811-0.038
		c-0.196-0.04-0.469-0.078-0.469-0.35c0-0.305,0.273-0.422,1.087-0.422c2.161,0,5.182-2.437,5.182-6.38
		c0-1.277-0.122-3.868-2.286-5.801c-1.39-1.277-2.974-1.507-3.863-1.507c-0.58,0-1.163,0.04-1.511,0.154
		c-0.191,0.076-0.307,0.309-0.307,0.736v15.465c0,3.558,0,6.612,0.189,8.274c0.118,1.084,0.351,1.931,1.509,2.088
		c0.546,0.075,1.396,0.154,1.977,0.154c0.422,0,0.616,0.114,0.616,0.309c0,0.272-0.31,0.388-0.736,0.388
		c-2.547,0-4.987-0.116-5.993-0.116c-0.887,0-3.324,0.116-4.872,0.116c-0.501,0-0.776-0.116-0.776-0.388
		c0-0.194,0.154-0.309,0.621-0.309c0.58,0,1.046-0.079,1.392-0.154c0.773-0.157,0.97-1.004,1.124-2.125
		c0.191-1.625,0.191-4.679,0.191-8.237V24.507z"/>
	<path fill="#FFFFFF" d="M116.302,27.562c0,0.424,0.079,0.579,0.346,0.694c0.812,0.272,1.971,0.388,2.938,0.388
		c1.549,0,2.051-0.154,2.746-0.659c1.159-0.85,2.28-2.628,2.28-5.799c0-5.49-3.633-7.076-5.914-7.076
		c-0.969,0-1.663,0.04-2.051,0.155c-0.268,0.076-0.346,0.232-0.346,0.539V27.562z M111.742,24.508c0-5.879,0-6.961-0.079-8.201
		c-0.08-1.312-0.387-1.932-1.666-2.203c-0.309-0.075-0.963-0.116-1.505-0.116c-0.426,0-0.66-0.077-0.66-0.347
		c0-0.271,0.272-0.35,0.849-0.35c2.052,0,4.489,0.116,5.298,0.116c1.314,0,4.256-0.116,5.452-0.116c2.436,0,5.027,0.235,7.113,1.664
		c1.088,0.734,2.628,2.707,2.628,5.297c0,2.862-1.194,5.492-5.099,8.662c3.439,4.33,6.108,7.771,8.389,10.167
		c2.165,2.244,3.751,2.513,4.332,2.63c0.421,0.079,0.771,0.118,1.08,0.118c0.312,0,0.466,0.114,0.466,0.307
		c0,0.311-0.27,0.388-0.735,0.388h-3.676c-2.165,0-3.13-0.193-4.134-0.734c-1.662-0.889-3.13-2.709-5.299-5.685
		c-1.546-2.127-3.326-4.755-3.825-5.335c-0.195-0.233-0.425-0.271-0.696-0.271l-3.368-0.077c-0.191,0-0.306,0.077-0.306,0.308v0.542
		c0,3.596,0,6.65,0.192,8.275c0.113,1.122,0.348,1.97,1.51,2.125c0.576,0.075,1.427,0.156,1.896,0.156
		c0.304,0,0.463,0.114,0.463,0.307c0,0.272-0.273,0.388-0.776,0.388c-2.241,0-5.101-0.116-5.683-0.116
		c-0.733,0-3.169,0.116-4.718,0.116c-0.504,0-0.771-0.116-0.771-0.388c0-0.192,0.154-0.307,0.62-0.307
		c0.576,0,1.041-0.081,1.387-0.156c0.777-0.155,0.972-1.004,1.125-2.125c0.197-1.625,0.197-4.679,0.197-8.236V24.508z"/>
	<path fill="#FFFFFF" d="M162.038,28.644c0-8.664-4.99-14.036-11.331-14.036c-4.449,0-9.511,2.475-9.511,12.101
		c0,8.044,4.447,14.423,11.868,14.423C155.774,41.132,162.038,39.818,162.038,28.644 M135.863,27.911
		c0-6.615,4.365-15.159,15.965-15.159c9.63,0,15.621,5.608,15.621,14.461c0,8.855-6.183,15.854-16.007,15.854
		C140.343,43.066,135.863,34.753,135.863,27.911"/>
	<path fill="#FFFFFF" d="M83.949,52.997c-0.104-0.323-0.198-0.531-0.323-0.619l-0.348-0.079l-0.136-0.077l0.191-0.076
		c0.45,0,0.927,0.025,1.003,0.025c0.082,0,0.465-0.025,0.963-0.025l0.187,0.076l-0.158,0.077l-0.216,0.039l-0.095,0.191
		c0,0.111,0.085,0.405,0.192,0.795c0.148,0.574,0.954,3.204,1.109,3.688h0.024l1.682-4.521c0.088-0.243,0.15-0.312,0.221-0.312
		c0.093,0,0.136,0.13,0.25,0.406l1.806,4.367h0.025c0.157-0.582,0.849-2.873,1.153-3.889c0.062-0.198,0.085-0.381,0.085-0.5
		c0-0.141-0.077-0.265-0.416-0.265l-0.148-0.077l0.201-0.076c0.459,0,0.825,0.025,0.901,0.025c0.065,0,0.438-0.025,0.72-0.025
		l0.158,0.07l-0.122,0.083l-0.304,0.044c-0.208,0.079-0.3,0.428-0.485,0.921c-0.399,1.095-1.311,3.854-1.736,5.155
		c-0.096,0.304-0.139,0.407-0.251,0.407c-0.086,0-0.136-0.103-0.271-0.423l-1.802-4.35h-0.019c-0.164,0.445-1.319,3.516-1.692,4.314
		c-0.167,0.356-0.209,0.459-0.312,0.459c-0.085,0-0.118-0.094-0.198-0.32L83.949,52.997z"/>
	<path fill="#FFFFFF" d="M97.176,54.661c0-1.317,0-1.562-0.021-1.84c-0.014-0.293-0.085-0.431-0.372-0.492l-0.336-0.028l-0.15-0.075
		l0.194-0.08c0.233,0,0.484,0.007,0.7,0.007c0.228,0.012,0.425,0.019,0.546,0.019c0.28,0,2.005,0,2.169-0.007
		c0.166-0.019,0.304-0.037,0.372-0.053l0.143-0.036l0.051,0.077c0,0.061-0.045,0.167-0.069,0.564l-0.045,0.572l-0.085,0.097
		l-0.079-0.121l-0.053-0.313c-0.059-0.156-0.146-0.259-0.581-0.314c-0.145-0.014-1.059-0.034-1.231-0.034l-0.06,0.089v2.194
		l0.06,0.095c0.19,0,1.189,0,1.386-0.016c0.209-0.018,0.338-0.043,0.417-0.13l0.14-0.113l0.061,0.069
		c0,0.052-0.037,0.19-0.071,0.635c-0.008,0.174-0.032,0.521-0.032,0.58l-0.079,0.165l-0.079-0.079l-0.033-0.311
		c-0.044-0.173-0.168-0.301-0.487-0.341c-0.166-0.014-1.026-0.023-1.234-0.023l-0.049,0.087v0.685c0,0.296-0.013,1.093,0,1.344
		c0.016,0.601,0.154,0.729,1.04,0.729c0.225,0,0.589,0,0.814-0.102c0.229-0.106,0.331-0.287,0.393-0.645l0.093-0.13l0.069,0.156
		c0,0.202-0.069,0.79-0.111,0.965c-0.059,0.227-0.14,0.227-0.468,0.227c-0.651,0-1.127-0.016-1.5-0.029
		c-0.375-0.016-0.642-0.023-0.903-0.023c-0.097,0-0.287,0-0.492,0.007c-0.204,0-0.429,0.016-0.604,0.016l-0.172-0.085l0.139-0.068
		l0.312-0.037c0.175-0.033,0.219-0.224,0.251-0.479c0.045-0.361,0.045-1.046,0.045-1.845V54.661z"/>
	<path fill="#FFFFFF" d="M111.658,52.18l0.15-0.226c0.068,0,0.122,0.044,0.234,0.268l2.367,4.897l2.361-4.955l0.192-0.21
		c0.078,0,0.127,0.087,0.157,0.268l0.788,5.365c0.081,0.547,0.166,0.797,0.427,0.874c0.253,0.081,0.424,0.089,0.537,0.089
		l0.14,0.061l-0.228,0.093c-0.212,0-1.412-0.023-1.76-0.051c-0.196-0.017-0.252-0.042-0.252-0.093l0.095-0.099
		c0.052-0.016,0.079-0.128,0.045-0.369l-0.522-3.821h-0.034l-1.893,3.94c-0.198,0.408-0.242,0.487-0.318,0.487
		c-0.08,0-0.164-0.173-0.305-0.434c-0.21-0.4-0.897-1.727-0.999-1.971c-0.078-0.182-0.602-1.275-0.903-1.926h-0.036l-0.449,3.454
		l-0.028,0.407l0.263,0.278l0.361,0.044l0.131,0.061l-0.208,0.093c-0.365,0-0.756-0.023-0.91-0.023c-0.164,0-0.584,0.023-0.86,0.023
		l-0.155-0.093l0.139-0.061l0.257-0.025c0.245-0.054,0.315-0.391,0.358-0.688L111.658,52.18z"/>
	<path fill="#FFFFFF" d="M125.633,56.006l0.041-0.054l-0.78-2.14l-0.043-0.08l-0.051,0.08l-0.8,2.135l0.037,0.059H125.633z
		 M123.859,56.44l-0.074,0.071l-0.472,1.242c-0.085,0.215-0.128,0.423-0.128,0.525c0,0.161,0.077,0.272,0.347,0.272h0.131
		l0.128,0.068l-0.146,0.088c-0.278,0-0.654-0.025-0.922-0.025c-0.093,0-0.57,0.025-1.024,0.025l-0.162-0.088l0.103-0.068l0.27-0.018
		c0.396-0.05,0.562-0.346,0.738-0.779l2.18-5.454c0.099-0.249,0.154-0.345,0.238-0.345c0.079,0,0.131,0.08,0.219,0.279
		c0.208,0.478,1.596,4.016,2.152,5.334c0.331,0.781,0.583,0.903,0.762,0.945l0.365,0.037l0.112,0.068
		c0,0.069-0.081,0.088-0.399,0.088c-0.312,0-0.944,0-1.64-0.019l-0.262-0.069l0.125-0.077l0.077-0.202l-0.693-1.836l-0.087-0.063
		H123.859z"/>
	<path fill="#FFFFFF" d="M133.686,55.044h0.042c0.297-0.322,1.562-1.615,1.814-1.91c0.246-0.286,0.435-0.504,0.435-0.651
		l-0.122-0.174l-0.113-0.084l0.138-0.08c0.185,0,0.662,0.025,0.896,0.025c0.269,0,0.745-0.025,1.015-0.025l0.148,0.08l-0.13,0.075
		c-0.122,0-0.336,0.037-0.505,0.095c-0.267,0.104-0.562,0.29-0.935,0.653c-0.271,0.261-1.579,1.562-1.875,1.875
		c0.31,0.407,2.011,2.239,2.351,2.559c0.381,0.366,0.773,0.755,1.24,0.938c0.259,0.105,0.435,0.13,0.539,0.13l0.112,0.068
		c0,0.062-0.042,0.085-0.209,0.085h-0.752c-0.26,0-0.418,0-0.601-0.016c-0.466-0.042-0.701-0.235-1.074-0.564
		c-0.381-0.334-2.092-2.342-2.273-2.594l-0.097-0.13h-0.042v0.79c0,0.799,0,1.484,0.024,1.858c0.019,0.242,0.097,0.433,0.315,0.466
		l0.422,0.037l0.116,0.068l-0.167,0.085c-0.485,0-1.033-0.023-1.25-0.023c-0.195,0-0.744,0.023-1.092,0.023l-0.171-0.085
		l0.137-0.068l0.313-0.037c0.173-0.033,0.215-0.224,0.249-0.477c0.046-0.363,0.046-1.048,0.046-1.847v-1.527
		c0-1.318,0-1.564-0.019-1.84c-0.018-0.295-0.087-0.433-0.374-0.494l-0.338-0.028l-0.147-0.075l0.191-0.08
		c0.461,0,1.01,0.025,1.215,0.025c0.207,0,0.754-0.025,1.048-0.025l0.186,0.08l-0.125,0.075l-0.241,0.028
		c-0.236,0.042-0.304,0.191-0.323,0.494c-0.017,0.276-0.017,0.521-0.017,1.84V55.044z"/>
	<path fill="#FFFFFF" d="M142.328,54.661c0-1.317,0-1.562-0.017-1.84c-0.018-0.293-0.09-0.431-0.372-0.492l-0.337-0.028l-0.15-0.075
		l0.192-0.08c0.232,0,0.486,0.007,0.702,0.007c0.228,0.012,0.424,0.019,0.549,0.019c0.278,0,1.999,0,2.167-0.007
		c0.165-0.019,0.304-0.037,0.373-0.053l0.144-0.036l0.048,0.077c0,0.061-0.042,0.167-0.07,0.564l-0.043,0.572l-0.086,0.097
		l-0.077-0.121l-0.055-0.313c-0.062-0.156-0.147-0.259-0.58-0.314c-0.149-0.014-1.062-0.034-1.231-0.034l-0.061,0.089v2.194
		l0.061,0.095c0.191,0,1.188,0,1.385-0.016c0.211-0.018,0.337-0.043,0.417-0.13l0.142-0.113l0.061,0.069
		c0,0.052-0.035,0.19-0.07,0.635c-0.009,0.174-0.035,0.521-0.035,0.58l-0.078,0.165l-0.079-0.079l-0.03-0.311
		c-0.048-0.173-0.171-0.301-0.491-0.341c-0.165-0.014-1.024-0.023-1.231-0.023l-0.051,0.087v0.685c0,0.296-0.01,1.093,0,1.344
		c0.016,0.601,0.156,0.729,1.038,0.729c0.226,0,0.59,0,0.816-0.102c0.227-0.106,0.331-0.287,0.391-0.645l0.094-0.13l0.07,0.156
		c0,0.202-0.07,0.79-0.109,0.965c-0.064,0.227-0.14,0.227-0.473,0.227c-0.649,0-1.124-0.016-1.501-0.029
		c-0.374-0.016-0.641-0.023-0.902-0.023c-0.097,0-0.285,0-0.495,0.007c-0.197,0-0.425,0.016-0.598,0.016l-0.17-0.085l0.136-0.068
		l0.312-0.037c0.174-0.033,0.218-0.224,0.254-0.479c0.039-0.361,0.039-1.046,0.039-1.845V54.661z"/>
	<path fill="#FFFFFF" d="M157.587,56.189c0,0.832,0,1.484,0.039,1.847c0.026,0.253,0.081,0.444,0.343,0.477l0.434,0.037l0.146,0.068
		l-0.191,0.085c-0.544,0-1.093-0.025-1.318-0.025c-0.227,0-0.772,0.025-1.104,0.025l-0.18-0.085l0.128-0.068l0.313-0.037
		c0.177-0.033,0.215-0.224,0.255-0.477c0.039-0.363,0.039-1.015,0.039-1.847v-1.529c0-1.317,0-1.562-0.015-1.84
		c-0.019-0.293-0.088-0.431-0.374-0.492l-0.34-0.028l-0.146-0.068l0.197-0.086c0.225,0,0.481,0.007,0.705,0.007
		c0.227,0.012,0.427,0.019,0.546,0.019c0.33,0,2.092,0,2.292-0.007l0.355-0.037l0.137-0.052l0.064,0.077
		c0,0.061-0.046,0.164-0.07,0.393l-0.042,0.701l-0.089,0.125l-0.087-0.141l-0.052-0.331c-0.061-0.121-0.244-0.25-0.572-0.26
		l-1.336-0.023l-0.078,0.119v2.171l0.059,0.076l1.112-0.005l0.392-0.014l0.371-0.154l0.114-0.086l0.053,0.08
		c0,0.051-0.045,0.269-0.072,0.537c-0.015,0.171-0.034,0.575-0.034,0.632l-0.085,0.168l-0.071-0.124l-0.051-0.267
		c-0.046-0.122-0.177-0.281-0.444-0.313c-0.22-0.028-1.139-0.028-1.285-0.028l-0.059,0.078V56.189z"/>
	<path fill="#FFFFFF" d="M169.856,55.591c0-1.944-1.118-3.15-2.543-3.15c-0.996,0-2.132,0.557-2.132,2.715
		c0,1.805,0.999,3.236,2.663,3.236C168.453,58.392,169.856,58.1,169.856,55.591 M163.987,55.426c0-1.486,0.979-3.402,3.579-3.402
		c2.163,0,3.506,1.256,3.506,3.245c0,1.986-1.385,3.557-3.589,3.557C164.991,58.826,163.987,56.961,163.987,55.426"/>
	<path fill="#FFFFFF" d="M176.95,55.349l0.078,0.156c0.18,0.061,0.441,0.088,0.656,0.088c0.35,0,0.459-0.036,0.616-0.152
		c0.262-0.189,0.512-0.587,0.512-1.299c0-1.23-0.814-1.588-1.328-1.588c-0.215,0-0.371,0.009-0.456,0.035l-0.078,0.124V55.349z
		 M175.926,54.661c0-1.317,0-1.562-0.019-1.84c-0.018-0.293-0.089-0.431-0.371-0.492l-0.339-0.028l-0.147-0.075l0.189-0.08
		c0.458,0,1.004,0.025,1.188,0.025c0.292,0,0.956-0.025,1.228-0.025c0.542,0,1.124,0.054,1.592,0.373
		c0.246,0.167,0.588,0.607,0.588,1.189c0,0.641-0.266,1.233-1.145,1.943c0.776,0.974,1.373,1.746,1.884,2.282
		c0.485,0.503,0.843,0.564,0.972,0.592l0.243,0.025l0.105,0.068l-0.164,0.085h-0.824c-0.488,0-0.703-0.042-0.927-0.163
		c-0.375-0.202-0.705-0.608-1.191-1.277c-0.348-0.475-0.745-1.068-0.86-1.195l-0.155-0.063l-0.755-0.017l-0.067,0.066v0.125
		c0,0.808,0,1.493,0.042,1.855c0.026,0.253,0.079,0.444,0.341,0.477l0.42,0.037l0.108,0.068l-0.176,0.085
		c-0.501,0-1.146-0.025-1.273-0.025c-0.167,0-0.713,0.025-1.057,0.025l-0.178-0.085l0.139-0.068l0.313-0.037
		c0.176-0.033,0.219-0.224,0.254-0.477c0.044-0.363,0.044-1.048,0.044-1.847V54.661z"/>
	<path fill="#FFFFFF" d="M185.514,54.661c0-1.317,0-1.562-0.017-1.84c-0.017-0.293-0.083-0.431-0.373-0.492l-0.337-0.028
		l-0.15-0.075l0.193-0.08c0.233,0,0.487,0.007,0.703,0.007c0.224,0.012,0.423,0.019,0.547,0.019c0.274,0,2.001,0,2.168-0.007
		c0.164-0.019,0.304-0.037,0.373-0.053l0.142-0.036l0.049,0.077c0,0.061-0.043,0.167-0.071,0.564l-0.04,0.572l-0.091,0.097
		l-0.074-0.121l-0.055-0.313c-0.056-0.156-0.148-0.259-0.578-0.314c-0.15-0.014-1.059-0.034-1.235-0.034l-0.057,0.089v2.194
		l0.057,0.095c0.192,0,1.188,0,1.389-0.016c0.209-0.018,0.34-0.043,0.416-0.13l0.137-0.113l0.063,0.069
		c0,0.052-0.036,0.19-0.07,0.635c-0.009,0.174-0.032,0.521-0.032,0.58l-0.08,0.165l-0.08-0.079l-0.03-0.311
		c-0.049-0.173-0.164-0.301-0.489-0.341c-0.167-0.014-1.024-0.023-1.233-0.023l-0.048,0.087v0.685c0,0.296-0.01,1.093,0,1.344
		c0.015,0.601,0.151,0.729,1.039,0.729c0.225,0,0.59,0,0.818-0.102c0.223-0.106,0.324-0.287,0.39-0.645l0.091-0.13l0.071,0.156
		c0,0.202-0.071,0.79-0.112,0.965c-0.059,0.227-0.139,0.227-0.471,0.227c-0.649,0-1.124-0.016-1.498-0.029
		c-0.374-0.016-0.64-0.023-0.901-0.023c-0.098,0-0.287,0-0.497,0.007c-0.2,0-0.425,0.016-0.597,0.016l-0.174-0.085l0.14-0.068
		l0.313-0.037c0.171-0.033,0.215-0.224,0.25-0.479c0.042-0.361,0.042-1.046,0.042-1.845V54.661z"/>
	<path fill="#FFFFFF" d="M193.559,58.601c-0.138-0.06-0.164-0.104-0.164-0.294c0-0.476,0.034-0.996,0.042-1.137l0.101-0.227
		l0.089,0.148l0.079,0.442c0.191,0.643,0.705,0.877,1.24,0.877c0.784,0,1.164-0.528,1.164-0.992c0-0.425-0.131-0.819-0.852-1.386
		l-0.396-0.311c-0.955-0.745-1.284-1.355-1.284-2.058c0-0.955,0.796-1.64,2.006-1.64c0.559,0,0.924,0.087,1.153,0.147l0.124,0.103
		c0,0.115-0.037,0.365-0.037,1.042c0,0.192-0.024,0.259-0.096,0.259l-0.091-0.157c0-0.076-0.043-0.345-0.221-0.57
		c-0.135-0.164-0.382-0.424-0.946-0.424c-0.643,0-1.032,0.372-1.032,0.892c0,0.399,0.197,0.705,0.92,1.249l0.24,0.182
		c1.049,0.793,1.422,1.393,1.422,2.212c0,0.503-0.191,1.104-0.816,1.511c-0.432,0.278-0.917,0.355-1.377,0.355
		C194.321,58.826,193.932,58.767,193.559,58.601"/>
	<path fill="#FFFFFF" d="M203.278,52.63l-1.292,0.037c-0.503,0.019-0.711,0.061-0.844,0.249l-0.146,0.306l-0.093,0.102l-0.081-0.136
		l0.183-0.999l0.104-0.166c0.069,0,0.154,0.087,0.374,0.104c0.254,0.026,0.583,0.043,0.868,0.043h3.435
		c0.28,0,0.471-0.025,0.603-0.043l0.229-0.042l0.071,0.181c0,0.183-0.027,0.782-0.027,1.005l-0.078,0.14l-0.094-0.174l-0.01-0.096
		c-0.014-0.227-0.25-0.468-1.022-0.487l-1.091-0.025v3.559c0,0.799,0,1.484,0.04,1.858c0.027,0.242,0.079,0.433,0.34,0.466
		l0.441,0.037l0.139,0.068l-0.167,0.085c-0.567,0-1.115-0.023-1.358-0.023c-0.201,0-0.748,0.023-1.094,0.023l-0.174-0.085
		l0.137-0.068l0.31-0.037c0.179-0.033,0.228-0.224,0.259-0.479c0.04-0.361,0.04-1.046,0.04-1.845V52.63z"/>
	<path fill="#FFFFFF" d="M212.35,55.349l0.077,0.156c0.184,0.061,0.441,0.088,0.662,0.088c0.347,0,0.458-0.036,0.613-0.152
		c0.263-0.189,0.515-0.587,0.515-1.299c0-1.23-0.818-1.588-1.328-1.588c-0.217,0-0.374,0.009-0.461,0.035l-0.077,0.124V55.349z
		 M211.323,54.661c0-1.317,0-1.562-0.016-1.84c-0.019-0.293-0.085-0.431-0.371-0.492l-0.339-0.028l-0.15-0.075l0.191-0.08
		c0.46,0,1.006,0.025,1.189,0.025c0.295,0,0.955-0.025,1.225-0.025c0.546,0,1.128,0.054,1.597,0.373
		c0.244,0.167,0.587,0.607,0.587,1.189c0,0.641-0.268,1.233-1.144,1.943c0.773,0.974,1.37,1.746,1.882,2.282
		c0.487,0.503,0.845,0.564,0.975,0.592l0.24,0.025l0.102,0.068l-0.164,0.085h-0.822c-0.485,0-0.705-0.042-0.926-0.163
		c-0.379-0.202-0.707-0.608-1.194-1.277c-0.345-0.475-0.743-1.068-0.858-1.195l-0.159-0.063l-0.748-0.017l-0.071,0.066v0.125
		c0,0.808,0,1.493,0.041,1.855c0.03,0.253,0.08,0.444,0.338,0.477l0.426,0.037l0.106,0.068l-0.173,0.085
		c-0.507,0-1.146-0.025-1.276-0.025c-0.168,0-0.714,0.025-1.058,0.025l-0.177-0.085l0.137-0.068l0.317-0.037
		c0.172-0.033,0.215-0.224,0.249-0.477c0.042-0.363,0.042-1.048,0.042-1.847V54.661z"/>
	<path fill="#FFFFFF" d="M221.712,56.46c0-0.471-0.086-0.661-0.198-0.913c-0.064-0.138-1.226-2.048-1.528-2.499
		c-0.217-0.321-0.432-0.539-0.601-0.633l-0.362-0.115l-0.131-0.079l0.164-0.076c0.158,0,0.808,0.026,1.094,0.026
		c0.181,0,0.538-0.026,0.927-0.026l0.133,0.076l-0.194,0.097l-0.122,0.156l0.104,0.297c0.125,0.26,1.337,2.349,1.477,2.593
		c0.088-0.209,1.184-2.119,1.303-2.388c0.088-0.19,0.119-0.338,0.119-0.451l-0.18-0.217l-0.154-0.087l0.149-0.076
		c0.282,0,0.562,0.026,0.813,0.026c0.189,0,0.763-0.026,0.927-0.026l0.154,0.07l-0.163,0.084l-0.383,0.105
		c-0.178,0.086-0.276,0.192-0.469,0.427c-0.281,0.347-1.496,2.384-1.658,2.76c-0.131,0.311-0.131,0.579-0.131,0.868v0.71
		c0,0.139,0,0.502,0.031,0.866c0.016,0.253,0.094,0.444,0.356,0.477l0.432,0.037l0.139,0.068l-0.181,0.085
		c-0.545,0-1.097-0.025-1.326-0.025c-0.215,0-0.766,0.025-1.088,0.025l-0.191-0.085l0.14-0.068l0.305-0.037
		c0.175-0.033,0.252-0.224,0.266-0.477c0.028-0.363,0.028-0.727,0.028-0.866V56.46z"/>
	<path fill="#FFFFFF" d="M235.555,52.18l0.147-0.226c0.068,0,0.122,0.044,0.235,0.268l2.37,4.897l2.358-4.955l0.191-0.21
		c0.078,0,0.131,0.087,0.156,0.268l0.788,5.365c0.081,0.547,0.166,0.797,0.427,0.874c0.252,0.081,0.423,0.089,0.538,0.089
		l0.136,0.061l-0.223,0.093c-0.217,0-1.417-0.023-1.76-0.051c-0.202-0.017-0.254-0.042-0.254-0.093l0.097-0.099
		c0.05-0.016,0.079-0.128,0.042-0.369l-0.52-3.821h-0.035l-1.892,3.94c-0.199,0.408-0.242,0.487-0.319,0.487
		c-0.081,0-0.166-0.173-0.301-0.434c-0.211-0.4-0.897-1.727-1-1.971c-0.08-0.182-0.602-1.275-0.903-1.926h-0.039l-0.448,3.454
		l-0.027,0.407l0.26,0.278l0.367,0.044l0.127,0.061l-0.206,0.093c-0.363,0-0.754-0.023-0.913-0.023c-0.16,0-0.58,0.023-0.859,0.023
		l-0.154-0.093l0.135-0.061l0.265-0.025c0.243-0.054,0.31-0.391,0.353-0.688L235.555,52.18z"/>
	<path fill="#FFFFFF" d="M249.528,56.006l0.042-0.054l-0.781-2.14l-0.043-0.08l-0.051,0.08l-0.795,2.135l0.034,0.059H249.528z
		 M247.757,56.44l-0.078,0.071l-0.469,1.242c-0.089,0.215-0.127,0.423-0.127,0.525c0,0.161,0.076,0.272,0.34,0.272h0.136l0.13,0.068
		l-0.148,0.088c-0.279,0-0.656-0.025-0.921-0.025c-0.098,0-0.574,0.025-1.022,0.025l-0.168-0.088l0.104-0.068l0.27-0.018
		c0.398-0.05,0.565-0.346,0.738-0.779l2.179-5.454c0.104-0.249,0.156-0.345,0.24-0.345c0.078,0,0.135,0.08,0.22,0.279
		c0.21,0.478,1.598,4.016,2.15,5.334c0.332,0.781,0.585,0.903,0.763,0.945l0.364,0.037l0.113,0.068c0,0.069-0.075,0.088-0.397,0.088
		c-0.31,0-0.945,0-1.638-0.019l-0.26-0.069l0.117-0.077l0.079-0.202l-0.689-1.836l-0.087-0.063H247.757z"/>
	<path fill="#FFFFFF" d="M257.113,52.63l-1.292,0.037c-0.507,0.019-0.712,0.061-0.842,0.249l-0.148,0.306l-0.099,0.102l-0.072-0.136
		l0.18-0.999l0.102-0.166c0.071,0,0.16,0.087,0.374,0.104c0.255,0.026,0.584,0.043,0.87,0.043h3.438
		c0.275,0,0.469-0.025,0.594-0.043l0.237-0.042l0.068,0.181c0,0.183-0.025,0.782-0.025,1.005l-0.078,0.14l-0.095-0.174l-0.01-0.096
		c-0.017-0.227-0.254-0.468-1.023-0.487L258.2,52.63v3.559c0,0.799,0,1.484,0.04,1.858c0.027,0.242,0.079,0.433,0.341,0.466
		l0.443,0.037l0.138,0.068l-0.166,0.085c-0.57,0-1.118-0.023-1.361-0.023c-0.198,0-0.747,0.023-1.097,0.023l-0.174-0.085l0.14-0.068
		l0.315-0.037c0.172-0.033,0.228-0.224,0.252-0.479c0.043-0.361,0.043-1.046,0.043-1.845V52.63z"/>
	<path fill="#FFFFFF" d="M266.313,52.63l-1.293,0.037c-0.505,0.019-0.714,0.061-0.843,0.249l-0.146,0.306l-0.095,0.102l-0.077-0.136
		l0.183-0.999l0.103-0.166c0.065,0,0.156,0.087,0.371,0.104c0.248,0.026,0.583,0.043,0.869,0.043h3.432
		c0.28,0,0.473-0.025,0.6-0.043l0.241-0.042l0.063,0.181c0,0.183-0.024,0.782-0.024,1.005l-0.083,0.14l-0.089-0.174l-0.01-0.096
		c-0.019-0.227-0.253-0.468-1.024-0.487l-1.091-0.025v3.559c0,0.799,0,1.484,0.04,1.858c0.028,0.242,0.079,0.433,0.34,0.466
		l0.444,0.037l0.138,0.068l-0.166,0.085c-0.575,0-1.118-0.023-1.364-0.023c-0.194,0-0.744,0.023-1.089,0.023l-0.173-0.085
		l0.139-0.068l0.31-0.037c0.173-0.033,0.228-0.224,0.25-0.479c0.047-0.361,0.047-1.046,0.047-1.845V52.63z"/>
	<path fill="#FFFFFF" d="M274.358,54.661c0-1.317,0-1.562-0.022-1.84c-0.014-0.293-0.081-0.431-0.367-0.492l-0.342-0.028
		l-0.148-0.075l0.195-0.08c0.231,0,0.484,0.007,0.702,0.007c0.226,0.012,0.421,0.019,0.544,0.019c0.275,0,2.004,0,2.172-0.007
		l0.371-0.053l0.139-0.036l0.054,0.077c0,0.061-0.042,0.167-0.07,0.564l-0.045,0.572l-0.086,0.097l-0.078-0.121l-0.052-0.313
		c-0.06-0.156-0.142-0.259-0.58-0.314c-0.148-0.014-1.059-0.034-1.231-0.034l-0.061,0.089v2.194l0.061,0.095
		c0.188,0,1.188,0,1.387-0.016c0.209-0.018,0.339-0.043,0.412-0.13l0.143-0.113l0.061,0.069c0,0.052-0.032,0.19-0.07,0.635
		c-0.01,0.174-0.035,0.521-0.035,0.58l-0.079,0.165l-0.075-0.079l-0.035-0.311c-0.04-0.173-0.166-0.301-0.484-0.341
		c-0.171-0.014-1.027-0.023-1.234-0.023l-0.053,0.087v0.685c0,0.296-0.012,1.093,0,1.344c0.015,0.601,0.156,0.729,1.04,0.729
		c0.228,0,0.589,0,0.813-0.102c0.229-0.106,0.333-0.287,0.39-0.645l0.1-0.13l0.067,0.156c0,0.202-0.067,0.79-0.11,0.965
		c-0.063,0.227-0.138,0.227-0.472,0.227c-0.648,0-1.125-0.016-1.502-0.029c-0.369-0.016-0.637-0.023-0.898-0.023
		c-0.098,0-0.283,0-0.496,0.007c-0.201,0-0.426,0.016-0.604,0.016l-0.168-0.085l0.139-0.068l0.311-0.037
		c0.172-0.033,0.215-0.224,0.25-0.479c0.048-0.361,0.048-1.046,0.048-1.845V54.661z"/>
	<path fill="#FFFFFF" d="M283.903,55.349l0.078,0.156c0.182,0.061,0.443,0.088,0.661,0.088c0.345,0,0.458-0.036,0.615-0.152
		c0.258-0.189,0.514-0.587,0.514-1.299c0-1.23-0.817-1.588-1.332-1.588c-0.216,0-0.371,0.009-0.458,0.035l-0.078,0.124V55.349z
		 M282.879,54.661c0-1.317,0-1.562-0.018-1.84c-0.016-0.293-0.087-0.431-0.373-0.492l-0.336-0.028l-0.15-0.075l0.192-0.08
		c0.462,0,1.005,0.025,1.188,0.025c0.296,0,0.954-0.025,1.221-0.025c0.551,0,1.131,0.054,1.597,0.373
		c0.245,0.167,0.592,0.607,0.592,1.189c0,0.641-0.267,1.233-1.146,1.943c0.771,0.974,1.374,1.746,1.883,2.282
		c0.484,0.503,0.839,0.564,0.973,0.592l0.243,0.025l0.105,0.068l-0.168,0.085h-0.82c-0.491,0-0.706-0.042-0.931-0.163
		c-0.373-0.202-0.7-0.608-1.187-1.277c-0.351-0.475-0.747-1.068-0.856-1.195l-0.163-0.063l-0.754-0.017l-0.068,0.066v0.125
		c0,0.808,0,1.493,0.041,1.855c0.028,0.253,0.08,0.444,0.344,0.477l0.422,0.037l0.105,0.068l-0.172,0.085
		c-0.508,0-1.146-0.025-1.275-0.025c-0.168,0-0.71,0.025-1.061,0.025l-0.175-0.085l0.14-0.068l0.314-0.037
		c0.171-0.033,0.212-0.224,0.255-0.477c0.04-0.363,0.04-1.048,0.04-1.847V54.661z"/>
</g>
</svg>
