<?xml version="1.0" encoding="utf-8"?>
<!-- Generator: Adobe Illustrator 16.0.0, SVG Export Plug-In . SVG Version: 6.00 Build 0)  -->
<!DOCTYPE svg PUBLIC "-//W3C//DTD SVG 1.1//EN" "http://www.w3.org/Graphics/SVG/1.1/DTD/svg11.dtd">
<svg version="1.1" id="Capa_1" xmlns="http://www.w3.org/2000/svg" xmlns:xlink="http://www.w3.org/1999/xlink" x="0px" y="0px"
	 width="150px" height="150px" viewBox="0 0 150 150" enable-background="new 0 0 150 150" xml:space="preserve">
<symbol  id="Nuevo_símbolo_1" viewBox="-97.24 -66.896 194.493 133.774">
	<path fill="none" stroke="#FFFFFF" stroke-miterlimit="2" d="M91.79-14.131l1.572,0.036l0.439,0.366l0.183,0.183l-0.365,0.329
		l0.951,0.365l0.987-0.512l1.134-1.391l-0.256-0.768l0.256-0.805l-0.585-1.938l-2.597-3.438L92.85-24.52v-1.5l-0.804-0.695
		l-0.438-0.036l-0.147-0.438l0.585-0.586l1.171,0.365l0.329-0.182l-0.219-0.623l-1.061-0.805l-0.33-0.732l0.147-0.219l1.061,0.623
		l0.109-0.439l-0.439-1.428l-1.426-5.449l-0.11-1.684l-0.256,0.037l0.037,1.609l-1.135,1.243l0.183,1.683l-0.256,0.44l-0.182-0.184
		l-0.257-0.622l-1.135-1.135l-1.462-1.096l-0.183-0.769l-1.609-3.073l-1.463,0.549l-0.658-0.585l-0.074-1.061l-0.148,0.172
		 M68.196-46.284l-0.183-0.256l2.487-2.158l2.378-1.391l0.622-1.317l1.426-0.694l0.11-2.378l-8.963-0.695l-3.108-5.889l1.06-1.5
		l-0.256-0.621l-0.147-1.939v-1.39l-3.84,3.219l-0.769,1.024l-5.011,3.768l-2.634,2.23l-1.536,0.878l0.255,0.696l-0.622,1.462
		l0.403,1.866l0.805,1.172l0.329,1.754l0.219,0.256l1.171,1.318l0.366,0.512l1.39,1.975l0.842,2.451l1.938-0.695l-0.146-1.572
		l1.755-1.902l2.342,2.377l1.646,0.732l0.878,0.805h0.695l1.061-0.512l0.109-0.622l0.586-0.439l0.475-1.133h0.548L68.196-46.284z
		 M72.769-20.058l-0.403-3.109l0.549-3.548l-1.464-1.646v-2.193l-0.512-1.135l-2.963-2.414l-0.95-0.951l1.097-1.134l-0.11-0.366
		l-1.573-1.207l-2.195-0.402l-0.256,0.513l-0.878,0.292l0.366,0.768l-0.439,0.257l-3.182-0.548l0.694-0.805l1.317-0.037h0.11
		l0.439-1.317l0.293-1.244l1.756-1.206l1.317,0.109l0.694,0.879l1.5-0.258l2.378-0.328l0.255-0.951l12.217,0.731l-0.311,2.555
		l0.432,0.048l-0.096,2.158h-0.288l-0.096,1.631l-0.384,4.555l-1.149,1.631l-1.992,2.455l-0.263,1.765l-0.575,0.479l-0.72-0.24
		l-0.431,0.719l0.047,1.535l-0.959,0.336l-0.24-0.814h-0.958l-0.383,0.766l-1.151-0.096l-0.144,2.398l0.479,0.873l3.402,1.865
		l0.695,0.109l6.402,1.683l1.389,1.024l6.256-0.256 M48.955-40.834l3.11,1.499l2.78,0.586l0.548-0.293l1.134,0.55l2.122,0.805
		l1.207,0.805l0.694-0.805l1.317-0.037h0.11l0.439-1.317l0.293-1.244l1.756-1.206l1.317,0.109l0.694,0.879l1.5-0.258l2.378-0.328
		l0.255-0.951l0.11-3.879l-2.523-0.364l-1.317,1.391h-0.548l-0.475,1.133l-0.586,0.439l-0.109,0.622l-1.061,0.512h-0.695
		l-0.878-0.805l-1.646-0.732l-2.342-2.377l-1.755,1.902l0.146,1.572l-1.938,0.695l-0.842-2.451l-1.39-1.975l-0.366,0.549v0.146
		l-1.134,1.499l-1.024,0.548l-0.877,0.732l0.109,0.731L48.955-40.834z M20.13-43.907l-0.22-2.926l0.805-1.646l0.367-0.696
		l1.134-0.804l-0.402-2.56l-1.062-0.513l-0.256-0.952l0.109-0.438l-1.683-0.879l2.159-0.731l1.755-1.097l1.463-0.512l4.572-0.148
		l0.366-0.62l1.316-0.586l2.232-0.878l1.39,0.221l6.218,2.414l3.037,3.035l0.768,0.329l0.805-0.329l-0.11-0.292l1.171-0.659
		l1.317-0.072l0.329,0.511l2.122-0.658l0.255,0.696l-0.622,1.462l0.403,1.866l0.805,1.172l0.329,1.754l0.219,0.256l-5.486-0.035
		l-2.524,0.291l-0.292,0.988l-1.244,0.842l0.072,0.987l-0.329,0.329l-3.329-1.427l-0.988,0.952l-0.183,0.694l0.512,1.39
		l-0.548,1.244l-2.013,0.439l-2.231,2.671l-1.134,0.365l-0.072-0.513l-0.549-0.622l-0.402-1.243l-1.647-1.171l-1.499,0.073
		l-1.244-1.061l-0.622,0.256l-0.695,1.39l-0.183,0.366l-0.439-0.109l-0.255-1.135l0.109-0.951l-0.622-0.256l-0.878,0.439
		L20.13-43.907z M-14.986-36.627l-0.256,3.072l-0.951,0.988l-1.134-0.66l-0.988,0.257l-0.731,0.55l-1.646-1.355h-0.695l-1.097-1.133
		l1.097-0.55l3.658-2.157l0.805-1.023l1.207,1.756L-14.986-36.627z M-5.951-43.797l0.438,1.718l1.756,0.732l-0.293,1.316l0.805,0.55
		l2.013-0.806L1.036-39.7l1.171-0.621l0.329,0.183l1.609-0.256l-0.732,2.304l0.183,0.878l0.184-0.182l0.329-0.257l0.622,0.438
		l2.231,3.549l0.622,0.768l0.146,2.488l0.367,0.512l-0.403,0.476l-1.317,1.499l-0.585-1.134l-0.768-0.62l-1.062,0.437l-1.061-0.364
		L2.207-28.91l-1.098,0.513l-1.462-0.438l-0.476,0.257l-0.439,1.39l-0.694,0.511l-0.805-0.694l-1.134-0.183L-4.598-27.3
		l-0.073,0.621l-0.805,0.586l-2.451-0.806l-1.5-0.549l-0.878-0.62h-1.243l-0.476-0.695l0.073-0.513l0.622-0.293l1.134-0.073
		l0.183-0.365l-0.512-1.208l0.658-1.5l0.769-0.072l0.256-0.365l-0.329-1.135l-2.195-0.621l-0.878-1.244l-1.061,0.146l-0.366,0.259
		l-0.841-0.697l-0.476-0.182l-0.731-0.256l-1.207-1.756l1.938-2.379l8.414-2.999L-5.951-43.797z M-5.951-43.797l0.438,1.718
		l1.756,0.732l-0.293,1.316l0.805,0.55l2.013-0.806L1.036-39.7l1.171-0.621l0.329,0.183l1.609-0.256l-0.732,2.304l0.183,0.878
		l0.184-0.182l0.329-0.257l0.622,0.438l0.366-0.182l1.244-2.892l0.548-0.073l1.61,1.428h1.133l1.061,0.914l1.134-0.256l0.731-1.171
		l0.695-0.438l0.622,0.548l0.439-0.109l0.987-1.354l0.073-0.694l1.939-1.756l2.012-0.073l0.804-0.586l-0.22-2.926l0.805-1.646
		l0.367-0.696l1.134-0.804l-0.402-2.56l-1.062-0.513l-0.256-0.952l0.109-0.438l-1.683-0.879l-1.756,1.537h-1.316l-2.561,0.658
		l-2.963,0.769l-1.537,1.39l-1.573,0.183l-5.962,2.305l-3.914,2.854l-1.792,1.828l-0.951,0.22L-5.951-43.797z M15.668-35.458
		l-0.256,2.123l-0.476,0.951l-1.133,0.511l-0.586-2.304l0.439-0.695l-0.622-0.769l0.036-0.986l-1.243-1.646l-1.134,0.256
		l-1.061-0.914H8.499l-1.61-1.428L6.34-40.286l-1.244,2.892L4.73-37.213l2.231,3.549l0.622,0.768l0.146,2.488l0.367,0.512
		l-0.403,0.476l1.061,1.354l0.073,0.548l0.805,0.256l3.438-2.999l0.549,1.207l1.5,0.365l0.439-0.256v-1.061l0.585-0.184h1.244
		l0.439-0.95l-0.038-0.512l-0.11-0.987l0.184-0.257l-0.074-3.328l-0.037-0.221l-1.462,0.477L15.668-35.458z M11.827-38.273
		l0.731-1.171l0.695-0.438l0.622,0.548l0.439-0.109l0.987-1.354l0.842,0.805l1.499,0.257l-0.255,1.205l0.329,0.55l-0.183,0.694
		l0.219,0.842l-1.462,0.477l-0.622,0.511h-0.951l-1.061,0.586l-0.622-0.769l0.036-0.986L11.827-38.273z M13.803-31.873l-0.586-2.304
		l0.439-0.695l1.061-0.586h0.951l-0.256,2.123l-0.476,0.951L13.803-31.873z M17.789-31.652l1.719,0.109l0.257,0.367l1.062,0.145
		l1.756-0.476l0.511-0.513l0.037-0.731l1.244-0.513l0.329-0.364l-2.011-0.878l-0.695-0.109l-0.987-0.695l-0.952,0.695l-1.244,1.5
		l-0.951,0.219l-0.184,0.257L17.789-31.652z M30.885-39.591l-0.402-1.243l-1.647-1.171l-1.499,0.073l-1.244-1.061l-0.622,0.256
		l-0.695,1.39l-0.183,0.366l-0.439-0.109l-0.255-1.135l0.109-0.951l-0.622-0.256l-0.878,0.439l-2.378-0.915l-0.804,0.586
		l-2.012,0.073l-1.939,1.756l-0.073,0.694l0.842,0.805l1.499,0.257l-0.255,1.205l0.329,0.55l-0.183,0.694l0.219,0.842l0.037,0.221
		l0.074,3.328l0.951-0.219l1.244-1.5l0.952-0.695l0.987,0.695l0.695,0.109l2.011,0.878l-0.329,0.364l-1.244,0.513l-0.037,0.731
		l-0.511,0.513l-1.756,0.476l-0.294,1.684l0.769,1.316l-0.365,1.389l0.622,1.062l0.622,0.365l0.475,1.976l0.549,0.256l0.439-0.438
		l0.073-0.549l1.281-0.768l-0.256-0.696l-1.061-0.183v-1.244l1.061-0.768l1.317,0.695l1.39-0.658l0.256-0.293l-0.914-1.318v-1.572
		l-0.878-0.914l0.988-1.463l1.427-0.878l0.146-0.257l-1.207-0.621l0.549-1.902l-0.878-0.182v-0.879l1.427-0.695l0.147-0.731
		l1.316,0.183l0.366,0.146L30.885-39.591z M18.338-18.922l0.622-1.392l0.438-0.255l0.586,0.183l0.768-0.622l-0.438-1.83H19.07
		l-0.622-0.621l0.256-0.805l-0.293-1.061l0.183-0.586l0.255-0.293l1.829,1.428l0.585,0.621l0.439-0.438l-0.145-0.987l-0.622-1.062
		l0.365-1.389l-0.769-1.316l0.294-1.684l-1.062-0.145l-0.257-0.367l-1.719-0.109l0.038,0.512l-0.439,0.95h-1.244l-0.585,0.184v1.061
		l-0.439,0.256l-1.5-0.365l-0.549-1.207l-3.438,2.999l0.184,0.805v1.024l1.353,0.769l0.257,0.329v0.987l1.426,1.391l0.293,1.316
		l1.682,0.22l-0.182,0.878l1.061-0.439l0.622-0.547l1.316,0.182L18.338-18.922z M7.693-29.421l1.061,1.354l0.073,0.548l0.805,0.256
		l0.184,0.805v1.024l1.353,0.769l0.257,0.329v0.987l1.426,1.391l0.293,1.316l1.682,0.22l-0.182,0.878l-0.512,1.28l-0.805,0.878
		l-1.5-1.244l-1.391,0.586l-0.694-0.621l0.512-1.135l-0.366-0.622l-1.316-0.184l-0.293-0.511l-0.804-1.061l-2.013-0.221l-0.95-1.646
		l0.622-0.805l1.242-3.073L7.693-29.421z M-4.231-14.754l-2.195-2.486l-1.353,0.366l-1.062,0.329l-0.183,1.9l0.183,0.55
		l-0.329,0.878l0.109,0.512l1.061,0.403l0.878,0.878l1.755-1.428l0.22-0.694L-4.231-14.754z M-5.476-26.093l0.622,0.952
		l-0.585,1.865l1.573,2.414l1.023,0.695l0.731,0.694l-0.292,1.134l0.439,0.621l-0.11,1.5l0.402,0.514l1.536-0.147l0.878-0.694h0.951
		l1.792-1.464l0.805-0.329l1.317,1.135l4.134-1.463l0.512-1.135l-0.366-0.622l-1.316-0.184l-0.293-0.511l-0.804-1.061l-2.013-0.221
		l-0.95-1.646l0.622-0.805l1.242-3.073l-0.585-1.134l-0.768-0.62l-1.062,0.437l-1.061-0.364L2.207-28.91l-1.098,0.513l-1.462-0.438
		l-0.476,0.257l-0.439,1.39l-0.694,0.511l-0.805-0.694l-1.134-0.183L-4.598-27.3l-0.073,0.621L-5.476-26.093z M-22.484-34.908
		l1.097,1.133h0.695l1.646,1.355l0.731-0.55l0.988-0.257l1.134,0.66l0.951-0.988l0.256-3.072l0.476,0.182l0.841,0.697l0.366-0.259
		l1.061-0.146l0.878,1.244l2.195,0.621l0.329,1.135l-0.256,0.365l-0.769,0.072l-0.658,1.5l0.512,1.208l-0.183,0.365l-1.134,0.073
		l-0.622,0.293l-0.073,0.513l0.476,0.695h1.243l0.878,0.62l1.5,0.549l2.451,0.806l0.622,0.952l-0.585,1.865l1.573,2.414l1.023,0.695
		l0.731,0.694l-0.292,1.134l0.439,0.621l-0.11,1.5l0.402,0.514h-0.037l-2.377,1.133l-0.146-0.184l-2.195-2.486l-1.353,0.366
		l-1.062,0.329l-0.183,1.9l-0.585-0.071l-0.731-0.695l0.585-1.939l0.622-0.694l-0.183-0.805l-1.134-0.951l-1.5-0.109l-0.146-1.391
		h-0.513l-3.731,1.098l0.073,1.938l1.061,0.366l0.329,0.878l-0.183,0.767l2.854,3.037l-0.074,0.621l-1.244,1.172l-0.512-0.878
		l-1.39-1.757l-0.439,0.257l0.073,2.927l-0.366,0.328l-0.878-2.049l-0.365,0.439l0.439,2.378l-0.732,0.512l-0.476-1.206l0.439-0.988
		l-2.378-0.877l-0.476-1.61l0.513-1.097l0.951-1.135l-0.293-1.756l1.317-1.316l-1.317-1.244l-0.365-0.072l-0.403-2.926l-0.073-0.148
		l-1.866,1.428l-1.316,0.731l-2.342-0.842l-0.804-1.682l-0.366-0.879l-1.281-0.364l-1.207-0.439l0.256-0.806l0.805-2.268
		l3.658-5.048L-22.484-34.908z M-28.703-10.692l0.695,0.292l0.183,0.549l-0.658,1.098l0.804,0.842l-0.109,0.768l0.365,0.438
		l2.378-0.622l1.023-0.986L-24.35-9.34l-0.219-0.768l0.329-0.146l0.805,0.183l0.951-0.183v-0.365l1.061-1.062l0.694,0.294
		l0.696-0.439l-0.074-0.512l-0.476-1.61l0.513-1.097l0.951-1.135l-0.293-1.756l1.317-1.316l-1.317-1.244l-0.365-0.072l-0.403-2.926
		l-0.073-0.148l-1.866,1.428l-1.316,0.731l-2.342-0.842l-0.804-1.682l-1.318,0.877l-0.512,0.146l0.33,0.694l1.244,1.025l0.402,1.206
		l0.256,1.756l-1.5,1.171l-1.353,3.183l0.146,0.731l0.841-0.768l0.256,0.256l-1.024,1.535L-28.703-10.692z M-28.703-10.692
		l-0.878,0.183l-1.17,1.756l-0.732,0.695l0.183,0.438l-4.06,4.281l-1.975,3.109l-0.696,1.244l-1.865,0.914l-1.061,2.121h-1.17
		l-1.316,1.39l-0.11,0.988l-0.512,0.987v0.549l-1.756,1.134l-1.28,0.951l-1.244,1.207l-0.585,0.622l-0.439-0.622l-2.304,1.281
		l-0.33,0.072v0.622l-0.658,1.316l0.439,1.244l0.951,1.17l-0.073,0.549l3.036,2.159l2.232,2.23l1.134,0.55l1.5-0.659l0.402-0.549
		l0.073-0.951l0.805-1.316l0.292-2.561l1.573-0.622l1.061-0.22l1.865-3.694l-0.548-2.634l0.878-2.78l1.939-1.902l0.549-1.938
		l0.805-0.513l1.134,0.696l2.048-1.829l0.256-2.195l0.915-1.902l0.183-1.609l1.792-1.976l-0.365-0.438l0.109-0.768l-0.804-0.842
		l0.658-1.098l-0.183-0.549L-28.703-10.692z M-37.373,11.877l2.378,0.402l1.134,1.134l0.256,1.317l0.585,0.438l-0.146,1.573
		l0.438,0.438l0.769,0.477l0.769,2.194l0.622,0.438l1.756-1.316l0.512,0.219l2.231-1.499l1.28,0.293l2.743-0.77l0.988-0.511
		l2.341,2.999l3.329-0.658l2.414-2.89l-0.548-1.939l0.037-2.122l-0.878-2.012l0.146-1.572l1.316-1.391V6.39l2.67-1.353l1.098,2.268
		l0.988-2.744l-0.183-1.499l-4.975-0.329l-3.476-2.598l-0.146-3l-1.5-1.573l-0.585-1.938l-0.329-0.512l-0.695-4.938l-0.696,0.439
		l-0.694-0.294l-1.061,1.062v0.365l-0.951,0.183l-0.805-0.183l-0.329,0.146l0.219,0.768l0.329,1.025l-1.023,0.986l-2.378,0.622
		l-1.792,1.976l-0.183,1.609l-0.915,1.902l-0.256,2.195l-2.048,1.829l-1.134-0.696l-0.805,0.513l-0.549,1.938l-1.939,1.902
		l-0.878,2.78L-37.373,11.877z M-9.133,7.305l0.988-2.744l-0.183-1.499l-4.975-0.329l-3.476-2.598l-0.146-3l-1.5-1.573l-0.585-1.938
		l-0.329-0.512l-0.695-4.938l-0.074-0.512l2.378,0.877l-0.439,0.988l0.476,1.206l0.732-0.512l-0.439-2.378l0.365-0.439l0.878,2.049
		l0.366-0.328l-0.073-2.927l0.439-0.257l1.39,1.757l0.512,0.878l1.244-1.172l0.074-0.621l-2.854-3.037l0.183-0.767l-0.329-0.878
		l-1.061-0.366l-0.073-1.938l3.731-1.098h0.513l0.146,1.391l1.5,0.109l1.134,0.951l0.183,0.805l-0.622,0.694l-0.585,1.939
		l0.731,0.695l0.585,0.071l0.183,0.55l-0.329,0.878l0.109,0.512l1.061,0.403l0.878,0.878l1.755-1.428l0.22-0.694l0.914-1.208
		l0.146,0.184l2.377-1.133h0.037l0.988,1.278l-0.037,1.318l0.366,1.828L-0.72-10.4l-0.951,0.073l-1.244-1.06h-0.329L-6.17-8.352
		l-0.11,1.391l-0.439,0.877l0.768,1.135l0.512,0.109l2.561,1.975l2.853,2.561l0.952,1.428l1.901,2.561L2.134,3.574l-1.83,1.646
		l-1.17,0.108l-1.463-0.036l-0.183,0.512l-2.415,1.682L-7.743,7.89L-9.133,7.305z M7.693-5.828L8.827-7.07v-0.513L8.023-8.754
		l3.035-1.428l0.805,0.513l0.695-0.183l0.877-1.316l2.378-0.915l2.013,0.439l1.207-1.281l-0.037-0.548l-0.95-1.243l0.438-1.208
		l-0.769-1.17l0.513-0.623l0.109-1.205l-0.695-1.428l-1.316-0.182l-0.622,0.547l-1.061,0.439l-0.512,1.28l-0.805,0.878l-1.5-1.244
		l-1.391,0.586l-0.694-0.621l-4.134,1.463l-1.317-1.135l-0.805,0.329l-1.792,1.464H0.743l-0.878,0.694l-1.536,0.147l0.988,1.278
		l-0.037,1.318l0.366,1.828L-0.72-10.4l-0.951,0.073l-1.244-1.06h-0.329L-6.17-8.352l-0.11,1.391l-0.439,0.877l0.768,1.135
		l0.512,0.109l2.561,1.975l2.853,2.561l0.952,1.428l1.901,2.561l1.793-2.818l-0.073-2.01l0.914-1.208L5.389-5.792l0.549-0.365
		l0.878,0.403L7.693-5.828z M48.955-40.834l-1.865-0.914l-1.426,0.549l-1.5,2.23l-1.061,0.256l-1.5,0.951l-4.133,0.22l-1.061,0.878
		l-2.049,2.45l-1.61,3.585l-2.304,3.146l-3.403,4.72l-1.5,3.62l-0.292,0.365l-1.024,1.135l-0.622,2.085l1.683-1.61l0.146-1.354
		l0.037-0.292l0.402,0.036l0.183,0.951l-0.622,0.806l-1.975,2.011l-0.768,2.927l-2.781,0.805l-0.694-0.438l-1.39,0.073l1.207-1.281
		l-0.037-0.548l-0.95-1.243l0.438-1.208l-0.769-1.17l0.513-0.623l0.109-1.205l0.622-1.392l0.438-0.255l0.586,0.183l0.768-0.622
		l-0.438-1.83H19.07l-0.622-0.621l0.256-0.805l-0.293-1.061l0.183-0.586l0.255-0.293l1.829,1.428l0.585,0.621l0.439-0.438
		l-0.145-0.987l0.622,0.365l0.475,1.976l0.549,0.256l0.439-0.438l0.073-0.549l1.281-0.768l-0.256-0.696l-1.061-0.183v-1.244
		l1.061-0.768l1.317,0.695l1.39-0.658l0.256-0.293l-0.914-1.318v-1.572l-0.878-0.914l0.988-1.463l1.427-0.878l0.146-0.257
		l-1.207-0.621l0.549-1.902l-0.878-0.182v-0.879l1.427-0.695l0.147-0.731l1.316,0.183l0.366,0.146l0.695-0.622l0.549,0.622
		l0.072,0.513l1.134-0.365l2.231-2.671l2.013-0.439l0.548-1.244l-0.512-1.39l0.183-0.694l0.988-0.952l3.329,1.427l0.329-0.329
		l-0.072-0.987l1.244-0.842l0.292-0.988l2.524-0.291l5.486,0.035l1.171,1.318l0.366,0.512l-0.366,0.549v0.146l-1.134,1.499
		l-1.024,0.548l-0.877,0.732l0.109,0.731L48.955-40.834z M25.983,14.107l0.476-0.438l-1.098-3.841l-1.06-2.085l-0.987-4.572
		L23.13,3.244l0.841,4.499l0.842,1.792l-0.402,0.293l-0.293-0.585L23.35,9.5l-0.622-0.622l0.255-0.622l-0.255-1.207l0.695-0.622
		l-0.476-0.805l0.073-1.39l-0.512-0.879l0.074-0.256l0.621-0.365l-0.33-1.573l-0.036-4.316l0.219-3.694v-1.573l-0.841-1.829
		l0.476-1.829l-2.781,0.805l-0.694-0.438l-1.39,0.073l-2.013-0.439l-2.378,0.915l-0.877,1.316l-0.695,0.183l-0.805-0.513
		L8.023-8.754l0.804,1.171v0.513L7.693-5.828l0.403,1.317h0.877v1.646l0.439,0.623l1.061,0.183l1.17,1.243l-0.768,1.5l0.109,2.122
		l-0.694,0.658l0.438,0.658l2.012,1.134l0.877,0.183l0.33,2.085L14.57,7.67l0.621-0.256l2.196,1.829l0.659,1.061l-0.805,1.501
		l-0.037,2.268l-0.438,0.438l-1.318-0.366l-1.132,0.731l-0.622,0.11l-0.512,1.316l-1.061,0.549l-0.11,1.646l-1.17,0.439
		l-0.147,1.061L9.815,20.51l-0.037,1.756l-0.109,1.463l-0.878,0.366L8.608,24.79l1.023,1.316l1.061-0.403l0.475-0.768l-0.255-0.987
		l0.694-1.316l-0.073-0.878l1.5-2.707l0.842-2.013l1.829-0.401l1.061-0.879l1.938-0.329l1.389-0.951l3.183-0.256l1.426-0.768
		L25.983,14.107z M2.828,3.684l0.256,1.865l0.329,0.878L2.901,6.939l0.146,0.694l2.122,0.805l0.366,0.622L4.95,10.084l-1.939,1.939
		l-0.256,1.683L1.658,15.06l-0.585,0.365l-0.622,1.208l2.342,2.158l0.512-0.257l0.951,1.06l0.366,1.318l-0.439,0.586H3.486
		l-0.475,0.805l0.183,0.694l2.011,1.134l0.476,1.609l1.062,0.805l1.134-0.877l1.353,1.061l0.402-0.622L8.608,24.79l0.182-0.695
		l0.878-0.366l0.109-1.463l0.037-1.756l0.877-0.512l0.147-1.061l1.17-0.439l0.11-1.646l1.061-0.549l0.512-1.316l0.622-0.11
		l1.132-0.731l1.318,0.366l0.438-0.438l0.037-2.268l0.805-1.501l-0.659-1.061l-2.196-1.829L14.57,7.67l-0.622-0.146l-0.33-2.085
		l-0.877-0.183l-2.012-1.134l-0.438-0.658l0.694-0.658l-0.109-2.122l0.768-1.5l-1.17-1.243L9.413-2.242L8.974-2.865v-1.646H8.097
		L7.693-5.828L6.815-5.754L5.938-6.157L5.389-5.792l0.073,3.439L4.548-1.145l0.073,2.01L2.828,3.684z M-96.595,66.49l14.668-0.402
		l-0.731-1.5l-1.098-0.988l-0.512-1.938l0.183-0.879l1.573-1.279l0.183-0.439l-0.146,0.11l-0.622,0.109l-0.842-4.536l0.183-1.061
		l0.439-0.805l0.402-5.891l0.987-1.865l0.915-0.877l2.525-2.78l1.536-2.634l0.11-0.805l1.316-0.438l0.805-2.854l1.427-0.877
		l0.292-1.5l0.256-0.621v-0.439l-8.706,0.549l0.184,0.805l0.219,1.316l0.622,1.317l-1.792,2.378l-1.317,1.536l-2.854,3.255
		l-1.207,0.915l-2.341,2.122v0.694l-0.512,0.731l0.037,2.414l-1.207,1.207l-0.219,3.073l-1.061,0.878l-0.11,1.756l-1.061,1.756
		l-0.439,0.842l-0.073,0.877l0.548,1.098l-0.439,0.842l-0.769,0.438l-0.475,1.756l-0.988,1.756l0.183,0.695l-0.11,0.22
		L-96.595,66.49z M9.23,26.729l-1.61,2.561l-1.353,0.914l-0.257,0.805L3.67,36.166l-2.379,2.597l-2.852,2.341l-2.195,0.074
		l-2.634,0.694l-0.804-0.731l-0.878-0.073l-1.097-0.731l-0.805-2.121l-1.792-2.524l-0.951-0.11l-4.317-7.863l1.646-8.67l2.414-2.89
		l-0.548-1.939l0.037-2.122l-0.878-2.012l0.146-1.572l1.316-1.391V6.39l2.67-1.353l1.098,2.268l1.39,0.585l2.817-0.403l2.415-1.682
		l0.183-0.512l1.463,0.036l1.17-0.108l1.83-1.646l0.694,0.109l0.256,1.865l0.329,0.878L2.901,6.939l0.146,0.694l2.122,0.805
		l0.366,0.622L4.95,10.084l-1.939,1.939l-0.256,1.683L1.658,15.06l-0.585,0.365l-0.622,1.208l2.342,2.158l0.512-0.257l0.951,1.06
		l0.366,1.318l-0.439,0.586H3.486l-0.475,0.805l0.183,0.694l2.011,1.134l0.476,1.609l1.062,0.805l1.134-0.877L9.23,26.729z
		 M-12.718,35.58l-4.317-7.863l1.646-8.67l-3.329,0.658l-2.341-2.999l-0.988,0.511l-2.743,0.77l-1.28-0.293l-2.231,1.499
		l-0.512-0.219l-1.756,1.316l-0.622-0.438l-0.769-2.194l-0.769-0.477l-0.438-0.438l0.146-1.573l-0.585-0.438l-0.256-1.317
		l-1.134-1.134l-2.378-0.402l-1.865,3.694l-1.061,0.22l-1.573,0.622l-0.292,2.561l-0.805,1.316l-0.073,0.951l-0.402,0.549
		l-1.5,0.659l-1.134-0.55l-0.951,1.171l-0.037,2.633l-0.439,0.77l-1.317,2.158l-0.841,2.377l0.805,0.878l2.268-0.768l0.365,0.366
		l-0.292,3.254l-0.146,4.573l0.621,0.695l0.403,4.645l-0.658,3.768l-0.22,3.696l-0.585,0.256l0.439,1.243l3.86-0.147l-0.056,0.696
		l0.073,2.304l10.389-0.219l1.646-1.865l1.426-1.317l2.305-2.341l1.573-1.5l2.597-1.902l0.695-2.085l0.731-1.061l0.11-2.194
		l1.427-2.268l1.06-0.513l1.391-1.243l1.061-0.111l1.354-1.06l0.805-0.183L-12.718,35.58z M-82.329,59.064l-0.183,0.439
		l-1.573,1.279l-0.183,0.879l0.512,1.938l1.098,0.988l1.171-0.586l21.691-9.766l13.132-0.622l-0.439-1.243l0.585-0.256l0.22-3.696
		l0.658-3.768l-0.403-4.645l-0.621-0.695l0.146-4.573l0.292-3.254l-0.365-0.366l-2.268,0.768l-0.805-0.878l0.841-2.377l1.317-2.158
		l0.439-0.77l0.037-2.633l0.951-1.171l-2.232-2.23l-3.036-2.159l-0.146,1.573l-1.134,1.427l-0.951-0.256l-1.134,0.438l-0.585,2.122
		l-1.39,0.841l-0.987,0.329l-1.244,1.317l-0.438,2.341l0.256,1.536l-1.536,0.403l-0.33-0.184l-0.183-0.184l-0.988,0.622
		l-1.134,1.098l-0.951,2.049l-2.158,1.829l-0.695,0.768v0.879l-1.427,1.901l-0.183,1.61l-0.878,0.584l0.036,0.878l-2.048,3.842
		l-0.074,1.755l-0.658,1.684l-0.987,2.194l0.329,2.085v0.879l-1.134,0.804l-0.805,0.073l-2.048,2.268l-0.878,0.439l-1.061-0.585
		l-2.085,1.499L-82.329,59.064z M-72.745,31.301v-0.438l0.549-2.086l1.609-1.719l0.438-1.427l1.244-1.207l0.439-0.183V23.18
		l0.438-0.951l0.293-1.316l0.622-0.622v1.061l-0.293,0.769l0.183,0.293l1.354-1.391l0.074-0.951l0.439-0.438l-0.184-0.549
		l0.622-1.317l0.147-1.316l-0.439-0.878l1.17-2.45l0.951-0.659l0.256-1.683l1.207-2.341l0.439-1.171l-0.402-2.194l0.438-1.464
		l1.756-1.17l0.439,0.402l0.072,0.879l0.695-0.184l1.536-2.012l0.695-0.257l0.256-1.316l0.549-1.28l1.536-1.939l-0.622-1.828
		l-1.537-1.024l-0.805-0.769l-0.512-0.109l-1.061,1.134l-0.841,3.622l-1.171,1.023l-1.243,0.769l-3.621,3.658l-2.744,2.669h-0.366
		l-0.183,0.915L-68.758,6.5l-0.622,1.061l-0.512,0.183L-70.514,9.5l0.805,4.827l-1.537,3.805l-0.951,0.438l-5.121,4.354
		l-0.549-0.256l-0.951-0.036l-1.316,1.683l-0.805,0.256l-0.988,0.877l-1.756,0.915l-0.366,0.731l-2.743,3.476l0.256,0.146
		l1.938-0.475l1.573,0.438l0.695-0.842l0.804-0.183l1.061-0.439l0.183,0.55l-0.292,0.255l-0.769,0.184l-0.877,0.951l0.768,0.695
		L-72.745,31.301z M-70.148,6.061l-0.548,0.988"/>
	<path fill="#F7F7F7" stroke="#595959" stroke-miterlimit="2" d="M49.177-41.404"/>
	<polygon fill="#FFFFFF" stroke="#FFFFFF" stroke-width="0.5" stroke-miterlimit="2" points="48.955,-40.834 52.065,-39.335 
		54.845,-38.749 55.393,-39.042 56.527,-38.492 58.649,-37.688 59.856,-36.883 60.55,-37.688 61.867,-37.725 61.977,-37.725 
		62.416,-39.042 62.709,-40.286 64.465,-41.492 65.782,-41.383 66.477,-40.504 67.977,-40.762 70.354,-41.09 70.61,-42.041 
		70.72,-45.92 68.196,-46.284 66.879,-44.894 66.331,-44.894 65.855,-43.761 65.27,-43.321 65.16,-42.699 64.099,-42.188 
		63.404,-42.188 62.526,-42.992 60.88,-43.725 58.539,-46.102 56.783,-44.199 56.93,-42.627 54.991,-41.932 54.149,-44.383 
		52.759,-46.357 52.394,-45.809 52.394,-45.662 51.26,-44.163 50.236,-43.615 49.358,-42.883 49.467,-42.151 	"/>
</symbol>
<use xlink:href="#Nuevo_símbolo_1"  width="194.493" height="133.774" id="XMLID_1_" x="-97.24" y="-66.896" transform="matrix(0.67 0 0 -0.67 74.9961 74.9941)" overflow="visible"/>
<rect x="112.566" y="90.861" fill="#FFFFFF" width="0.971" height="10.681"/>
<polygon fill="#FFFFFF" points="118.392,92.804 121.305,90.861 114.508,90.861 114.508,94.745 121.305,94.745 "/>
</svg>
