<?xml version="1.0" encoding="utf-8"?>
<!-- Generator: Adobe Illustrator 16.0.0, SVG Export Plug-In . SVG Version: 6.00 Build 0)  -->
<!DOCTYPE svg PUBLIC "-//W3C//DTD SVG 1.1//EN" "http://www.w3.org/Graphics/SVG/1.1/DTD/svg11.dtd">
<svg version="1.1" id="Capa_1" xmlns="http://www.w3.org/2000/svg" xmlns:xlink="http://www.w3.org/1999/xlink" x="0px" y="0px"
	 width="466px" height="120px" viewBox="0 0 466 120" enable-background="new 0 0 466 120" xml:space="preserve">
<g>
	<path fill="#FFFFFF" d="M76.446,69.181V43.348H32.688v7.466h9.984V76.64H86.43v-7.459H76.446z M50.665,50.813h17.787v18.367H50.665
		V50.813z"/>
	<path fill="#FFFFFF" d="M59.562,110.004c-27.573,0-50.007-22.435-50.007-50.012c0-27.568,22.434-49.996,50.007-49.996
		c27.572,0,50.001,22.428,50.001,49.996C109.562,87.569,87.134,110.004,59.562,110.004 M59.562,18.096
		c-23.106,0-41.903,18.795-41.903,41.896c0,23.111,18.797,41.906,41.903,41.906c23.102,0,41.903-18.795,41.903-41.906
		C101.465,36.891,82.663,18.096,59.562,18.096"/>
	<polygon fill="#FFFFFF" points="153.132,38.685 141.839,38.685 141.839,62.004 134.706,62.004 134.706,38.685 123.411,38.685 
		123.411,32.283 153.132,32.283 	"/>
	<polygon fill="#FFFFFF" points="164.886,38.685 164.886,43.988 176.911,43.988 176.911,50.344 164.886,50.344 164.886,55.648 
		180.111,55.648 180.111,62.004 157.752,62.004 157.752,32.283 180.111,32.283 180.111,38.685 	"/>
	<path fill="#FFFFFF" d="M212.166,56.425c-2.835,3.887-7.452,6.356-12.62,6.356c-8.643,0-15.638-6.997-15.638-15.639
		c0-8.643,6.995-15.684,15.638-15.684c5.168,0,9.785,2.515,12.62,6.402l-5.396,3.475c-2.012-1.828-4.253-3.018-7.225-3.018
		c-4.847,0-8.779,3.979-8.779,8.824c0,4.848,3.933,8.779,8.779,8.779c2.972,0,4.847-0.961,7.225-2.972L212.166,56.425z"/>
	<polygon fill="#FFFFFF" points="249.159,32.282 249.159,62.003 242.026,62.003 227.212,44.217 227.212,62.003 220.078,62.003 
		220.078,32.282 227.212,32.282 242.026,50.801 242.026,32.282 	"/>
	<path fill="#FFFFFF" d="M286.746,47.188c0,8.642-6.996,15.639-15.637,15.639c-8.688,0-15.685-6.997-15.685-15.639
		s6.996-15.683,15.685-15.683C279.75,31.506,286.746,38.547,286.746,47.188 M279.888,47.188c0-4.847-3.932-8.825-8.778-8.825
		c-4.894,0-8.825,3.979-8.825,8.825s3.932,8.78,8.825,8.78C275.956,55.969,279.888,52.035,279.888,47.188"/>
	<polygon fill="#FFFFFF" points="320.402,38.685 309.108,38.685 309.108,62.004 301.976,62.004 301.976,38.685 290.682,38.685 
		290.682,32.283 320.402,32.283 	"/>
	<path fill="#FFFFFF" d="M343.22,57.934h-14.403l-2.011,4.07h-8.049l14.771-29.721h5.395l14.221,29.721h-7.909L343.22,57.934z
		 M340.432,52.127l-4.437-9.557l-4.205,9.557H340.432z"/>
	<path fill="#FFFFFF" d="M384.968,52.493c0,5.943-4.664,9.51-9.189,9.51h-16.781V32.282h15.912c4.297,0,8.87,3.109,8.87,8.87
		c0,1.967-0.502,3.659-1.234,5.03C383.917,47.782,384.968,49.888,384.968,52.493 M366.13,43.896h8.367
		c1.372-0.046,2.606-1.234,2.606-2.881s-1.234-2.927-2.606-2.927h-8.367V43.896z M378.43,52.858c0-1.875-1.372-3.155-2.927-3.155
		h-9.373v6.311h9.373C377.104,56.014,378.43,54.643,378.43,52.858"/>
	<polygon fill="#FFFFFF" points="416.43,54.871 416.43,62.003 390.687,62.003 390.687,32.282 397.82,32.282 397.82,54.871 	"/>
	<path fill="#FFFFFF" d="M446.06,57.934h-14.403l-2.012,4.07h-8.048l14.77-29.721h5.396l14.221,29.721h-7.91L446.06,57.934z
		 M443.271,52.127l-4.436-9.557l-4.207,9.557H443.271z"/>
	<path fill="#FFFFFF" d="M142.542,86.178h-5.422l-0.757,1.531h-3.03l5.56-11.186h2.03l5.354,11.186h-2.979L142.542,86.178z
		 M141.491,83.992l-1.669-3.597l-1.584,3.597H141.491z"/>
	<path fill="#FFFFFF" d="M160.332,82.1c0,3.098-2.496,5.609-5.593,5.609h-5.301V76.522h5.301
		C158.165,76.522,160.332,79.019,160.332,82.1 M157.647,82.1c0-1.67-1.239-2.893-2.65-2.893h-2.875v5.817h2.875
		C156.39,84.973,157.647,83.769,157.647,82.1"/>
	<polygon fill="#FFFFFF" points="173.322,76.522 168.538,87.709 165.854,87.709 161.052,76.522 164.114,76.522 167.195,83.373 
		170.26,76.522 	"/>
	<path fill="#FFFFFF" d="M183.836,86.178h-5.423l-0.756,1.531h-3.03l5.56-11.186h2.03l5.354,11.186h-2.979L183.836,86.178z
		 M182.785,83.992l-1.669-3.597l-1.584,3.597H182.785z"/>
	<polygon fill="#FFFFFF" points="202.383,76.522 202.383,87.709 199.698,87.709 194.122,81.015 194.122,87.709 191.437,87.709 
		191.437,76.522 194.122,76.522 199.698,83.492 199.698,76.522 	"/>
	<path fill="#FFFFFF" d="M215.685,85.61c-1.067,1.462-2.807,2.393-4.752,2.393c-3.252,0-5.885-2.634-5.885-5.887
		s2.633-5.903,5.885-5.903c1.945,0,3.685,0.946,4.752,2.41l-2.032,1.309c-0.757-0.689-1.601-1.138-2.72-1.138
		c-1.823,0-3.305,1.498-3.305,3.322c0,1.825,1.481,3.305,3.305,3.305c1.119,0,1.825-0.361,2.72-1.119L215.685,85.61z"/>
	<polygon fill="#FFFFFF" points="220.928,78.933 220.928,80.929 225.455,80.929 225.455,83.321 220.928,83.321 220.928,85.318 
		226.659,85.318 226.659,87.71 218.244,87.71 218.244,76.523 226.659,76.523 226.659,78.933 	"/>
	<path fill="#FFFFFF" d="M240.287,82.1c0,3.098-2.495,5.609-5.593,5.609h-5.302V76.522h5.302
		C238.12,76.522,240.287,79.019,240.287,82.1 M237.603,82.1c0-1.67-1.239-2.893-2.649-2.893h-2.875v5.817h2.875
		C236.347,84.973,237.603,83.769,237.603,82.1"/>
	<path fill="#FFFFFF" d="M260.264,80.928v0.26c-0.138,2.306-2.065,4.147-4.405,4.147h-2.309v2.375h-2.735V76.522h5.438
		c2.307,0,3.891,1.962,4.011,4.147V80.928z M257.492,80.928c0-0.911-0.722-1.651-1.634-1.668h-2.309v3.338h2.273
		C256.751,82.598,257.492,81.858,257.492,80.928"/>
	<path fill="#FFFFFF" d="M271.412,86.178h-5.422l-0.757,1.531h-3.029l5.56-11.186h2.03l5.354,11.186h-2.979L271.412,86.178z
		 M270.362,83.992l-1.67-3.597l-1.583,3.597H270.362z"/>
	<polygon fill="#FFFFFF" points="289.962,76.522 289.962,87.709 287.276,87.709 281.7,81.015 281.7,87.709 279.015,87.709 
		279.015,76.522 281.7,76.522 287.276,83.492 287.276,76.522 	"/>
	<polygon fill="#FFFFFF" points="295.532,78.933 295.532,80.929 300.06,80.929 300.06,83.321 295.532,83.321 295.532,85.318 
		301.265,85.318 301.265,87.71 292.848,87.71 292.848,76.523 301.265,76.523 301.265,78.933 	"/>
	<polygon fill="#FFFFFF" points="313.55,85.025 313.55,87.71 303.86,87.71 303.86,76.523 306.544,76.523 306.544,85.025 	"/>
	<polygon fill="#FFFFFF" points="335.144,78.933 330.893,78.933 330.893,87.71 328.209,87.71 328.209,78.933 323.957,78.933 
		323.957,76.523 335.144,76.523 	"/>
	<polygon fill="#FFFFFF" points="340.251,78.933 340.251,80.929 344.777,80.929 344.777,83.321 340.251,83.321 340.251,85.318 
		345.981,85.318 345.981,87.71 337.566,87.71 337.566,76.523 345.981,76.523 345.981,78.933 	"/>
	<path fill="#FFFFFF" d="M358.733,85.61c-1.067,1.462-2.807,2.393-4.752,2.393c-3.252,0-5.885-2.634-5.885-5.887
		s2.633-5.903,5.885-5.903c1.945,0,3.685,0.946,4.752,2.41l-2.031,1.309c-0.758-0.689-1.601-1.138-2.721-1.138
		c-1.822,0-3.304,1.498-3.304,3.322c0,1.825,1.481,3.305,3.304,3.305c1.12,0,1.825-0.361,2.721-1.119L358.733,85.61z"/>
	<polygon fill="#FFFFFF" points="371.825,76.522 371.825,87.709 369.141,87.709 369.141,83.614 364.253,83.614 364.253,87.709 
		361.567,87.709 361.567,76.522 364.253,76.522 364.253,81.204 369.141,81.204 369.141,76.522 	"/>
	<polygon fill="#FFFFFF" points="386.521,76.522 386.521,87.709 383.836,87.709 378.259,81.015 378.259,87.709 375.574,87.709 
		375.574,76.522 378.259,76.522 383.836,83.492 383.836,76.522 	"/>
	<path fill="#FFFFFF" d="M401.353,82.133c0,3.254-2.633,5.887-5.888,5.887c-3.269,0-5.903-2.633-5.903-5.887
		c0-3.253,2.635-5.902,5.903-5.902C398.72,76.23,401.353,78.88,401.353,82.133 M398.77,82.133c0-1.823-1.479-3.321-3.305-3.321
		c-1.841,0-3.321,1.498-3.321,3.321c0,1.824,1.48,3.306,3.321,3.306C397.29,85.438,398.77,83.957,398.77,82.133"/>
	<polygon fill="#FFFFFF" points="413.912,85.025 413.912,87.71 404.222,87.71 404.222,76.523 406.906,76.523 406.906,85.025 	"/>
	<path fill="#FFFFFF" d="M428.777,82.133c0,3.254-2.632,5.887-5.887,5.887c-3.269,0-5.903-2.633-5.903-5.887
		c0-3.253,2.635-5.902,5.903-5.902C426.146,76.23,428.777,78.88,428.777,82.133 M426.195,82.133c0-1.823-1.479-3.321-3.305-3.321
		c-1.841,0-3.321,1.498-3.321,3.321c0,1.824,1.48,3.306,3.321,3.306C424.716,85.438,426.195,83.957,426.195,82.133"/>
	<path fill="#FFFFFF" d="M442.233,85.61h-0.02c-1.066,1.445-2.788,2.375-4.732,2.375c-3.253,0-5.903-2.634-5.903-5.886
		c0-3.254,2.65-5.904,5.903-5.904c1.944,0,3.528,0.809,4.613,2.271l-2.049,1.309c-0.688-0.637-1.445-0.998-2.564-0.998
		c-1.823,0-3.321,1.497-3.321,3.322c0,1.824,1.498,3.304,3.321,3.304c0.947,0,1.791-0.396,2.393-1.016v-1.171h-3.391v-2.15h5.75
		V85.61z"/>
	<polygon fill="#FFFFFF" points="456.445,76.522 451.747,82.993 451.747,87.709 448.407,87.709 448.407,82.993 443.691,76.522 
		447.03,76.522 450.076,80.584 453.105,76.522 	"/>
</g>
</svg>
