<?xml version="1.0" encoding="utf-8"?>
<!-- Generator: Adobe Illustrator 16.0.0, SVG Export Plug-In . SVG Version: 6.00 Build 0)  -->
<!DOCTYPE svg PUBLIC "-//W3C//DTD SVG 1.1//EN" "http://www.w3.org/Graphics/SVG/1.1/DTD/svg11.dtd">
<svg version="1.1" id="Capa_1" xmlns="http://www.w3.org/2000/svg" xmlns:xlink="http://www.w3.org/1999/xlink" x="0px" y="0px"
	 width="466px" height="120px" viewBox="0 0 466 120" enable-background="new 0 0 466 120" xml:space="preserve">
<g>
	<path fill="#FFFFFF" d="M76.67,69.182V43.348H32.914v7.465h9.984v25.826h43.757v-7.457H76.67z M50.891,50.812h17.787v18.369H50.891
		V50.812z"/>
	<path fill="#FFFFFF" d="M59.786,110.004c-27.573,0-50.006-22.436-50.006-50.012c0-27.568,22.433-49.996,50.006-49.996
		s50.001,22.428,50.001,49.996C109.787,87.568,87.359,110.004,59.786,110.004 M59.786,18.096c-23.105,0-41.903,18.795-41.903,41.896
		c0,23.111,18.798,41.906,41.903,41.906c23.103,0,41.903-18.795,41.903-41.906C101.689,36.891,82.889,18.096,59.786,18.096"/>
	<polygon fill="#FFFFFF" points="153.357,38.684 142.064,38.684 142.064,62.004 134.931,62.004 134.931,38.684 123.637,38.684 
		123.637,32.283 153.357,32.283 	"/>
	<polygon fill="#FFFFFF" points="165.111,38.684 165.111,43.988 177.135,43.988 177.135,50.344 165.111,50.344 165.111,55.648 
		180.337,55.648 180.337,62.004 157.977,62.004 157.977,32.283 180.337,32.283 180.337,38.684 	"/>
	<path fill="#FFFFFF" d="M212.391,56.424c-2.834,3.887-7.452,6.357-12.619,6.357c-8.642,0-15.639-6.998-15.639-15.639
		c0-8.643,6.997-15.682,15.639-15.682c5.167,0,9.785,2.514,12.619,6.4l-5.395,3.475c-2.013-1.828-4.254-3.018-7.225-3.018
		c-4.848,0-8.779,3.977-8.779,8.824s3.932,8.779,8.779,8.779c2.971,0,4.846-0.961,7.225-2.973L212.391,56.424z"/>
	<polygon fill="#FFFFFF" points="249.384,32.283 249.384,62.004 242.25,62.004 227.437,44.217 227.437,62.004 220.304,62.004 
		220.304,32.283 227.437,32.283 242.25,50.801 242.25,32.283 	"/>
	<path fill="#FFFFFF" d="M286.972,47.188c0,8.643-6.997,15.639-15.638,15.639c-8.689,0-15.684-6.996-15.684-15.639
		c0-8.641,6.994-15.684,15.684-15.684C279.975,31.504,286.972,38.547,286.972,47.188 M280.113,47.188
		c0-4.846-3.933-8.824-8.779-8.824c-4.893,0-8.824,3.979-8.824,8.824s3.932,8.781,8.824,8.781
		C276.181,55.969,280.113,52.033,280.113,47.188"/>
	<polygon fill="#FFFFFF" points="320.627,38.684 309.333,38.684 309.333,62.004 302.201,62.004 302.201,38.684 290.906,38.684 
		290.906,32.283 320.627,32.283 	"/>
	<path fill="#FFFFFF" d="M343.445,57.934h-14.404l-2.012,4.07h-8.047l14.77-29.721h5.395l14.221,29.721h-7.909L343.445,57.934z
		 M340.656,52.127l-4.436-9.557l-4.206,9.557H340.656z"/>
	<path fill="#FFFFFF" d="M385.192,52.492c0,5.943-4.663,9.512-9.19,9.512h-16.78V32.283h15.912c4.298,0,8.87,3.107,8.87,8.869
		c0,1.967-0.502,3.658-1.234,5.029C384.142,47.781,385.192,49.887,385.192,52.492 M366.354,43.896h8.368
		c1.371-0.047,2.605-1.234,2.605-2.881s-1.234-2.928-2.605-2.928h-8.368V43.896z M378.654,52.857c0-1.875-1.371-3.154-2.926-3.154
		h-9.374v6.311h9.374C377.328,56.014,378.654,54.643,378.654,52.857"/>
	<polygon fill="#FFFFFF" points="416.654,54.871 416.654,62.004 390.911,62.004 390.911,32.283 398.045,32.283 398.045,54.871 	"/>
	<path fill="#FFFFFF" d="M446.285,57.934h-14.404l-2.012,4.07h-8.047l14.77-29.721h5.395l14.221,29.721h-7.909L446.285,57.934z
		 M443.496,52.127l-4.436-9.557l-4.207,9.557H443.496z"/>
	<polygon fill="#FFFFFF" points="137.699,78.75 137.699,80.82 142.389,80.82 142.389,83.297 137.699,83.297 137.699,85.367 
		143.637,85.367 143.637,87.848 134.917,87.848 134.917,76.254 143.637,76.254 143.637,78.75 	"/>
	<polygon fill="#FFFFFF" points="158.514,85.064 158.514,87.848 148.473,87.848 148.473,76.254 151.256,76.254 151.256,85.064 	"/>
	<polygon fill="#FFFFFF" points="186.625,76.254 186.625,87.848 183.843,87.848 183.843,81.926 181.113,87.848 179.9,87.848 
		177.226,81.979 177.226,87.848 174.426,87.848 174.426,76.254 177.226,76.254 177.226,76.309 180.508,82.818 183.843,76.254 
		183.843,76.273 183.843,76.254 	"/>
	<path fill="#FFFFFF" d="M203.464,82.033c0,3.209-2.587,5.812-5.797,5.812h-5.493V76.254h5.493
		C201.215,76.254,203.464,78.84,203.464,82.033 M200.682,82.033c0-1.73-1.285-2.996-2.746-2.996h-2.979v6.027h2.979
		C199.379,85.01,200.682,83.764,200.682,82.033"/>
	<polygon fill="#FFFFFF" points="211.046,78.75 211.046,81.389 215.736,81.389 215.736,83.887 211.046,83.887 211.046,87.848 
		208.264,87.848 208.264,78.75 208.264,76.254 217.003,76.254 217.003,78.75 	"/>
	<path fill="#FFFFFF" d="M243.579,82.033c0,3.209-2.586,5.812-5.796,5.812h-5.493V76.254h5.493
		C241.332,76.254,243.579,78.84,243.579,82.033 M240.799,82.033c0-1.73-1.285-2.996-2.748-2.996h-2.978v6.027h2.978
		C239.496,85.01,240.799,83.764,240.799,82.033"/>
	<polygon fill="#FFFFFF" points="250.842,78.75 250.842,80.82 255.532,80.82 255.532,83.297 250.842,83.297 250.842,85.367 
		256.779,85.367 256.779,87.848 248.059,87.848 248.059,76.254 256.779,76.254 256.779,78.75 	"/>
	<path fill="#FFFFFF" d="M281.967,84.137c0,2.318-1.82,3.711-3.584,3.711h-6.547V76.254h6.207c1.677,0,3.461,1.213,3.461,3.459
		c0,0.768-0.198,1.428-0.483,1.963C281.556,82.301,281.967,83.119,281.967,84.137 M274.619,80.783h3.263
		c0.536-0.018,1.017-0.48,1.017-1.123c0-0.641-0.48-1.143-1.017-1.143h-3.263V80.783z M279.416,84.279c0-0.73-0.535-1.23-1.142-1.23
		h-3.655v2.461h3.655C278.898,85.51,279.416,84.975,279.416,84.279"/>
	<path fill="#FFFFFF" d="M298.09,76.254v5.688c0,3.729-2.604,6.207-5.886,6.207c-3.299,0-5.902-2.479-5.902-6.207v-5.688h2.836
		v5.688c0,1.822,1.284,3.336,3.066,3.336c1.767,0,3.05-1.514,3.05-3.336v-5.688H298.09z"/>
	<polygon fill="#FFFFFF" points="305.441,78.75 305.441,80.82 310.132,80.82 310.132,83.297 305.441,83.297 305.441,85.367 
		311.381,85.367 311.381,87.848 302.66,87.848 302.66,76.254 311.381,76.254 311.381,78.75 	"/>
	<polygon fill="#FFFFFF" points="328.432,76.254 328.432,87.848 325.65,87.848 319.871,80.91 319.871,87.848 317.088,87.848 
		317.088,76.254 319.871,76.254 325.65,83.477 325.65,76.254 	"/>
	<path fill="#FFFFFF" d="M342.811,86.258h-5.619l-0.783,1.59h-3.14l5.761-11.594h2.104l5.547,11.594h-3.086L342.811,86.258z
		 M341.723,83.994l-1.73-3.729l-1.641,3.729H341.723z"/>
	<polygon fill="#FFFFFF" points="374.631,76.254 374.631,87.848 371.85,87.848 371.85,81.926 369.12,87.848 367.906,87.848 
		365.23,81.979 365.23,87.848 362.432,87.848 362.432,76.254 365.23,76.254 365.23,76.309 368.514,82.818 371.85,76.254 
		371.85,76.273 371.85,76.254 	"/>
	<path fill="#FFFFFF" d="M389.009,86.258h-5.618l-0.785,1.59h-3.139l5.762-11.594h2.104l5.547,11.594h-3.086L389.009,86.258z
		 M387.921,83.994l-1.73-3.729l-1.64,3.729H387.921z"/>
	<path fill="#FFFFFF" d="M409.591,82.033c0,3.209-2.585,5.812-5.796,5.812h-5.493V76.254h5.493
		C407.345,76.254,409.591,78.84,409.591,82.033 M406.811,82.033c0-1.73-1.285-2.996-2.748-2.996h-2.978v6.027h2.978
		C405.508,85.01,406.811,83.764,406.811,82.033"/>
	<polygon fill="#FFFFFF" points="416.854,78.75 416.854,80.82 421.545,80.82 421.545,83.297 416.854,83.297 416.854,85.367 
		422.793,85.367 422.793,87.848 414.072,87.848 414.072,76.254 422.793,76.254 422.793,78.75 	"/>
	<path fill="#FFFFFF" d="M434.637,87.846l-1.908-2.889h-2.033v2.889h-2.836V76.254h5.636c2.372,0,4.155,2.033,4.155,4.566
		c0,1.676-0.838,2.871-2.068,3.531l2.55,3.494H434.637z M430.695,82.406h2.354c0.946,0,1.729-0.623,1.729-1.586
		c0-0.945-0.766-1.713-1.712-1.713h-2.371V82.406z"/>
	<path fill="#FFFFFF" d="M452.35,86.258h-5.618l-0.785,1.59h-3.139l5.761-11.594h2.104l5.547,11.594h-3.085L452.35,86.258z
		 M451.262,83.994l-1.73-3.729l-1.64,3.729H451.262z"/>
</g>
</svg>
